<?xml version="1.0" encoding="UTF-8"?>
<!DOCTYPE svg PUBLIC "-//W3C//DTD SVG 1.1//EN" "http://www.w3.org/Graphics/SVG/1.1/DTD/svg11.dtd">
<svg xmlns="http://www.w3.org/2000/svg" version="1.1" width="72px" height="72px" style="shape-rendering:geometricPrecision; text-rendering:geometricPrecision; image-rendering:optimizeQuality; fill-rule:evenodd; clip-rule:evenodd" xmlns:xlink="http://www.w3.org/1999/xlink">
<g><path style="opacity:1" fill="#fdfefe" d="M -0.5,-0.5 C 23.5,-0.5 47.5,-0.5 71.5,-0.5C 71.5,5.5 71.5,11.5 71.5,17.5C 47.5,17.5 23.5,17.5 -0.5,17.5C -0.5,11.5 -0.5,5.5 -0.5,-0.5 Z"/></g>
<g><path style="opacity:1" fill="#4fb4da" d="M -0.5,18.5 C -0.5,18.1667 -0.5,17.8333 -0.5,17.5C 23.5,17.5 47.5,17.5 71.5,17.5C 71.5,17.8333 71.5,18.1667 71.5,18.5C 69.0976,20.9092 66.4309,22.9092 63.5,24.5C 63.5,23.5 63.5,22.5 63.5,21.5C 64.5,21.5 65.5,21.5 66.5,21.5C 66.5,20.5 66.5,19.5 66.5,18.5C 44.1667,18.5 21.8333,18.5 -0.5,18.5 Z"/></g>
<g><path style="opacity:1" fill="#2ca4da" d="M -0.5,18.5 C 21.8333,18.5 44.1667,18.5 66.5,18.5C 66.5,19.5 66.5,20.5 66.5,21.5C 65.5,21.5 64.5,21.5 63.5,21.5C 63.5,22.5 63.5,23.5 63.5,24.5C 63.2624,26.4044 62.2624,27.7377 60.5,28.5C 60.5,27.5 60.5,26.5 60.5,25.5C 57.911,26.1273 55.411,26.1273 53,25.5C 51.699,25.6387 50.8656,26.3054 50.5,27.5C 49.7109,27.2172 49.0442,26.7172 48.5,26C 44.1794,25.501 39.8461,25.3343 35.5,25.5C 34.8333,29.1667 34.1667,32.8333 33.5,36.5C 32.1736,33.2273 30.8403,29.8939 29.5,26.5C 27.9547,25.5481 26.288,25.2148 24.5,25.5C 22.7263,26.3696 21.393,27.703 20.5,29.5C 20.7254,27.2841 19.8921,25.6174 18,24.5C 17.9504,26.744 17.1171,28.4107 15.5,29.5C 15.5394,28.4168 15.8728,27.4168 16.5,26.5C 11.7581,23.7701 7.09148,23.9368 2.5,27C 0.963167,28.1096 0.2965,29.6096 0.5,31.5C 0.166667,31.5 -0.166667,31.5 -0.5,31.5C -0.5,27.1667 -0.5,22.8333 -0.5,18.5 Z"/></g>
<g><path style="opacity:1" fill="#3896d1" d="M 60.5,28.5 C 59.5,30.1667 58.1667,31.5 56.5,32.5C 54.9545,31.3604 53.2879,30.3604 51.5,29.5C 51.1667,28.8333 50.8333,28.1667 50.5,27.5C 50.8656,26.3054 51.699,25.6387 53,25.5C 55.411,26.1273 57.911,26.1273 60.5,25.5C 60.5,26.5 60.5,27.5 60.5,28.5 Z"/></g>
<g><path style="opacity:1" fill="#edf9fb" d="M 15.5,29.5 C 12.5142,29.314 9.51418,29.814 6.5,31C 10.0861,32.5419 13.4194,34.3753 16.5,36.5C 16.2648,37.0967 15.7648,37.4301 15,37.5C 13.1049,35.8179 10.9383,35.3179 8.5,36C 9.75598,36.4169 10.4226,37.2502 10.5,38.5C 5.45553,38.4361 2.12219,36.1027 0.5,31.5C 0.2965,29.6096 0.963167,28.1096 2.5,27C 7.09148,23.9368 11.7581,23.7701 16.5,26.5C 15.8728,27.4168 15.5394,28.4168 15.5,29.5 Z"/></g>
<g><path style="opacity:1" fill="#358dc4" d="M 20.5,29.5 C 20.1218,31.921 19.4552,34.2543 18.5,36.5C 17.8333,36.5 17.1667,36.5 16.5,36.5C 13.4194,34.3753 10.0861,32.5419 6.5,31C 9.51418,29.814 12.5142,29.314 15.5,29.5C 17.1171,28.4107 17.9504,26.744 18,24.5C 19.8921,25.6174 20.7254,27.2841 20.5,29.5 Z"/></g>
<g><path style="opacity:1" fill="#fcfbf8" d="M 41.5,34.5 C 43.0419,35.1635 44.7086,35.8302 46.5,36.5C 44.3449,37.0014 42.6782,38.0014 41.5,39.5C 40.5386,41.2646 40.2053,43.2646 40.5,45.5C 38.5,45.5 36.5,45.5 34.5,45.5C 33.791,44.596 32.791,44.2627 31.5,44.5C 31.5,43.5 31.5,42.5 31.5,41.5C 33.674,41.0798 35.674,41.0798 37.5,41.5C 37.8333,41 38.1667,40.5 38.5,40C 36.7014,35.7048 36.0348,31.2048 36.5,26.5C 37.8734,26.3433 39.2068,26.51 40.5,27C 40.0426,27.414 39.7093,27.914 39.5,28.5C 40.0505,30.6568 40.7171,32.6568 41.5,34.5 Z"/></g>
<g><path style="opacity:1" fill="#538fb3" d="M 51.5,29.5 C 53.2879,30.3604 54.9545,31.3604 56.5,32.5C 54.1667,35.5 51.5,38.1667 48.5,40.5C 48.1583,39.6618 47.4916,39.3284 46.5,39.5C 51.2091,37.7134 52.8757,34.3801 51.5,29.5 Z"/></g>
<g><path style="opacity:1" fill="#347bb4" d="M -0.5,31.5 C -0.166667,31.5 0.166667,31.5 0.5,31.5C 2.12219,36.1027 5.45553,38.4361 10.5,38.5C 11.5981,39.397 11.5981,40.2303 10.5,41C 7.76436,41.4217 5.09769,41.4217 2.5,41C 0.701077,42.6998 0.367743,44.5331 1.5,46.5C 0.833333,46.5 0.166667,46.5 -0.5,46.5C -0.5,41.5 -0.5,36.5 -0.5,31.5 Z"/></g>
<g><path style="opacity:1" fill="#e4f5fb" d="M 24.5,25.5 C 24.3939,28.0786 25.0605,30.412 26.5,32.5C 24.9261,34.1016 24.2594,36.1016 24.5,38.5C 26.1788,38.7148 27.1788,38.0481 27.5,36.5C 29.0481,36.8212 29.7148,37.8212 29.5,39.5C 27.1667,39.5 24.8333,39.5 22.5,39.5C 22.6646,37.1732 23.3313,35.0065 24.5,33C 23.9535,32.0754 23.2868,31.2421 22.5,30.5C 21.6971,33.0216 20.3638,35.0216 18.5,36.5C 19.4552,34.2543 20.1218,31.921 20.5,29.5C 21.393,27.703 22.7263,26.3696 24.5,25.5 Z"/></g>
<g><path style="opacity:1" fill="#f2f8f8" d="M 24.5,25.5 C 26.288,25.2148 27.9547,25.5481 29.5,26.5C 30.8403,29.8939 32.1736,33.2273 33.5,36.5C 33.4614,37.7562 33.9614,38.7562 35,39.5C 35.4992,34.8452 35.6658,30.1785 35.5,25.5C 39.8461,25.3343 44.1794,25.501 48.5,26C 49.0442,26.7172 49.7109,27.2172 50.5,27.5C 50.8333,28.1667 51.1667,28.8333 51.5,29.5C 52.8757,34.3801 51.2091,37.7134 46.5,39.5C 44.8333,39.5 43.1667,39.5 41.5,39.5C 42.6782,38.0014 44.3449,37.0014 46.5,36.5C 44.7086,35.8302 43.0419,35.1635 41.5,34.5C 40.7171,32.6568 40.0505,30.6568 39.5,28.5C 39.7093,27.914 40.0426,27.414 40.5,27C 39.2068,26.51 37.8734,26.3433 36.5,26.5C 36.0348,31.2048 36.7014,35.7048 38.5,40C 38.1667,40.5 37.8333,41 37.5,41.5C 35.674,41.0798 33.674,41.0798 31.5,41.5C 31.5,42.5 31.5,43.5 31.5,44.5C 32.791,44.2627 33.791,44.596 34.5,45.5C 33.1667,45.5 31.8333,45.5 30.5,45.5C 28.0122,43.6122 25.0122,42.9455 21.5,43.5C 21.5,44.5 21.5,45.5 21.5,46.5C 17.9581,46.1872 14.6248,46.5206 11.5,47.5C 8.14006,47.3841 4.80673,47.0508 1.5,46.5C 0.367743,44.5331 0.701077,42.6998 2.5,41C 5.09769,41.4217 7.76436,41.4217 10.5,41C 11.5981,40.2303 11.5981,39.397 10.5,38.5C 10.4226,37.2502 9.75598,36.4169 8.5,36C 10.9383,35.3179 13.1049,35.8179 15,37.5C 15.7648,37.4301 16.2648,37.0967 16.5,36.5C 17.1667,36.5 17.8333,36.5 18.5,36.5C 20.3638,35.0216 21.6971,33.0216 22.5,30.5C 23.2868,31.2421 23.9535,32.0754 24.5,33C 23.3313,35.0065 22.6646,37.1732 22.5,39.5C 24.8333,39.5 27.1667,39.5 29.5,39.5C 29.7148,37.8212 29.0481,36.8212 27.5,36.5C 27.1667,35.1667 26.8333,33.8333 26.5,32.5C 25.0605,30.412 24.3939,28.0786 24.5,25.5 Z"/></g>
<g><path style="opacity:1" fill="#4e80ab" d="M 26.5,32.5 C 26.8333,33.8333 27.1667,35.1667 27.5,36.5C 27.1788,38.0481 26.1788,38.7148 24.5,38.5C 24.2594,36.1016 24.9261,34.1016 26.5,32.5 Z"/></g>
<g><path style="opacity:1" fill="#7cb2cd" d="M 35.5,25.5 C 35.6658,30.1785 35.4992,34.8452 35,39.5C 33.9614,38.7562 33.4614,37.7562 33.5,36.5C 34.1667,32.8333 34.8333,29.1667 35.5,25.5 Z"/></g>
<g><path style="opacity:1" fill="#3d89ba" d="M 41.5,34.5 C 41.5,32.8333 41.5,31.1667 41.5,29.5C 45.1716,29.1826 46.8383,30.8493 46.5,34.5C 44.8333,34.5 43.1667,34.5 41.5,34.5 Z"/></g>
<g><path style="opacity:1" fill="#356da6" d="M 41.5,39.5 C 43.1667,39.5 44.8333,39.5 46.5,39.5C 47.4916,39.3284 48.1583,39.6618 48.5,40.5C 46.1667,43.5 43.5,46.1667 40.5,48.5C 37.7328,47.0677 35.0662,47.401 32.5,49.5C 25.7127,47.5883 18.7127,46.9217 11.5,47.5C 14.6248,46.5206 17.9581,46.1872 21.5,46.5C 21.5,45.5 21.5,44.5 21.5,43.5C 25.0122,42.9455 28.0122,43.6122 30.5,45.5C 33.9619,46.4816 37.6286,46.815 41.5,46.5C 41.5,44.1667 41.5,41.8333 41.5,39.5 Z"/></g>
<g><path style="opacity:1" fill="#bbd8f1" d="M 41.5,39.5 C 41.5,41.8333 41.5,44.1667 41.5,46.5C 37.6286,46.815 33.9619,46.4816 30.5,45.5C 31.8333,45.5 33.1667,45.5 34.5,45.5C 36.5,45.5 38.5,45.5 40.5,45.5C 40.2053,43.2646 40.5386,41.2646 41.5,39.5 Z"/></g>
<g><path style="opacity:1" fill="#fcfdfc" d="M 71.5,18.5 C 71.5,24.5 71.5,30.5 71.5,36.5C 66.2501,35.3852 60.9167,35.2185 55.5,36C 55,36.5 54.5,37 54,37.5C 53.3333,42.1667 53.3333,46.8333 54,51.5C 54.5,52 55,52.5 55.5,53C 60.9167,53.7815 66.2501,53.6148 71.5,52.5C 71.5,58.8333 71.5,65.1667 71.5,71.5C 47.5,71.5 23.5,71.5 -0.5,71.5C -0.5,65.5 -0.5,59.5 -0.5,53.5C 11.8378,53.6665 24.1712,53.4999 36.5,53C 38.0414,51.6288 39.3747,50.1288 40.5,48.5C 43.5,46.1667 46.1667,43.5 48.5,40.5C 51.5,38.1667 54.1667,35.5 56.5,32.5C 58.1667,31.5 59.5,30.1667 60.5,28.5C 62.2624,27.7377 63.2624,26.4044 63.5,24.5C 66.4309,22.9092 69.0976,20.9092 71.5,18.5 Z"/></g>
<g><path style="opacity:1" fill="#336ab0" d="M -0.5,46.5 C 0.166667,46.5 0.833333,46.5 1.5,46.5C 4.80673,47.0508 8.14006,47.3841 11.5,47.5C 18.7127,46.9217 25.7127,47.5883 32.5,49.5C 35.0662,47.401 37.7328,47.0677 40.5,48.5C 39.3747,50.1288 38.0414,51.6288 36.5,53C 24.1712,53.4999 11.8378,53.6665 -0.5,53.5C -0.5,51.1667 -0.5,48.8333 -0.5,46.5 Z"/></g>
<g><path style="opacity:1" fill="#4370ad" d="M 71.5,36.5 C 71.5,41.8333 71.5,47.1667 71.5,52.5C 66.2501,53.6148 60.9167,53.7815 55.5,53C 55,52.5 54.5,52 54,51.5C 53.3333,46.8333 53.3333,42.1667 54,37.5C 54.5,37 55,36.5 55.5,36C 60.9167,35.2185 66.2501,35.3852 71.5,36.5 Z"/></g>
<g><path style="opacity:1" fill="#84baf2" d="M 58.5,41.5 C 58.5,43.5 58.5,45.5 58.5,47.5C 55.8333,45.5 55.8333,43.5 58.5,41.5 Z"/></g>
<g><path style="opacity:1" fill="#396291" d="M 64.5,46.5 C 64.5,46.1667 64.5,45.8333 64.5,45.5C 65.9361,42.4301 64.9361,41.2634 61.5,42C 60.944,42.3826 60.6107,42.8826 60.5,43.5C 60.7709,45.3797 60.1042,46.713 58.5,47.5C 58.5,45.5 58.5,43.5 58.5,41.5C 64.0256,39 67.0256,40.6667 67.5,46.5C 66.5,46.5 65.5,46.5 64.5,46.5 Z"/></g>
<g><path style="opacity:1" fill="#7fa3d6" d="M 64.5,45.5 C 62.9382,45.2671 61.6049,44.6005 60.5,43.5C 60.6107,42.8826 60.944,42.3826 61.5,42C 64.9361,41.2634 65.9361,42.4301 64.5,45.5 Z"/></g>
<g><path style="opacity:1" fill="#96c1eb" d="M 63.5,38.5 C 68.0779,39.8432 69.5779,42.8432 68,47.5C 65.7024,50.5257 62.8691,51.1924 59.5,49.5C 58.6618,49.1583 58.3284,48.4916 58.5,47.5C 60.1042,46.713 60.7709,45.3797 60.5,43.5C 61.6049,44.6005 62.9382,45.2671 64.5,45.5C 64.5,45.8333 64.5,46.1667 64.5,46.5C 65.5,46.5 66.5,46.5 67.5,46.5C 67.0256,40.6667 64.0256,39 58.5,41.5C 59.2998,39.2591 60.9664,38.2591 63.5,38.5 Z"/></g>
<g><path style="opacity:1" fill="#4d6088" d="M 64.5,46.5 C 64.5,47.5 64.5,48.5 64.5,49.5C 59.1667,48.5 59.1667,47.5 64.5,46.5 Z"/></g>
<g><path style="opacity:1" fill="#3164ac" d="M 63.5,38.5 C 60.9664,38.2591 59.2998,39.2591 58.5,41.5C 55.8333,43.5 55.8333,45.5 58.5,47.5C 58.3284,48.4916 58.6618,49.1583 59.5,49.5C 58.713,51.1042 57.3797,51.7709 55.5,51.5C 55.3342,46.8215 55.5008,42.1548 56,37.5C 60.4132,36.3676 64.9132,36.2009 69.5,37C 67.2922,37.1909 65.2922,37.6909 63.5,38.5 Z"/></g>
</svg>
