<?xml version="1.0" encoding="UTF-8"?>
<!DOCTYPE svg PUBLIC "-//W3C//DTD SVG 1.1//EN" "http://www.w3.org/Graphics/SVG/1.1/DTD/svg11.dtd">
<svg xmlns="http://www.w3.org/2000/svg" version="1.1" width="200px" height="200px" style="shape-rendering:geometricPrecision; text-rendering:geometricPrecision; image-rendering:optimizeQuality; fill-rule:evenodd; clip-rule:evenodd" xmlns:xlink="http://www.w3.org/1999/xlink">
<g><path style="opacity:1" fill="#fefefe" d="M -0.5,-0.5 C 66.1667,-0.5 132.833,-0.5 199.5,-0.5C 199.5,16.1667 199.5,32.8333 199.5,49.5C 132.833,49.5 66.1667,49.5 -0.5,49.5C -0.5,32.8333 -0.5,16.1667 -0.5,-0.5 Z"/></g>
<g><path style="opacity:1" fill="#5dc0e7" d="M -0.5,50.5 C -0.5,50.1667 -0.5,49.8333 -0.5,49.5C 66.1667,49.5 132.833,49.5 199.5,49.5C 199.5,49.8333 199.5,50.1667 199.5,50.5C 197.5,52.1667 195.5,53.8333 193.5,55.5C 193.561,53.4078 194.561,51.9078 196.5,51C 130.834,50.5 65.1675,50.3333 -0.5,50.5 Z"/></g>
<g><path style="opacity:1" fill="#23abe0" d="M -0.5,50.5 C 65.1675,50.3333 130.834,50.5 196.5,51C 194.561,51.9078 193.561,53.4078 193.5,55.5C 190.833,58.8333 187.833,61.8333 184.5,64.5C 184.389,63.8826 184.056,63.3826 183.5,63C 185.569,60.9344 187.236,58.601 188.5,56C 188.167,55.5 187.833,55 187.5,54.5C 186.646,55.5217 185.646,56.3551 184.5,57C 122.834,57.5 61.1676,57.6667 -0.5,57.5C -0.5,55.1667 -0.5,52.8333 -0.5,50.5 Z"/></g>
<g><path style="opacity:1" fill="#27a1da" d="M 184.5,64.5 C 178.167,71.5 171.5,78.1667 164.5,84.5C 163.333,83.2275 162.499,81.8942 162,80.5C 163.399,79.7734 164.899,79.2734 166.5,79C 168.623,76.7548 170.956,74.7548 173.5,73C 175.025,70.1221 176.692,67.2887 178.5,64.5C 178.167,63.5 177.5,62.8333 176.5,62.5C 174.778,67.2554 171.778,70.9221 167.5,73.5C 166.5,72.8333 165.5,72.1667 164.5,71.5C 163.232,72.4279 161.899,72.5946 160.5,72C 161.731,70.8173 161.731,69.6507 160.5,68.5C 159.571,69.6888 159.238,71.0222 159.5,72.5C 151.074,72.1753 142.74,72.1753 134.5,72.5C 122.606,70.6637 110.606,69.9971 98.5,70.5C 98.5,75.5 98.5,80.5 98.5,85.5C 97.8525,87.4982 97.0192,89.4982 96,91.5C 95.6667,88.1667 95.3333,84.8333 95,81.5C 93.7405,88.9203 91.9072,89.2536 89.5,82.5C 88.5713,83.6888 88.238,85.0222 88.5,86.5C 85.8949,81.5438 83.5615,76.3772 81.5,71C 75.5092,70.5005 69.5092,70.3338 63.5,70.5C 62.2742,76.5148 60.2742,82.1815 57.5,87.5C 56.6105,83.7807 56.6105,80.9474 57.5,79C 56.5509,78.3828 55.7175,78.5494 55,79.5C 53.4008,82.3778 51.5675,85.0445 49.5,87.5C 48.6569,85.7688 48.6569,83.9354 49.5,82C 50.5015,79.8316 51.5015,77.665 52.5,75.5C 52.1543,74.3044 51.6543,74.3044 51,75.5C 50.6667,74.5 50.3333,73.5 50,72.5C 49.338,74.8127 48.838,77.146 48.5,79.5C 47.5,79.5 46.5,79.5 45.5,79.5C 46.9885,77.3549 47.9885,75.0215 48.5,72.5C 44.3072,72.0474 40.3072,70.8808 36.5,69C 23.3555,66.4915 12.5222,70.3249 4,80.5C 2.80108,83.7256 2.30108,87.059 2.5,90.5C 1.6278,86.6507 1.46114,82.6507 2,78.5C 1.06564,79.8584 0.232305,81.1917 -0.5,82.5C -0.5,74.1667 -0.5,65.8333 -0.5,57.5C 61.1676,57.6667 122.834,57.5 184.5,57C 185.646,56.3551 186.646,55.5217 187.5,54.5C 187.833,55 188.167,55.5 188.5,56C 187.236,58.601 185.569,60.9344 183.5,63C 184.056,63.3826 184.389,63.8826 184.5,64.5 Z"/></g>
<g><path style="opacity:1" fill="#fafcfc" d="M 45.5,79.5 C 44.7094,82.1025 43.2094,84.1025 41,85.5C 34.672,82.3514 28.172,81.8514 21.5,84C 19.3424,85.3117 19.0091,86.9783 20.5,89C 28.02,92.3951 35.6866,95.3951 43.5,98C 46.021,100.22 48.1877,102.72 50,105.5C 52.7886,99.5933 55.2886,93.5933 57.5,87.5C 60.2742,82.1815 62.2742,76.5148 63.5,70.5C 69.5092,70.3338 75.5092,70.5005 81.5,71C 83.5615,76.3772 85.8949,81.5438 88.5,86.5C 91.1101,95.052 94.2768,103.385 98,111.5C 98.4998,102.84 98.6664,94.1731 98.5,85.5C 98.5,80.5 98.5,75.5 98.5,70.5C 110.606,69.9971 122.606,70.6637 134.5,72.5C 142.294,76.4173 146.294,82.7506 146.5,91.5C 145.699,95.2347 144.699,98.9014 143.5,102.5C 140.838,105.655 137.505,107.822 133.5,109C 127.565,110.239 121.565,110.739 115.5,110.5C 115.823,117.022 115.49,123.355 114.5,129.5C 105.161,129.666 95.8274,129.5 86.5,129C 85.5574,125.812 84.0574,122.979 82,120.5C 75.1802,121.669 68.3469,121.669 61.5,120.5C 60.5392,123.426 59.8726,126.426 59.5,129.5C 52.9468,130.068 46.6135,129.401 40.5,127.5C 32.6011,131.332 24.2678,132.499 15.5,131C 11.0569,130.128 6.72357,128.962 2.5,127.5C 3.64582,122.201 5.64582,117.201 8.5,112.5C 15.4551,116.663 22.7884,117.496 30.5,115C 31.7596,113.186 31.7596,111.353 30.5,109.5C 23.2309,107.354 16.2309,104.521 9.5,101C 5.69936,98.3859 3.36603,94.8859 2.5,90.5C 2.30108,87.059 2.80108,83.7256 4,80.5C 12.5222,70.3249 23.3555,66.4915 36.5,69C 40.3072,70.8808 44.3072,72.0474 48.5,72.5C 47.9885,75.0215 46.9885,77.3549 45.5,79.5 Z"/></g>
<g><path style="opacity:1" fill="#2698d4" d="M 164.5,84.5 C 162.5,87.1667 160.167,89.5 157.5,91.5C 157.89,86.5776 156.723,86.2443 154,90.5C 153.261,88.7795 152.427,87.1128 151.5,85.5C 149.825,87.5309 148.159,89.5309 146.5,91.5C 146.294,82.7506 142.294,76.4173 134.5,72.5C 142.74,72.1753 151.074,72.1753 159.5,72.5C 159.238,71.0222 159.571,69.6888 160.5,68.5C 161.731,69.6507 161.731,70.8173 160.5,72C 161.899,72.5946 163.232,72.4279 164.5,71.5C 165.5,72.1667 166.5,72.8333 167.5,73.5C 171.778,70.9221 174.778,67.2554 176.5,62.5C 177.5,62.8333 178.167,63.5 178.5,64.5C 176.692,67.2887 175.025,70.1221 173.5,73C 170.956,74.7548 168.623,76.7548 166.5,79C 164.899,79.2734 163.399,79.7734 162,80.5C 162.499,81.8942 163.333,83.2275 164.5,84.5 Z"/></g>
<g><path style="opacity:1" fill="#318dca" d="M 57.5,87.5 C 55.2886,93.5933 52.7886,99.5933 50,105.5C 48.1877,102.72 46.021,100.22 43.5,98C 35.6866,95.3951 28.02,92.3951 20.5,89C 19.0091,86.9783 19.3424,85.3117 21.5,84C 28.172,81.8514 34.672,82.3514 41,85.5C 43.2094,84.1025 44.7094,82.1025 45.5,79.5C 46.5,79.5 47.5,79.5 48.5,79.5C 48.838,77.146 49.338,74.8127 50,72.5C 50.3333,73.5 50.6667,74.5 51,75.5C 51.6543,74.3044 52.1543,74.3044 52.5,75.5C 51.5015,77.665 50.5015,79.8316 49.5,82C 48.6569,83.9354 48.6569,85.7688 49.5,87.5C 51.5675,85.0445 53.4008,82.3778 55,79.5C 55.7175,78.5494 56.5509,78.3828 57.5,79C 56.6105,80.9474 56.6105,83.7807 57.5,87.5 Z"/></g>
<g><path style="opacity:1" fill="#348cc7" d="M 115.5,83.5 C 118.85,83.335 122.183,83.5017 125.5,84C 128.683,85.0183 130.016,87.185 129.5,90.5C 129.674,92.6934 129.007,94.5267 127.5,96C 123.747,97.9889 119.747,98.8222 115.5,98.5C 115.5,93.5 115.5,88.5 115.5,83.5 Z"/></g>
<g><path style="opacity:1" fill="#2c86c5" d="M 157.5,91.5 C 153.5,96.1667 149.167,100.5 144.5,104.5C 144.672,103.508 144.338,102.842 143.5,102.5C 144.699,98.9014 145.699,95.2347 146.5,91.5C 148.159,89.5309 149.825,87.5309 151.5,85.5C 152.427,87.1128 153.261,88.7795 154,90.5C 156.723,86.2443 157.89,86.5776 157.5,91.5 Z"/></g>
<g><path style="opacity:1" fill="#3585c1" d="M 98.5,85.5 C 98.6664,94.1731 98.4998,102.84 98,111.5C 94.2768,103.385 91.1101,95.052 88.5,86.5C 88.238,85.0222 88.5713,83.6888 89.5,82.5C 91.9072,89.2536 93.7405,88.9203 95,81.5C 95.3333,84.8333 95.6667,88.1667 96,91.5C 97.0192,89.4982 97.8525,87.4982 98.5,85.5 Z"/></g>
<g><path style="opacity:1" fill="#3983c2" d="M 72.5,90.5 C 74.9624,95.3707 76.9624,100.537 78.5,106C 78.3552,106.772 78.0219,107.439 77.5,108C 74.2397,108.784 71.0731,108.617 68,107.5C 68.568,101.623 70.068,95.9559 72.5,90.5 Z"/></g>
<g><path style="opacity:1" fill="#fdfefe" d="M 199.5,50.5 C 199.5,68.5 199.5,86.5 199.5,104.5C 197.66,102.832 195.66,101.332 193.5,100C 181.5,99.3333 169.5,99.3333 157.5,100C 155.376,101.122 153.543,102.622 152,104.5C 151.333,117.833 151.333,131.167 152,144.5C 152.833,146.667 154.333,148.167 156.5,149C 168.833,149.667 181.167,149.667 193.5,149C 196.023,147.64 198.023,145.807 199.5,143.5C 199.5,162.167 199.5,180.833 199.5,199.5C 132.833,199.5 66.1667,199.5 -0.5,199.5C -0.5,182.833 -0.5,166.167 -0.5,149.5C 33.5016,149.667 67.5016,149.5 101.5,149C 103.402,147.27 105.069,145.437 106.5,143.5C 112.205,138.796 117.205,133.463 121.5,127.5C 129.5,120.167 137.167,112.5 144.5,104.5C 149.167,100.5 153.5,96.1667 157.5,91.5C 160.167,89.5 162.5,87.1667 164.5,84.5C 171.5,78.1667 178.167,71.5 184.5,64.5C 187.833,61.8333 190.833,58.8333 193.5,55.5C 195.5,53.8333 197.5,52.1667 199.5,50.5 Z"/></g>
<g><path style="opacity:1" fill="#287abc" d="M 2.5,90.5 C 3.36603,94.8859 5.69936,98.3859 9.5,101C 16.2309,104.521 23.2309,107.354 30.5,109.5C 31.7596,111.353 31.7596,113.186 30.5,115C 22.7884,117.496 15.4551,116.663 8.5,112.5C 5.64582,117.201 3.64582,122.201 2.5,127.5C 1.5,127.5 0.5,127.5 -0.5,127.5C -0.5,112.5 -0.5,97.5 -0.5,82.5C 0.232305,81.1917 1.06564,79.8584 2,78.5C 1.46114,82.6507 1.6278,86.6507 2.5,90.5 Z"/></g>
<g><path style="opacity:1" fill="#2972b5" d="M 143.5,102.5 C 144.338,102.842 144.672,103.508 144.5,104.5C 137.167,112.5 129.5,120.167 121.5,127.5C 121.349,124.282 120.516,123.949 119,126.5C 118.827,122.459 118.327,118.459 117.5,114.5C 116.833,119.833 116.167,125.167 115.5,130.5C 114.893,130.376 114.56,130.043 114.5,129.5C 115.49,123.355 115.823,117.022 115.5,110.5C 121.565,110.739 127.565,110.239 133.5,109C 137.505,107.822 140.838,105.655 143.5,102.5 Z"/></g>
<g><path style="opacity:1" fill="#3369b1" d="M 199.5,104.5 C 199.5,117.5 199.5,130.5 199.5,143.5C 198.023,145.807 196.023,147.64 193.5,149C 181.167,149.667 168.833,149.667 156.5,149C 154.333,148.167 152.833,146.667 152,144.5C 151.333,131.167 151.333,117.833 152,104.5C 153.543,102.622 155.376,101.122 157.5,100C 169.5,99.3333 181.5,99.3333 193.5,100C 195.66,101.332 197.66,102.832 199.5,104.5 Z"/></g>
<g><path style="opacity:1" fill="#2c6ab2" d="M 121.5,127.5 C 117.205,133.463 112.205,138.796 106.5,143.5C 106.5,142.167 106.5,140.833 106.5,139.5C 102.785,139.577 99.1185,139.244 95.5,138.5C 95.5,137.167 95.5,135.833 95.5,134.5C 91.3754,134.723 90.7088,136.223 93.5,139C 89.8056,140.048 87.4723,139.215 86.5,136.5C 84.6147,137.609 82.6147,138.443 80.5,139C 80.9574,139.414 81.2907,139.914 81.5,140.5C 85.6437,141.064 89.6437,141.897 93.5,143C 82.8333,143.667 72.1667,143.667 61.5,143C 57.8659,142.844 54.5326,141.844 51.5,140C 55.5408,139.827 59.5408,139.327 63.5,138.5C 61.604,137.534 59.604,137.201 57.5,137.5C 56.981,134.225 54.981,132.892 51.5,133.5C 46.4674,134.031 46.4674,135.198 51.5,137C 48.9131,139.585 45.9131,140.085 42.5,138.5C 43.9079,137.757 45.2412,136.923 46.5,136C 45.269,134.817 45.269,133.651 46.5,132.5C 48.8034,131.319 51.1368,131.319 53.5,132.5C 54.737,132.444 55.737,131.944 56.5,131C 51.1667,130.333 45.8333,130.333 40.5,131C 42.9561,134.107 41.9561,135.607 37.5,135.5C 37.5,134.167 37.5,132.833 37.5,131.5C 29.5251,132.199 21.5251,132.699 13.5,133C 19.0555,134.239 24.7222,134.906 30.5,135C 32.2166,136.559 34.2166,137.392 36.5,137.5C 36.5,138.5 36.5,139.5 36.5,140.5C 34.6412,140.539 33.3079,139.706 32.5,138C 26.8141,137.7 21.1474,137.7 15.5,138C 11.8642,135.839 7.86419,134.339 3.5,133.5C 2.33314,135.079 0.99981,136.412 -0.5,137.5C -0.5,134.167 -0.5,130.833 -0.5,127.5C 0.5,127.5 1.5,127.5 2.5,127.5C 6.72357,128.962 11.0569,130.128 15.5,131C 24.2678,132.499 32.6011,131.332 40.5,127.5C 46.6135,129.401 52.9468,130.068 59.5,129.5C 59.8726,126.426 60.5392,123.426 61.5,120.5C 68.3469,121.669 75.1802,121.669 82,120.5C 84.0574,122.979 85.5574,125.812 86.5,129C 95.8274,129.5 105.161,129.666 114.5,129.5C 114.56,130.043 114.893,130.376 115.5,130.5C 116.167,125.167 116.833,119.833 117.5,114.5C 118.327,118.459 118.827,122.459 119,126.5C 120.516,123.949 121.349,124.282 121.5,127.5 Z"/></g>
<g><path style="opacity:1" fill="#e7f1f8" d="M 171.5,108.5 C 184.41,107.918 190.91,113.918 191,126.5C 187.627,138.938 179.794,143.104 167.5,139C 159.185,132.714 157.352,124.881 162,115.5C 164.825,112.524 167.992,110.191 171.5,108.5 Z"/></g>
<g><path style="opacity:1" fill="#3769ad" d="M 170.5,130.5 C 173.518,130.335 176.518,130.502 179.5,131C 181.223,131.775 182.223,133.108 182.5,135C 178.74,138.793 174.407,139.459 169.5,137C 168.144,134.586 168.478,132.419 170.5,130.5 Z"/></g>
<g><path style="opacity:1" fill="#3969af" d="M 169.5,111.5 C 180.416,109.431 187.083,113.764 189.5,124.5C 188.817,128.199 187.317,131.532 185,134.5C 184.086,131.422 182.253,129.089 179.5,127.5C 182.684,119.833 180.018,116.667 171.5,118C 168.923,121.405 168.923,124.738 171.5,128C 169.04,129.458 166.873,131.291 165,133.5C 159.35,124.692 160.85,117.359 169.5,111.5 Z"/></g>
<g><path style="opacity:1" fill="#3d6bb3" d="M 173.5,119.5 C 178.214,119.201 179.88,121.201 178.5,125.5C 171.606,127.612 169.939,125.612 173.5,119.5 Z"/></g>
<g><path style="opacity:1" fill="#326ab4" d="M 106.5,143.5 C 105.069,145.437 103.402,147.27 101.5,149C 67.5016,149.5 33.5016,149.667 -0.5,149.5C -0.5,145.5 -0.5,141.5 -0.5,137.5C 0.99981,136.412 2.33314,135.079 3.5,133.5C 7.86419,134.339 11.8642,135.839 15.5,138C 21.1474,137.7 26.8141,137.7 32.5,138C 33.3079,139.706 34.6412,140.539 36.5,140.5C 36.5,139.5 36.5,138.5 36.5,137.5C 34.2166,137.392 32.2166,136.559 30.5,135C 24.7222,134.906 19.0555,134.239 13.5,133C 21.5251,132.699 29.5251,132.199 37.5,131.5C 37.5,132.833 37.5,134.167 37.5,135.5C 41.9561,135.607 42.9561,134.107 40.5,131C 45.8333,130.333 51.1667,130.333 56.5,131C 55.737,131.944 54.737,132.444 53.5,132.5C 51.1368,131.319 48.8034,131.319 46.5,132.5C 45.269,133.651 45.269,134.817 46.5,136C 45.2412,136.923 43.9079,137.757 42.5,138.5C 45.9131,140.085 48.9131,139.585 51.5,137C 46.4674,135.198 46.4674,134.031 51.5,133.5C 54.981,132.892 56.981,134.225 57.5,137.5C 59.604,137.201 61.604,137.534 63.5,138.5C 59.5408,139.327 55.5408,139.827 51.5,140C 54.5326,141.844 57.8659,142.844 61.5,143C 72.1667,143.667 82.8333,143.667 93.5,143C 89.6437,141.897 85.6437,141.064 81.5,140.5C 81.2907,139.914 80.9574,139.414 80.5,139C 82.6147,138.443 84.6147,137.609 86.5,136.5C 87.4723,139.215 89.8056,140.048 93.5,139C 90.7088,136.223 91.3754,134.723 95.5,134.5C 95.5,135.833 95.5,137.167 95.5,138.5C 99.1185,139.244 102.785,139.577 106.5,139.5C 106.5,140.833 106.5,142.167 106.5,143.5 Z"/></g>
</svg>
