<?xml version="1.0" encoding="UTF-8"?>
<!DOCTYPE svg PUBLIC "-//W3C//DTD SVG 1.1//EN" "http://www.w3.org/Graphics/SVG/1.1/DTD/svg11.dtd">
<svg xmlns="http://www.w3.org/2000/svg" version="1.1" width="1280px" height="652px" style="shape-rendering:geometricPrecision; text-rendering:geometricPrecision; image-rendering:optimizeQuality; fill-rule:evenodd; clip-rule:evenodd" xmlns:xlink="http://www.w3.org/1999/xlink">
<g><path style="opacity:1" fill="#fefefe" d="M -0.5,-0.5 C 426.167,-0.5 852.833,-0.5 1279.5,-0.5C 1279.5,216.833 1279.5,434.167 1279.5,651.5C 852.833,651.5 426.167,651.5 -0.5,651.5C -0.5,434.167 -0.5,216.833 -0.5,-0.5 Z"/></g>
<g><path style="opacity:1" fill="#fefbf7" d="M 1177.5,58.5 C 822.167,58.5 466.833,58.5 111.5,58.5C 464.902,57.833 818.402,57.1664 1172,56.5C 1173.65,56.6932 1175.48,56.8598 1177.5,57C 1178.74,57.69 1178.74,58.19 1177.5,58.5 Z"/></g>
<g><path style="opacity:1" fill="#e5fefe" d="M 101.5,59.5 C 104.625,58.5206 107.958,58.1872 111.5,58.5C 466.833,58.5 822.167,58.5 1177.5,58.5C 1178.23,59.7079 1178.57,61.0413 1178.5,62.5C 1177.17,62.5 1175.83,62.5 1174.5,62.5C 1174.5,61.8333 1174.83,61.5 1175.5,61.5C 1176.04,61.44 1176.38,61.1067 1176.5,60.5C 818.167,59.5 459.834,59.1667 101.5,59.5 Z"/></g>
<g><path style="opacity:1" fill="#74cfee" d="M 101.5,59.5 C 459.834,59.1667 818.167,59.5 1176.5,60.5C 1176.38,61.1067 1176.04,61.44 1175.5,61.5C 820.334,60.5002 465,60.1668 109.5,60.5C 107.167,60.5 104.833,60.5 102.5,60.5C 101.501,117.331 101.168,174.331 101.5,231.5C 101.5,266.167 101.5,300.833 101.5,335.5C 101.5,420.833 101.5,506.167 101.5,591.5C 101.167,591.5 100.833,591.5 100.5,591.5C 100.167,413.999 100.5,236.666 101.5,59.5 Z"/></g>
<g><path style="opacity:1" fill="#01b8f3" d="M 109.5,60.5 C 465,60.1668 820.334,60.5002 1175.5,61.5C 1174.83,61.5 1174.5,61.8333 1174.5,62.5C 1172.5,62.5 1170.5,62.5 1168.5,62.5C 815.165,63.166 462.165,62.4994 109.5,60.5 Z"/></g>
<g><path style="opacity:1" fill="#01b6f0" d="M 1168.5,62.5 C 1170.5,62.5 1172.5,62.5 1174.5,62.5C 1160.88,75.7916 1147.54,89.2916 1134.5,103C 1133.47,103.513 1132.47,104.013 1131.5,104.5C 1131.5,103.167 1131.5,101.833 1131.5,100.5C 1130.45,100.351 1129.45,100.517 1128.5,101C 1125.78,102.742 1123.44,104.909 1121.5,107.5C 1120.57,106.311 1120.24,104.978 1120.5,103.5C 1121.5,103.5 1122.5,103.5 1123.5,103.5C 1123.53,101.801 1124.19,100.467 1125.5,99.5C 1126.8,98.0378 1128.3,96.7044 1130,95.5C 1131.65,96.6533 1133.15,97.9866 1134.5,99.5C 1135.73,98.3493 1135.73,97.1827 1134.5,96C 1135,95.5 1135.5,95 1136,94.5C 1137.18,95.731 1138.35,95.731 1139.5,94.5C 1137.99,93.1537 1136.65,91.6537 1135.5,90C 1137.38,87.6195 1139.72,85.7862 1142.5,84.5C 1143.39,85.325 1143.72,86.325 1143.5,87.5C 1139.87,88.0213 1139.71,89.3546 1143,91.5C 1147.1,86.5526 1151.26,81.7193 1155.5,77C 1155.17,76.5 1154.83,76 1154.5,75.5C 1153.83,76.1667 1153.17,76.8333 1152.5,77.5C 805.64,75.5016 458.64,74.8349 111.5,75.5C 111.5,71.5 111.5,67.5 111.5,63.5C 459.488,63.5025 807.321,63.5025 1155,63.5C 1155.83,63.6667 1156.67,63.8333 1157.5,64C 1156.24,64.9234 1154.91,65.7568 1153.5,66.5C 1153.71,67.086 1154.04,67.586 1154.5,68C 1153.03,68.7096 1152.36,69.8762 1152.5,71.5C 1153.68,71.719 1154.68,71.3857 1155.5,70.5C 1157.21,67.7527 1159.38,65.4194 1162,63.5C 1164.19,64.0189 1165.69,65.3523 1166.5,67.5C 1167.95,66.1502 1168.62,64.4835 1168.5,62.5 Z"/></g>
<g><path style="opacity:1" fill="#01b3ef" d="M 102.5,60.5 C 104.833,60.5 107.167,60.5 109.5,60.5C 462.165,62.4994 815.165,63.166 1168.5,62.5C 1168.62,64.4835 1167.95,66.1502 1166.5,67.5C 1165.69,65.3523 1164.19,64.0189 1162,63.5C 1159.38,65.4194 1157.21,67.7527 1155.5,70.5C 1154.68,71.3857 1153.68,71.719 1152.5,71.5C 1152.36,69.8762 1153.03,68.7096 1154.5,68C 1154.04,67.586 1153.71,67.086 1153.5,66.5C 1154.91,65.7568 1156.24,64.9234 1157.5,64C 1156.67,63.8333 1155.83,63.6667 1155,63.5C 807.321,63.5025 459.488,63.5025 111.5,63.5C 111.5,67.5 111.5,71.5 111.5,75.5C 458.64,74.8349 805.64,75.5016 1152.5,77.5C 1153.17,76.8333 1153.83,76.1667 1154.5,75.5C 1154.83,76 1155.17,76.5 1155.5,77C 1151.26,81.7193 1147.1,86.5526 1143,91.5C 1139.71,89.3546 1139.87,88.0213 1143.5,87.5C 1143.72,86.325 1143.39,85.325 1142.5,84.5C 1139.72,85.7862 1137.38,87.6195 1135.5,90C 1136.65,91.6537 1137.99,93.1537 1139.5,94.5C 1138.35,95.731 1137.18,95.731 1136,94.5C 1135.5,95 1135,95.5 1134.5,96C 1135.73,97.1827 1135.73,98.3493 1134.5,99.5C 1133.15,97.9866 1131.65,96.6533 1130,95.5C 1128.3,96.7044 1126.8,98.0378 1125.5,99.5C 1125.63,98.7611 1125.46,98.0944 1125,97.5C 1123.31,99.2446 1121.47,99.5779 1119.5,98.5C 1119.83,97.8333 1120.17,97.1667 1120.5,96.5C 784.167,95.5 447.834,95.1667 111.5,95.5C 109.93,96.6181 109.597,106.618 110.5,125.5C 109.5,125.5 108.5,125.5 107.5,125.5C 107.143,117.495 106.643,109.495 106,101.5C 105.743,113.526 105.076,125.526 104,137.5C 103.667,136.833 103.333,136.167 103,135.5C 102.5,110.502 102.333,85.5022 102.5,60.5 Z"/></g>
<g><path style="opacity:1" fill="#02b0ec" d="M 111.5,95.5 C 447.834,95.1667 784.167,95.5 1120.5,96.5C 1120.17,97.1667 1119.83,97.8333 1119.5,98.5C 1121.47,99.5779 1123.31,99.2446 1125,97.5C 1125.46,98.0944 1125.63,98.7611 1125.5,99.5C 1124.19,100.467 1123.53,101.801 1123.5,103.5C 1122.5,103.5 1121.5,103.5 1120.5,103.5C 1120.24,104.978 1120.57,106.311 1121.5,107.5C 1123.44,104.909 1125.78,102.742 1128.5,101C 1129.45,100.517 1130.45,100.351 1131.5,100.5C 1131.5,101.833 1131.5,103.167 1131.5,104.5C 1131.63,105.239 1131.46,105.906 1131,106.5C 1123.26,113.416 1115.76,120.416 1108.5,127.5C 1108.37,123.348 1106.87,122.682 1104,125.5C 1104,123.5 1104,121.5 1104,119.5C 773.374,121.499 442.541,122.166 111.5,121.5C 111.5,112.833 111.5,104.167 111.5,95.5 Z"/></g>
<g><path style="opacity:1" fill="#06abe8" d="M 102.5,60.5 C 102.333,85.5022 102.5,110.502 103,135.5C 103.333,136.167 103.667,136.833 104,137.5C 105.076,125.526 105.743,113.526 106,101.5C 106.643,109.495 107.143,117.495 107.5,125.5C 108.5,125.5 109.5,125.5 110.5,125.5C 109.597,106.618 109.93,96.6181 111.5,95.5C 111.5,104.167 111.5,112.833 111.5,121.5C 442.541,122.166 773.374,121.499 1104,119.5C 1104,121.5 1104,123.5 1104,125.5C 1106.87,122.682 1108.37,123.348 1108.5,127.5C 1093.41,144.308 1077.41,160.308 1060.5,175.5C 1060.1,171.538 1058.6,170.871 1056,173.5C 1055.82,171.512 1055.99,169.512 1056.5,167.5C 1057.5,167.5 1058.5,167.5 1059.5,167.5C 1060.68,164.962 1062.34,162.629 1064.5,160.5C 1061.25,159.034 1058.92,160.034 1057.5,163.5C 1056.69,163.192 1056.03,162.692 1055.5,162C 986.167,161.667 916.833,161.333 847.5,161C 830.26,160.746 813.26,160.246 796.5,159.5C 794.5,159.667 792.5,159.833 790.5,160C 798.029,160.286 804.696,162.619 810.5,167C 814.159,168.34 817.826,168.507 821.5,167.5C 823.029,167.529 824.196,168.196 825,169.5C 825.333,169.167 825.667,168.833 826,168.5C 828.472,170.456 830.305,172.789 831.5,175.5C 810.969,167.369 789.636,162.702 767.5,161.5C 762.167,160.833 756.833,160.167 751.5,159.5C 756.833,159.5 762.167,159.5 767.5,159.5C 767.5,158.5 767.5,157.5 767.5,156.5C 762.167,156.5 756.833,156.5 751.5,156.5C 751.5,155.5 751.5,154.5 751.5,153.5C 712.173,154.229 672.84,154.729 633.5,155C 631.978,157.305 629.978,158.805 627.5,159.5C 626.666,202.157 625.499,202.157 624,159.5C 602.199,161.179 580.199,162.179 558,162.5C 556.503,161.523 555.003,160.523 553.5,159.5C 552.833,159.833 552.167,160.167 551.5,160.5C 552.415,161.328 553.081,162.328 553.5,163.5C 551.299,169.333 550.465,175.333 551,181.5C 553.452,176.783 555.285,171.783 556.5,166.5C 558.264,169.215 559.264,172.215 559.5,175.5C 558.325,175.281 557.325,175.614 556.5,176.5C 558.447,178.276 558.78,180.276 557.5,182.5C 556.063,179.956 554.563,179.956 553,182.5C 552.414,185.729 552.914,188.729 554.5,191.5C 555.5,191.5 556.5,191.5 557.5,191.5C 556.908,194.127 556.575,196.794 556.5,199.5C 555.108,197.727 553.941,195.727 553,193.5C 549.263,182.121 545.429,170.788 541.5,159.5C 510.833,159.5 480.167,159.5 449.5,159.5C 449.771,161.38 449.104,162.713 447.5,163.5C 446.766,162.292 446.433,160.959 446.5,159.5C 444.857,159.48 443.524,160.147 442.5,161.5C 439.786,161.76 437.119,161.093 434.5,159.5C 434.5,160.5 434.5,161.5 434.5,162.5C 435.873,162.343 437.207,162.51 438.5,163C 437.745,165.175 436.912,167.341 436,169.5C 434.744,167.246 433.577,164.912 432.5,162.5C 403.465,161.774 374.465,160.941 345.5,160C 346.167,160.333 346.833,160.667 347.5,161C 343.577,161.979 339.91,161.479 336.5,159.5C 332.492,160.406 328.492,161.406 324.5,162.5C 312.883,160.808 312.55,161.808 323.5,165.5C 285.404,154.659 246.737,152.159 207.5,158C 200.442,160.014 193.442,162.181 186.5,164.5C 184.472,162.658 181.972,161.324 179,160.5C 177.354,162.141 176.354,161.807 176,159.5C 173.692,162.491 170.692,164.491 167,165.5C 166.833,165.833 166.667,166.167 166.5,166.5C 167.729,167.281 169.062,167.781 170.5,168C 168.27,169.829 166.103,169.662 164,167.5C 163,168.167 162,168.833 161,169.5C 159.392,169.026 159.226,168.359 160.5,167.5C 164.612,165.229 168.612,162.729 172.5,160C 169.006,159.897 165.673,160.73 162.5,162.5C 161.201,161.91 160.368,160.91 160,159.5C 144.073,161.476 127.907,162.143 111.5,161.5C 111.666,155.824 111.499,150.157 111,144.5C 110.944,163.212 110.11,181.879 108.5,200.5C 106.896,193.959 106.062,187.292 106,180.5C 104.013,197.603 102.513,214.603 101.5,231.5C 101.168,174.331 101.501,117.331 102.5,60.5 Z"/></g>
<g><path style="opacity:1" fill="#fdfefe" d="M 323.5,165.5 C 338.728,169.855 353.394,175.689 367.5,183C 359.43,196.311 351.763,209.811 344.5,223.5C 339.608,230.936 334.941,238.603 330.5,246.5C 314.173,238.499 297.173,232.499 279.5,228.5C 275.081,227.028 270.414,226.362 265.5,226.5C 248.267,223.746 231.601,225.579 215.5,232C 203.772,239.822 202.439,249.155 211.5,260C 215.12,263.467 219.12,266.3 223.5,268.5C 238.584,277.038 254.584,283.371 271.5,287.5C 289.373,293.267 306.707,300.434 323.5,309C 332.753,314.449 341.419,320.616 349.5,327.5C 359.932,338.958 366.932,352.291 370.5,367.5C 375.097,356.874 379.597,346.207 384,335.5C 385.143,332.223 385.977,328.89 386.5,325.5C 391.328,314.484 395.661,303.151 399.5,291.5C 405.022,276.78 410.855,262.113 417,247.5C 418.516,242.479 420.016,237.479 421.5,232.5C 426.655,221.609 430.988,210.276 434.5,198.5C 439.404,187.128 443.738,175.462 447.5,163.5C 449.104,162.713 449.771,161.38 449.5,159.5C 480.167,159.5 510.833,159.5 541.5,159.5C 545.429,170.788 549.263,182.121 553,193.5C 553.941,195.727 555.108,197.727 556.5,199.5C 558.406,205.391 560.239,211.391 562,217.5C 564.947,224.192 567.781,230.859 570.5,237.5C 575.601,254.619 581.601,271.286 588.5,287.5C 597.193,311.253 605.859,334.919 614.5,358.5C 619.821,372.793 625.155,387.126 630.5,401.5C 631.167,403.833 631.833,406.167 632.5,408.5C 632.56,409.043 632.893,409.376 633.5,409.5C 634.5,326.503 634.833,243.503 634.5,160.5C 678.841,160.264 723.174,160.598 767.5,161.5C 789.636,162.702 810.969,167.369 831.5,175.5C 846.95,182.728 859.95,193.061 870.5,206.5C 874.787,214.075 878.787,221.742 882.5,229.5C 883.708,234.458 884.708,239.458 885.5,244.5C 886.373,261.15 886.706,277.816 886.5,294.5C 885.725,298.814 885.059,303.147 884.5,307.5C 883.566,308.568 883.232,309.901 883.5,311.5C 877.739,327.02 869.406,341.02 858.5,353.5C 850.19,360.657 841.19,366.823 831.5,372C 820.931,376.463 810.264,380.297 799.5,383.5C 798.167,383.5 796.833,383.5 795.5,383.5C 787.867,384.805 780.2,385.972 772.5,387C 755.837,387.5 739.17,387.667 722.5,387.5C 721.502,420.996 721.168,454.663 721.5,488.5C 669.5,488.5 617.5,488.5 565.5,488.5C 564.787,485.406 563.787,482.406 562.5,479.5C 561.497,476.15 560.497,472.817 559.5,469.5C 556.581,460.575 553.748,451.575 551,442.5C 550.612,441.572 549.945,440.905 549,440.5C 527.666,447.074 505.833,449.741 483.5,448.5C 475.068,447.958 466.735,446.958 458.5,445.5C 456.485,444.076 454.152,443.41 451.5,443.5C 446.755,442.751 442.088,441.751 437.5,440.5C 436.179,446.297 434.346,451.963 432,457.5C 431.505,459.473 431.338,461.473 431.5,463.5C 431.167,463.5 430.833,463.5 430.5,463.5C 429.129,465.936 428.129,468.603 427.5,471.5C 425.821,477.516 424.155,483.516 422.5,489.5C 390.5,489.5 358.5,489.5 326.5,489.5C 329.189,480.946 332.189,472.446 335.5,464C 335.167,463.5 334.833,463 334.5,462.5C 328.069,467.614 321.402,472.28 314.5,476.5C 294.64,486.566 273.64,492.566 251.5,494.5C 203.498,496.504 158.498,486.171 116.5,463.5C 121.841,451.799 127.174,440.132 132.5,428.5C 137.751,420.335 142.251,411.668 146,402.5C 146.941,400.939 148.108,399.605 149.5,398.5C 168.632,410.573 189.298,418.407 211.5,422C 225.556,422.928 239.556,422.595 253.5,421C 263.625,419.116 270.958,413.616 275.5,404.5C 276.222,404.082 276.722,403.416 277,402.5C 278.11,396.574 277.444,390.908 275,385.5C 269.249,380.041 262.749,375.708 255.5,372.5C 235.023,365.155 214.356,357.988 193.5,351C 179.904,345.203 166.904,338.37 154.5,330.5C 140.166,320.5 129.499,307.5 122.5,291.5C 119.983,285.078 118.316,278.411 117.5,271.5C 116.677,263.529 116.344,255.529 116.5,247.5C 117.469,238.594 119.469,229.928 122.5,221.5C 132.039,200.454 147.039,184.288 167.5,173C 173.664,169.581 179.997,166.747 186.5,164.5C 193.442,162.181 200.442,160.014 207.5,158C 246.737,152.159 285.404,154.659 323.5,165.5 Z"/></g>
<g><path style="opacity:1" fill="#afdae7" d="M 634.5,160.5 C 634.5,160.167 634.5,159.833 634.5,159.5C 673.5,159.5 712.5,159.5 751.5,159.5C 756.833,160.167 762.167,160.833 767.5,161.5C 723.174,160.598 678.841,160.264 634.5,160.5 Z"/></g>
<g><path style="opacity:1" fill="#0ba4e5" d="M 186.5,164.5 C 179.997,166.747 173.664,169.581 167.5,173C 147.039,184.288 132.039,200.454 122.5,221.5C 121.934,217.46 120.6,213.793 118.5,210.5C 117.325,210.281 116.325,210.614 115.5,211.5C 114.826,213.517 113.659,215.183 112,216.5C 111.315,213.386 112.149,210.719 114.5,208.5C 113.726,207.289 112.893,207.289 112,208.5C 111.5,192.837 111.333,177.17 111.5,161.5C 127.907,162.143 144.073,161.476 160,159.5C 160.368,160.91 161.201,161.91 162.5,162.5C 165.673,160.73 169.006,159.897 172.5,160C 168.612,162.729 164.612,165.229 160.5,167.5C 159.226,168.359 159.392,169.026 161,169.5C 162,168.833 163,168.167 164,167.5C 166.103,169.662 168.27,169.829 170.5,168C 169.062,167.781 167.729,167.281 166.5,166.5C 166.667,166.167 166.833,165.833 167,165.5C 170.692,164.491 173.692,162.491 176,159.5C 176.354,161.807 177.354,162.141 179,160.5C 181.972,161.324 184.472,162.658 186.5,164.5 Z"/></g>
<g><path style="opacity:1" fill="#0da5e5" d="M 447.5,163.5 C 443.738,175.462 439.404,187.128 434.5,198.5C 434.736,195.774 433.903,193.441 432,191.5C 409.185,192.642 386.352,192.808 363.5,192C 364.13,193.892 365.13,195.559 366.5,197C 365.874,197.75 365.374,198.584 365,199.5C 364.385,197.884 363.385,196.551 362,195.5C 361.146,198.407 361.979,200.74 364.5,202.5C 362.675,203.571 361.508,202.904 361,200.5C 360.223,206.055 357.889,210.722 354,214.5C 353.517,215.448 353.351,216.448 353.5,217.5C 354.978,217.762 356.311,217.429 357.5,216.5C 359.251,213.966 361.084,211.633 363,209.5C 364.714,210.076 365.881,211.243 366.5,213C 365.269,214.405 363.936,215.571 362.5,216.5C 361.058,217.82 360.392,219.486 360.5,221.5C 357.148,223.028 353.814,224.028 350.5,224.5C 351.706,226.516 351.706,228.516 350.5,230.5C 349.795,228.328 348.795,226.328 347.5,224.5C 350.316,222.551 351.483,219.885 351,216.5C 349.748,218.001 348.748,219.668 348,221.5C 347.184,222.823 346.017,223.489 344.5,223.5C 351.763,209.811 359.43,196.311 367.5,183C 353.394,175.689 338.728,169.855 323.5,165.5C 312.55,161.808 312.883,160.808 324.5,162.5C 328.492,161.406 332.492,160.406 336.5,159.5C 339.91,161.479 343.577,161.979 347.5,161C 346.833,160.667 346.167,160.333 345.5,160C 374.465,160.941 403.465,161.774 432.5,162.5C 433.577,164.912 434.744,167.246 436,169.5C 436.912,167.341 437.745,165.175 438.5,163C 437.207,162.51 435.873,162.343 434.5,162.5C 434.5,161.5 434.5,160.5 434.5,159.5C 437.119,161.093 439.786,161.76 442.5,161.5C 443.524,160.147 444.857,159.48 446.5,159.5C 446.433,160.959 446.766,162.292 447.5,163.5 Z"/></g>
<g><path style="opacity:1" fill="#08a5e5" d="M 751.5,159.5 C 712.5,159.5 673.5,159.5 634.5,159.5C 633.502,196.663 633.168,233.996 633.5,271.5C 633.167,271.5 632.833,271.5 632.5,271.5C 632.5,260.833 632.5,250.167 632.5,239.5C 633.509,217.956 632.009,196.622 628,175.5C 627.314,182.02 627.48,188.52 628.5,195C 628.369,197.253 627.869,199.419 627,201.5C 626.447,198.321 625.281,195.487 623.5,193C 601.457,192.812 579.457,192.312 557.5,191.5C 556.5,191.5 555.5,191.5 554.5,191.5C 552.914,188.729 552.414,185.729 553,182.5C 554.563,179.956 556.063,179.956 557.5,182.5C 558.78,180.276 558.447,178.276 556.5,176.5C 557.325,175.614 558.325,175.281 559.5,175.5C 559.264,172.215 558.264,169.215 556.5,166.5C 555.285,171.783 553.452,176.783 551,181.5C 550.465,175.333 551.299,169.333 553.5,163.5C 553.081,162.328 552.415,161.328 551.5,160.5C 552.167,160.167 552.833,159.833 553.5,159.5C 555.003,160.523 556.503,161.523 558,162.5C 580.199,162.179 602.199,161.179 624,159.5C 625.499,202.157 626.666,202.157 627.5,159.5C 629.978,158.805 631.978,157.305 633.5,155C 672.84,154.729 712.173,154.229 751.5,153.5C 751.5,154.5 751.5,155.5 751.5,156.5C 756.833,156.5 762.167,156.5 767.5,156.5C 767.5,157.5 767.5,158.5 767.5,159.5C 762.167,159.5 756.833,159.5 751.5,159.5 Z"/></g>
<g><path style="opacity:1" fill="#09a5e5" d="M 1060.5,175.5 C 1054.17,183.167 1047.17,190.167 1039.5,196.5C 1039.35,195.448 1039.52,194.448 1040,193.5C 1043.69,190.161 1047.36,186.828 1051,183.5C 1051.48,182.552 1051.65,181.552 1051.5,180.5C 1050.45,180.351 1049.45,180.517 1048.5,181C 1046.62,183.72 1044.28,185.886 1041.5,187.5C 982.255,185.516 922.921,184.849 863.5,185.5C 863.719,184.325 863.386,183.325 862.5,182.5C 861.167,183.5 859.833,184.5 858.5,185.5C 861.489,187.989 864.323,190.656 867,193.5C 868,192.833 869,192.167 870,191.5C 875.444,193.355 875.777,196.021 871,199.5C 871.423,201.903 871.256,204.237 870.5,206.5C 859.95,193.061 846.95,182.728 831.5,175.5C 830.305,172.789 828.472,170.456 826,168.5C 825.667,168.833 825.333,169.167 825,169.5C 824.196,168.196 823.029,167.529 821.5,167.5C 817.826,168.507 814.159,168.34 810.5,167C 804.696,162.619 798.029,160.286 790.5,160C 792.5,159.833 794.5,159.667 796.5,159.5C 813.26,160.246 830.26,160.746 847.5,161C 916.833,161.333 986.167,161.667 1055.5,162C 1056.03,162.692 1056.69,163.192 1057.5,163.5C 1058.92,160.034 1061.25,159.034 1064.5,160.5C 1062.34,162.629 1060.68,164.962 1059.5,167.5C 1058.5,167.5 1057.5,167.5 1056.5,167.5C 1055.99,169.512 1055.82,171.512 1056,173.5C 1058.6,170.871 1060.1,171.538 1060.5,175.5 Z"/></g>
<g><path style="opacity:1" fill="#099fe2" d="M 434.5,198.5 C 430.988,210.276 426.655,221.609 421.5,232.5C 421.414,231.504 421.748,230.671 422.5,230C 421.151,229.228 420.318,228.061 420,226.5C 419.781,227.938 419.281,229.271 418.5,230.5C 417.288,228.159 417.622,225.993 419.5,224C 418.552,223.517 417.552,223.351 416.5,223.5C 416.5,222.5 416.5,221.5 416.5,220.5C 400.167,220.5 383.833,220.5 367.5,220.5C 367.5,221.5 367.5,222.5 367.5,223.5C 365.473,223.662 363.473,223.495 361.5,223C 363.734,222.031 365.734,220.698 367.5,219C 366.347,217.117 364.681,216.284 362.5,216.5C 363.936,215.571 365.269,214.405 366.5,213C 365.881,211.243 364.714,210.076 363,209.5C 361.084,211.633 359.251,213.966 357.5,216.5C 356.311,217.429 354.978,217.762 353.5,217.5C 353.351,216.448 353.517,215.448 354,214.5C 357.889,210.722 360.223,206.055 361,200.5C 361.508,202.904 362.675,203.571 364.5,202.5C 361.979,200.74 361.146,198.407 362,195.5C 363.385,196.551 364.385,197.884 365,199.5C 365.374,198.584 365.874,197.75 366.5,197C 365.13,195.559 364.13,193.892 363.5,192C 386.352,192.808 409.185,192.642 432,191.5C 433.903,193.441 434.736,195.774 434.5,198.5 Z"/></g>
<g><path style="opacity:1" fill="#0a9fe2" d="M 632.5,239.5 C 630.479,235.897 630.146,232.063 631.5,228C 630.106,221.91 629.273,215.743 629,209.5C 628.705,220.585 628.038,231.918 627,243.5C 626.42,234.115 625.42,224.782 624,215.5C 623.506,217.134 623.34,218.801 623.5,220.5C 607.5,220.5 591.5,220.5 575.5,220.5C 575.663,222.857 575.497,225.19 575,227.5C 574.586,227.957 574.086,228.291 573.5,228.5C 572.831,225.165 572.831,221.665 573.5,218C 573.026,216.392 572.359,216.226 571.5,217.5C 570.833,219.167 570.167,220.833 569.5,222.5C 570.025,223.192 570.692,223.692 571.5,224C 570.308,225.912 569.308,227.912 568.5,230C 569.449,230.617 570.282,230.451 571,229.5C 571.175,232.157 571.008,234.824 570.5,237.5C 567.781,230.859 564.947,224.192 562,217.5C 560.239,211.391 558.406,205.391 556.5,199.5C 556.575,196.794 556.908,194.127 557.5,191.5C 579.457,192.312 601.457,192.812 623.5,193C 625.281,195.487 626.447,198.321 627,201.5C 627.869,199.419 628.369,197.253 628.5,195C 627.48,188.52 627.314,182.02 628,175.5C 632.009,196.622 633.509,217.956 632.5,239.5 Z"/></g>
<g><path style="opacity:1" fill="#08a0e3" d="M 1039.5,196.5 C 1030.86,205.806 1021.86,214.806 1012.5,223.5C 1012.2,222.85 1011.86,222.183 1011.5,221.5C 972.833,220.167 934.167,220.167 895.5,221.5C 892.893,222.318 890.226,222.818 887.5,223C 886,223.833 884.833,225 884,226.5C 883.667,226.167 883.333,225.833 883,225.5C 882.51,226.793 882.343,228.127 882.5,229.5C 878.787,221.742 874.787,214.075 870.5,206.5C 871.256,204.237 871.423,201.903 871,199.5C 875.777,196.021 875.444,193.355 870,191.5C 869,192.167 868,192.833 867,193.5C 864.323,190.656 861.489,187.989 858.5,185.5C 859.833,184.5 861.167,183.5 862.5,182.5C 863.386,183.325 863.719,184.325 863.5,185.5C 922.921,184.849 982.255,185.516 1041.5,187.5C 1044.28,185.886 1046.62,183.72 1048.5,181C 1049.45,180.517 1050.45,180.351 1051.5,180.5C 1051.65,181.552 1051.48,182.552 1051,183.5C 1047.36,186.828 1043.69,190.161 1040,193.5C 1039.52,194.448 1039.35,195.448 1039.5,196.5 Z"/></g>
<g><path style="opacity:1" fill="#0d99de" d="M 632.5,239.5 C 632.5,250.167 632.5,260.833 632.5,271.5C 631.711,263.979 630.877,256.312 630,248.5C 629.5,256.159 629.334,263.826 629.5,271.5C 628.5,271.5 627.5,271.5 626.5,271.5C 626.623,252.953 625.789,252.953 624,271.5C 623.502,268.518 623.335,265.518 623.5,262.5C 612.41,261.87 601.577,262.537 591,264.5C 590.546,262.464 589.713,260.63 588.5,259C 589.424,257.189 590.257,257.355 591,259.5C 591.814,257.098 591.647,254.765 590.5,252.5C 589.833,252.833 589.167,253.167 588.5,253.5C 587.964,255.969 586.964,258.136 585.5,260C 587.143,262.254 588.477,264.754 589.5,267.5C 589.167,268.167 588.833,268.833 588.5,269.5C 586.42,265.674 584.087,262.007 581.5,258.5C 581.167,259.333 580.833,260.167 580.5,261C 584.808,266.446 587.308,272.613 588,279.5C 589,276.833 590,274.167 591,271.5C 591.512,277.098 590.678,282.431 588.5,287.5C 581.601,271.286 575.601,254.619 570.5,237.5C 571.008,234.824 571.175,232.157 571,229.5C 570.282,230.451 569.449,230.617 568.5,230C 569.308,227.912 570.308,225.912 571.5,224C 570.692,223.692 570.025,223.192 569.5,222.5C 570.167,220.833 570.833,219.167 571.5,217.5C 572.359,216.226 573.026,216.392 573.5,218C 572.831,221.665 572.831,225.165 573.5,228.5C 574.086,228.291 574.586,227.957 575,227.5C 575.497,225.19 575.663,222.857 575.5,220.5C 591.5,220.5 607.5,220.5 623.5,220.5C 623.34,218.801 623.506,217.134 624,215.5C 625.42,224.782 626.42,234.115 627,243.5C 628.038,231.918 628.705,220.585 629,209.5C 629.273,215.743 630.106,221.91 631.5,228C 630.146,232.063 630.479,235.897 632.5,239.5 Z"/></g>
<g><path style="opacity:1" fill="#0e99de" d="M 362.5,216.5 C 364.681,216.284 366.347,217.117 367.5,219C 365.734,220.698 363.734,222.031 361.5,223C 363.473,223.495 365.473,223.662 367.5,223.5C 367.5,222.5 367.5,221.5 367.5,220.5C 383.833,220.5 400.167,220.5 416.5,220.5C 416.5,221.5 416.5,222.5 416.5,223.5C 417.552,223.351 418.552,223.517 419.5,224C 417.622,225.993 417.288,228.159 418.5,230.5C 419.281,229.271 419.781,227.938 420,226.5C 420.318,228.061 421.151,229.228 422.5,230C 421.748,230.671 421.414,231.504 421.5,232.5C 420.016,237.479 418.516,242.479 417,247.5C 410.855,262.113 405.022,276.78 399.5,291.5C 400.652,287.835 400.819,284.169 400,280.5C 400.743,282.645 401.576,282.811 402.5,281C 402.361,279.699 401.695,278.866 400.5,278.5C 399.806,273.195 399.472,267.862 399.5,262.5C 345.685,263.156 292.018,262.49 238.5,260.5C 237.914,260.709 237.414,261.043 237,261.5C 236.505,263.473 236.338,265.473 236.5,267.5C 232.167,266.833 227.833,266.167 223.5,265.5C 223.5,266.5 223.5,267.5 223.5,268.5C 219.12,266.3 215.12,263.467 211.5,260C 202.439,249.155 203.772,239.822 215.5,232C 231.601,225.579 248.267,223.746 265.5,226.5C 269.919,227.972 274.586,228.638 279.5,228.5C 297.173,232.499 314.173,238.499 330.5,246.5C 334.941,238.603 339.608,230.936 344.5,223.5C 346.017,223.489 347.184,222.823 348,221.5C 348.748,219.668 349.748,218.001 351,216.5C 351.483,219.885 350.316,222.551 347.5,224.5C 348.795,226.328 349.795,228.328 350.5,230.5C 351.706,228.516 351.706,226.516 350.5,224.5C 353.814,224.028 357.148,223.028 360.5,221.5C 360.392,219.486 361.058,217.82 362.5,216.5 Z"/></g>
<g><path style="opacity:1" fill="#7eceee" d="M 265.5,226.5 C 270.414,226.362 275.081,227.028 279.5,228.5C 274.586,228.638 269.919,227.972 265.5,226.5 Z"/></g>
<g><path style="opacity:1" fill="#0b99de" d="M 1012.5,223.5 C 995.173,241.494 977.506,259.161 959.5,276.5C 959.595,273.728 960.929,271.728 963.5,270.5C 962.609,269.41 961.609,269.41 960.5,270.5C 959.526,268.257 959.192,265.924 959.5,263.5C 960.978,263.762 962.311,263.429 963.5,262.5C 962.079,259.572 963.079,258.238 966.5,258.5C 966.5,257.5 966.5,256.5 966.5,255.5C 962.833,256.5 960.5,258.833 959.5,262.5C 938.167,262.5 916.833,262.5 895.5,262.5C 895.649,261.448 895.483,260.448 895,259.5C 894.15,275.447 892.983,275.447 891.5,259.5C 893.324,252.885 894.491,246.218 895,239.5C 893.607,246.148 891.44,252.481 888.5,258.5C 887.79,253.78 886.79,249.113 885.5,244.5C 884.708,239.458 883.708,234.458 882.5,229.5C 882.343,228.127 882.51,226.793 883,225.5C 883.333,225.833 883.667,226.167 884,226.5C 884.833,225 886,223.833 887.5,223C 890.226,222.818 892.893,222.318 895.5,221.5C 934.167,220.167 972.833,220.167 1011.5,221.5C 1011.86,222.183 1012.2,222.85 1012.5,223.5 Z"/></g>
<g><path style="opacity:1" fill="#0b98dd" d="M 751.5,229.5 C 764.433,229.731 776.433,233.065 787.5,239.5C 789.591,242.771 791.924,245.937 794.5,249C 793.062,249.219 791.729,249.719 790.5,250.5C 791.682,252.467 791.015,253.8 788.5,254.5C 789.167,254.833 789.833,255.167 790.5,255.5C 792.455,254.547 794.122,253.213 795.5,251.5C 796.429,252.689 796.762,254.022 796.5,255.5C 797.5,255.5 798.5,255.5 799.5,255.5C 799.5,255.833 799.5,256.167 799.5,256.5C 800.051,259.807 800.384,263.14 800.5,266.5C 799.566,265.432 799.232,264.099 799.5,262.5C 778.081,262.766 756.581,262.432 735,261.5C 734.667,265.5 734.333,269.5 734,273.5C 733.29,272.027 732.124,271.36 730.5,271.5C 730.941,282.254 730.275,292.921 728.5,303.5C 727.889,284.813 727.055,266.147 726,247.5C 725.667,255.5 725.333,263.5 725,271.5C 724.617,270.944 724.117,270.611 723.5,270.5C 723.5,256.833 723.5,243.167 723.5,229.5C 732.833,229.5 742.167,229.5 751.5,229.5 Z"/></g>
<g><path style="opacity:1" fill="#1099dd" d="M 111.5,161.5 C 111.333,177.17 111.5,192.837 112,208.5C 112.893,207.289 113.726,207.289 114.5,208.5C 112.149,210.719 111.315,213.386 112,216.5C 113.659,215.183 114.826,213.517 115.5,211.5C 116.325,210.614 117.325,210.281 118.5,210.5C 120.6,213.793 121.934,217.46 122.5,221.5C 119.469,229.928 117.469,238.594 116.5,247.5C 115.834,251.319 115.501,255.319 115.5,259.5C 115.509,263.893 116.176,267.893 117.5,271.5C 118.316,278.411 119.983,285.078 122.5,291.5C 119.569,290.044 118.902,290.877 120.5,294C 118.892,294.658 117.725,294.158 117,292.5C 116.667,294.167 116.333,295.833 116,297.5C 112.215,292.914 113.048,289.581 118.5,287.5C 118.66,285.801 118.494,284.134 118,282.5C 116.989,283.337 115.822,283.67 114.5,283.5C 113.964,280.445 113.131,277.445 112,274.5C 111.667,264.167 111.333,253.833 111,243.5C 110.833,260.843 110.333,278.176 109.5,295.5C 108.502,287.528 108.169,279.528 108.5,271.5C 107.325,271.281 106.325,271.614 105.5,272.5C 106.633,280.117 106.8,287.784 106,295.5C 104.775,288.245 104.108,280.911 104,273.5C 102.641,288.797 102.141,304.131 102.5,319.5C 102.5,324.833 102.5,330.167 102.5,335.5C 102.167,335.5 101.833,335.5 101.5,335.5C 101.5,300.833 101.5,266.167 101.5,231.5C 102.513,214.603 104.013,197.603 106,180.5C 106.062,187.292 106.896,193.959 108.5,200.5C 110.11,181.879 110.944,163.212 111,144.5C 111.499,150.157 111.666,155.824 111.5,161.5 Z"/></g>
<g><path style="opacity:1" fill="#32a0d6" d="M 787.5,239.5 C 793.417,243.414 797.417,248.747 799.5,255.5C 798.5,255.5 797.5,255.5 796.5,255.5C 796.762,254.022 796.429,252.689 795.5,251.5C 794.122,253.213 792.455,254.547 790.5,255.5C 789.833,255.167 789.167,254.833 788.5,254.5C 791.015,253.8 791.682,252.467 790.5,250.5C 791.729,249.719 793.062,249.219 794.5,249C 791.924,245.937 789.591,242.771 787.5,239.5 Z"/></g>
<g><path style="opacity:1" fill="#0e94db" d="M 400.5,278.5 C 360.098,279.169 319.598,279.836 279,280.5C 275.552,280.587 272.052,280.253 268.5,279.5C 265.471,279.529 262.804,280.529 260.5,282.5C 261.333,282.833 262.167,283.167 263,283.5C 265.21,282.978 267.377,282.312 269.5,281.5C 270.167,281.833 270.833,282.167 271.5,282.5C 269.922,283.298 268.256,283.798 266.5,284C 268.233,285.189 269.9,286.356 271.5,287.5C 254.584,283.371 238.584,277.038 223.5,268.5C 223.5,267.5 223.5,266.5 223.5,265.5C 227.833,266.167 232.167,266.833 236.5,267.5C 236.338,265.473 236.505,263.473 237,261.5C 237.414,261.043 237.914,260.709 238.5,260.5C 292.018,262.49 345.685,263.156 399.5,262.5C 399.472,267.862 399.806,273.195 400.5,278.5 Z"/></g>
<g><path style="opacity:1" fill="#daf6fc" d="M 885.5,244.5 C 886.79,249.113 887.79,253.78 888.5,258.5C 888.5,260.5 888.5,262.5 888.5,264.5C 888.646,274.704 887.979,284.704 886.5,294.5C 886.706,277.816 886.373,261.15 885.5,244.5 Z"/></g>
<g><path style="opacity:1" fill="#4da5d3" d="M 116.5,247.5 C 116.344,255.529 116.677,263.529 117.5,271.5C 116.176,267.893 115.509,263.893 115.5,259.5C 115.501,255.319 115.834,251.319 116.5,247.5 Z"/></g>
<g><path style="opacity:1" fill="#4ca4d3" d="M 799.5,256.5 C 800.268,257.263 800.768,258.263 801,259.5C 801.167,263 801.333,266.5 801.5,270C 801.707,275.102 801.04,279.935 799.5,284.5C 800.165,278.523 800.498,272.523 800.5,266.5C 800.384,263.14 800.051,259.807 799.5,256.5 Z"/></g>
<g><path style="opacity:1" fill="#1091d9" d="M 400.5,278.5 C 401.695,278.866 402.361,279.699 402.5,281C 401.576,282.811 400.743,282.645 400,280.5C 400.819,284.169 400.652,287.835 399.5,291.5C 395.661,303.151 391.328,314.484 386.5,325.5C 386.643,323.738 386.309,322.071 385.5,320.5C 386.325,319.614 387.325,319.281 388.5,319.5C 388.928,316.436 389.594,313.436 390.5,310.5C 388.669,309.948 387.003,309.948 385.5,310.5C 384.5,310.167 383.833,309.5 383.5,308.5C 372.854,307.501 362.187,307.168 351.5,307.5C 351.785,309.288 351.452,310.955 350.5,312.5C 349.096,309.597 349.429,306.93 351.5,304.5C 347.051,303.838 344.051,305.838 342.5,310.5C 343.415,312.98 344.915,313.647 347,312.5C 346.937,315.767 348.437,317.934 351.5,319C 351.018,320.008 350.852,321.175 351,322.5C 349.644,321.62 348.144,321.286 346.5,321.5C 346.615,323.947 347.615,325.947 349.5,327.5C 341.419,320.616 332.753,314.449 323.5,309C 306.707,300.434 289.373,293.267 271.5,287.5C 269.9,286.356 268.233,285.189 266.5,284C 268.256,283.798 269.922,283.298 271.5,282.5C 270.833,282.167 270.167,281.833 269.5,281.5C 267.377,282.312 265.21,282.978 263,283.5C 262.167,283.167 261.333,282.833 260.5,282.5C 262.804,280.529 265.471,279.529 268.5,279.5C 272.052,280.253 275.552,280.587 279,280.5C 319.598,279.836 360.098,279.169 400.5,278.5 Z"/></g>
<g><path style="opacity:1" fill="#1190d8" d="M 632.5,271.5 C 632.833,271.5 633.167,271.5 633.5,271.5C 633.832,317.336 633.499,363.003 632.5,408.5C 631.833,406.167 631.167,403.833 630.5,401.5C 631.833,387.516 632.499,373.183 632.5,358.5C 632.333,344.167 632.167,329.833 632,315.5C 631.001,322.133 630.168,328.8 629.5,335.5C 628.667,320.178 628.167,304.844 628,289.5C 625.178,304.594 623.345,319.927 622.5,335.5C 621.206,337.962 619.706,340.295 618,342.5C 617.843,340.005 617.676,337.672 617.5,335.5C 615.714,337.922 614.048,337.922 612.5,335.5C 612.167,336.167 611.833,336.833 611.5,337.5C 612.992,340.693 614.659,343.693 616.5,346.5C 616.333,347.5 616.167,348.5 616,349.5C 615.08,349.93 614.247,350.264 613.5,350.5C 614.393,353.084 614.726,355.751 614.5,358.5C 605.859,334.919 597.193,311.253 588.5,287.5C 590.678,282.431 591.512,277.098 591,271.5C 590,274.167 589,276.833 588,279.5C 587.308,272.613 584.808,266.446 580.5,261C 580.833,260.167 581.167,259.333 581.5,258.5C 584.087,262.007 586.42,265.674 588.5,269.5C 588.833,268.833 589.167,268.167 589.5,267.5C 588.477,264.754 587.143,262.254 585.5,260C 586.964,258.136 587.964,255.969 588.5,253.5C 589.167,253.167 589.833,252.833 590.5,252.5C 591.647,254.765 591.814,257.098 591,259.5C 590.257,257.355 589.424,257.189 588.5,259C 589.713,260.63 590.546,262.464 591,264.5C 601.577,262.537 612.41,261.87 623.5,262.5C 623.335,265.518 623.502,268.518 624,271.5C 625.789,252.953 626.623,252.953 626.5,271.5C 627.5,271.5 628.5,271.5 629.5,271.5C 629.334,263.826 629.5,256.159 630,248.5C 630.877,256.312 631.711,263.979 632.5,271.5 Z"/></g>
<g><path style="opacity:1" fill="#1f93d7" d="M 501.5,284.5 C 500.883,284.389 500.383,284.056 500,283.5C 498.633,285.8 498.133,288.134 498.5,290.5C 497.104,288.028 496.27,285.362 496,282.5C 495.82,285.956 495.153,289.289 494,292.5C 493.29,291.027 492.124,290.36 490.5,290.5C 490.222,293.29 490.889,295.79 492.5,298C 491.815,300.795 491.315,303.628 491,306.5C 489.853,305.542 488.853,305.875 488,307.5C 487.833,308.5 487.667,309.5 487.5,310.5C 488.923,313.275 489.589,316.275 489.5,319.5C 488.5,319.5 487.5,319.5 486.5,319.5C 486.042,312.334 484.875,312 483,318.5C 482.107,319.711 481.274,319.711 480.5,318.5C 481.954,316.333 481.788,314.333 480,312.5C 478.83,316.518 477.663,320.518 476.5,324.5C 476.64,326.03 477.307,327.03 478.5,327.5C 478.197,333.347 477.031,333.681 475,328.5C 474.901,330.653 474.067,332.319 472.5,333.5C 479.132,309.775 486.632,286.442 495,263.5C 497.879,270.301 500.045,277.301 501.5,284.5 Z"/></g>
<g><path style="opacity:1" fill="#63afd7" d="M 501.5,284.5 C 503.943,289.5 505.61,294.834 506.5,300.5C 504.057,295.5 502.39,290.166 501.5,284.5 Z"/></g>
<g><path style="opacity:1" fill="#0f92d9" d="M 959.5,276.5 C 948.059,288.922 936.059,300.922 923.5,312.5C 923.762,311.022 923.429,309.689 922.5,308.5C 921.049,310.559 919.049,311.559 916.5,311.5C 916.703,309.362 917.703,307.695 919.5,306.5C 919.135,305.098 918.301,304.098 917,303.5C 915.056,304.439 913.389,305.773 912,307.5C 906,306.833 900,306.167 894,305.5C 892.875,308.866 891.542,312.199 890,315.5C 889.549,313.071 888.715,312.904 887.5,315C 888.554,316.388 888.72,317.888 888,319.5C 887.08,316.899 886.413,314.232 886,311.5C 885.23,310.402 884.397,310.402 883.5,311.5C 883.232,309.901 883.566,308.568 884.5,307.5C 886.714,305.005 887.881,302.005 888,298.5C 889.526,287.021 889.692,275.688 888.5,264.5C 888.5,262.5 888.5,260.5 888.5,258.5C 891.44,252.481 893.607,246.148 895,239.5C 894.491,246.218 893.324,252.885 891.5,259.5C 892.983,275.447 894.15,275.447 895,259.5C 895.483,260.448 895.649,261.448 895.5,262.5C 916.833,262.5 938.167,262.5 959.5,262.5C 960.5,258.833 962.833,256.5 966.5,255.5C 966.5,256.5 966.5,257.5 966.5,258.5C 963.079,258.238 962.079,259.572 963.5,262.5C 962.311,263.429 960.978,263.762 959.5,263.5C 959.192,265.924 959.526,268.257 960.5,270.5C 961.609,269.41 962.609,269.41 963.5,270.5C 960.929,271.728 959.595,273.728 959.5,276.5 Z"/></g>
<g><path style="opacity:1" fill="#0e91d9" d="M 800.5,266.5 C 800.498,272.523 800.165,278.523 799.5,284.5C 795.71,298.455 786.71,307.288 772.5,311C 767.227,312.288 761.894,313.122 756.5,313.5C 745.5,313.5 734.5,313.5 723.5,313.5C 723.5,299.167 723.5,284.833 723.5,270.5C 724.117,270.611 724.617,270.944 725,271.5C 725.333,263.5 725.667,255.5 726,247.5C 727.055,266.147 727.889,284.813 728.5,303.5C 730.275,292.921 730.941,282.254 730.5,271.5C 732.124,271.36 733.29,272.027 734,273.5C 734.333,269.5 734.667,265.5 735,261.5C 756.581,262.432 778.081,262.766 799.5,262.5C 799.232,264.099 799.566,265.432 800.5,266.5 Z"/></g>
<g><path style="opacity:1" fill="#3999cd" d="M 888.5,264.5 C 889.692,275.688 889.526,287.021 888,298.5C 887.881,302.005 886.714,305.005 884.5,307.5C 885.059,303.147 885.725,298.814 886.5,294.5C 887.979,284.704 888.646,274.704 888.5,264.5 Z"/></g>
<g><path style="opacity:1" fill="#118dd6" d="M 122.5,291.5 C 129.499,307.5 140.166,320.5 154.5,330.5C 150.839,330.35 149.839,331.85 151.5,335C 149.833,335.667 148.167,335.667 146.5,335C 143.962,327.923 140.962,327.757 137.5,334.5C 128.859,335.498 120.192,335.831 111.5,335.5C 111.162,333.146 110.662,330.813 110,328.5C 109.251,333.489 108.585,338.489 108,343.5C 107.667,343.167 107.333,342.833 107,342.5C 106.123,334.688 105.289,327.021 104.5,319.5C 103.833,319.5 103.167,319.5 102.5,319.5C 102.141,304.131 102.641,288.797 104,273.5C 104.108,280.911 104.775,288.245 106,295.5C 106.8,287.784 106.633,280.117 105.5,272.5C 106.325,271.614 107.325,271.281 108.5,271.5C 108.169,279.528 108.502,287.528 109.5,295.5C 110.333,278.176 110.833,260.843 111,243.5C 111.333,253.833 111.667,264.167 112,274.5C 113.131,277.445 113.964,280.445 114.5,283.5C 115.822,283.67 116.989,283.337 118,282.5C 118.494,284.134 118.66,285.801 118.5,287.5C 113.048,289.581 112.215,292.914 116,297.5C 116.333,295.833 116.667,294.167 117,292.5C 117.725,294.158 118.892,294.658 120.5,294C 118.902,290.877 119.569,290.044 122.5,291.5 Z"/></g>
<g><path style="opacity:1" fill="#158cd5" d="M 501.5,284.5 C 502.39,290.166 504.057,295.5 506.5,300.5C 507.11,301.391 507.443,302.391 507.5,303.5C 507.477,307.764 508.81,311.431 511.5,314.5C 516.011,329.86 520.844,345.193 526,360.5C 526.826,363.793 527.326,367.126 527.5,370.5C 525.435,370.517 523.435,370.85 521.5,371.5C 521.953,370.542 522.619,369.708 523.5,369C 521.19,368.503 518.857,368.337 516.5,368.5C 516.662,366.473 516.495,364.473 516,362.5C 514.703,363.784 513.536,363.617 512.5,362C 513.764,360.139 514.764,358.139 515.5,356C 514.993,353.659 513.826,353.159 512,354.5C 511.378,349.737 511.545,348.737 512.5,351.5C 513.5,351.5 514.5,351.5 515.5,351.5C 515.571,348.689 516.238,346.022 517.5,343.5C 517.333,342.833 517.167,342.167 517,341.5C 516.667,342.5 516.333,343.5 516,344.5C 513.675,340.838 512.342,336.838 512,332.5C 511.517,333.448 511.351,334.448 511.5,335.5C 500.833,335.5 490.167,335.5 479.5,335.5C 479.806,332.615 479.473,329.948 478.5,327.5C 477.307,327.03 476.64,326.03 476.5,324.5C 477.663,320.518 478.83,316.518 480,312.5C 481.788,314.333 481.954,316.333 480.5,318.5C 481.274,319.711 482.107,319.711 483,318.5C 484.875,312 486.042,312.334 486.5,319.5C 487.5,319.5 488.5,319.5 489.5,319.5C 489.589,316.275 488.923,313.275 487.5,310.5C 487.667,309.5 487.833,308.5 488,307.5C 488.853,305.875 489.853,305.542 491,306.5C 491.315,303.628 491.815,300.795 492.5,298C 490.889,295.79 490.222,293.29 490.5,290.5C 492.124,290.36 493.29,291.027 494,292.5C 495.153,289.289 495.82,285.956 496,282.5C 496.27,285.362 497.104,288.028 498.5,290.5C 498.133,288.134 498.633,285.8 500,283.5C 500.383,284.056 500.883,284.389 501.5,284.5 Z"/></g>
<g><path style="opacity:1" fill="#67b1db" d="M 507.5,303.5 C 509.204,306.939 510.538,310.605 511.5,314.5C 508.81,311.431 507.477,307.764 507.5,303.5 Z"/></g>
<g><path style="opacity:1" fill="#138bd5" d="M 386.5,325.5 C 385.977,328.89 385.143,332.223 384,335.5C 379.597,346.207 375.097,356.874 370.5,367.5C 366.932,352.291 359.932,338.958 349.5,327.5C 347.615,325.947 346.615,323.947 346.5,321.5C 348.144,321.286 349.644,321.62 351,322.5C 350.852,321.175 351.018,320.008 351.5,319C 348.437,317.934 346.937,315.767 347,312.5C 344.915,313.647 343.415,312.98 342.5,310.5C 344.051,305.838 347.051,303.838 351.5,304.5C 349.429,306.93 349.096,309.597 350.5,312.5C 351.452,310.955 351.785,309.288 351.5,307.5C 362.187,307.168 372.854,307.501 383.5,308.5C 383.833,309.5 384.5,310.167 385.5,310.5C 387.003,309.948 388.669,309.948 390.5,310.5C 389.594,313.436 388.928,316.436 388.5,319.5C 387.325,319.281 386.325,319.614 385.5,320.5C 386.309,322.071 386.643,323.738 386.5,325.5 Z"/></g>
<g><path style="opacity:1" fill="#b1def9" d="M 634.5,159.5 C 634.5,159.833 634.5,160.167 634.5,160.5C 634.833,243.503 634.5,326.503 633.5,409.5C 632.893,409.376 632.56,409.043 632.5,408.5C 633.499,363.003 633.832,317.336 633.5,271.5C 633.168,233.996 633.502,196.663 634.5,159.5 Z"/></g>
<g><path style="opacity:1" fill="#55a6d0" d="M 751.5,229.5 C 742.167,229.5 732.833,229.5 723.5,229.5C 723.5,243.167 723.5,256.833 723.5,270.5C 723.5,284.833 723.5,299.167 723.5,313.5C 734.5,313.5 745.5,313.5 756.5,313.5C 745.346,314.495 734.012,314.828 722.5,314.5C 722.5,285.833 722.5,257.167 722.5,228.5C 732.348,228.173 742.014,228.506 751.5,229.5 Z"/></g>
<g><path style="opacity:1" fill="#178bd4" d="M 923.5,312.5 C 906.221,331.113 888.221,349.113 869.5,366.5C 870.545,363.455 872.545,361.455 875.5,360.5C 875.286,358.856 875.62,357.356 876.5,356C 872.551,353.377 869.551,349.877 867.5,345.5C 866.738,346.628 866.071,347.795 865.5,349C 863.266,350.75 860.932,352.25 858.5,353.5C 869.406,341.02 877.739,327.02 883.5,311.5C 884.397,310.402 885.23,310.402 886,311.5C 886.413,314.232 887.08,316.899 888,319.5C 888.72,317.888 888.554,316.388 887.5,315C 888.715,312.904 889.549,313.071 890,315.5C 891.542,312.199 892.875,308.866 894,305.5C 900,306.167 906,306.833 912,307.5C 913.389,305.773 915.056,304.439 917,303.5C 918.301,304.098 919.135,305.098 919.5,306.5C 917.703,307.695 916.703,309.362 916.5,311.5C 919.049,311.559 921.049,310.559 922.5,308.5C 923.429,309.689 923.762,311.022 923.5,312.5 Z"/></g>
<g><path style="opacity:1" fill="#3c6bad" d="M 1172.5,351.5 C 1170.21,350.684 1168.21,349.35 1166.5,347.5C 1165.48,348.853 1164.14,349.52 1162.5,349.5C 1162.5,348.5 1162.5,347.5 1162.5,346.5C 1163.77,345.923 1163.77,345.257 1162.5,344.5C 1159.95,343.058 1157.28,341.892 1154.5,341C 1086.1,340.17 1017.76,340.337 949.5,341.5C 946.827,341.684 946.16,342.851 947.5,345C 945.144,345.155 942.811,345.155 940.5,345C 939.573,347.97 937.573,349.803 934.5,350.5C 935.687,352.975 935.353,355.309 933.5,357.5C 934.04,358.748 934.707,359.915 935.5,361C 934.975,361.692 934.308,362.192 933.5,362.5C 932.833,361.167 932.167,359.833 931.5,358.5C 931.167,359.333 930.833,360.167 930.5,361C 931.418,363.086 932.085,365.253 932.5,367.5C 931.5,367.5 930.5,367.5 929.5,367.5C 929.715,365.821 929.048,364.821 927.5,364.5C 929.052,351.511 936.052,343.345 948.5,340C 1017.5,339.333 1086.5,339.333 1155.5,340C 1162.39,342.061 1168.06,345.894 1172.5,351.5 Z"/></g>
<g><path style="opacity:1" fill="#2866b8" d="M 1162.5,346.5 C 1160.65,349.171 1157.99,350.171 1154.5,349.5C 1154.48,347.857 1155.15,346.524 1156.5,345.5C 1155.33,344.416 1154,343.583 1152.5,343C 1087.79,342.83 1023.13,342.33 958.5,341.5C 956.024,342.229 953.524,342.896 951,343.5C 949.97,343.164 949.47,342.497 949.5,341.5C 1017.76,340.337 1086.1,340.17 1154.5,341C 1157.28,341.892 1159.95,343.058 1162.5,344.5C 1163.77,345.257 1163.77,345.923 1162.5,346.5 Z"/></g>
<g><path style="opacity:1" fill="#1286d2" d="M 104.5,319.5 C 105.289,327.021 106.123,334.688 107,342.5C 107.333,342.833 107.667,343.167 108,343.5C 108.585,338.489 109.251,333.489 110,328.5C 110.662,330.813 111.162,333.146 111.5,335.5C 120.192,335.831 128.859,335.498 137.5,334.5C 140.962,327.757 143.962,327.923 146.5,335C 148.167,335.667 149.833,335.667 151.5,335C 149.839,331.85 150.839,330.35 154.5,330.5C 166.904,338.37 179.904,345.203 193.5,351C 214.356,357.988 235.023,365.155 255.5,372.5C 252.179,372.536 249.012,371.869 246,370.5C 245.167,370.833 244.333,371.167 243.5,371.5C 246.928,373.225 250.595,374.392 254.5,375C 254.833,375.333 255.167,375.667 255.5,376C 254.667,376.167 253.833,376.333 253,376.5C 247.816,376.235 243.316,375.235 239.5,373.5C 239.5,372.5 239.5,371.5 239.5,370.5C 196.833,370.5 154.167,370.5 111.5,370.5C 111.665,366.818 111.499,363.152 111,359.5C 109.184,364.32 108.184,369.32 108,374.5C 107.667,370.833 107.333,367.167 107,363.5C 106.333,368.833 105.667,368.833 105,363.5C 104.5,348.837 104.333,334.17 104.5,319.5 Z"/></g>
<g><path style="opacity:1" fill="#1386d2" d="M 478.5,327.5 C 479.473,329.948 479.806,332.615 479.5,335.5C 490.167,335.5 500.833,335.5 511.5,335.5C 511.351,334.448 511.517,333.448 512,332.5C 512.342,336.838 513.675,340.838 516,344.5C 516.333,343.5 516.667,342.5 517,341.5C 517.167,342.167 517.333,342.833 517.5,343.5C 516.238,346.022 515.571,348.689 515.5,351.5C 514.5,351.5 513.5,351.5 512.5,351.5C 511.545,348.737 511.378,349.737 512,354.5C 513.826,353.159 514.993,353.659 515.5,356C 514.764,358.139 513.764,360.139 512.5,362C 513.536,363.617 514.703,363.784 516,362.5C 516.495,364.473 516.662,366.473 516.5,368.5C 518.857,368.337 521.19,368.503 523.5,369C 522.619,369.708 521.953,370.542 521.5,371.5C 518.848,371.41 516.515,372.076 514.5,373.5C 510.846,373.942 507.179,374.276 503.5,374.5C 494.148,374.566 484.815,374.232 475.5,373.5C 471.837,372.734 468.171,371.9 464.5,371C 462.714,370.804 461.381,369.971 460.5,368.5C 464.27,356.654 468.27,344.988 472.5,333.5C 474.067,332.319 474.901,330.653 475,328.5C 477.031,333.681 478.197,333.347 478.5,327.5 Z"/></g>
<g><path style="opacity:1" fill="#2b66b1" d="M 949.5,341.5 C 949.47,342.497 949.97,343.164 951,343.5C 953.524,342.896 956.024,342.229 958.5,341.5C 1023.13,342.33 1087.79,342.83 1152.5,343C 1154,343.583 1155.33,344.416 1156.5,345.5C 1155.15,346.524 1154.48,347.857 1154.5,349.5C 1157.99,350.171 1160.65,349.171 1162.5,346.5C 1162.5,347.5 1162.5,348.5 1162.5,349.5C 1164.14,349.52 1165.48,348.853 1166.5,347.5C 1168.21,349.35 1170.21,350.684 1172.5,351.5C 1172.83,352.167 1173.17,352.833 1173.5,353.5C 1173.74,356.647 1174.57,359.647 1176,362.5C 1176.5,430.833 1176.67,499.166 1176.5,567.5C 1174.24,580.594 1166.58,588.76 1153.5,592C 1085.5,592.667 1017.5,592.667 949.5,592C 937.935,588.767 930.768,581.267 928,569.5C 927.5,501.167 927.333,432.834 927.5,364.5C 929.048,364.821 929.715,365.821 929.5,367.5C 930.5,367.5 931.5,367.5 932.5,367.5C 932.085,365.253 931.418,363.086 930.5,361C 930.833,360.167 931.167,359.333 931.5,358.5C 932.167,359.833 932.833,361.167 933.5,362.5C 934.308,362.192 934.975,361.692 935.5,361C 934.707,359.915 934.04,358.748 933.5,357.5C 935.353,355.309 935.687,352.975 934.5,350.5C 937.573,349.803 939.573,347.97 940.5,345C 942.811,345.155 945.144,345.155 947.5,345C 946.16,342.851 946.827,341.684 949.5,341.5 Z"/></g>
<g><path style="opacity:1" fill="#1983cf" d="M 869.5,366.5 C 857.194,379.473 844.527,392.14 831.5,404.5C 831.34,402.801 831.506,401.134 832,399.5C 833.351,399.554 834.518,399.054 835.5,398C 834.465,396.726 833.298,395.56 832,394.5C 831.095,391.768 831.762,391.101 834,392.5C 834.5,392.167 835,391.833 835.5,391.5C 834.41,390.391 834.41,389.391 835.5,388.5C 837.071,387.691 838.738,387.357 840.5,387.5C 840.67,386.178 840.337,385.011 839.5,384C 836.45,383.321 833.45,382.488 830.5,381.5C 824.757,383.94 819.091,383.607 813.5,380.5C 812.833,380.833 812.167,381.167 811.5,381.5C 812.729,382.281 814.062,382.781 815.5,383C 810.162,382.265 804.828,382.432 799.5,383.5C 810.264,380.297 820.931,376.463 831.5,372C 841.19,366.823 850.19,360.657 858.5,353.5C 860.932,352.25 863.266,350.75 865.5,349C 866.071,347.795 866.738,346.628 867.5,345.5C 869.551,349.877 872.551,353.377 876.5,356C 875.62,357.356 875.286,358.856 875.5,360.5C 872.545,361.455 870.545,363.455 869.5,366.5 Z"/></g>
<g><path style="opacity:1" fill="#1385d2" d="M 630.5,401.5 C 625.155,387.126 619.821,372.793 614.5,358.5C 614.726,355.751 614.393,353.084 613.5,350.5C 614.247,350.264 615.08,349.93 616,349.5C 616.167,348.5 616.333,347.5 616.5,346.5C 614.659,343.693 612.992,340.693 611.5,337.5C 611.833,336.833 612.167,336.167 612.5,335.5C 614.048,337.922 615.714,337.922 617.5,335.5C 617.676,337.672 617.843,340.005 618,342.5C 619.706,340.295 621.206,337.962 622.5,335.5C 623.345,319.927 625.178,304.594 628,289.5C 628.167,304.844 628.667,320.178 629.5,335.5C 630.168,328.8 631.001,322.133 632,315.5C 632.167,329.833 632.333,344.167 632.5,358.5C 632.499,373.183 631.833,387.516 630.5,401.5 Z"/></g>
<g><path style="opacity:1" fill="#1381cf" d="M 102.5,319.5 C 103.167,319.5 103.833,319.5 104.5,319.5C 104.333,334.17 104.5,348.837 105,363.5C 105.667,368.833 106.333,368.833 107,363.5C 107.333,367.167 107.667,370.833 108,374.5C 108.184,369.32 109.184,364.32 111,359.5C 111.499,363.152 111.665,366.818 111.5,370.5C 154.167,370.5 196.833,370.5 239.5,370.5C 239.5,371.5 239.5,372.5 239.5,373.5C 243.316,375.235 247.816,376.235 253,376.5C 253.833,376.333 254.667,376.167 255.5,376C 255.167,375.667 254.833,375.333 254.5,375C 250.595,374.392 246.928,373.225 243.5,371.5C 244.333,371.167 245.167,370.833 246,370.5C 249.012,371.869 252.179,372.536 255.5,372.5C 262.749,375.708 269.249,380.041 275,385.5C 277.444,390.908 278.11,396.574 277,402.5C 276.722,403.416 276.222,404.082 275.5,404.5C 276.44,400.537 276.607,396.537 276,392.5C 274.773,398.715 273.273,398.882 271.5,393C 234.168,392.5 196.835,392.333 159.5,392.5C 159.688,394.103 159.188,395.437 158,396.5C 157.667,394.5 157.333,392.5 157,390.5C 155.89,392.037 154.39,392.703 152.5,392.5C 152.839,387.759 150.839,386.426 146.5,388.5C 145.96,389.748 145.293,390.915 144.5,392C 133.505,392.5 122.505,392.667 111.5,392.5C 111.5,398.5 111.5,404.5 111.5,410.5C 111.662,412.527 111.495,414.527 111,416.5C 110.639,409.801 109.972,403.135 109,396.5C 108.554,403.189 107.887,409.856 107,416.5C 106.759,413.711 106.092,411.044 105,408.5C 103.041,385.603 102.207,361.27 102.5,335.5C 102.5,330.167 102.5,324.833 102.5,319.5 Z"/></g>
<g><path style="opacity:1" fill="#97c9ec" d="M 521.5,371.5 C 519.485,372.924 517.152,373.59 514.5,373.5C 516.515,372.076 518.848,371.41 521.5,371.5 Z"/></g>
<g><path style="opacity:1" fill="#73b1e0" d="M 475.5,373.5 C 484.815,374.232 494.148,374.566 503.5,374.5C 500.016,375.165 496.349,375.499 492.5,375.5C 486.591,375.651 480.925,374.984 475.5,373.5 Z"/></g>
<g><path style="opacity:1" fill="#7ca1cc" d="M 1173.5,353.5 C 1175.13,355.858 1176.3,358.524 1177,361.5C 1177.83,430.335 1177.67,499.001 1176.5,567.5C 1176.67,499.166 1176.5,430.833 1176,362.5C 1174.57,359.647 1173.74,356.647 1173.5,353.5 Z"/></g>
<g><path style="opacity:1" fill="#177ecd" d="M 275.5,404.5 C 270.958,413.616 263.625,419.116 253.5,421C 239.556,422.595 225.556,422.928 211.5,422C 189.298,418.407 168.632,410.573 149.5,398.5C 148.108,399.605 146.941,400.939 146,402.5C 142.251,411.668 137.751,420.335 132.5,428.5C 132.435,426.304 131.768,424.304 130.5,422.5C 130.388,425.255 129.888,427.922 129,430.5C 127.407,424.066 127.907,417.733 130.5,411.5C 131.934,413.22 132.767,415.22 133,417.5C 136.051,414.048 136.051,410.714 133,407.5C 131.887,408.711 130.72,408.711 129.5,407.5C 128.5,407.833 127.833,408.5 127.5,409.5C 122.208,410.495 116.875,410.828 111.5,410.5C 111.5,404.5 111.5,398.5 111.5,392.5C 122.505,392.667 133.505,392.5 144.5,392C 145.293,390.915 145.96,389.748 146.5,388.5C 150.839,386.426 152.839,387.759 152.5,392.5C 154.39,392.703 155.89,392.037 157,390.5C 157.333,392.5 157.667,394.5 158,396.5C 159.188,395.437 159.688,394.103 159.5,392.5C 196.835,392.333 234.168,392.5 271.5,393C 273.273,398.882 274.773,398.715 276,392.5C 276.607,396.537 276.44,400.537 275.5,404.5 Z"/></g>
<g><path style="opacity:1" fill="#137ece" d="M 831.5,404.5 C 827.167,409.5 822.5,414.167 817.5,418.5C 817.703,416.956 818.37,415.622 819.5,414.5C 818.687,413.186 817.687,412.019 816.5,411C 789.109,411.154 761.942,410.321 735,408.5C 733.249,410.49 732.249,412.823 732,415.5C 730.447,409.011 729.447,409.011 729,415.5C 728.141,412.052 727.641,408.552 727.5,405C 727.6,402.698 728.267,400.698 729.5,399C 728.422,398.326 727.755,397.326 727.5,396C 728.071,393.456 728.738,390.956 729.5,388.5C 745.17,388.667 760.837,388.5 776.5,388C 782.5,387 788.5,386 794.5,385C 795.056,384.617 795.389,384.117 795.5,383.5C 796.833,383.5 798.167,383.5 799.5,383.5C 804.828,382.432 810.162,382.265 815.5,383C 814.062,382.781 812.729,382.281 811.5,381.5C 812.167,381.167 812.833,380.833 813.5,380.5C 819.091,383.607 824.757,383.94 830.5,381.5C 833.45,382.488 836.45,383.321 839.5,384C 840.337,385.011 840.67,386.178 840.5,387.5C 838.738,387.357 837.071,387.691 835.5,388.5C 834.41,389.391 834.41,390.391 835.5,391.5C 835,391.833 834.5,392.167 834,392.5C 831.762,391.101 831.095,391.768 832,394.5C 833.298,395.56 834.465,396.726 835.5,398C 834.518,399.054 833.351,399.554 832,399.5C 831.506,401.134 831.34,402.801 831.5,404.5 Z"/></g>
<g><path style="opacity:1" fill="#1579cb" d="M 729.5,388.5 C 728.738,390.956 728.071,393.456 727.5,396C 727.755,397.326 728.422,398.326 729.5,399C 728.267,400.698 727.6,402.698 727.5,405C 727.641,408.552 728.141,412.052 729,415.5C 729.447,409.011 730.447,409.011 732,415.5C 732.249,412.823 733.249,410.49 735,408.5C 761.942,410.321 789.109,411.154 816.5,411C 817.687,412.019 818.687,413.186 819.5,414.5C 818.37,415.622 817.703,416.956 817.5,418.5C 808.167,428.5 798.5,438.167 788.5,447.5C 788.095,443.538 786.595,442.871 784,445.5C 783.289,443.633 783.789,442.133 785.5,441C 785.167,440.667 784.833,440.333 784.5,440C 768.17,439.5 751.837,439.333 735.5,439.5C 734.833,443.167 734.167,446.833 733.5,450.5C 732.5,450.5 731.5,450.5 730.5,450.5C 730.665,453.518 730.498,456.518 730,459.5C 729.764,457.881 728.931,456.881 727.5,456.5C 727.789,453.351 727.289,450.351 726,447.5C 725.667,449.167 725.333,450.833 725,452.5C 724.831,464.674 724.331,476.674 723.5,488.5C 723.5,455.167 723.5,421.833 723.5,388.5C 725.5,388.5 727.5,388.5 729.5,388.5 Z"/></g>
<g><path style="opacity:1" fill="#1b78c8" d="M 101.5,335.5 C 101.833,335.5 102.167,335.5 102.5,335.5C 102.207,361.27 103.041,385.603 105,408.5C 106.092,411.044 106.759,413.711 107,416.5C 107.887,409.856 108.554,403.189 109,396.5C 109.972,403.135 110.639,409.801 111,416.5C 111.495,414.527 111.662,412.527 111.5,410.5C 116.875,410.828 122.208,410.495 127.5,409.5C 127.833,408.5 128.5,407.833 129.5,407.5C 130.72,408.711 131.887,408.711 133,407.5C 136.051,410.714 136.051,414.048 133,417.5C 132.767,415.22 131.934,413.22 130.5,411.5C 127.907,417.733 127.407,424.066 129,430.5C 129.888,427.922 130.388,425.255 130.5,422.5C 131.768,424.304 132.435,426.304 132.5,428.5C 127.174,440.132 121.841,451.799 116.5,463.5C 115.493,460.678 114.66,457.678 114,454.5C 113.667,454.833 113.333,455.167 113,455.5C 113.997,458.801 114.33,462.134 114,465.5C 115.085,466.293 116.252,466.96 117.5,467.5C 118.158,469.437 118.491,471.27 118.5,473C 114.931,475.363 112.598,474.529 111.5,470.5C 112.5,470.5 113.5,470.5 114.5,470.5C 114.5,469.5 114.5,468.5 114.5,467.5C 113.5,467.5 112.5,467.5 111.5,467.5C 111.211,461.755 111.711,456.088 113,450.5C 114,449.5 115,448.5 116,447.5C 115.591,449.225 115.758,450.892 116.5,452.5C 117.648,450.65 118.981,449.983 120.5,450.5C 118.854,447.163 116.354,444.83 113,443.5C 112.667,443.833 112.333,444.167 112,444.5C 111.667,440.167 111.333,435.833 111,431.5C 110.831,437.859 110.331,444.193 109.5,450.5C 108.676,447.215 108.176,443.882 108,440.5C 107.586,440.043 107.086,439.709 106.5,439.5C 105.158,445.76 104.325,452.093 104,458.5C 103.667,454.833 103.333,451.167 103,447.5C 102.5,459.162 102.333,470.829 102.5,482.5C 102.5,493.167 102.5,503.833 102.5,514.5C 102.5,540.167 102.5,565.833 102.5,591.5C 102.167,591.5 101.833,591.5 101.5,591.5C 101.5,506.167 101.5,420.833 101.5,335.5 Z"/></g>
<g><path style="opacity:1" fill="#4087c1" d="M 795.5,383.5 C 795.389,384.117 795.056,384.617 794.5,385C 788.5,386 782.5,387 776.5,388C 760.837,388.5 745.17,388.667 729.5,388.5C 727.5,388.5 725.5,388.5 723.5,388.5C 723.5,421.833 723.5,455.167 723.5,488.5C 723.5,489.167 723.167,489.5 722.5,489.5C 722.5,455.5 722.5,421.5 722.5,387.5C 739.17,387.667 755.837,387.5 772.5,387C 780.2,385.972 787.867,384.805 795.5,383.5 Z"/></g>
<g><path style="opacity:1" fill="#1873c7" d="M 788.5,447.5 C 772.833,463.833 756.833,479.833 740.5,495.5C 740.5,494.5 740.5,493.5 740.5,492.5C 739.5,492.5 738.5,492.5 737.5,492.5C 737.433,490.599 737.767,488.766 738.5,487C 739.996,485.669 741.329,484.169 742.5,482.5C 741.998,481.479 741.332,481.312 740.5,482C 739,483.5 737.5,485 736,486.5C 734.87,484.067 733.704,481.734 732.5,479.5C 730.833,479.5 729.167,479.5 727.5,479.5C 727.5,471.833 727.5,464.167 727.5,456.5C 728.931,456.881 729.764,457.881 730,459.5C 730.498,456.518 730.665,453.518 730.5,450.5C 731.5,450.5 732.5,450.5 733.5,450.5C 734.167,446.833 734.833,443.167 735.5,439.5C 751.837,439.333 768.17,439.5 784.5,440C 784.833,440.333 785.167,440.667 785.5,441C 783.789,442.133 783.289,443.633 784,445.5C 786.595,442.871 788.095,443.538 788.5,447.5 Z"/></g>
<g><path style="opacity:1" fill="#95c3e8" d="M 451.5,443.5 C 454.152,443.41 456.485,444.076 458.5,445.5C 455.848,445.59 453.515,444.924 451.5,443.5 Z"/></g>
<g><path style="opacity:1" fill="#1874c8" d="M 451.5,443.5 C 453.515,444.924 455.848,445.59 458.5,445.5C 466.735,446.958 475.068,447.958 483.5,448.5C 492.652,449.494 501.985,449.827 511.5,449.5C 511.5,450.5 511.5,451.5 511.5,452.5C 507.818,452.335 504.152,452.501 500.5,453C 502.788,453.822 505.122,454.489 507.5,455C 506.833,455.333 506.167,455.667 505.5,456C 498.833,456.333 492.167,456.667 485.5,457C 487.384,457.216 489.051,457.883 490.5,459C 486.848,459.499 483.182,459.665 479.5,459.5C 479.5,458.5 479.5,457.5 479.5,456.5C 477.076,456.192 474.743,456.526 472.5,457.5C 471.359,458.425 471.359,459.259 472.5,460C 477.264,461.202 482.097,462.035 487,462.5C 495.164,461.961 503.331,461.461 511.5,461C 495.599,459.779 495.599,458.279 511.5,456.5C 511.33,455.178 511.663,454.011 512.5,453C 516.065,452.165 519.232,450.665 522,448.5C 528.802,449.937 535.968,450.771 543.5,451C 544.126,451.75 544.626,452.584 545,453.5C 545.808,451.421 545.641,449.421 544.5,447.5C 542.465,446.959 540.465,446.292 538.5,445.5C 539.333,445.167 540.167,444.833 541,444.5C 544.052,445.711 547.219,446.545 550.5,447C 548.338,449.522 548.005,452.355 549.5,455.5C 551.45,450.386 552.784,450.72 553.5,456.5C 552.5,456.5 551.5,456.5 550.5,456.5C 550.657,457.873 550.49,459.207 550,460.5C 548.982,459.294 548.482,459.627 548.5,461.5C 549.472,463.305 550.639,464.972 552,466.5C 552.118,463.629 552.784,460.962 554,458.5C 555.469,461.658 556.469,464.991 557,468.5C 557.671,469.252 558.504,469.586 559.5,469.5C 560.497,472.817 561.497,476.15 562.5,479.5C 561.599,480.29 560.932,481.29 560.5,482.5C 559.837,480.958 559.17,479.291 558.5,477.5C 555.788,479.26 552.788,479.927 549.5,479.5C 549.33,478.178 549.663,477.011 550.5,476C 548.733,472.834 547.733,469.334 547.5,465.5C 547.167,464.833 546.833,464.167 546.5,463.5C 545.226,466.367 544.393,469.367 544,472.5C 543.506,470.866 543.34,469.199 543.5,467.5C 508.302,467.823 473.136,467.49 438,466.5C 435.953,467.609 433.787,468.276 431.5,468.5C 431.5,466.833 431.5,465.167 431.5,463.5C 431.338,461.473 431.505,459.473 432,457.5C 434.346,451.963 436.179,446.297 437.5,440.5C 442.088,441.751 446.755,442.751 451.5,443.5 Z"/></g>
<g><path style="opacity:1" fill="#2477c5" d="M 559.5,469.5 C 558.504,469.586 557.671,469.252 557,468.5C 556.469,464.991 555.469,461.658 554,458.5C 552.784,460.962 552.118,463.629 552,466.5C 550.639,464.972 549.472,463.305 548.5,461.5C 548.482,459.627 548.982,459.294 550,460.5C 550.49,459.207 550.657,457.873 550.5,456.5C 551.5,456.5 552.5,456.5 553.5,456.5C 552.784,450.72 551.45,450.386 549.5,455.5C 548.005,452.355 548.338,449.522 550.5,447C 547.219,446.545 544.052,445.711 541,444.5C 540.167,444.833 539.333,445.167 538.5,445.5C 540.465,446.292 542.465,446.959 544.5,447.5C 545.641,449.421 545.808,451.421 545,453.5C 544.626,452.584 544.126,451.75 543.5,451C 535.968,450.771 528.802,449.937 522,448.5C 519.232,450.665 516.065,452.165 512.5,453C 511.663,454.011 511.33,455.178 511.5,456.5C 495.599,458.279 495.599,459.779 511.5,461C 503.331,461.461 495.164,461.961 487,462.5C 482.097,462.035 477.264,461.202 472.5,460C 471.359,459.259 471.359,458.425 472.5,457.5C 474.743,456.526 477.076,456.192 479.5,456.5C 479.5,457.5 479.5,458.5 479.5,459.5C 483.182,459.665 486.848,459.499 490.5,459C 489.051,457.883 487.384,457.216 485.5,457C 492.167,456.667 498.833,456.333 505.5,456C 506.167,455.667 506.833,455.333 507.5,455C 505.122,454.489 502.788,453.822 500.5,453C 504.152,452.501 507.818,452.335 511.5,452.5C 511.5,451.5 511.5,450.5 511.5,449.5C 501.985,449.827 492.652,449.494 483.5,448.5C 505.833,449.741 527.666,447.074 549,440.5C 549.945,440.905 550.612,441.572 551,442.5C 553.748,451.575 556.581,460.575 559.5,469.5 Z"/></g>
<g><path style="opacity:1" fill="#c1d4ea" d="M 1129.5,441.5 C 1131.8,445.763 1132.96,450.429 1133,455.5C 1133.82,461.016 1133.65,466.35 1132.5,471.5C 1132.26,461.395 1131.26,451.395 1129.5,441.5 Z"/></g>
<g><path style="opacity:1" fill="#f3f8fa" d="M 1129.5,441.5 C 1131.26,451.395 1132.26,461.395 1132.5,471.5C 1128.81,506.038 1110.81,529.871 1078.5,543C 1029.36,554.968 994.862,537.801 975,491.5C 965.176,455.932 974.009,426.099 1001.5,402C 1030.86,381.23 1061.52,379.23 1093.5,396C 1111.27,406.603 1123.27,421.77 1129.5,441.5 Z"/></g>
<g><path style="opacity:1" fill="#6e96c9" d="M 980.5,453.5 C 980.313,462.861 980.646,472.195 981.5,481.5C 979.943,476.431 979.276,471.098 979.5,465.5C 979.501,461.319 979.834,457.319 980.5,453.5 Z"/></g>
<g><path style="opacity:1" fill="#2c66b1" d="M 1041.5,393.5 C 1051.57,393.223 1061.57,393.89 1071.5,395.5C 1118.17,413.842 1134,447.175 1119,495.5C 1114.52,504.802 1108.35,512.802 1100.5,519.5C 1096.57,500.566 1085.23,488.9 1066.5,484.5C 1082.45,473.469 1086.29,459.136 1078,441.5C 1072.66,435.308 1066.16,430.975 1058.5,428.5C 1054.02,427.352 1049.35,427.185 1044.5,428C 1042.69,428.757 1041.02,429.59 1039.5,430.5C 1021.78,441.015 1017.62,455.682 1027,474.5C 1029.84,478.043 1033.01,481.21 1036.5,484C 1018.43,489.235 1007.43,501.068 1003.5,519.5C 992.563,508.965 985.23,496.298 981.5,481.5C 980.646,472.195 980.313,462.861 980.5,453.5C 986.433,425.464 1002.77,406.298 1029.5,396C 1033.63,395.673 1037.63,394.84 1041.5,393.5 Z"/></g>
<g><path style="opacity:1" fill="#6a99d3" d="M 1043.5,477.5 C 1048.46,478.254 1053.46,478.587 1058.5,478.5C 1054.35,479.647 1050.02,479.814 1045.5,479C 1044.58,478.722 1043.92,478.222 1043.5,477.5 Z"/></g>
<g><path style="opacity:1" fill="#7c98c4" d="M 1032.5,448.5 C 1031.73,453.797 1031.39,459.13 1031.5,464.5C 1030.84,462.527 1030.5,460.361 1030.5,458C 1030.33,454.523 1030.99,451.356 1032.5,448.5 Z"/></g>
<g><path style="opacity:1" fill="#b6c9ec" d="M 1072.5,449.5 C 1074.05,451.807 1074.71,454.473 1074.5,457.5C 1074.5,459.696 1074.16,461.696 1073.5,463.5C 1073.56,458.797 1073.23,454.13 1072.5,449.5 Z"/></g>
<g><path style="opacity:1" fill="#2c66b1" d="M 1061.5,438.5 C 1066.39,441.079 1070.06,444.746 1072.5,449.5C 1073.23,454.13 1073.56,458.797 1073.5,463.5C 1070.8,470.868 1065.8,475.868 1058.5,478.5C 1053.46,478.587 1048.46,478.254 1043.5,477.5C 1038.11,474.443 1034.11,470.109 1031.5,464.5C 1031.39,459.13 1031.73,453.797 1032.5,448.5C 1035.24,443.422 1039.24,439.755 1044.5,437.5C 1046.7,437.41 1048.86,437.077 1051,436.5C 1054.34,437.973 1057.84,438.64 1061.5,438.5 Z"/></g>
<g><path style="opacity:1" fill="#7192c2" d="M 1061.5,438.5 C 1057.84,438.64 1054.34,437.973 1051,436.5C 1048.86,437.077 1046.7,437.41 1044.5,437.5C 1050.33,434.666 1056,434.999 1061.5,438.5 Z"/></g>
<g><path style="opacity:1" fill="#aac5e3" d="M 1058.5,428.5 C 1052.04,428.232 1045.71,428.899 1039.5,430.5C 1041.02,429.59 1042.69,428.757 1044.5,428C 1049.35,427.185 1054.02,427.352 1058.5,428.5 Z"/></g>
<g><path style="opacity:1" fill="#b3cce8" d="M 1041.5,393.5 C 1047.99,392.346 1054.65,392.179 1061.5,393C 1065.13,393.149 1068.47,393.982 1071.5,395.5C 1061.57,393.89 1051.57,393.223 1041.5,393.5 Z"/></g>
<g><path style="opacity:1" fill="#add0f1" d="M 722.5,387.5 C 722.5,421.5 722.5,455.5 722.5,489.5C 669.997,489.832 617.664,489.499 565.5,488.5C 617.5,488.5 669.5,488.5 721.5,488.5C 721.168,454.663 721.502,420.996 722.5,387.5 Z"/></g>
<g><path style="opacity:1" fill="#196dc3" d="M 116.5,463.5 C 158.498,486.171 203.498,496.504 251.5,494.5C 256.844,494.666 262.177,494.499 267.5,494C 274.151,491.817 280.984,491.317 288,492.5C 288.833,492.167 289.667,491.833 290.5,491.5C 289.5,490.833 288.5,490.167 287.5,489.5C 289.724,488.22 291.724,488.553 293.5,490.5C 295.925,489.692 298.258,488.692 300.5,487.5C 298.054,486.017 298.388,484.851 301.5,484C 303.891,483.713 306.224,483.213 308.5,482.5C 309.696,482.846 309.696,483.346 308.5,484C 311.207,484.328 313.874,483.995 316.5,483C 316.5,481.333 316.5,479.667 316.5,478C 315.584,477.722 314.918,477.222 314.5,476.5C 321.402,472.28 328.069,467.614 334.5,462.5C 334.833,463 335.167,463.5 335.5,464C 332.189,472.446 329.189,480.946 326.5,489.5C 358.5,489.5 390.5,489.5 422.5,489.5C 424.549,489.706 424.883,490.539 423.5,492C 391.828,492.167 360.161,492.667 328.5,493.5C 362.383,494.217 396.049,494.883 429.5,495.5C 429.519,493.94 429.852,492.44 430.5,491C 429.21,488.208 428.043,485.375 427,482.5C 426.333,481.167 426.333,479.833 427,478.5C 429.236,481.043 430.736,484.043 431.5,487.5C 468.827,488.5 506.161,488.833 543.5,488.5C 543.5,487.167 543.5,485.833 543.5,484.5C 548.844,484.666 554.177,484.499 559.5,484C 560.056,483.617 560.389,483.117 560.5,482.5C 560.932,481.29 561.599,480.29 562.5,479.5C 563.787,482.406 564.787,485.406 565.5,488.5C 617.664,489.499 669.997,489.832 722.5,489.5C 723.167,489.5 723.5,489.167 723.5,488.5C 724.331,476.674 724.831,464.674 725,452.5C 725.333,450.833 725.667,449.167 726,447.5C 727.289,450.351 727.789,453.351 727.5,456.5C 727.5,464.167 727.5,471.833 727.5,479.5C 729.167,479.5 730.833,479.5 732.5,479.5C 733.704,481.734 734.87,484.067 736,486.5C 737.5,485 739,483.5 740.5,482C 741.332,481.312 741.998,481.479 742.5,482.5C 741.329,484.169 739.996,485.669 738.5,487C 737.767,488.766 737.433,490.599 737.5,492.5C 738.5,492.5 739.5,492.5 740.5,492.5C 740.5,493.5 740.5,494.5 740.5,495.5C 735.5,501.167 730.167,506.5 724.5,511.5C 724.662,509.473 724.495,507.473 724,505.5C 723.653,507.18 722.653,508.18 721,508.5C 517.861,507.502 314.694,507.168 111.5,507.5C 111.666,503.486 111.499,499.486 111,495.5C 110.728,508.19 110.061,520.856 109,533.5C 108.82,511.482 108.154,489.482 107,467.5C 106.833,482.178 106.333,496.845 105.5,511.5C 104.621,501.671 103.621,492.004 102.5,482.5C 102.333,470.829 102.5,459.162 103,447.5C 103.333,451.167 103.667,454.833 104,458.5C 104.325,452.093 105.158,445.76 106.5,439.5C 107.086,439.709 107.586,440.043 108,440.5C 108.176,443.882 108.676,447.215 109.5,450.5C 110.331,444.193 110.831,437.859 111,431.5C 111.333,435.833 111.667,440.167 112,444.5C 112.333,444.167 112.667,443.833 113,443.5C 116.354,444.83 118.854,447.163 120.5,450.5C 118.981,449.983 117.648,450.65 116.5,452.5C 115.758,450.892 115.591,449.225 116,447.5C 115,448.5 114,449.5 113,450.5C 111.711,456.088 111.211,461.755 111.5,467.5C 112.5,467.5 113.5,467.5 114.5,467.5C 114.5,468.5 114.5,469.5 114.5,470.5C 113.5,470.5 112.5,470.5 111.5,470.5C 112.598,474.529 114.931,475.363 118.5,473C 118.491,471.27 118.158,469.437 117.5,467.5C 116.252,466.96 115.085,466.293 114,465.5C 114.33,462.134 113.997,458.801 113,455.5C 113.333,455.167 113.667,454.833 114,454.5C 114.66,457.678 115.493,460.678 116.5,463.5 Z"/></g>
<g><path style="opacity:1" fill="#2d74c0" d="M 314.5,476.5 C 314.918,477.222 315.584,477.722 316.5,478C 316.5,479.667 316.5,481.333 316.5,483C 313.874,483.995 311.207,484.328 308.5,484C 309.696,483.346 309.696,482.846 308.5,482.5C 306.224,483.213 303.891,483.713 301.5,484C 298.388,484.851 298.054,486.017 300.5,487.5C 298.258,488.692 295.925,489.692 293.5,490.5C 291.724,488.553 289.724,488.22 287.5,489.5C 288.5,490.167 289.5,490.833 290.5,491.5C 289.667,491.833 288.833,492.167 288,492.5C 280.984,491.317 274.151,491.817 267.5,494C 262.177,494.499 256.844,494.666 251.5,494.5C 273.64,492.566 294.64,486.566 314.5,476.5 Z"/></g>
<g><path style="opacity:1" fill="#1770c4" d="M 430.5,463.5 C 430.833,463.5 431.167,463.5 431.5,463.5C 431.5,465.167 431.5,466.833 431.5,468.5C 433.787,468.276 435.953,467.609 438,466.5C 473.136,467.49 508.302,467.823 543.5,467.5C 543.34,469.199 543.506,470.866 544,472.5C 544.393,469.367 545.226,466.367 546.5,463.5C 546.833,464.167 547.167,464.833 547.5,465.5C 547.733,469.334 548.733,472.834 550.5,476C 549.663,477.011 549.33,478.178 549.5,479.5C 552.788,479.927 555.788,479.26 558.5,477.5C 559.17,479.291 559.837,480.958 560.5,482.5C 560.389,483.117 560.056,483.617 559.5,484C 554.177,484.499 548.844,484.666 543.5,484.5C 543.5,485.833 543.5,487.167 543.5,488.5C 506.161,488.833 468.827,488.5 431.5,487.5C 430.736,484.043 429.236,481.043 427,478.5C 426.333,479.833 426.333,481.167 427,482.5C 428.043,485.375 429.21,488.208 430.5,491C 429.852,492.44 429.519,493.94 429.5,495.5C 396.049,494.883 362.383,494.217 328.5,493.5C 360.161,492.667 391.828,492.167 423.5,492C 424.883,490.539 424.549,489.706 422.5,489.5C 424.155,483.516 425.821,477.516 427.5,471.5C 429.655,469.383 430.655,466.716 430.5,463.5 Z"/></g>
<g><path style="opacity:1" fill="#7daedb" d="M 430.5,463.5 C 430.655,466.716 429.655,469.383 427.5,471.5C 428.129,468.603 429.129,465.936 430.5,463.5 Z"/></g>
<g><path style="opacity:1" fill="#2e67b1" d="M 1037.5,492.5 C 1047.17,492.334 1056.84,492.5 1066.5,493C 1084.31,497.936 1092.31,509.436 1090.5,527.5C 1064.88,542.128 1039.38,542.128 1014,527.5C 1012.38,509.377 1020.22,497.71 1037.5,492.5 Z"/></g>
<g><path style="opacity:1" fill="#196bc1" d="M 724.5,511.5 C 719.5,517.167 714.167,522.5 708.5,527.5C 708.199,524.683 706.866,524.016 704.5,525.5C 703.614,524.675 703.281,523.675 703.5,522.5C 506.167,522.5 308.833,522.5 111.5,522.5C 111.5,517.5 111.5,512.5 111.5,507.5C 314.694,507.168 517.861,507.502 721,508.5C 722.653,508.18 723.653,507.18 724,505.5C 724.495,507.473 724.662,509.473 724.5,511.5 Z"/></g>
<g><path style="opacity:1" fill="#1a67bf" d="M 111.5,507.5 C 111.5,512.5 111.5,517.5 111.5,522.5C 308.833,522.5 506.167,522.5 703.5,522.5C 703.281,523.675 703.614,524.675 704.5,525.5C 706.866,524.016 708.199,524.683 708.5,527.5C 692.833,543.833 676.833,559.833 660.5,575.5C 660.657,574.127 660.49,572.793 660,571.5C 477.236,572.499 294.403,572.833 111.5,572.5C 111.333,516.504 110.833,516.504 110,572.5C 109.667,577.167 109.333,581.833 109,586.5C 108.667,585.833 108.333,585.167 108,584.5C 107.5,563.836 107.333,543.169 107.5,522.5C 106.167,522.5 104.833,522.5 103.5,522.5C 103.806,519.615 103.473,516.948 102.5,514.5C 102.5,503.833 102.5,493.167 102.5,482.5C 103.621,492.004 104.621,501.671 105.5,511.5C 106.333,496.845 106.833,482.178 107,467.5C 108.154,489.482 108.82,511.482 109,533.5C 110.061,520.856 110.728,508.19 111,495.5C 111.499,499.486 111.666,503.486 111.5,507.5 Z"/></g>
<g><path style="opacity:1" fill="#1c62bc" d="M 102.5,514.5 C 103.473,516.948 103.806,519.615 103.5,522.5C 104.833,522.5 106.167,522.5 107.5,522.5C 107.333,543.169 107.5,563.836 108,584.5C 108.333,585.167 108.667,585.833 109,586.5C 109.333,581.833 109.667,577.167 110,572.5C 110.833,516.504 111.333,516.504 111.5,572.5C 294.403,572.833 477.236,572.499 660,571.5C 660.49,572.793 660.657,574.127 660.5,575.5C 656.167,580.167 651.833,584.833 647.5,589.5C 646.711,589.783 646.044,590.283 645.5,591C 464.5,591.5 283.5,591.667 102.5,591.5C 102.5,565.833 102.5,540.167 102.5,514.5 Z"/></g>
<g><path style="opacity:1" fill="#dfe9f1" d="M 647.5,589.5 C 646.561,592.241 644.727,594.241 642,595.5C 461.57,594.501 281.07,594.167 100.5,594.5C 100.5,593.5 100.5,592.5 100.5,591.5C 100.833,591.5 101.167,591.5 101.5,591.5C 101.833,591.5 102.167,591.5 102.5,591.5C 283.5,591.667 464.5,591.5 645.5,591C 646.044,590.283 646.711,589.783 647.5,589.5 Z"/></g>
</svg>
