<?xml version="1.0" encoding="UTF-8"?>
<!DOCTYPE svg PUBLIC "-//W3C//DTD SVG 1.1//EN" "http://www.w3.org/Graphics/SVG/1.1/DTD/svg11.dtd">
<svg xmlns="http://www.w3.org/2000/svg" version="1.1" width="48px" height="48px" style="shape-rendering:geometricPrecision; text-rendering:geometricPrecision; image-rendering:optimizeQuality; fill-rule:evenodd; clip-rule:evenodd" xmlns:xlink="http://www.w3.org/1999/xlink">
<g><path style="opacity:1" fill="#fefefe" d="M -0.5,-0.5 C 15.5,-0.5 31.5,-0.5 47.5,-0.5C 47.5,3.5 47.5,7.5 47.5,11.5C 31.5,11.5 15.5,11.5 -0.5,11.5C -0.5,7.5 -0.5,3.5 -0.5,-0.5 Z"/></g>
<g><path style="opacity:1" fill="#fdfdfd" d="M 47.5,12.5 C 47.5,16.5 47.5,20.5 47.5,24.5C 43.9359,23.5773 40.2693,23.244 36.5,23.5C 39.8333,19.5 43.5,15.8333 47.5,12.5 Z"/></g>
<g><path style="opacity:1" fill="#33a4db" d="M -0.5,11.5 C 15.5,11.5 31.5,11.5 47.5,11.5C 47.5,11.8333 47.5,12.1667 47.5,12.5C 43.5,15.8333 39.8333,19.5 36.5,23.5C 35.8333,23.5 35.1667,23.5 34.5,23.5C 34.7394,21.5328 34.4061,19.6995 33.5,18C 30.3117,16.6842 26.9783,16.1842 23.5,16.5C 24.1975,28.0719 22.8641,28.4052 19.5,17.5C 17.9547,16.5481 16.288,16.2148 14.5,16.5C 14.0706,19.3626 13.0706,22.0293 11.5,24.5C 9.16667,23.1667 6.83333,21.8333 4.5,20.5C 6.39605,19.5344 8.39605,19.2011 10.5,19.5C 10.5,18.5 10.5,17.5 10.5,16.5C 7.8127,16.3359 5.14603,16.5026 2.5,17C 0.844644,18.4443 0.177978,20.2776 0.5,22.5C 0.166667,22.5 -0.166667,22.5 -0.5,22.5C -0.5,18.8333 -0.5,15.1667 -0.5,11.5 Z"/></g>
<g><path style="opacity:1" fill="#f3f8fa" d="M 34.5,23.5 C 32.2677,24.8689 29.9344,25.8689 27.5,26.5C 27.5,27.8333 27.5,29.1667 27.5,30.5C 23.7526,30.8008 20.2526,30.1342 17,28.5C 12.0205,30.6395 6.85381,31.4729 1.5,31C 0.465217,29.4931 0.631884,27.9931 2,26.5C 3.81377,27.7596 5.64711,27.7596 7.5,26.5C 4.6601,25.8944 2.32676,24.5611 0.5,22.5C 0.177978,20.2776 0.844644,18.4443 2.5,17C 5.14603,16.5026 7.8127,16.3359 10.5,16.5C 10.5,17.5 10.5,18.5 10.5,19.5C 8.39605,19.2011 6.39605,19.5344 4.5,20.5C 6.83333,21.8333 9.16667,23.1667 11.5,24.5C 13.0706,22.0293 14.0706,19.3626 14.5,16.5C 16.288,16.2148 17.9547,16.5481 19.5,17.5C 22.8641,28.4052 24.1975,28.0719 23.5,16.5C 26.9783,16.1842 30.3117,16.6842 33.5,18C 34.4061,19.6995 34.7394,21.5328 34.5,23.5 Z"/></g>
<g><path style="opacity:1" fill="#4594cc" d="M 27.5,19.5 C 28.5,19.5 29.5,19.5 30.5,19.5C 30.7778,21.3464 30.1112,22.6798 28.5,23.5C 27.5713,22.3112 27.238,20.9778 27.5,19.5 Z"/></g>
<g><path style="opacity:1" fill="#6095c8" d="M 16.5,22.5 C 18.6246,23.3676 18.7913,24.3676 17,25.5C 15.3167,24.8235 15.1501,23.8235 16.5,22.5 Z"/></g>
<g><path style="opacity:1" fill="#fefefe" d="M 36.5,34.5 C 40.0649,35.7866 43.7316,35.7866 47.5,34.5C 47.5,38.8333 47.5,43.1667 47.5,47.5C 31.5,47.5 15.5,47.5 -0.5,47.5C -0.5,43.5 -0.5,39.5 -0.5,35.5C 7.83999,35.6664 16.1733,35.4997 24.5,35C 27.0386,32.6303 29.3719,30.1303 31.5,27.5C 32.7942,26.7101 33.9609,25.7101 35,24.5C 35.1787,28.0252 35.6787,31.3586 36.5,34.5 Z"/></g>
<g><path style="opacity:1" fill="#80a6cd" d="M 34.5,23.5 C 35.1667,23.5 35.8333,23.5 36.5,23.5C 36.5,27.1667 36.5,30.8333 36.5,34.5C 35.6787,31.3586 35.1787,28.0252 35,24.5C 33.9609,25.7101 32.7942,26.7101 31.5,27.5C 30.4324,26.5655 29.099,26.2322 27.5,26.5C 29.9344,25.8689 32.2677,24.8689 34.5,23.5 Z"/></g>
<g><path style="opacity:1" fill="#3871b6" d="M -0.5,22.5 C -0.166667,22.5 0.166667,22.5 0.5,22.5C 2.32676,24.5611 4.6601,25.8944 7.5,26.5C 5.64711,27.7596 3.81377,27.7596 2,26.5C 0.631884,27.9931 0.465217,29.4931 1.5,31C 6.85381,31.4729 12.0205,30.6395 17,28.5C 20.2526,30.1342 23.7526,30.8008 27.5,30.5C 27.5,29.1667 27.5,27.8333 27.5,26.5C 29.099,26.2322 30.4324,26.5655 31.5,27.5C 29.3719,30.1303 27.0386,32.6303 24.5,35C 16.1733,35.4997 7.83999,35.6664 -0.5,35.5C -0.5,31.1667 -0.5,26.8333 -0.5,22.5 Z"/></g>
<g><path style="opacity:1" fill="#3067b0" d="M 36.5,23.5 C 40.2693,23.244 43.9359,23.5773 47.5,24.5C 47.5,27.8333 47.5,31.1667 47.5,34.5C 43.7316,35.7866 40.0649,35.7866 36.5,34.5C 36.5,30.8333 36.5,27.1667 36.5,23.5 Z"/></g>
<g><path style="opacity:1" fill="#8eacd1" d="M 43.5,26.5 C 46.0412,28.4401 46.0412,30.6068 43.5,33C 39,33.8333 37.1667,32 38,27.5C 39.6779,25.4468 41.5112,25.1134 43.5,26.5 Z"/></g>
<g><path style="opacity:1" fill="#5c83bc" d="M 43.5,26.5 C 44.4124,27.7382 44.5791,29.0715 44,30.5C 43.6667,29.8333 43.3333,29.1667 43,28.5C 38.9493,31.4333 38.116,30.9333 40.5,27C 41.448,26.5172 42.448,26.3505 43.5,26.5 Z"/></g>
</svg>
