<?xml version="1.0" encoding="UTF-8"?>
<!DOCTYPE svg PUBLIC "-//W3C//DTD SVG 1.1//EN" "http://www.w3.org/Graphics/SVG/1.1/DTD/svg11.dtd">
<svg xmlns="http://www.w3.org/2000/svg" version="1.1" width="200px" height="99px" style="shape-rendering:geometricPrecision; text-rendering:geometricPrecision; image-rendering:optimizeQuality; fill-rule:evenodd; clip-rule:evenodd" xmlns:xlink="http://www.w3.org/1999/xlink">
<g><path style="opacity:1" fill="#25b1e6" d="M -0.5,-0.5 C 65.8333,-0.5 132.167,-0.5 198.5,-0.5C 196.5,2.16667 194.167,4.5 191.5,6.5C 190.17,5.16786 188.503,4.33452 186.5,4C 187.696,3.34569 187.696,2.84569 186.5,2.5C 183.299,5.48631 181.799,5.15297 182,1.5C 180.989,2.33663 179.822,2.66997 178.5,2.5C 178.5,3.5 178.5,4.5 178.5,5.5C 118.863,4.51153 59.196,4.1782 -0.5,4.5C -0.5,2.83333 -0.5,1.16667 -0.5,-0.5 Z"/></g>
<g><path style="opacity:1" fill="#24abe1" d="M 191.5,6.5 C 188.833,9.83333 185.833,12.8333 182.5,15.5C 182.033,13.289 181.033,11.289 179.5,9.5C 178.5,9.83333 177.833,10.5 177.5,11.5C 118.17,12.5 58.8371,12.8333 -0.5,12.5C -0.5,9.83333 -0.5,7.16667 -0.5,4.5C 59.196,4.1782 118.863,4.51153 178.5,5.5C 178.5,4.5 178.5,3.5 178.5,2.5C 179.822,2.66997 180.989,2.33663 182,1.5C 181.799,5.15297 183.299,5.48631 186.5,2.5C 187.696,2.84569 187.696,3.34569 186.5,4C 188.503,4.33452 190.17,5.16786 191.5,6.5 Z"/></g>
<g><path style="opacity:1" fill="#fbfdfd" d="M 198.5,-0.5 C 198.833,-0.5 199.167,-0.5 199.5,-0.5C 199.5,18.1667 199.5,36.8333 199.5,55.5C 198.023,53.193 196.023,51.3597 193.5,50C 180.405,49.0387 167.405,49.372 154.5,51C 152.951,52.214 151.785,53.714 151,55.5C 150.333,68.1667 150.333,80.8333 151,93.5C 151.997,95.3231 153.164,96.9897 154.5,98.5C 136.833,98.5 119.167,98.5 101.5,98.5C 103.427,95.2327 105.761,92.2327 108.5,89.5C 118.86,79.8063 128.86,69.8063 138.5,59.5C 146.5,52.1667 154.167,44.5 161.5,36.5C 164.5,34.1667 167.167,31.5 169.5,28.5C 174.167,24.5 178.5,20.1667 182.5,15.5C 185.833,12.8333 188.833,9.83333 191.5,6.5C 194.167,4.5 196.5,2.16667 198.5,-0.5 Z"/></g>
<g><path style="opacity:1" fill="#29a2da" d="M 182.5,15.5 C 178.5,20.1667 174.167,24.5 169.5,28.5C 169.719,27.325 169.386,26.325 168.5,25.5C 167.38,26.8334 166.047,27.3334 164.5,27C 167.701,23.4636 171.201,20.2969 175,17.5C 175.591,16.5165 175.257,15.8499 174,15.5C 169.018,19.4813 164.352,23.8146 160,28.5C 158.981,27.3128 157.814,26.3128 156.5,25.5C 155.571,24.3112 155.238,22.9778 155.5,21.5C 152.478,21.804 149.478,22.304 146.5,23C 144.859,24.129 143.859,25.629 143.5,27.5C 137.553,20.4174 129.886,17.084 120.5,17.5C 113.018,16.508 105.352,16.1746 97.5,16.5C 97.5,21.5 97.5,26.5 97.5,31.5C 95.955,32.2297 95.1216,33.563 95,35.5C 94.0853,34.6721 93.4186,33.6721 93,32.5C 90.2984,34.0425 89.1318,36.3759 89.5,39.5C 86.4609,32.7265 83.7942,25.7265 81.5,18.5C 78.9134,17.1836 75.9134,16.517 72.5,16.5C 69.3138,16.502 66.3138,16.8353 63.5,17.5C 62.0082,21.9871 60.3415,26.3205 58.5,30.5C 55.4308,23.9027 54.0974,24.2361 54.5,31.5C 52.6399,26.3858 50.9732,26.3858 49.5,31.5C 48.4763,30.1468 47.143,29.4802 45.5,29.5C 45.2865,31.1439 45.6198,32.6439 46.5,34C 44.8659,34.4935 43.1992,34.6602 41.5,34.5C 43.6966,30.6112 46.0299,26.7779 48.5,23C 38.8101,17.8427 28.4767,16.176 17.5,18C 2.21272,23.3928 -1.78728,33.2262 5.5,47.5C 4.5,47.5 3.5,47.5 2.5,47.5C 1.31407,43.497 0.314075,39.497 -0.5,35.5C -0.5,27.8333 -0.5,20.1667 -0.5,12.5C 58.8371,12.8333 118.17,12.5 177.5,11.5C 177.833,10.5 178.5,9.83333 179.5,9.5C 181.033,11.289 182.033,13.289 182.5,15.5 Z"/></g>
<g><path style="opacity:1" fill="#90cff0" d="M 63.5,17.5 C 66.3138,16.8353 69.3138,16.502 72.5,16.5C 75.9134,16.517 78.9134,17.1836 81.5,18.5C 75.5907,17.5447 69.5907,17.2114 63.5,17.5 Z"/></g>
<g><path style="opacity:1" fill="#fafdfc" d="M 41.5,34.5 C 35.2299,31.1339 28.5633,29.9672 21.5,31C 19.6707,32.1133 18.8374,33.6133 19,35.5C 22.1954,39.5102 26.362,41.5102 31.5,41.5C 37.3334,43.6747 42.5,47.0081 47,51.5C 47.8624,53.087 48.5291,54.7536 49,56.5C 50.9388,51.5148 52.7721,46.5148 54.5,41.5C 56.062,38.0184 57.3953,34.3517 58.5,30.5C 60.3415,26.3205 62.0082,21.9871 63.5,17.5C 69.5907,17.2114 75.5907,17.5447 81.5,18.5C 83.7942,25.7265 86.4609,32.7265 89.5,39.5C 91.8331,46.8326 94.1664,54.1659 96.5,61.5C 96.7828,62.2891 97.2828,62.9558 98,63.5C 98.4999,48.1703 98.6666,32.837 98.5,17.5C 105.833,17.5 113.167,17.5 120.5,17.5C 129.886,17.084 137.553,20.4174 143.5,27.5C 143.875,29.6976 144.542,31.6976 145.5,33.5C 147.202,45.4981 142.868,54.1648 132.5,59.5C 130.883,60.038 129.216,60.3713 127.5,60.5C 123.167,60.5 118.833,60.5 114.5,60.5C 114.5,66.8333 114.5,73.1667 114.5,79.5C 104.992,80.8225 95.3254,80.8225 85.5,79.5C 84.6701,76.9836 83.6701,74.6502 82.5,72.5C 82.6309,71.6236 82.2975,70.9569 81.5,70.5C 75.1667,73.1667 68.8333,73.1667 62.5,70.5C 60.6806,73.4573 59.3472,76.624 58.5,80C 52.4724,80.8303 46.4724,80.6636 40.5,79.5C 41.0402,78.2519 41.7069,77.0852 42.5,76C 29.5924,82.1387 16.5924,81.972 3.5,75.5C 2.56614,73.9052 2.56614,72.2385 3.5,70.5C 4.70496,67.7659 6.20496,65.0993 8,62.5C 13.8484,66.8418 20.3484,68.3418 27.5,67C 32.3271,64.5588 32.6604,61.7254 28.5,58.5C 20.0401,56.5649 12.3735,52.8983 5.5,47.5C -1.78728,33.2262 2.21272,23.3928 17.5,18C 28.4767,16.176 38.8101,17.8427 48.5,23C 46.0299,26.7779 43.6966,30.6112 41.5,34.5 Z"/></g>
<g><path style="opacity:1" fill="#2599d4" d="M 169.5,28.5 C 167.167,31.5 164.5,34.1667 161.5,36.5C 161.321,34.3944 160.321,32.7277 158.5,31.5C 158.646,32.9762 157.813,34.3095 156,35.5C 154.606,33.6125 152.773,32.2791 150.5,31.5C 150.167,32.8333 149.833,34.1667 149.5,35.5C 148.476,34.1468 147.143,33.4802 145.5,33.5C 144.542,31.6976 143.875,29.6976 143.5,27.5C 143.859,25.629 144.859,24.129 146.5,23C 149.478,22.304 152.478,21.804 155.5,21.5C 155.238,22.9778 155.571,24.3112 156.5,25.5C 157.814,26.3128 158.981,27.3128 160,28.5C 164.352,23.8146 169.018,19.4813 174,15.5C 175.257,15.8499 175.591,16.5165 175,17.5C 171.201,20.2969 167.701,23.4636 164.5,27C 166.047,27.3334 167.38,26.8334 168.5,25.5C 169.386,26.325 169.719,27.325 169.5,28.5 Z"/></g>
<g><path style="opacity:1" fill="#2e91cd" d="M 115.5,31.5 C 118.518,31.3354 121.518,31.502 124.5,32C 130.729,36.1708 131.062,40.8374 125.5,46C 123.866,46.4935 122.199,46.6602 120.5,46.5C 118.833,46.5 117.167,46.5 115.5,46.5C 115.5,41.5 115.5,36.5 115.5,31.5 Z"/></g>
<g><path style="opacity:1" fill="#2e94d0" d="M 58.5,30.5 C 57.3953,34.3517 56.062,38.0184 54.5,41.5C 54.6567,40.1266 54.49,38.7932 54,37.5C 52.4471,41.2991 51.1138,41.2991 50,37.5C 49.0857,39.6641 47.919,41.6641 46.5,43.5C 45.7702,42.0663 44.7702,40.8996 43.5,40C 44.5,39.5 45.5,39 46.5,38.5C 47.8333,37.5 47.8333,36.5 46.5,35.5C 44.5466,36.7607 42.5466,37.9274 40.5,39C 37.008,38.9296 34.008,39.7629 31.5,41.5C 26.362,41.5102 22.1954,39.5102 19,35.5C 18.8374,33.6133 19.6707,32.1133 21.5,31C 28.5633,29.9672 35.2299,31.1339 41.5,34.5C 43.1992,34.6602 44.8659,34.4935 46.5,34C 45.6198,32.6439 45.2865,31.1439 45.5,29.5C 47.143,29.4802 48.4763,30.1468 49.5,31.5C 50.9732,26.3858 52.6399,26.3858 54.5,31.5C 54.0974,24.2361 55.4308,23.9027 58.5,30.5 Z"/></g>
<g><path style="opacity:1" fill="#b5d7f0" d="M 120.5,17.5 C 113.167,17.5 105.833,17.5 98.5,17.5C 98.6666,32.837 98.4999,48.1703 98,63.5C 97.2828,62.9558 96.7828,62.2891 96.5,61.5C 97.494,51.6806 97.8274,41.6806 97.5,31.5C 97.5,26.5 97.5,21.5 97.5,16.5C 105.352,16.1746 113.018,16.508 120.5,17.5 Z"/></g>
<g><path style="opacity:1" fill="#2f8ac9" d="M 54.5,41.5 C 52.7721,46.5148 50.9388,51.5148 49,56.5C 48.5291,54.7536 47.8624,53.087 47,51.5C 42.5,47.0081 37.3334,43.6747 31.5,41.5C 34.008,39.7629 37.008,38.9296 40.5,39C 42.5466,37.9274 44.5466,36.7607 46.5,35.5C 47.8333,36.5 47.8333,37.5 46.5,38.5C 45.5,39 44.5,39.5 43.5,40C 44.7702,40.8996 45.7702,42.0663 46.5,43.5C 47.919,41.6641 49.0857,39.6641 50,37.5C 51.1138,41.2991 52.4471,41.2991 54,37.5C 54.49,38.7932 54.6567,40.1266 54.5,41.5 Z"/></g>
<g><path style="opacity:1" fill="#2e8cc9" d="M 161.5,36.5 C 154.167,44.5 146.5,52.1667 138.5,59.5C 136.741,59.0461 134.741,59.0461 132.5,59.5C 142.868,54.1648 147.202,45.4981 145.5,33.5C 147.143,33.4802 148.476,34.1468 149.5,35.5C 149.833,34.1667 150.167,32.8333 150.5,31.5C 152.773,32.2791 154.606,33.6125 156,35.5C 157.813,34.3095 158.646,32.9762 158.5,31.5C 160.321,32.7277 161.321,34.3944 161.5,36.5 Z"/></g>
<g><path style="opacity:1" fill="#93bee3" d="M 115.5,31.5 C 115.5,36.5 115.5,41.5 115.5,46.5C 117.167,46.5 118.833,46.5 120.5,46.5C 118.735,47.4614 116.735,47.7947 114.5,47.5C 114.179,41.9738 114.512,36.6405 115.5,31.5 Z"/></g>
<g><path style="opacity:1" fill="#3088c7" d="M 97.5,31.5 C 97.8274,41.6806 97.494,51.6806 96.5,61.5C 94.1664,54.1659 91.8331,46.8326 89.5,39.5C 89.1318,36.3759 90.2984,34.0425 93,32.5C 93.4186,33.6721 94.0853,34.6721 95,35.5C 95.1216,33.563 95.955,32.2297 97.5,31.5 Z"/></g>
<g><path style="opacity:1" fill="#2f7ebc" d="M -0.5,35.5 C 0.314075,39.497 1.31407,43.497 2.5,47.5C 3.5,47.5 4.5,47.5 5.5,47.5C 12.3735,52.8983 20.0401,56.5649 28.5,58.5C 25.2136,58.0712 22.0469,58.0712 19,58.5C 17.2533,57.6699 15.5866,56.6699 14,55.5C 12.6315,56.7026 11.1315,57.7026 9.5,58.5C 8.69194,58.1924 8.02527,57.6924 7.5,57C 8.75881,56.0766 10.0921,55.2432 11.5,54.5C 10.8333,54.1667 10.1667,53.8333 9.5,53.5C 6.36978,55.6576 3.03644,55.9909 -0.5,54.5C -0.5,48.1667 -0.5,41.8333 -0.5,35.5 Z"/></g>
<g><path style="opacity:1" fill="#3e83c0" d="M 71.5,38.5 C 72.1174,38.6107 72.6174,38.944 73,39.5C 75.4779,45.3824 76.6446,51.3824 76.5,57.5C 72.7311,59.1769 69.3978,58.6769 66.5,56C 68.5595,50.2596 70.2261,44.4262 71.5,38.5 Z"/></g>
<g><path style="opacity:1" fill="#2973b8" d="M 28.5,58.5 C 32.6604,61.7254 32.3271,64.5588 27.5,67C 20.3484,68.3418 13.8484,66.8418 8,62.5C 6.20496,65.0993 4.70496,67.7659 3.5,70.5C 3.44001,69.9569 3.10667,69.6236 2.5,69.5C 1.26501,70.3398 0.265012,71.3398 -0.5,72.5C -0.5,66.5 -0.5,60.5 -0.5,54.5C 3.03644,55.9909 6.36978,55.6576 9.5,53.5C 10.1667,53.8333 10.8333,54.1667 11.5,54.5C 10.0921,55.2432 8.75881,56.0766 7.5,57C 8.02527,57.6924 8.69194,58.1924 9.5,58.5C 11.1315,57.7026 12.6315,56.7026 14,55.5C 15.5866,56.6699 17.2533,57.6699 19,58.5C 22.0469,58.0712 25.2136,58.0712 28.5,58.5 Z"/></g>
<g><path style="opacity:1" fill="#3468b1" d="M 199.5,55.5 C 199.5,68.1667 199.5,80.8333 199.5,93.5C 198.053,95.4032 196.386,97.0699 194.5,98.5C 181.167,98.5 167.833,98.5 154.5,98.5C 153.164,96.9897 151.997,95.3231 151,93.5C 150.333,80.8333 150.333,68.1667 151,55.5C 151.785,53.714 152.951,52.214 154.5,51C 167.405,49.372 180.405,49.0387 193.5,50C 196.023,51.3597 198.023,53.193 199.5,55.5 Z"/></g>
<g><path style="opacity:1" fill="#e9f3f9" d="M 169.5,58.5 C 185.006,57.1711 191.839,64.1711 190,79.5C 184.928,90.1238 177.095,92.9571 166.5,88C 159.915,82.6427 157.749,75.8094 160,67.5C 162.406,63.5915 165.572,60.5915 169.5,58.5 Z"/></g>
<g><path style="opacity:1" fill="#3868af" d="M 172.5,60.5 C 184.74,60.9556 189.907,67.2889 188,79.5C 187,80.8333 186,82.1667 185,83.5C 183.691,81.0243 181.858,79.0243 179.5,77.5C 181.915,72.0082 180.415,68.3416 175,66.5C 169.585,68.3416 168.085,72.0082 170.5,77.5C 168.142,79.0243 166.309,81.0243 165,83.5C 158.456,72.6654 160.956,64.9987 172.5,60.5 Z"/></g>
<g><path style="opacity:1" fill="#3e6c9b" d="M 127.5,60.5 C 123.769,61.1955 119.935,61.8622 116,62.5C 116.288,68.2846 115.788,73.9513 114.5,79.5C 114.5,73.1667 114.5,66.8333 114.5,60.5C 118.833,60.5 123.167,60.5 127.5,60.5 Z"/></g>
<g><path style="opacity:1" fill="#4069ad" d="M 173.5,68.5 C 178.262,69.0925 179.596,71.5925 177.5,76C 171.202,76.4954 169.868,73.9954 173.5,68.5 Z"/></g>
<g><path style="opacity:1" fill="#2e66b0" d="M 3.5,70.5 C 2.56614,72.2385 2.56614,73.9052 3.5,75.5C 16.5924,81.972 29.5924,82.1387 42.5,76C 41.7069,77.0852 41.0402,78.2519 40.5,79.5C 46.4724,80.6636 52.4724,80.8303 58.5,80C 59.3472,76.624 60.6806,73.4573 62.5,70.5C 68.8333,73.1667 75.1667,73.1667 81.5,70.5C 82.2975,70.9569 82.6309,71.6236 82.5,72.5C 82.7233,75.7842 83.3899,78.9509 84.5,82C 88.8711,82.1725 93.2044,82.6725 97.5,83.5C 93.8776,84.3253 90.211,84.8253 86.5,85C 90.5979,87.2796 94.5979,87.4463 98.5,85.5C 101.494,87.0659 102.494,86.3992 101.5,83.5C 104.167,82.1667 106.833,82.1667 109.5,83.5C 108.675,84.3857 107.675,84.719 106.5,84.5C 106.831,86.3224 107.498,87.9891 108.5,89.5C 105.761,92.2327 103.427,95.2327 101.5,98.5C 67.5,98.5 33.5,98.5 -0.5,98.5C -0.5,89.8333 -0.5,81.1667 -0.5,72.5C 0.265012,71.3398 1.26501,70.3398 2.5,69.5C 3.10667,69.6236 3.44001,69.9569 3.5,70.5 Z"/></g>
<g><path style="opacity:1" fill="#3669b0" d="M 171.5,79.5 C 174.649,79.2114 177.649,79.7114 180.5,81C 181.765,82.3374 182.265,83.8374 182,85.5C 177.611,87.9488 173.111,88.1155 168.5,86C 167.483,84.9505 167.316,83.7839 168,82.5C 169.145,81.3636 170.312,80.3636 171.5,79.5 Z"/></g>
<g><path style="opacity:1" fill="#366db1" d="M 138.5,59.5 C 128.86,69.8063 118.86,79.8063 108.5,89.5C 107.498,87.9891 106.831,86.3224 106.5,84.5C 107.675,84.719 108.675,84.3857 109.5,83.5C 106.833,82.1667 104.167,82.1667 101.5,83.5C 102.494,86.3992 101.494,87.0659 98.5,85.5C 94.5979,87.4463 90.5979,87.2796 86.5,85C 90.211,84.8253 93.8776,84.3253 97.5,83.5C 93.2044,82.6725 88.8711,82.1725 84.5,82C 83.3899,78.9509 82.7233,75.7842 82.5,72.5C 83.6701,74.6502 84.6701,76.9836 85.5,79.5C 95.3254,80.8225 104.992,80.8225 114.5,79.5C 115.788,73.9513 116.288,68.2846 116,62.5C 119.935,61.8622 123.769,61.1955 127.5,60.5C 129.216,60.3713 130.883,60.038 132.5,59.5C 134.741,59.0461 136.741,59.0461 138.5,59.5 Z"/></g>
<g><path style="opacity:1" fill="#ecf7fc" d="M 199.5,93.5 C 199.5,95.1667 199.5,96.8333 199.5,98.5C 197.833,98.5 196.167,98.5 194.5,98.5C 196.386,97.0699 198.053,95.4032 199.5,93.5 Z"/></g>
</svg>
