<?xml version="1.0" encoding="UTF-8"?>
<!DOCTYPE svg PUBLIC "-//W3C//DTD SVG 1.1//EN" "http://www.w3.org/Graphics/SVG/1.1/DTD/svg11.dtd">
<svg xmlns="http://www.w3.org/2000/svg" version="1.1" width="460px" height="346px" style="shape-rendering:geometricPrecision; text-rendering:geometricPrecision; image-rendering:optimizeQuality; fill-rule:evenodd; clip-rule:evenodd" xmlns:xlink="http://www.w3.org/1999/xlink">
<g><path style="opacity:1" fill="#fefefe" d="M -0.5,-0.5 C 152.833,-0.5 306.167,-0.5 459.5,-0.5C 459.5,35.5 459.5,71.5 459.5,107.5C 459.167,107.5 458.833,107.5 458.5,107.5C 423.167,107.5 387.833,107.5 352.5,107.5C 349.005,106.889 345.672,105.889 342.5,104.5C 340.307,105.554 338.807,105.22 338,103.5C 225.237,104.499 112.404,104.832 -0.5,104.5C -0.5,69.5 -0.5,34.5 -0.5,-0.5 Z"/></g>
<g><path style="opacity:1" fill="#f3fefe" d="M 352.5,107.5 C 352.167,108.167 351.833,108.833 351.5,109.5C 347.587,110.45 344.92,112.783 343.5,116.5C 340.197,117.151 337.53,118.818 335.5,121.5C 333.216,121.975 331.216,122.975 329.5,124.5C 329.461,123.417 329.127,122.417 328.5,121.5C 329.524,120.148 330.524,118.815 331.5,117.5C 331.5,116.833 331.833,116.5 332.5,116.5C 334.854,116.162 337.187,115.662 339.5,115C 340.833,112.333 342.167,109.667 343.5,107C 228.834,106.5 114.167,106.333 -0.5,106.5C -0.5,105.833 -0.5,105.167 -0.5,104.5C 112.404,104.832 225.237,104.499 338,103.5C 338.807,105.22 340.307,105.554 342.5,104.5C 345.672,105.889 349.005,106.889 352.5,107.5 Z"/></g>
<g><path style="opacity:1" fill="#e5fdfe" d="M -0.5,107.5 C -0.5,107.167 -0.5,106.833 -0.5,106.5C 114.167,106.333 228.834,106.5 343.5,107C 342.167,109.667 340.833,112.333 339.5,115C 337.187,115.662 334.854,116.162 332.5,116.5C 333.5,115.167 334.5,113.833 335.5,112.5C 336.391,111.89 337.391,111.557 338.5,111.5C 340.505,110.746 341.172,109.579 340.5,108C 226.834,107.5 113.167,107.333 -0.5,107.5 Z"/></g>
<g><path style="opacity:1" fill="#afd6e4" d="M -0.5,108.5 C -0.5,108.167 -0.5,107.833 -0.5,107.5C 113.167,107.333 226.834,107.5 340.5,108C 341.172,109.579 340.505,110.746 338.5,111.5C 338.414,110.504 338.748,109.671 339.5,109C 226.167,108.5 112.834,108.333 -0.5,108.5 Z"/></g>
<g><path style="opacity:1" fill="#afc3cf" d="M 352.5,107.5 C 387.833,107.5 423.167,107.5 458.5,107.5C 458.5,107.833 458.5,108.167 458.5,108.5C 422.79,108.18 387.124,108.513 351.5,109.5C 351.833,108.833 352.167,108.167 352.5,107.5 Z"/></g>
<g><path style="opacity:1" fill="#579cba" d="M -0.5,109.5 C -0.5,109.167 -0.5,108.833 -0.5,108.5C 112.834,108.333 226.167,108.5 339.5,109C 338.748,109.671 338.414,110.504 338.5,111.5C 337.391,111.557 336.391,111.89 335.5,112.5C 335.5,111.5 335.5,110.5 335.5,109.5C 223.5,109.5 111.5,109.5 -0.5,109.5 Z"/></g>
<g><path style="opacity:1" fill="#27a9de" d="M -0.5,110.5 C -0.5,110.167 -0.5,109.833 -0.5,109.5C 111.5,109.5 223.5,109.5 335.5,109.5C 335.5,110.5 335.5,111.5 335.5,112.5C 334.5,113.833 333.5,115.167 332.5,116.5C 331.833,116.5 331.5,116.833 331.5,117.5C 329.172,119.3 326.505,120.467 323.5,121C 321.271,123.4 318.937,125.567 316.5,127.5C 314.004,128.58 311.67,129.914 309.5,131.5C 309.657,130.127 309.49,128.793 309,127.5C 306.105,123.853 302.938,121.353 299.5,120C 300.167,118 301.5,116.667 303.5,116C 301.299,115.175 299.466,115.675 298,117.5C 295.26,116.718 292.426,116.218 289.5,116C 275.833,115.333 262.167,115.333 248.5,116C 245.647,117.43 242.647,118.263 239.5,118.5C 239.5,117.5 239.5,116.5 239.5,115.5C 228.824,114.431 218.157,114.431 207.5,115.5C 207.5,116.5 207.5,117.5 207.5,118.5C 196.014,118.258 184.68,119.258 173.5,121.5C 171.5,121 169.5,120.5 167.5,120C 170.167,119 170.167,118 167.5,117C 168.5,116.667 169.5,116.333 170.5,116C 166.29,115.262 162.124,115.428 158,116.5C 155.865,115.873 153.698,115.373 151.5,115C 150.663,113.989 150.33,112.822 150.5,111.5C 146.486,111.334 142.486,111.501 138.5,112C 137.286,113.569 135.619,114.402 133.5,114.5C 130.303,114.483 127.469,113.483 125,111.5C 121.937,111.935 121.77,112.768 124.5,114C 122.715,115.163 120.715,115.83 118.5,116C 119.88,117.324 120.214,118.657 119.5,120C 116.854,120.497 114.187,120.664 111.5,120.5C 111.5,119.167 111.5,117.833 111.5,116.5C 110.178,116.33 109.011,116.663 108,117.5C 107.5,117 107,116.5 106.5,116C 102.848,115.501 99.1817,115.335 95.5,115.5C 95.5,116.833 95.5,118.167 95.5,119.5C 91.3435,119.669 87.3435,119.002 83.5,117.5C 82.2284,117.57 81.0617,117.903 80,118.5C 79.6667,117.167 79.3333,115.833 79,114.5C 75.4861,115.755 71.9861,117.089 68.5,118.5C 62.7499,116.062 56.7499,114.562 50.5,114C 54.129,113.043 53.7957,112.209 49.5,111.5C 45.993,111.76 45.3263,112.76 47.5,114.5C 45.1667,114.833 42.8333,115.167 40.5,115.5C 32.1818,114.76 23.8484,114.427 15.5,114.5C 15.5,113.5 15.5,112.5 15.5,111.5C 10.1667,111.167 4.83333,110.833 -0.5,110.5 Z"/></g>
<g><path style="opacity:1" fill="#2766b8" d="M 455.5,111.5 C 456.498,148.996 456.832,186.663 456.5,224.5C 455.167,206.012 454.5,187.179 454.5,168C 454.5,148.997 454.833,130.164 455.5,111.5 Z"/></g>
<g><path style="opacity:1" fill="#7b9cc5" d="M 351.5,109.5 C 351.719,110.675 351.386,111.675 350.5,112.5C 347.692,113.094 345.359,114.427 343.5,116.5C 344.92,112.783 347.587,110.45 351.5,109.5 Z"/></g>
<g><path style="opacity:1" fill="#25a3dd" d="M -0.5,110.5 C 4.83333,110.833 10.1667,111.167 15.5,111.5C 15.5,112.5 15.5,113.5 15.5,114.5C 23.8484,114.427 32.1818,114.76 40.5,115.5C 42.8333,115.167 45.1667,114.833 47.5,114.5C 45.3263,112.76 45.993,111.76 49.5,111.5C 53.7957,112.209 54.129,113.043 50.5,114C 56.7499,114.562 62.7499,116.062 68.5,118.5C 71.9861,117.089 75.4861,115.755 79,114.5C 79.3333,115.833 79.6667,117.167 80,118.5C 81.0617,117.903 82.2284,117.57 83.5,117.5C 87.3435,119.002 91.3435,119.669 95.5,119.5C 95.5,118.167 95.5,116.833 95.5,115.5C 99.1817,115.335 102.848,115.501 106.5,116C 107,116.5 107.5,117 108,117.5C 109.011,116.663 110.178,116.33 111.5,116.5C 111.5,117.833 111.5,119.167 111.5,120.5C 114.187,120.664 116.854,120.497 119.5,120C 120.214,118.657 119.88,117.324 118.5,116C 120.715,115.83 122.715,115.163 124.5,114C 121.77,112.768 121.937,111.935 125,111.5C 127.469,113.483 130.303,114.483 133.5,114.5C 135.619,114.402 137.286,113.569 138.5,112C 142.486,111.501 146.486,111.334 150.5,111.5C 150.33,112.822 150.663,113.989 151.5,115C 153.698,115.373 155.865,115.873 158,116.5C 162.124,115.428 166.29,115.262 170.5,116C 169.5,116.333 168.5,116.667 167.5,117C 170.167,118 170.167,119 167.5,120C 169.5,120.5 171.5,121 173.5,121.5C 184.68,119.258 196.014,118.258 207.5,118.5C 207.5,117.5 207.5,116.5 207.5,115.5C 218.157,114.431 228.824,114.431 239.5,115.5C 239.5,116.5 239.5,117.5 239.5,118.5C 242.647,118.263 245.647,117.43 248.5,116C 262.167,115.333 275.833,115.333 289.5,116C 292.426,116.218 295.26,116.718 298,117.5C 299.466,115.675 301.299,115.175 303.5,116C 301.5,116.667 300.167,118 299.5,120C 302.938,121.353 306.105,123.853 309,127.5C 309.49,128.793 309.657,130.127 309.5,131.5C 307.5,133.167 305.5,134.833 303.5,136.5C 300.202,138.505 297.202,141.005 294.5,144C 293.255,144.791 291.922,145.291 290.5,145.5C 291.105,143.974 292.271,142.974 294,142.5C 294.402,141.128 294.902,139.795 295.5,138.5C 287.201,135.072 287.535,132.406 296.5,130.5C 293.904,126.612 291.237,126.612 288.5,130.5C 287.833,132.5 287.167,134.5 286.5,136.5C 282.924,136.712 279.258,136.378 275.5,135.5C 272.529,136.294 269.529,136.961 266.5,137.5C 263.067,136.784 259.733,136.784 256.5,137.5C 254.283,136.631 251.95,136.298 249.5,136.5C 249.07,132.209 246.903,130.542 243,131.5C 238.596,129.378 234.096,129.378 229.5,131.5C 211.58,129.801 193.58,128.967 175.5,129C 173.655,127.872 171.655,127.372 169.5,127.5C 169.5,128.5 169.5,129.5 169.5,130.5C 168.391,130.557 167.391,130.89 166.5,131.5C 164.336,130.722 162.17,130.388 160,130.5C 159.667,133.167 159.333,135.833 159,138.5C 158.311,137.643 157.478,136.977 156.5,136.5C 155.033,136.723 153.533,137.056 152,137.5C 151.027,135.608 150.36,133.608 150,131.5C 149.333,130.167 148.667,130.167 148,131.5C 147.51,130.207 147.343,128.873 147.5,127.5C 145.396,127.201 143.396,127.534 141.5,128.5C 142.906,130.026 144.072,131.693 145,133.5C 146.768,139.629 148.601,145.629 150.5,151.5C 147.794,144.421 144.127,137.754 139.5,131.5C 129.681,130.506 119.681,130.173 109.5,130.5C 111.218,129.776 113.052,129.109 115,128.5C 115.612,126.763 114.946,125.763 113,125.5C 108.837,127.133 104.504,128.133 100,128.5C 98.4223,127.453 96.9223,127.453 95.5,128.5C 96.7287,129.281 98.062,129.781 99.5,130C 98.6634,131.011 98.33,132.178 98.5,133.5C 94.888,131.447 91.0546,129.78 87,128.5C 85.9887,129.337 84.8221,129.67 83.5,129.5C 78.5842,130.611 73.5842,130.778 68.5,130C 67.9535,129.075 67.2868,128.242 66.5,127.5C 64.6885,128.739 62.6885,129.406 60.5,129.5C 49.3035,127.827 38.3035,128.327 27.5,131C 22.7049,133.713 17.7049,136.046 12.5,138C 10.9632,139.11 10.2965,140.61 10.5,142.5C 9.48837,143.872 8.48837,145.205 7.5,146.5C 7.16667,146.5 6.83333,146.5 6.5,146.5C 6.5,145.5 6.5,144.5 6.5,143.5C 3.74379,143.716 1.41046,144.716 -0.5,146.5C -0.5,134.5 -0.5,122.5 -0.5,110.5 Z"/></g>
<g><path style="opacity:1" fill="#9fbbdd" d="M 335.5,121.5 C 332.071,125.262 328.071,128.262 323.5,130.5C 325.194,128.139 327.194,126.139 329.5,124.5C 331.216,122.975 333.216,121.975 335.5,121.5 Z"/></g>
<g><path style="opacity:1" fill="#249ddd" d="M 109.5,130.5 C 107.952,130.821 107.285,131.821 107.5,133.5C 103.831,132.697 101.164,133.864 99.5,137C 96.7737,137.182 94.1071,137.682 91.5,138.5C 90.5637,139.974 89.2303,140.974 87.5,141.5C 86.1195,141 85.4528,140 85.5,138.5C 86.5471,136.944 87.2137,135.277 87.5,133.5C 83.8203,133.762 82.487,132.428 83.5,129.5C 84.8221,129.67 85.9887,129.337 87,128.5C 91.0546,129.78 94.888,131.447 98.5,133.5C 98.33,132.178 98.6634,131.011 99.5,130C 98.062,129.781 96.7287,129.281 95.5,128.5C 96.9223,127.453 98.4223,127.453 100,128.5C 104.504,128.133 108.837,127.133 113,125.5C 114.946,125.763 115.612,126.763 115,128.5C 113.052,129.109 111.218,129.776 109.5,130.5 Z"/></g>
<g><path style="opacity:1" fill="#7fbcdd" d="M 109.5,130.5 C 119.681,130.173 129.681,130.506 139.5,131.5C 129.418,131.193 119.418,131.526 109.5,132.5C 109.5,131.833 109.5,131.167 109.5,130.5 Z"/></g>
<g><path style="opacity:1" fill="#349ed1" d="M 256.5,137.5 C 257.048,139.532 258.381,140.532 260.5,140.5C 260.5,141.5 260.5,142.5 260.5,143.5C 258.833,143.5 257.167,143.5 255.5,143.5C 255.5,142.167 255.5,140.833 255.5,139.5C 251.311,141.395 247.645,140.728 244.5,137.5C 244.167,137.833 243.833,138.167 243.5,138.5C 244.95,139.85 245.617,141.516 245.5,143.5C 242.672,141.252 239.672,139.252 236.5,137.5C 232.969,133.997 228.636,132.663 223.5,133.5C 220.038,132.518 216.371,132.185 212.5,132.5C 212.5,132.167 212.5,131.833 212.5,131.5C 198.343,130.504 184.01,130.171 169.5,130.5C 169.5,129.5 169.5,128.5 169.5,127.5C 171.655,127.372 173.655,127.872 175.5,129C 193.58,128.967 211.58,129.801 229.5,131.5C 234.096,129.378 238.596,129.378 243,131.5C 246.903,130.542 249.07,132.209 249.5,136.5C 251.95,136.298 254.283,136.631 256.5,137.5 Z"/></g>
<g><path style="opacity:1" fill="#a6daf1" d="M 316.5,127.5 C 314.314,129.634 311.981,131.801 309.5,134C 307.783,135.559 305.783,136.392 303.5,136.5C 305.5,134.833 307.5,133.167 309.5,131.5C 311.67,129.914 314.004,128.58 316.5,127.5 Z"/></g>
<g><path style="opacity:1" fill="#ceebf6" d="M 139.5,131.5 C 144.127,137.754 147.794,144.421 150.5,151.5C 151.167,151.5 151.5,151.833 151.5,152.5C 153.037,156.443 154.37,160.443 155.5,164.5C 152.978,164.872 150.978,164.039 149.5,162C 150.536,159.741 150.536,157.408 149.5,155C 146.596,150.112 144.596,144.945 143.5,139.5C 142.5,139.5 141.5,139.5 140.5,139.5C 140.859,137.234 140.192,135.401 138.5,134C 129.173,133.5 119.839,133.334 110.5,133.5C 110.727,135.933 109.727,137.599 107.5,138.5C 108.63,136.685 109.296,134.685 109.5,132.5C 119.418,131.526 129.418,131.193 139.5,131.5 Z"/></g>
<g><path style="opacity:1" fill="#fbfdfc" d="M 79.5,141.5 C 78.234,142.09 76.9007,142.59 75.5,143C 75.8333,143.333 76.1667,143.667 76.5,144C 74.792,146.043 72.792,147.71 70.5,149C 59.1888,148.508 47.8554,148.508 36.5,149C 35.944,149.383 35.6107,149.883 35.5,150.5C 32.6781,151.789 32.0114,153.789 33.5,156.5C 35.5771,158.082 37.9104,159.082 40.5,159.5C 44.1415,160.902 47.8082,161.902 51.5,162.5C 56.8093,164.561 62.476,165.894 68.5,166.5C 72.1875,168.232 75.8542,170.065 79.5,172C 81.1412,173.129 82.1412,174.629 82.5,176.5C 83.1634,179.423 84.8301,180.09 87.5,178.5C 88.6566,176.322 89.9899,174.322 91.5,172.5C 92.5366,168.333 93.8699,164.333 95.5,160.5C 99.2091,155.346 101.876,149.679 103.5,143.5C 104.612,141.581 105.946,139.914 107.5,138.5C 109.727,137.599 110.727,135.933 110.5,133.5C 119.839,133.334 129.173,133.5 138.5,134C 140.192,135.401 140.859,137.234 140.5,139.5C 141.5,139.5 142.5,139.5 143.5,139.5C 144.596,144.945 146.596,150.112 149.5,155C 150.536,157.408 150.536,159.741 149.5,162C 150.978,164.039 152.978,164.872 155.5,164.5C 155.419,171.993 158.419,177.66 164.5,181.5C 164.328,182.492 164.662,183.158 165.5,183.5C 165.5,183.833 165.5,184.167 165.5,184.5C 166.048,186.532 167.381,187.532 169.5,187.5C 170.265,169.657 170.932,151.657 171.5,133.5C 188.842,133.463 206.176,133.797 223.5,134.5C 224.167,134.5 224.833,134.5 225.5,134.5C 226.234,135.708 226.567,137.041 226.5,138.5C 229.518,138.335 232.518,138.502 235.5,139C 236.337,140.011 236.67,141.178 236.5,142.5C 238.677,142.586 240.677,143.253 242.5,144.5C 243.498,147.164 244.998,149.497 247,151.5C 247.667,155.833 247.667,160.167 247,164.5C 244.7,168.368 242.2,172.035 239.5,175.5C 237.408,177.169 235.408,178.836 233.5,180.5C 232.209,180.263 231.209,180.596 230.5,181.5C 226.865,182.114 223.198,182.448 219.5,182.5C 211.833,182.5 204.167,182.5 196.5,182.5C 196.5,192.167 196.5,201.833 196.5,211.5C 180.497,211.667 164.497,211.5 148.5,211C 147.415,206.275 145.415,202.108 142.5,198.5C 140.5,198.5 138.5,198.5 136.5,198.5C 127.813,198.674 119.147,198.34 110.5,197.5C 108.36,197.556 106.694,198.223 105.5,199.5C 103.64,203.083 101.973,206.749 100.5,210.5C 100.5,210.833 100.5,211.167 100.5,211.5C 90.1613,211.666 79.828,211.5 69.5,211C 71.0368,209.89 71.7035,208.39 71.5,206.5C 66.5629,207.937 61.5629,209.104 56.5,210C 55.944,210.383 55.6107,210.883 55.5,211.5C 54.8333,211.5 54.1667,211.5 53.5,211.5C 44.1667,211.5 34.8333,211.5 25.5,211.5C 22.8728,210.908 20.2062,210.575 17.5,210.5C 16.8333,209.833 16.1667,209.167 15.5,208.5C 11.9246,207.588 9.25791,205.422 7.5,202C 10.3693,199.103 12.2027,195.603 13,191.5C 13.9078,189.561 15.4078,188.561 17.5,188.5C 20.2938,189.921 23.2938,190.921 26.5,191.5C 26.6107,192.117 26.944,192.617 27.5,193C 34.3464,193.821 41.013,193.654 47.5,192.5C 50.1522,192.59 52.4855,191.924 54.5,190.5C 57.5839,188.986 57.9172,187.153 55.5,185C 55.8333,184.667 56.1667,184.333 56.5,184C 54.0243,182.691 52.0243,180.858 50.5,178.5C 49.7065,178.931 48.8732,179.265 48,179.5C 44.0775,177.85 39.9108,177.017 35.5,177C 34.2412,176.077 32.9079,175.243 31.5,174.5C 23.5839,173.473 16.2505,170.973 9.5,167C 8.36362,165.855 7.36362,164.688 6.5,163.5C 6.08622,161.192 5.75289,158.858 5.5,156.5C 5.70632,153.664 6.37299,150.998 7.5,148.5C 10.8333,148.5 12.5,146.833 12.5,143.5C 14.8056,143.007 17.139,142.674 19.5,142.5C 19.5,141.167 19.5,139.833 19.5,138.5C 23.5,138.5 27.5,138.5 31.5,138.5C 31.5,137.5 31.5,136.5 31.5,135.5C 35.2156,134.681 38.8822,134.681 42.5,135.5C 45.2938,134.014 48.2938,133.347 51.5,133.5C 60.8468,134.789 70.1802,136.123 79.5,137.5C 79.5,138.833 79.5,140.167 79.5,141.5 Z"/></g>
<g><path style="opacity:1" fill="#88c5e0" d="M 223.5,134.5 C 223.5,134.167 223.5,133.833 223.5,133.5C 228.636,132.663 232.969,133.997 236.5,137.5C 232.904,136.2 229.237,135.2 225.5,134.5C 224.833,134.5 224.167,134.5 223.5,134.5 Z"/></g>
<g><path style="opacity:1" fill="#e1f8fc" d="M 35.5,132.5 C 44.8333,132.5 54.1667,132.5 63.5,132.5C 68.223,134.225 73.223,135.225 78.5,135.5C 78.8333,135.5 79.1667,135.5 79.5,135.5C 82.1471,137.551 82.1471,139.551 79.5,141.5C 79.5,140.167 79.5,138.833 79.5,137.5C 70.1802,136.123 60.8468,134.789 51.5,133.5C 48.2938,133.347 45.2938,134.014 42.5,135.5C 38.8822,134.681 35.2156,134.681 31.5,135.5C 31.5,136.5 31.5,137.5 31.5,138.5C 27.5,138.5 23.5,138.5 19.5,138.5C 19.5,139.833 19.5,141.167 19.5,142.5C 17.139,142.674 14.8056,143.007 12.5,143.5C 12.5,146.833 10.8333,148.5 7.5,148.5C 6.37299,150.998 5.70632,153.664 5.5,156.5C 5.75289,158.858 6.08622,161.192 6.5,163.5C 5.83333,163.167 5.16667,162.833 4.5,162.5C 3.83154,156.745 4.83154,151.412 7.5,146.5C 8.48837,145.205 9.48837,143.872 10.5,142.5C 17.765,136.7 26.0984,133.367 35.5,132.5 Z"/></g>
<g><path style="opacity:1" fill="#2398d5" d="M 290.5,145.5 C 287.412,145.197 285.746,146.53 285.5,149.5C 282.1,149.032 279.767,150.365 278.5,153.5C 277.311,154.429 275.978,154.762 274.5,154.5C 275.8,153.173 277.133,151.84 278.5,150.5C 277.232,148.953 275.565,147.953 273.5,147.5C 270.785,149.497 268.118,151.497 265.5,153.5C 262.215,154.259 259.215,155.592 256.5,157.5C 255.719,156.271 255.219,154.938 255,153.5C 254.23,154.598 253.397,154.598 252.5,153.5C 252.657,152.127 252.49,150.793 252,149.5C 250.341,148.183 249.174,146.517 248.5,144.5C 247.675,143.614 246.675,143.281 245.5,143.5C 245.617,141.516 244.95,139.85 243.5,138.5C 243.833,138.167 244.167,137.833 244.5,137.5C 247.645,140.728 251.311,141.395 255.5,139.5C 255.5,140.833 255.5,142.167 255.5,143.5C 257.167,143.5 258.833,143.5 260.5,143.5C 260.5,142.5 260.5,141.5 260.5,140.5C 258.381,140.532 257.048,139.532 256.5,137.5C 259.733,136.784 263.067,136.784 266.5,137.5C 269.529,136.961 272.529,136.294 275.5,135.5C 279.258,136.378 282.924,136.712 286.5,136.5C 287.167,134.5 287.833,132.5 288.5,130.5C 291.237,126.612 293.904,126.612 296.5,130.5C 287.535,132.406 287.201,135.072 295.5,138.5C 294.902,139.795 294.402,141.128 294,142.5C 292.271,142.974 291.105,143.974 290.5,145.5 Z"/></g>
<g><path style="opacity:1" fill="#3064a7" d="M 458.5,108.5 C 458.5,109.5 458.5,110.5 458.5,111.5C 457.501,152.33 457.168,193.33 457.5,234.5C 368.833,234.5 280.167,234.5 191.5,234.5C 191.351,233.448 191.517,232.448 192,231.5C 193.667,230.267 195.167,228.933 196.5,227.5C 198.847,225.419 201.18,223.419 203.5,221.5C 203.904,222.756 204.571,223.923 205.5,225C 205.167,225.5 204.833,226 204.5,226.5C 202.339,227.035 200.339,227.868 198.5,229C 202.089,229.207 205.589,229.707 209,230.5C 212.059,230.73 215.226,230.397 218.5,229.5C 219.93,229.579 221.264,229.246 222.5,228.5C 300.167,229.167 377.833,229.833 455.5,230.5C 456.452,228.955 456.785,227.288 456.5,225.5C 456.5,225.167 456.5,224.833 456.5,224.5C 456.832,186.663 456.498,148.996 455.5,111.5C 426.338,110.502 397.005,110.169 367.5,110.5C 367.617,112.484 366.95,114.15 365.5,115.5C 362.585,114.565 359.918,113.232 357.5,111.5C 354.257,114.738 350.257,116.571 345.5,117C 343.268,119.735 340.601,121.902 337.5,123.5C 338.89,125.169 339.223,126.836 338.5,128.5C 336.511,128.521 334.511,128.521 332.5,128.5C 335.433,130.159 336.1,132.493 334.5,135.5C 333.575,136.641 332.741,136.641 332,135.5C 330.049,137.137 330.216,138.637 332.5,140C 336.755,140.796 340.921,140.629 345,139.5C 347.714,140.206 349.881,141.539 351.5,143.5C 343.5,143.5 335.5,143.5 327.5,143.5C 326.809,141.978 325.642,140.978 324,140.5C 320.263,140.832 316.097,140.999 311.5,141C 310.667,141.833 309.833,142.667 309,143.5C 308.843,145.995 308.676,148.328 308.5,150.5C 305.188,151.618 301.855,151.618 298.5,150.5C 301.167,148.167 303.833,145.833 306.5,143.5C 312.707,139.894 318.373,135.561 323.5,130.5C 328.071,128.262 332.071,125.262 335.5,121.5C 337.53,118.818 340.197,117.151 343.5,116.5C 345.359,114.427 347.692,113.094 350.5,112.5C 351.386,111.675 351.719,110.675 351.5,109.5C 387.124,108.513 422.79,108.18 458.5,108.5 Z"/></g>
<g><path style="opacity:1" fill="#b5d8ef" d="M 212.5,131.5 C 212.5,131.833 212.5,132.167 212.5,132.5C 198.167,132.5 183.833,132.5 169.5,132.5C 169.5,150.833 169.5,169.167 169.5,187.5C 167.381,187.532 166.048,186.532 165.5,184.5C 166.496,184.414 167.329,184.748 168,185.5C 168.5,167.836 168.667,150.17 168.5,132.5C 182.99,131.504 197.657,131.171 212.5,131.5 Z"/></g>
<g><path style="opacity:1" fill="#93cde8" d="M 79.5,135.5 C 80.8333,135.5 82.1667,135.5 83.5,135.5C 83.7407,139.019 82.4074,141.685 79.5,143.5C 79.5,142.833 79.5,142.167 79.5,141.5C 82.1471,139.551 82.1471,137.551 79.5,135.5 Z"/></g>
<g><path style="opacity:1" fill="#3a9bce" d="M 83.5,129.5 C 82.487,132.428 83.8203,133.762 87.5,133.5C 87.2137,135.277 86.5471,136.944 85.5,138.5C 85.4528,140 86.1195,141 87.5,141.5C 89.2303,140.974 90.5637,139.974 91.5,138.5C 94.1071,137.682 96.7737,137.182 99.5,137C 101.164,133.864 103.831,132.697 107.5,133.5C 107.285,131.821 107.952,130.821 109.5,130.5C 109.5,131.167 109.5,131.833 109.5,132.5C 109.296,134.685 108.63,136.685 107.5,138.5C 105.946,139.914 104.612,141.581 103.5,143.5C 101.876,149.679 99.2091,155.346 95.5,160.5C 94.5416,160.953 93.7083,161.619 93,162.5C 92.7599,164.852 91.9265,166.852 90.5,168.5C 90.5,167.5 90.5,166.5 90.5,165.5C 90.6476,159.239 93.3143,154.573 98.5,151.5C 99.8333,148.833 99.8333,146.167 98.5,143.5C 96.7363,141.521 94.7363,141.188 92.5,142.5C 92.9767,143.478 93.6433,144.311 94.5,145C 92.9238,145.44 91.5904,146.273 90.5,147.5C 88.2454,144.005 85.912,143.838 83.5,147C 82.2068,147.49 80.8734,147.657 79.5,147.5C 79.5,148.833 79.5,150.167 79.5,151.5C 77.5853,151.216 75.9187,151.549 74.5,152.5C 72.3888,153.742 70.3888,153.742 68.5,152.5C 70.8273,152.753 72.8273,152.086 74.5,150.5C 75.6335,147.711 77.3001,145.378 79.5,143.5C 82.4074,141.685 83.7407,139.019 83.5,135.5C 82.1667,135.5 80.8333,135.5 79.5,135.5C 79.1667,135.5 78.8333,135.5 78.5,135.5C 73.777,133.775 68.777,132.775 63.5,132.5C 58.9229,131.01 54.0896,130.344 49,130.5C 44.2279,130.308 39.7279,130.975 35.5,132.5C 26.0984,133.367 17.765,136.7 10.5,142.5C 10.2965,140.61 10.9632,139.11 12.5,138C 17.7049,136.046 22.7049,133.713 27.5,131C 38.3035,128.327 49.3035,127.827 60.5,129.5C 62.6885,129.406 64.6885,128.739 66.5,127.5C 67.2868,128.242 67.9535,129.075 68.5,130C 73.5842,130.778 78.5842,130.611 83.5,129.5 Z"/></g>
<g><path style="opacity:1" fill="#8bc7e0" d="M 63.5,132.5 C 68.777,132.775 73.777,133.775 78.5,135.5C 73.223,135.225 68.223,134.225 63.5,132.5 Z"/></g>
<g><path style="opacity:1" fill="#a0cfe4" d="M 63.5,132.5 C 54.1667,132.5 44.8333,132.5 35.5,132.5C 39.7279,130.975 44.2279,130.308 49,130.5C 54.0896,130.344 58.9229,131.01 63.5,132.5 Z"/></g>
<g><path style="opacity:1" fill="#e1f7fc" d="M 225.5,134.5 C 229.237,135.2 232.904,136.2 236.5,137.5C 239.672,139.252 242.672,141.252 245.5,143.5C 246.833,145.5 248.167,147.5 249.5,149.5C 250.022,155.748 249.355,161.748 247.5,167.5C 245.5,170.167 243.5,172.833 241.5,175.5C 240.833,175.5 240.167,175.5 239.5,175.5C 242.2,172.035 244.7,168.368 247,164.5C 247.667,160.167 247.667,155.833 247,151.5C 244.998,149.497 243.498,147.164 242.5,144.5C 240.677,143.253 238.677,142.586 236.5,142.5C 236.67,141.178 236.337,140.011 235.5,139C 232.518,138.502 229.518,138.335 226.5,138.5C 226.567,137.041 226.234,135.708 225.5,134.5 Z"/></g>
<g><path style="opacity:1" fill="#6c88a5" d="M 327.5,143.5 C 335.5,143.5 343.5,143.5 351.5,143.5C 379.005,143.169 406.338,143.502 433.5,144.5C 397.5,144.5 361.5,144.5 325.5,144.5C 325.5,149.167 325.5,153.833 325.5,158.5C 325.167,158.5 324.833,158.5 324.5,158.5C 324.5,153.5 324.5,148.5 324.5,143.5C 325.5,143.5 326.5,143.5 327.5,143.5 Z"/></g>
<g><path style="opacity:1" fill="#cee3f4" d="M 433.5,144.5 C 433.83,163.008 433.497,181.341 432.5,199.5C 432.5,199.167 432.5,198.833 432.5,198.5C 432.5,180.833 432.5,163.167 432.5,145.5C 397.167,145.5 361.833,145.5 326.5,145.5C 326.283,150.23 326.617,154.897 327.5,159.5C 326.508,159.672 325.842,159.338 325.5,158.5C 325.5,153.833 325.5,149.167 325.5,144.5C 361.5,144.5 397.5,144.5 433.5,144.5 Z"/></g>
<g><path style="opacity:1" fill="#d8f5fd" d="M 79.5,141.5 C 79.5,142.167 79.5,142.833 79.5,143.5C 77.3001,145.378 75.6335,147.711 74.5,150.5C 72.8273,152.086 70.8273,152.753 68.5,152.5C 67.0813,151.549 65.4147,151.216 63.5,151.5C 63.0825,150.778 62.4158,150.278 61.5,150C 52.7855,149.225 44.1188,149.392 35.5,150.5C 35.6107,149.883 35.944,149.383 36.5,149C 47.8554,148.508 59.1888,148.508 70.5,149C 72.792,147.71 74.792,146.043 76.5,144C 76.1667,143.667 75.8333,143.333 75.5,143C 76.9007,142.59 78.234,142.09 79.5,141.5 Z"/></g>
<g><path style="opacity:1" fill="#268ecf" d="M 90.5,165.5 C 89.0713,167.945 87.2379,170.278 85,172.5C 82.4954,169.871 79.6621,167.704 76.5,166C 77.5,165.167 78.5,164.333 79.5,163.5C 76.7259,162.61 73.8925,162.61 71,163.5C 68.3472,163.379 65.8472,162.712 63.5,161.5C 66.7848,160.676 70.1182,160.176 73.5,160C 72.1667,159.667 70.8333,159.333 69.5,159C 73.2832,158.391 74.9498,156.224 74.5,152.5C 75.9187,151.549 77.5853,151.216 79.5,151.5C 79.5,150.167 79.5,148.833 79.5,147.5C 80.8734,147.657 82.2068,147.49 83.5,147C 85.912,143.838 88.2454,144.005 90.5,147.5C 91.5904,146.273 92.9238,145.44 94.5,145C 93.6433,144.311 92.9767,143.478 92.5,142.5C 94.7363,141.188 96.7363,141.521 98.5,143.5C 99.8333,146.167 99.8333,148.833 98.5,151.5C 93.3143,154.573 90.6476,159.239 90.5,165.5 Z"/></g>
<g><path style="opacity:1" fill="#2397d6" d="M 166.5,131.5 C 164.983,131.511 163.816,132.177 163,133.5C 160.404,140.511 158.904,147.845 158.5,155.5C 157.914,155.709 157.414,156.043 157,156.5C 156.667,155.167 156.333,153.833 156,152.5C 154.586,153.413 153.086,153.413 151.5,152.5C 151.5,151.833 151.167,151.5 150.5,151.5C 148.601,145.629 146.768,139.629 145,133.5C 144.072,131.693 142.906,130.026 141.5,128.5C 143.396,127.534 145.396,127.201 147.5,127.5C 147.343,128.873 147.51,130.207 148,131.5C 148.667,130.167 149.333,130.167 150,131.5C 150.36,133.608 151.027,135.608 152,137.5C 153.533,137.056 155.033,136.723 156.5,136.5C 157.478,136.977 158.311,137.643 159,138.5C 159.333,135.833 159.667,133.167 160,130.5C 162.17,130.388 164.336,130.722 166.5,131.5 Z"/></g>
<g><path style="opacity:1" fill="#669fc3" d="M 197.5,148.5 C 203.203,148.375 208.87,148.708 214.5,149.5C 222.576,151.047 224.576,155.38 220.5,162.5C 219.833,162.833 219.167,163.167 218.5,163.5C 221.09,160.029 221.09,156.529 218.5,153C 212.491,150.326 206.325,149.493 200,150.5C 199.098,155.294 198.265,159.961 197.5,164.5C 197.5,159.167 197.5,153.833 197.5,148.5 Z"/></g>
<g><path style="opacity:1" fill="#add7ee" d="M 197.5,148.5 C 202.316,147.35 207.316,147.184 212.5,148C 213.416,148.278 214.082,148.778 214.5,149.5C 208.87,148.708 203.203,148.375 197.5,148.5 Z"/></g>
<g><path style="opacity:1" fill="#6685a5" d="M 333.5,187.5 C 334.833,187.167 336.167,186.833 337.5,186.5C 336.713,188.104 335.38,188.771 333.5,188.5C 333.5,189.5 333.5,190.5 333.5,191.5C 363.815,193.492 394.482,194.159 425.5,193.5C 425.5,192.167 425.5,190.833 425.5,189.5C 425.5,187.167 425.5,184.833 425.5,182.5C 425.5,171.833 425.5,161.167 425.5,150.5C 394.833,150.5 364.167,150.5 333.5,150.5C 333.5,152.5 333.5,154.5 333.5,156.5C 332.532,154.393 332.198,152.059 332.5,149.5C 363.833,149.5 395.167,149.5 426.5,149.5C 426.5,164.5 426.5,179.5 426.5,194.5C 395.167,194.5 363.833,194.5 332.5,194.5C 332.198,191.941 332.532,189.607 333.5,187.5 Z"/></g>
<g><path style="opacity:1" fill="#96b2d4" d="M 306.5,143.5 C 303.833,145.833 301.167,148.167 298.5,150.5C 297.5,150.833 296.833,151.5 296.5,152.5C 293.339,153.913 290.339,155.58 287.5,157.5C 291.543,154.271 295.543,150.771 299.5,147C 301.886,145.807 304.22,144.64 306.5,143.5 Z"/></g>
<g><path style="opacity:1" fill="#2f598f" d="M 425.5,182.5 C 424.506,172.347 424.172,162.014 424.5,151.5C 409.833,151.5 395.167,151.5 380.5,151.5C 365.508,152.418 350.508,152.584 335.5,152C 334.807,153.684 334.474,155.184 334.5,156.5C 334.167,156.5 333.833,156.5 333.5,156.5C 333.5,154.5 333.5,152.5 333.5,150.5C 364.167,150.5 394.833,150.5 425.5,150.5C 425.5,161.167 425.5,171.833 425.5,182.5 Z"/></g>
<g><path style="opacity:1" fill="#3c66a3" d="M 380.5,151.5 C 380.5,152.5 380.5,153.5 380.5,154.5C 376.178,155.726 371.845,155.726 367.5,154.5C 367.5,155.5 367.5,156.5 367.5,157.5C 368.5,157.5 369.5,157.5 370.5,157.5C 370.5,159.5 370.5,161.5 370.5,163.5C 369.85,163.196 369.183,162.863 368.5,162.5C 367.41,163.727 366.076,164.56 364.5,165C 359.5,165.667 354.5,165.667 349.5,165C 348.944,164.617 348.611,164.117 348.5,163.5C 346.918,160.124 346.251,156.458 346.5,152.5C 343.68,152.248 341.014,152.748 338.5,154C 340.217,156.488 341.55,159.155 342.5,162C 342.478,164.183 341.478,165.683 339.5,166.5C 339.821,165.183 340.154,163.849 340.5,162.5C 340.547,160.962 339.88,159.962 338.5,159.5C 336.878,158.878 335.545,157.878 334.5,156.5C 334.474,155.184 334.807,153.684 335.5,152C 350.508,152.584 365.508,152.418 380.5,151.5 Z"/></g>
<g><path style="opacity:1" fill="#9cc4dc" d="M 63.5,151.5 C 54.118,150.028 44.7846,150.195 35.5,152C 34.4829,153.049 34.3162,154.216 35,155.5C 36.98,156.749 38.8133,158.082 40.5,159.5C 37.9104,159.082 35.5771,158.082 33.5,156.5C 32.0114,153.789 32.6781,151.789 35.5,150.5C 44.1188,149.392 52.7855,149.225 61.5,150C 62.4158,150.278 63.0825,150.778 63.5,151.5 Z"/></g>
<g><path style="opacity:1" fill="#f3f9fb" d="M 432.5,198.5 C 397.167,198.5 361.833,198.5 326.5,198.5C 326.226,193.737 326.559,189.07 327.5,184.5C 327.833,184.5 328.167,184.5 328.5,184.5C 333.486,184.695 335.152,182.528 333.5,178C 334.793,177.51 336.127,177.343 337.5,177.5C 337.833,177.5 338.167,177.5 338.5,177.5C 338.662,179.527 338.495,181.527 338,183.5C 336.333,184.733 334.833,186.067 333.5,187.5C 332.532,189.607 332.198,191.941 332.5,194.5C 363.833,194.5 395.167,194.5 426.5,194.5C 426.5,179.5 426.5,164.5 426.5,149.5C 395.167,149.5 363.833,149.5 332.5,149.5C 332.198,152.059 332.532,154.393 333.5,156.5C 333.833,156.5 334.167,156.5 334.5,156.5C 335.545,157.878 336.878,158.878 338.5,159.5C 338.5,161.5 338.5,163.5 338.5,165.5C 337.5,165.5 336.5,165.5 335.5,165.5C 335.843,163.517 335.176,162.183 333.5,161.5C 331.5,160.833 329.5,160.167 327.5,159.5C 326.617,154.897 326.283,150.23 326.5,145.5C 361.833,145.5 397.167,145.5 432.5,145.5C 432.5,163.167 432.5,180.833 432.5,198.5 Z"/></g>
<g><path style="opacity:1" fill="#368bc5" d="M 63.5,151.5 C 65.4147,151.216 67.0813,151.549 68.5,152.5C 70.3888,153.742 72.3888,153.742 74.5,152.5C 74.9498,156.224 73.2832,158.391 69.5,159C 70.8333,159.333 72.1667,159.667 73.5,160C 70.1182,160.176 66.7848,160.676 63.5,161.5C 65.8472,162.712 68.3472,163.379 71,163.5C 73.8925,162.61 76.7259,162.61 79.5,163.5C 78.5,164.333 77.5,165.167 76.5,166C 79.6621,167.704 82.4954,169.871 85,172.5C 87.2379,170.278 89.0713,167.945 90.5,165.5C 90.5,166.5 90.5,167.5 90.5,168.5C 88.8437,171.778 87.177,175.111 85.5,178.5C 84.4822,177.807 83.4822,177.141 82.5,176.5C 82.1412,174.629 81.1412,173.129 79.5,172C 75.8542,170.065 72.1875,168.232 68.5,166.5C 68.3893,165.883 68.056,165.383 67.5,165C 64.6287,164.882 61.962,164.216 59.5,163C 56.854,162.503 54.1873,162.336 51.5,162.5C 47.8082,161.902 44.1415,160.902 40.5,159.5C 38.8133,158.082 36.98,156.749 35,155.5C 34.3162,154.216 34.4829,153.049 35.5,152C 44.7846,150.195 54.118,150.028 63.5,151.5 Z"/></g>
<g><path style="opacity:1" fill="#2989ca" d="M 274.5,154.5 C 273.619,157.347 271.953,158.514 269.5,158C 268.128,159.242 267.128,160.742 266.5,162.5C 264.887,163.427 263.221,164.261 261.5,165C 259.963,166.11 259.297,167.61 259.5,169.5C 256.507,170.486 253.507,171.486 250.5,172.5C 250.5,173.5 250.5,174.5 250.5,175.5C 248.535,176.129 246.535,176.796 244.5,177.5C 242.97,177.36 241.97,176.693 241.5,175.5C 243.844,174.083 246.177,172.75 248.5,171.5C 248.569,168.916 249.735,166.916 252,165.5C 252.499,161.514 252.666,157.514 252.5,153.5C 253.397,154.598 254.23,154.598 255,153.5C 255.219,154.938 255.719,156.271 256.5,157.5C 259.215,155.592 262.215,154.259 265.5,153.5C 268.118,151.497 270.785,149.497 273.5,147.5C 275.565,147.953 277.232,148.953 278.5,150.5C 277.133,151.84 275.8,153.173 274.5,154.5 Z"/></g>
<g><path style="opacity:1" fill="#2d65b1" d="M 327.5,143.5 C 326.5,143.5 325.5,143.5 324.5,143.5C 324.5,148.5 324.5,153.5 324.5,158.5C 323.448,160.256 321.781,160.923 319.5,160.5C 319.167,163.5 320.5,164.833 323.5,164.5C 323.5,165.5 323.5,166.5 323.5,167.5C 320.52,167.759 318.687,166.426 318,163.5C 315.4,164.593 312.734,164.593 310,163.5C 309.167,163.667 308.333,163.833 307.5,164C 307.165,165.164 307.165,166.497 307.5,168C 306.646,169.022 305.646,169.855 304.5,170.5C 298.946,168.264 293.279,167.931 287.5,169.5C 286.753,166.086 286.753,162.753 287.5,159.5C 288.978,159.762 290.311,159.429 291.5,158.5C 293.907,157.095 295.574,155.095 296.5,152.5C 296.833,151.5 297.5,150.833 298.5,150.5C 301.855,151.618 305.188,151.618 308.5,150.5C 308.676,148.328 308.843,145.995 309,143.5C 309.833,142.667 310.667,141.833 311.5,141C 316.097,140.999 320.263,140.832 324,140.5C 325.642,140.978 326.809,141.978 327.5,143.5 Z"/></g>
<g><path style="opacity:1" fill="#81b7d6" d="M 6.5,146.5 C 6.83333,146.5 7.16667,146.5 7.5,146.5C 4.83154,151.412 3.83154,156.745 4.5,162.5C 2.74913,156.827 3.41579,151.493 6.5,146.5 Z"/></g>
<g><path style="opacity:1" fill="#338bc4" d="M 166.5,131.5 C 166.667,148.503 166.5,165.503 166,182.5C 165.878,180.563 165.045,179.23 163.5,178.5C 161.442,174.71 159.609,170.71 158,166.5C 157.292,165.619 156.458,164.953 155.5,164.5C 154.37,160.443 153.037,156.443 151.5,152.5C 153.086,153.413 154.586,153.413 156,152.5C 156.333,153.833 156.667,155.167 157,156.5C 157.414,156.043 157.914,155.709 158.5,155.5C 158.904,147.845 160.404,140.511 163,133.5C 163.816,132.177 164.983,131.511 166.5,131.5 Z"/></g>
<g><path style="opacity:1" fill="#8bb9d1" d="M 249.5,149.5 C 250.651,154.65 250.817,159.984 250,165.5C 249.292,166.381 248.458,167.047 247.5,167.5C 249.355,161.748 250.022,155.748 249.5,149.5 Z"/></g>
<g><path style="opacity:1" fill="#2f8ac8" d="M 218.5,163.5 C 214.004,165.615 209.171,166.615 204,166.5C 201.39,166.467 199.223,165.8 197.5,164.5C 198.265,159.961 199.098,155.294 200,150.5C 206.325,149.493 212.491,150.326 218.5,153C 221.09,156.529 221.09,160.029 218.5,163.5 Z"/></g>
<g><path style="opacity:1" fill="#68a5d2" d="M 169.5,130.5 C 184.01,130.171 198.343,130.504 212.5,131.5C 197.657,131.171 182.99,131.504 168.5,132.5C 168.162,149.691 167.162,166.691 165.5,183.5C 164.662,183.158 164.328,182.492 164.5,181.5C 164.443,180.391 164.11,179.391 163.5,178.5C 165.045,179.23 165.878,180.563 166,182.5C 166.5,165.503 166.667,148.503 166.5,131.5C 167.391,130.89 168.391,130.557 169.5,130.5 Z"/></g>
<g><path style="opacity:1" fill="#2e62a4" d="M 434.5,146.5 C 437.93,145.755 439.597,147.089 439.5,150.5C 438.344,164.211 438.344,177.878 439.5,191.5C 441.288,191.215 442.955,191.548 444.5,192.5C 444.192,193.308 443.692,193.975 443,194.5C 441,193.167 439,193.167 437,194.5C 436.835,198.661 435.668,202.494 433.5,206C 433.833,206.333 434.167,206.667 434.5,207C 430.833,207.667 427.167,207.667 423.5,207C 426.002,205.585 428.668,205.419 431.5,206.5C 431.5,205.5 431.5,204.5 431.5,203.5C 428.428,203.817 425.428,203.484 422.5,202.5C 422.137,201.817 421.804,201.15 421.5,200.5C 425.833,200.5 430.167,200.5 434.5,200.5C 434.5,182.5 434.5,164.5 434.5,146.5 Z"/></g>
<g><path style="opacity:1" fill="#76a9ce" d="M 51.5,162.5 C 54.1873,162.336 56.854,162.503 59.5,163C 61.962,164.216 64.6287,164.882 67.5,165C 68.056,165.383 68.3893,165.883 68.5,166.5C 62.476,165.894 56.8093,164.561 51.5,162.5 Z"/></g>
<g><path style="opacity:1" fill="#e3f7fd" d="M 212.5,132.5 C 216.371,132.185 220.038,132.518 223.5,133.5C 223.5,133.833 223.5,134.167 223.5,134.5C 206.176,133.797 188.842,133.463 171.5,133.5C 170.932,151.657 170.265,169.657 169.5,187.5C 169.5,169.167 169.5,150.833 169.5,132.5C 183.833,132.5 198.167,132.5 212.5,132.5 Z"/></g>
<g><path style="opacity:1" fill="#98b7d9" d="M 286.5,158.5 C 283.792,161.209 280.792,163.542 277.5,165.5C 279.493,161.82 282.493,159.487 286.5,158.5 Z"/></g>
<g><path style="opacity:1" fill="#468ebb" d="M 290.5,145.5 C 288.699,147.138 287.033,148.971 285.5,151C 276.89,156.461 268.89,162.627 261.5,169.5C 260.833,169.5 260.167,169.5 259.5,169.5C 259.297,167.61 259.963,166.11 261.5,165C 263.221,164.261 264.887,163.427 266.5,162.5C 267.128,160.742 268.128,159.242 269.5,158C 271.953,158.514 273.619,157.347 274.5,154.5C 275.978,154.762 277.311,154.429 278.5,153.5C 279.767,150.365 282.1,149.032 285.5,149.5C 285.746,146.53 287.412,145.197 290.5,145.5 Z"/></g>
<g><path style="opacity:1" fill="#3067ad" d="M 324.5,158.5 C 324.833,158.5 325.167,158.5 325.5,158.5C 325.842,159.338 326.508,159.672 327.5,159.5C 328.8,160.827 330.133,162.16 331.5,163.5C 328.878,164.459 326.878,166.125 325.5,168.5C 325.337,170.857 325.503,173.19 326,175.5C 328.035,177.24 329.869,179.074 331.5,181C 330.456,182.174 329.456,183.341 328.5,184.5C 328.167,184.5 327.833,184.5 327.5,184.5C 326.508,184.328 325.842,184.662 325.5,185.5C 324.514,189.97 324.181,194.637 324.5,199.5C 323.883,199.389 323.383,199.056 323,198.5C 322.667,195.833 322.333,193.167 322,190.5C 321.586,190.957 321.086,191.291 320.5,191.5C 319.548,189.955 319.215,188.288 319.5,186.5C 315.241,186.898 313.408,184.898 314,180.5C 310.842,176.559 306.675,174.393 301.5,174C 297.167,173.667 292.833,173.333 288.5,173C 287.748,172.329 287.414,171.496 287.5,170.5C 287.5,170.167 287.5,169.833 287.5,169.5C 293.279,167.931 298.946,168.264 304.5,170.5C 305.646,169.855 306.646,169.022 307.5,168C 307.165,166.497 307.165,165.164 307.5,164C 308.333,163.833 309.167,163.667 310,163.5C 312.734,164.593 315.4,164.593 318,163.5C 318.687,166.426 320.52,167.759 323.5,167.5C 323.5,166.5 323.5,165.5 323.5,164.5C 320.5,164.833 319.167,163.5 319.5,160.5C 321.781,160.923 323.448,160.256 324.5,158.5 Z"/></g>
<g><path style="opacity:1" fill="#6996bc" d="M 131.5,171.5 C 132.155,174.964 133.155,178.297 134.5,181.5C 133.209,181.263 132.209,181.596 131.5,182.5C 126.5,182.5 121.5,182.5 116.5,182.5C 116.198,179.941 116.532,177.607 117.5,175.5C 117.5,177.167 117.5,178.833 117.5,180.5C 121.714,181.659 125.881,181.659 130,180.5C 130.768,174.849 129.601,169.683 126.5,165C 125.451,164.508 124.451,164.674 123.5,165.5C 122.849,167.847 121.516,169.514 119.5,170.5C 120.712,165.978 122.379,161.645 124.5,157.5C 127.435,162.036 129.768,166.703 131.5,171.5 Z"/></g>
<g><path style="opacity:1" fill="#3869a9" d="M 296.5,152.5 C 295.574,155.095 293.907,157.095 291.5,158.5C 290.311,159.429 288.978,159.762 287.5,159.5C 286.753,162.753 286.753,166.086 287.5,169.5C 287.5,169.833 287.5,170.167 287.5,170.5C 285.516,170.617 283.85,169.95 282.5,168.5C 277.845,172.396 272.512,174.896 266.5,176C 264.971,179.029 262.638,181.195 259.5,182.5C 258.269,183.651 258.269,184.817 259.5,186C 257.254,187.257 255.921,189.09 255.5,191.5C 254.325,191.719 253.325,191.386 252.5,190.5C 253.326,189.549 253.492,188.549 253,187.5C 250.745,188.042 248.912,189.209 247.5,191C 248.793,191.49 250.127,191.657 251.5,191.5C 251.785,193.288 251.452,194.955 250.5,196.5C 247.897,195.438 245.23,195.272 242.5,196C 239.099,198.367 235.432,200.2 231.5,201.5C 231.833,200.833 232.167,200.167 232.5,199.5C 234.749,198.92 236.415,197.587 237.5,195.5C 250.885,185.432 264.218,175.432 277.5,165.5C 280.792,163.542 283.792,161.209 286.5,158.5C 286.5,157.833 286.833,157.5 287.5,157.5C 290.339,155.58 293.339,153.913 296.5,152.5 Z"/></g>
<g><path style="opacity:1" fill="#829bc1" d="M 327.5,159.5 C 329.5,160.167 331.5,160.833 333.5,161.5C 333.167,162.833 332.833,164.167 332.5,165.5C 330.053,165.615 328.053,166.615 326.5,168.5C 326.167,168.5 325.833,168.5 325.5,168.5C 326.878,166.125 328.878,164.459 331.5,163.5C 330.133,162.16 328.8,160.827 327.5,159.5 Z"/></g>
<g><path style="opacity:1" fill="#bbd5e3" d="M 197.5,148.5 C 197.5,153.833 197.5,159.167 197.5,164.5C 199.223,165.8 201.39,166.467 204,166.5C 209.171,166.615 214.004,165.615 218.5,163.5C 219.167,163.167 219.833,162.833 220.5,162.5C 220.67,163.822 220.337,164.989 219.5,166C 211.887,167.262 204.22,167.762 196.5,167.5C 196.177,160.978 196.51,154.645 197.5,148.5 Z"/></g>
<g><path style="opacity:1" fill="#5593be" d="M 245.5,143.5 C 246.675,143.281 247.675,143.614 248.5,144.5C 249.174,146.517 250.341,148.183 252,149.5C 252.49,150.793 252.657,152.127 252.5,153.5C 252.666,157.514 252.499,161.514 252,165.5C 249.735,166.916 248.569,168.916 248.5,171.5C 246.177,172.75 243.844,174.083 241.5,175.5C 243.5,172.833 245.5,170.167 247.5,167.5C 248.458,167.047 249.292,166.381 250,165.5C 250.817,159.984 250.651,154.65 249.5,149.5C 248.167,147.5 246.833,145.5 245.5,143.5 Z"/></g>
<g><path style="opacity:1" fill="#307fba" d="M 117.5,175.5 C 117.893,173.716 118.559,172.05 119.5,170.5C 121.516,169.514 122.849,167.847 123.5,165.5C 124.451,164.674 125.451,164.508 126.5,165C 129.601,169.683 130.768,174.849 130,180.5C 125.881,181.659 121.714,181.659 117.5,180.5C 117.5,178.833 117.5,177.167 117.5,175.5 Z"/></g>
<g><path style="opacity:1" fill="#4986b3" d="M 259.5,169.5 C 253.454,174.881 247.121,179.881 240.5,184.5C 238.777,186.218 236.777,187.551 234.5,188.5C 234.238,187.022 234.571,185.689 235.5,184.5C 236.086,184.709 236.586,185.043 237,185.5C 237.219,184.062 237.719,182.729 238.5,181.5C 241.496,182.833 243.163,181.833 243.5,178.5C 239.968,178.31 236.635,178.977 233.5,180.5C 235.408,178.836 237.408,177.169 239.5,175.5C 240.167,175.5 240.833,175.5 241.5,175.5C 241.97,176.693 242.97,177.36 244.5,177.5C 246.535,176.796 248.535,176.129 250.5,175.5C 250.5,174.5 250.5,173.5 250.5,172.5C 253.507,171.486 256.507,170.486 259.5,169.5 Z"/></g>
<g><path style="opacity:1" fill="#f4fdfc" d="M 332.5,165.5 C 332.166,169.346 331.333,173.346 330,177.5C 326.955,175.281 325.789,172.281 326.5,168.5C 328.053,166.615 330.053,165.615 332.5,165.5 Z"/></g>
<g><path style="opacity:1" fill="#e9f6fa" d="M 331.5,117.5 C 330.524,118.815 329.524,120.148 328.5,121.5C 329.127,122.417 329.461,123.417 329.5,124.5C 327.194,126.139 325.194,128.139 323.5,130.5C 318.373,135.561 312.707,139.894 306.5,143.5C 304.22,144.64 301.886,145.807 299.5,147C 295.543,150.771 291.543,154.271 287.5,157.5C 286.833,157.5 286.5,157.833 286.5,158.5C 282.493,159.487 279.493,161.82 277.5,165.5C 264.218,175.432 250.885,185.432 237.5,195.5C 235.251,196.08 233.585,197.413 232.5,199.5C 232.167,200.167 231.833,200.833 231.5,201.5C 229.033,201.755 227.033,202.755 225.5,204.5C 223.833,204.5 222.167,204.5 220.5,204.5C 220.15,201.547 221.15,199.213 223.5,197.5C 226.851,194.152 230.518,191.152 234.5,188.5C 236.777,187.551 238.777,186.218 240.5,184.5C 242.199,184.66 243.866,184.494 245.5,184C 250.106,178.22 255.44,173.387 261.5,169.5C 268.89,162.627 276.89,156.461 285.5,151C 287.033,148.971 288.699,147.138 290.5,145.5C 291.922,145.291 293.255,144.791 294.5,144C 297.202,141.005 300.202,138.505 303.5,136.5C 305.783,136.392 307.783,135.559 309.5,134C 311.981,131.801 314.314,129.634 316.5,127.5C 318.937,125.567 321.271,123.4 323.5,121C 326.505,120.467 329.172,119.3 331.5,117.5 Z"/></g>
<g><path style="opacity:1" fill="#2f86c3" d="M 6.5,146.5 C 3.41579,151.493 2.74913,156.827 4.5,162.5C 5.16667,162.833 5.83333,163.167 6.5,163.5C 6.35055,164.552 6.51722,165.552 7,166.5C 10.0228,168.698 12.8562,171.031 15.5,173.5C 14.1266,173.343 12.7932,173.51 11.5,174C 12.9561,174.423 13.4561,175.256 13,176.5C 11.6667,175.833 10.3333,175.167 9,174.5C 6.6194,175.435 4.1194,175.768 1.5,175.5C 1.26057,177.467 1.59391,179.301 2.5,181C 1.75618,182.039 0.75618,182.539 -0.5,182.5C -0.5,170.5 -0.5,158.5 -0.5,146.5C 1.41046,144.716 3.74379,143.716 6.5,143.5C 6.5,144.5 6.5,145.5 6.5,146.5 Z"/></g>
<g><path style="opacity:1" fill="#d4e9f6" d="M 155.5,164.5 C 156.458,164.953 157.292,165.619 158,166.5C 159.609,170.71 161.442,174.71 163.5,178.5C 164.11,179.391 164.443,180.391 164.5,181.5C 158.419,177.66 155.419,171.993 155.5,164.5 Z"/></g>
<g><path style="opacity:1" fill="#99c3dc" d="M 23.5,175.5 C 25.6976,175.875 27.6976,176.542 29.5,177.5C 26.9179,177.975 24.9179,177.308 23.5,175.5 Z"/></g>
<g><path style="opacity:1" fill="#89b7dd" d="M 168.5,132.5 C 168.667,150.17 168.5,167.836 168,185.5C 167.329,184.748 166.496,184.414 165.5,184.5C 165.5,184.167 165.5,183.833 165.5,183.5C 167.162,166.691 168.162,149.691 168.5,132.5 Z"/></g>
<g><path style="opacity:1" fill="#d6e2f0" d="M 338.5,159.5 C 339.88,159.962 340.547,160.962 340.5,162.5C 340.154,163.849 339.821,165.183 339.5,166.5C 337.417,167.588 335.251,168.588 333,169.5C 332.505,171.473 332.338,173.473 332.5,175.5C 334.698,175.12 336.365,175.787 337.5,177.5C 336.127,177.343 334.793,177.51 333.5,178C 335.152,182.528 333.486,184.695 328.5,184.5C 329.456,183.341 330.456,182.174 331.5,181C 329.869,179.074 328.035,177.24 326,175.5C 325.503,173.19 325.337,170.857 325.5,168.5C 325.833,168.5 326.167,168.5 326.5,168.5C 325.789,172.281 326.955,175.281 330,177.5C 331.333,173.346 332.166,169.346 332.5,165.5C 332.833,164.167 333.167,162.833 333.5,161.5C 335.176,162.183 335.843,163.517 335.5,165.5C 336.5,165.5 337.5,165.5 338.5,165.5C 338.5,163.5 338.5,161.5 338.5,159.5 Z"/></g>
<g><path style="opacity:1" fill="#e5f6fb" d="M 6.5,163.5 C 7.36362,164.688 8.36362,165.855 9.5,167C 16.2505,170.973 23.5839,173.473 31.5,174.5C 32.9079,175.243 34.2412,176.077 35.5,177C 39.9108,177.017 44.0775,177.85 48,179.5C 48.8732,179.265 49.7065,178.931 50.5,178.5C 52.0243,180.858 54.0243,182.691 56.5,184C 56.1667,184.333 55.8333,184.667 55.5,185C 57.9172,187.153 57.5839,188.986 54.5,190.5C 55.2012,186.2 53.5345,183.534 49.5,182.5C 48.8333,182.5 48.1667,182.5 47.5,182.5C 46.4479,180.744 44.7812,180.077 42.5,180.5C 41.8333,180.5 41.1667,180.5 40.5,180.5C 37.1912,178.63 33.5246,177.63 29.5,177.5C 27.6976,176.542 25.6976,175.875 23.5,175.5C 20.6726,175.416 18.006,174.75 15.5,173.5C 12.8562,171.031 10.0228,168.698 7,166.5C 6.51722,165.552 6.35055,164.552 6.5,163.5 Z"/></g>
<g><path style="opacity:1" fill="#a2c5df" d="M 29.5,177.5 C 33.5246,177.63 37.1912,178.63 40.5,180.5C 36.4754,180.37 32.8088,179.37 29.5,177.5 Z"/></g>
<g><path style="opacity:1" fill="#b4d0e5" d="M 95.5,160.5 C 93.8699,164.333 92.5366,168.333 91.5,172.5C 89.9899,174.322 88.6566,176.322 87.5,178.5C 84.8301,180.09 83.1634,179.423 82.5,176.5C 83.4822,177.141 84.4822,177.807 85.5,178.5C 87.177,175.111 88.8437,171.778 90.5,168.5C 91.9265,166.852 92.7599,164.852 93,162.5C 93.7083,161.619 94.5416,160.953 95.5,160.5 Z"/></g>
<g><path style="opacity:1" fill="#3264a9" d="M 380.5,151.5 C 395.167,151.5 409.833,151.5 424.5,151.5C 424.172,162.014 424.506,172.347 425.5,182.5C 425.5,184.833 425.5,187.167 425.5,189.5C 424.733,190.172 424.066,191.005 423.5,192C 393.458,192.817 363.458,192.651 333.5,191.5C 333.5,190.5 333.5,189.5 333.5,188.5C 335.38,188.771 336.713,188.104 337.5,186.5C 339.016,184.801 340.016,182.801 340.5,180.5C 340.547,178.962 339.88,177.962 338.5,177.5C 338.167,177.5 337.833,177.5 337.5,177.5C 336.365,175.787 334.698,175.12 332.5,175.5C 332.338,173.473 332.505,171.473 333,169.5C 335.251,168.588 337.417,167.588 339.5,166.5C 341.478,165.683 342.478,164.183 342.5,162C 341.55,159.155 340.217,156.488 338.5,154C 341.014,152.748 343.68,152.248 346.5,152.5C 346.251,156.458 346.918,160.124 348.5,163.5C 348.611,164.117 348.944,164.617 349.5,165C 354.5,165.667 359.5,165.667 364.5,165C 366.076,164.56 367.41,163.727 368.5,162.5C 369.183,162.863 369.85,163.196 370.5,163.5C 386.167,163.5 401.833,163.5 417.5,163.5C 417.975,160.918 417.308,158.918 415.5,157.5C 400.5,156.167 385.5,156.167 370.5,157.5C 369.5,157.5 368.5,157.5 367.5,157.5C 367.5,156.5 367.5,155.5 367.5,154.5C 371.845,155.726 376.178,155.726 380.5,154.5C 380.5,153.5 380.5,152.5 380.5,151.5 Z"/></g>
<g><path style="opacity:1" fill="#7090c4" d="M 415.5,157.5 C 417.308,158.918 417.975,160.918 417.5,163.5C 401.833,163.5 386.167,163.5 370.5,163.5C 370.5,161.5 370.5,159.5 370.5,157.5C 385.5,156.167 400.5,156.167 415.5,157.5 Z"/></g>
<g><path style="opacity:1" fill="#bfd3ee" d="M 360.5,154.5 C 361.5,154.5 362.5,154.5 363.5,154.5C 364.477,157.287 364.81,160.287 364.5,163.5C 359.833,163.5 355.167,163.5 350.5,163.5C 350.194,160.615 350.527,157.948 351.5,155.5C 351.5,157.833 351.5,160.167 351.5,162.5C 355.167,162.5 358.833,162.5 362.5,162.5C 362.868,159.467 362.202,156.8 360.5,154.5 Z"/></g>
<g><path style="opacity:1" fill="#d9e7f5" d="M 415.5,157.5 C 415.714,159.144 415.38,160.644 414.5,162C 400.171,162.5 385.837,162.667 371.5,162.5C 371.5,160.833 371.5,159.167 371.5,157.5C 386.167,157.5 400.833,157.5 415.5,157.5 Z"/></g>
<g><path style="opacity:1" fill="#eef9fc" d="M 360.5,154.5 C 362.202,156.8 362.868,159.467 362.5,162.5C 358.833,162.5 355.167,162.5 351.5,162.5C 351.5,160.167 351.5,157.833 351.5,155.5C 354.287,154.523 357.287,154.19 360.5,154.5 Z"/></g>
<g><path style="opacity:1" fill="#93accf" d="M 363.5,154.5 C 362.5,154.5 361.5,154.5 360.5,154.5C 357.287,154.19 354.287,154.523 351.5,155.5C 350.527,157.948 350.194,160.615 350.5,163.5C 349.833,163.5 349.167,163.5 348.5,163.5C 348.216,160.223 348.549,157.057 349.5,154C 354.352,153.185 359.019,153.352 363.5,154.5 Z"/></g>
<g><path style="opacity:1" fill="#2b65b2" d="M 455.5,111.5 C 454.833,130.164 454.5,148.997 454.5,168C 454.5,187.179 455.167,206.012 456.5,224.5C 456.5,224.833 456.5,225.167 456.5,225.5C 454.883,226.038 453.216,226.371 451.5,226.5C 450.947,222.544 450.114,222.544 449,226.5C 448.667,226.167 448.333,225.833 448,225.5C 373.237,226.332 298.403,226.832 223.5,227C 221.5,227.333 219.5,227.667 217.5,228C 218.056,228.383 218.389,228.883 218.5,229.5C 215.226,230.397 212.059,230.73 209,230.5C 205.589,229.707 202.089,229.207 198.5,229C 200.339,227.868 202.339,227.035 204.5,226.5C 204.833,226 205.167,225.5 205.5,225C 204.571,223.923 203.904,222.756 203.5,221.5C 203.833,221.5 204.167,221.5 204.5,221.5C 207.553,221.681 210.553,221.848 213.5,222C 214.833,221.333 214.833,220.667 213.5,220C 216.705,219.351 219.705,218.185 222.5,216.5C 223.466,214.604 223.799,212.604 223.5,210.5C 224.822,210.67 225.989,210.337 227,209.5C 227.854,206.408 229.354,203.741 231.5,201.5C 235.432,200.2 239.099,198.367 242.5,196C 245.23,195.272 247.897,195.438 250.5,196.5C 251.452,194.955 251.785,193.288 251.5,191.5C 250.127,191.657 248.793,191.49 247.5,191C 248.912,189.209 250.745,188.042 253,187.5C 253.492,188.549 253.326,189.549 252.5,190.5C 253.325,191.386 254.325,191.719 255.5,191.5C 255.921,189.09 257.254,187.257 259.5,186C 258.269,184.817 258.269,183.651 259.5,182.5C 262.638,181.195 264.971,179.029 266.5,176C 272.512,174.896 277.845,172.396 282.5,168.5C 283.85,169.95 285.516,170.617 287.5,170.5C 287.414,171.496 287.748,172.329 288.5,173C 292.833,173.333 297.167,173.667 301.5,174C 306.675,174.393 310.842,176.559 314,180.5C 313.408,184.898 315.241,186.898 319.5,186.5C 319.215,188.288 319.548,189.955 320.5,191.5C 321.086,191.291 321.586,190.957 322,190.5C 322.333,193.167 322.667,195.833 323,198.5C 323.383,199.056 323.883,199.389 324.5,199.5C 324.5,199.833 324.5,200.167 324.5,200.5C 325.134,201.947 326.301,202.613 328,202.5C 357.317,201.853 386.484,201.186 415.5,200.5C 417.5,200.5 419.5,200.5 421.5,200.5C 421.804,201.15 422.137,201.817 422.5,202.5C 425.428,203.484 428.428,203.817 431.5,203.5C 431.5,204.5 431.5,205.5 431.5,206.5C 428.668,205.419 426.002,205.585 423.5,207C 427.167,207.667 430.833,207.667 434.5,207C 434.167,206.667 433.833,206.333 433.5,206C 435.668,202.494 436.835,198.661 437,194.5C 439,193.167 441,193.167 443,194.5C 443.692,193.975 444.192,193.308 444.5,192.5C 442.955,191.548 441.288,191.215 439.5,191.5C 438.344,177.878 438.344,164.211 439.5,150.5C 439.597,147.089 437.93,145.755 434.5,146.5C 434.672,145.508 434.338,144.842 433.5,144.5C 406.338,143.502 379.005,143.169 351.5,143.5C 349.881,141.539 347.714,140.206 345,139.5C 340.921,140.629 336.755,140.796 332.5,140C 330.216,138.637 330.049,137.137 332,135.5C 332.741,136.641 333.575,136.641 334.5,135.5C 336.1,132.493 335.433,130.159 332.5,128.5C 334.511,128.521 336.511,128.521 338.5,128.5C 339.223,126.836 338.89,125.169 337.5,123.5C 340.601,121.902 343.268,119.735 345.5,117C 350.257,116.571 354.257,114.738 357.5,111.5C 359.918,113.232 362.585,114.565 365.5,115.5C 366.95,114.15 367.617,112.484 367.5,110.5C 397.005,110.169 426.338,110.502 455.5,111.5 Z"/></g>
<g><path style="opacity:1" fill="#4d7ab3" d="M 415.5,170.5 C 417.308,171.918 417.975,173.918 417.5,176.5C 394.661,176.831 371.994,176.497 349.5,175.5C 371.5,175.5 393.5,175.5 415.5,175.5C 415.5,173.833 415.5,172.167 415.5,170.5 Z"/></g>
<g><path style="opacity:1" fill="#d4e6ed" d="M 415.5,170.5 C 415.5,172.167 415.5,173.833 415.5,175.5C 393.5,175.5 371.5,175.5 349.5,175.5C 349.5,173.833 349.5,172.167 349.5,170.5C 371.5,170.5 393.5,170.5 415.5,170.5 Z"/></g>
<g><path style="opacity:1" fill="#fbfdfe" d="M 351.5,171.5 C 372.5,171.5 393.5,171.5 414.5,171.5C 414.5,172.5 414.5,173.5 414.5,174.5C 393.5,174.5 372.5,174.5 351.5,174.5C 351.5,173.5 351.5,172.5 351.5,171.5 Z"/></g>
<g><path style="opacity:1" fill="#7294ac" d="M 415.5,170.5 C 393.5,170.5 371.5,170.5 349.5,170.5C 349.5,172.167 349.5,173.833 349.5,175.5C 348.539,173.735 348.205,171.735 348.5,169.5C 371.006,169.169 393.34,169.503 415.5,170.5 Z"/></g>
<g><path style="opacity:1" fill="#93b5cf" d="M 42.5,180.5 C 44.7812,180.077 46.4479,180.744 47.5,182.5C 45.4471,182.598 43.7804,181.931 42.5,180.5 Z"/></g>
<g><path style="opacity:1" fill="#c5d9ea" d="M 131.5,171.5 C 134.165,174.507 135.498,178.173 135.5,182.5C 134.167,182.5 132.833,182.5 131.5,182.5C 132.209,181.596 133.209,181.263 134.5,181.5C 133.155,178.297 132.155,174.964 131.5,171.5 Z"/></g>
<g><path style="opacity:1" fill="#94bad6" d="M 219.5,182.5 C 212.352,183.492 205.019,183.825 197.5,183.5C 197.5,192.833 197.5,202.167 197.5,211.5C 197.167,211.5 196.833,211.5 196.5,211.5C 196.5,201.833 196.5,192.167 196.5,182.5C 204.167,182.5 211.833,182.5 219.5,182.5 Z"/></g>
<g><path style="opacity:1" fill="#bfe3f1" d="M 259.5,169.5 C 260.167,169.5 260.833,169.5 261.5,169.5C 255.44,173.387 250.106,178.22 245.5,184C 243.866,184.494 242.199,184.66 240.5,184.5C 247.121,179.881 253.454,174.881 259.5,169.5 Z"/></g>
<g><path style="opacity:1" fill="#2377be" d="M 15.5,173.5 C 15.5,174.5 15.5,175.5 15.5,176.5C 19.8149,177.106 23.8149,178.606 27.5,181C 31.9206,181.417 36.254,182.25 40.5,183.5C 35.0588,186.083 35.2255,188.083 41,189.5C 43.5068,189.284 44.3401,188.284 43.5,186.5C 43.8869,185.28 44.7202,184.613 46,184.5C 47.5,185.5 49,186.5 50.5,187.5C 49.3698,188.622 48.7031,189.956 48.5,191.5C 47.8333,191.5 47.5,191.833 47.5,192.5C 42.1667,192.5 36.8333,192.5 31.5,192.5C 31.719,191.325 31.3857,190.325 30.5,189.5C 27.9302,188.366 25.2635,187.532 22.5,187C 21.3333,186.5 20.5,185.667 20,184.5C 17.9307,185.264 15.764,185.764 13.5,186C 11.9632,187.11 11.2965,188.61 11.5,190.5C 8.74351,194.922 6.07684,199.422 3.5,204C 4.66324,205.855 6.3299,207.189 8.5,208C 10.8098,208.497 13.1432,208.663 15.5,208.5C 16.1667,209.167 16.8333,209.833 17.5,210.5C 12.8969,211.383 8.23027,211.717 3.5,211.5C 3.5,212.5 3.5,213.5 3.5,214.5C 2.16667,214.5 0.833333,214.5 -0.5,214.5C -0.5,203.833 -0.5,193.167 -0.5,182.5C 0.75618,182.539 1.75618,182.039 2.5,181C 1.59391,179.301 1.26057,177.467 1.5,175.5C 4.1194,175.768 6.6194,175.435 9,174.5C 10.3333,175.167 11.6667,175.833 13,176.5C 13.4561,175.256 12.9561,174.423 11.5,174C 12.7932,173.51 14.1266,173.343 15.5,173.5 Z"/></g>
<g><path style="opacity:1" fill="#3d7cb0" d="M 230.5,181.5 C 231.479,182.765 232.479,184.099 233.5,185.5C 230.9,186.846 228.567,186.512 226.5,184.5C 226.265,183.903 225.765,183.57 225,183.5C 223.5,184 222,184.5 220.5,185C 213.508,185.5 206.508,185.666 199.5,185.5C 199.058,189.154 198.724,192.821 198.5,196.5C 198.821,201.695 198.487,206.695 197.5,211.5C 197.5,202.167 197.5,192.833 197.5,183.5C 205.019,183.825 212.352,183.492 219.5,182.5C 223.198,182.448 226.865,182.114 230.5,181.5 Z"/></g>
<g><path style="opacity:1" fill="#9caed5" d="M 338.5,177.5 C 339.88,177.962 340.547,178.962 340.5,180.5C 340.016,182.801 339.016,184.801 337.5,186.5C 336.167,186.833 334.833,187.167 333.5,187.5C 334.833,186.067 336.333,184.733 338,183.5C 338.495,181.527 338.662,179.527 338.5,177.5 Z"/></g>
<g><path style="opacity:1" fill="#2c78b4" d="M 15.5,173.5 C 18.006,174.75 20.6726,175.416 23.5,175.5C 24.9179,177.308 26.9179,177.975 29.5,177.5C 32.8088,179.37 36.4754,180.37 40.5,180.5C 41.1667,180.5 41.8333,180.5 42.5,180.5C 43.7804,181.931 45.4471,182.598 47.5,182.5C 48.1667,182.5 48.8333,182.5 49.5,182.5C 50.687,184.198 51.687,186.032 52.5,188C 52.1777,190.327 50.8444,191.494 48.5,191.5C 48.7031,189.956 49.3698,188.622 50.5,187.5C 49,186.5 47.5,185.5 46,184.5C 44.7202,184.613 43.8869,185.28 43.5,186.5C 44.3401,188.284 43.5068,189.284 41,189.5C 35.2255,188.083 35.0588,186.083 40.5,183.5C 36.254,182.25 31.9206,181.417 27.5,181C 23.8149,178.606 19.8149,177.106 15.5,176.5C 15.5,175.5 15.5,174.5 15.5,173.5 Z"/></g>
<g><path style="opacity:1" fill="#427fb2" d="M 31.5,192.5 C 29.7839,192.371 28.1172,192.038 26.5,191.5C 23.2938,190.921 20.2938,189.921 17.5,188.5C 14.8737,186.994 12.8737,187.661 11.5,190.5C 11.2965,188.61 11.9632,187.11 13.5,186C 15.764,185.764 17.9307,185.264 20,184.5C 20.5,185.667 21.3333,186.5 22.5,187C 25.2635,187.532 27.9302,188.366 30.5,189.5C 31.3857,190.325 31.719,191.325 31.5,192.5 Z"/></g>
<g><path style="opacity:1" fill="#648fb1" d="M 49.5,182.5 C 53.5345,183.534 55.2012,186.2 54.5,190.5C 52.4855,191.924 50.1522,192.59 47.5,192.5C 47.5,191.833 47.8333,191.5 48.5,191.5C 50.8444,191.494 52.1777,190.327 52.5,188C 51.687,186.032 50.687,184.198 49.5,182.5 Z"/></g>
<g><path style="opacity:1" fill="#2677b5" d="M 234.5,188.5 C 230.518,191.152 226.851,194.152 223.5,197.5C 221.938,197.733 220.605,198.4 219.5,199.5C 219.249,197.83 218.582,196.33 217.5,195C 218.448,194.517 219.448,194.351 220.5,194.5C 221.063,191.626 222.063,188.96 223.5,186.5C 225.179,186.715 226.179,186.048 226.5,184.5C 228.567,186.512 230.9,186.846 233.5,185.5C 232.479,184.099 231.479,182.765 230.5,181.5C 231.209,180.596 232.209,180.263 233.5,180.5C 236.635,178.977 239.968,178.31 243.5,178.5C 243.163,181.833 241.496,182.833 238.5,181.5C 237.719,182.729 237.219,184.062 237,185.5C 236.586,185.043 236.086,184.709 235.5,184.5C 234.571,185.689 234.238,187.022 234.5,188.5 Z"/></g>
<g><path style="opacity:1" fill="#a7bada" d="M 415.5,182.5 C 415.5,184.5 415.5,186.5 415.5,188.5C 393.833,188.5 372.167,188.5 350.5,188.5C 348.72,187.01 348.054,185.01 348.5,182.5C 370.833,182.5 393.167,182.5 415.5,182.5 Z"/></g>
<g><path style="opacity:1" fill="#fcfefe" d="M 351.5,184.5 C 434.167,185.167 434.167,185.833 351.5,186.5C 351.5,185.833 351.5,185.167 351.5,184.5 Z"/></g>
<g><path style="opacity:1" fill="#e2ecf9" d="M 351.5,184.5 C 372.327,183.503 393.327,183.169 414.5,183.5C 414.5,184.833 414.5,186.167 414.5,187.5C 393.327,187.831 372.327,187.497 351.5,186.5C 434.167,185.833 434.167,185.167 351.5,184.5 Z"/></g>
<g><path style="opacity:1" fill="#6a89ba" d="M 415.5,182.5 C 417.766,184.193 418.1,186.36 416.5,189C 394.329,189.83 372.329,189.663 350.5,188.5C 372.167,188.5 393.833,188.5 415.5,188.5C 415.5,186.5 415.5,184.5 415.5,182.5 Z"/></g>
<g><path style="opacity:1" fill="#a9cdef" d="M 26.5,191.5 C 28.1172,192.038 29.7839,192.371 31.5,192.5C 36.8333,192.5 42.1667,192.5 47.5,192.5C 41.013,193.654 34.3464,193.821 27.5,193C 26.944,192.617 26.6107,192.117 26.5,191.5 Z"/></g>
<g><path style="opacity:1" fill="#2173ba" d="M 226.5,184.5 C 226.179,186.048 225.179,186.715 223.5,186.5C 222.063,188.96 221.063,191.626 220.5,194.5C 219.448,194.351 218.448,194.517 217.5,195C 218.582,196.33 219.249,197.83 219.5,199.5C 219.158,200.338 218.492,200.672 217.5,200.5C 211.6,202.965 205.6,203.632 199.5,202.5C 199.795,200.265 199.461,198.265 198.5,196.5C 198.724,192.821 199.058,189.154 199.5,185.5C 206.508,185.666 213.508,185.5 220.5,185C 222,184.5 223.5,184 225,183.5C 225.765,183.57 226.265,183.903 226.5,184.5 Z"/></g>
<g><path style="opacity:1" fill="#a0bddb" d="M 136.5,198.5 C 126.253,199.237 115.92,199.57 105.5,199.5C 106.694,198.223 108.36,197.556 110.5,197.5C 119.147,198.34 127.813,198.674 136.5,198.5 Z"/></g>
<g><path style="opacity:1" fill="#7fa6ca" d="M 237.5,195.5 C 236.415,197.587 234.749,198.92 232.5,199.5C 233.585,197.413 235.251,196.08 237.5,195.5 Z"/></g>
<g><path style="opacity:1" fill="#dbecf9" d="M 327.5,184.5 C 326.559,189.07 326.226,193.737 326.5,198.5C 361.833,198.5 397.167,198.5 432.5,198.5C 432.5,198.833 432.5,199.167 432.5,199.5C 396.833,199.5 361.167,199.5 325.5,199.5C 325.5,194.833 325.5,190.167 325.5,185.5C 325.842,184.662 326.508,184.328 327.5,184.5 Z"/></g>
<g><path style="opacity:1" fill="#567fae" d="M 136.5,198.5 C 138.5,198.5 140.5,198.5 142.5,198.5C 142.5,199.167 142.5,199.833 142.5,200.5C 139.5,200.5 136.5,200.5 133.5,200.5C 124.788,200.542 116.121,200.376 107.5,200C 105.304,203.677 102.97,207.177 100.5,210.5C 101.973,206.749 103.64,203.083 105.5,199.5C 115.92,199.57 126.253,199.237 136.5,198.5 Z"/></g>
<g><path style="opacity:1" fill="#6382aa" d="M 433.5,144.5 C 434.338,144.842 434.672,145.508 434.5,146.5C 434.5,164.5 434.5,182.5 434.5,200.5C 430.167,200.5 425.833,200.5 421.5,200.5C 419.5,200.5 417.5,200.5 415.5,200.5C 385.167,200.5 354.833,200.5 324.5,200.5C 324.5,200.167 324.5,199.833 324.5,199.5C 324.181,194.637 324.514,189.97 325.5,185.5C 325.5,190.167 325.5,194.833 325.5,199.5C 361.167,199.5 396.833,199.5 432.5,199.5C 433.497,181.341 433.83,163.008 433.5,144.5 Z"/></g>
<g><path style="opacity:1" fill="#2e578b" d="M 425.5,189.5 C 425.5,190.833 425.5,192.167 425.5,193.5C 394.482,194.159 363.815,193.492 333.5,191.5C 363.458,192.651 393.458,192.817 423.5,192C 424.066,191.005 424.733,190.172 425.5,189.5 Z"/></g>
<g><path style="opacity:1" fill="#2b5798" d="M 324.5,200.5 C 354.833,200.5 385.167,200.5 415.5,200.5C 386.484,201.186 357.317,201.853 328,202.5C 326.301,202.613 325.134,201.947 324.5,200.5 Z"/></g>
<g><path style="opacity:1" fill="#cfe2f2" d="M 17.5,188.5 C 15.4078,188.561 13.9078,189.561 13,191.5C 12.2027,195.603 10.3693,199.103 7.5,202C 9.25791,205.422 11.9246,207.588 15.5,208.5C 13.1432,208.663 10.8098,208.497 8.5,208C 6.3299,207.189 4.66324,205.855 3.5,204C 6.07684,199.422 8.74351,194.922 11.5,190.5C 12.8737,187.661 14.8737,186.994 17.5,188.5 Z"/></g>
<g><path style="opacity:1" fill="#c9deee" d="M 223.5,197.5 C 221.15,199.213 220.15,201.547 220.5,204.5C 222.167,204.5 223.833,204.5 225.5,204.5C 224.109,206.89 222.109,208.557 219.5,209.5C 219.5,207.833 219.5,206.167 219.5,204.5C 216.921,204.394 214.588,205.061 212.5,206.5C 214.167,204.5 215.833,202.5 217.5,200.5C 218.492,200.672 219.158,200.338 219.5,199.5C 220.605,198.4 221.938,197.733 223.5,197.5 Z"/></g>
<g><path style="opacity:1" fill="#9fbbd6" d="M 211.5,206.5 C 209.658,209.439 206.991,211.439 203.5,212.5C 205.702,210.046 208.368,208.046 211.5,206.5 Z"/></g>
<g><path style="opacity:1" fill="#acbdd9" d="M 100.5,211.5 C 100.5,211.833 100.5,212.167 100.5,212.5C 89.4476,213.143 78.7809,212.476 68.5,210.5C 70.0544,209.105 69.721,208.439 67.5,208.5C 65.9271,208.752 64.5938,209.418 63.5,210.5C 62.8333,210.5 62.1667,210.5 61.5,210.5C 59.4352,210.517 57.4352,210.85 55.5,211.5C 55.6107,210.883 55.944,210.383 56.5,210C 61.5629,209.104 66.5629,207.937 71.5,206.5C 71.7035,208.39 71.0368,209.89 69.5,211C 79.828,211.5 90.1613,211.666 100.5,211.5 Z"/></g>
<g><path style="opacity:1" fill="#86a2c8" d="M 142.5,198.5 C 145.415,202.108 147.415,206.275 148.5,211C 164.497,211.5 180.497,211.667 196.5,211.5C 188.862,212.831 180.862,213.498 172.5,213.5C 164.5,213.333 156.5,213.167 148.5,213C 147.975,212.308 147.308,211.808 146.5,211.5C 146.079,207.349 144.746,203.682 142.5,200.5C 142.5,199.833 142.5,199.167 142.5,198.5 Z"/></g>
<g><path style="opacity:1" fill="#3b6aa1" d="M 198.5,196.5 C 199.461,198.265 199.795,200.265 199.5,202.5C 205.6,203.632 211.6,202.965 217.5,200.5C 215.833,202.5 214.167,204.5 212.5,206.5C 212.167,206.5 211.833,206.5 211.5,206.5C 208.368,208.046 205.702,210.046 203.5,212.5C 200.527,213.81 198.193,215.81 196.5,218.5C 193.796,218.67 192.129,220.003 191.5,222.5C 185.125,226.027 179.125,230.194 173.5,235C 115.501,235.5 57.501,235.667 -0.5,235.5C -0.5,235.167 -0.5,234.833 -0.5,234.5C 56.8333,234.5 114.167,234.5 171.5,234.5C 171.408,231.6 172.741,229.933 175.5,229.5C 176.084,224.788 177.584,224.455 180,228.5C 180.374,227.584 180.874,226.75 181.5,226C 180.328,225.581 179.328,224.915 178.5,224C 181.831,223.338 184.498,221.671 186.5,219C 186.355,218.228 186.022,217.561 185.5,217C 189.619,216.857 193.619,216.19 197.5,215C 180.833,214.667 164.167,214.333 147.5,214C 146.584,213.626 145.75,213.126 145,212.5C 144.814,209.964 144.314,207.631 143.5,205.5C 141.833,205.5 140.167,205.5 138.5,205.5C 138.5,204.167 138.5,202.833 138.5,201.5C 136.585,201.784 134.919,201.451 133.5,200.5C 136.5,200.5 139.5,200.5 142.5,200.5C 144.746,203.682 146.079,207.349 146.5,211.5C 147.308,211.808 147.975,212.308 148.5,213C 156.5,213.167 164.5,213.333 172.5,213.5C 180.862,213.498 188.862,212.831 196.5,211.5C 196.833,211.5 197.167,211.5 197.5,211.5C 198.487,206.695 198.821,201.695 198.5,196.5 Z"/></g>
<g><path style="opacity:1" fill="#e1edf3" d="M 219.5,209.5 C 218.508,209.328 217.842,209.662 217.5,210.5C 212.91,213.086 208.91,216.42 205.5,220.5C 204.833,220.5 204.5,220.833 204.5,221.5C 204.167,221.5 203.833,221.5 203.5,221.5C 201.18,223.419 198.847,225.419 196.5,227.5C 193.622,228.37 190.955,229.703 188.5,231.5C 187.702,231.957 187.369,232.624 187.5,233.5C 185.952,233.821 185.285,234.821 185.5,236.5C 182.737,236.204 180.237,235.204 178,233.5C 175.561,234.862 175.061,236.695 176.5,239C 170.045,239.039 163.378,238.539 156.5,237.5C 104.217,237.541 51.8832,237.541 -0.5,237.5C -0.5,236.833 -0.5,236.167 -0.5,235.5C 57.501,235.667 115.501,235.5 173.5,235C 179.125,230.194 185.125,226.027 191.5,222.5C 193.389,221.396 195.055,220.063 196.5,218.5C 198.193,215.81 200.527,213.81 203.5,212.5C 206.991,211.439 209.658,209.439 211.5,206.5C 211.833,206.5 212.167,206.5 212.5,206.5C 214.588,205.061 216.921,204.394 219.5,204.5C 219.5,206.167 219.5,207.833 219.5,209.5 Z"/></g>
<g><path style="opacity:1" fill="#2b6bb0" d="M 133.5,200.5 C 134.919,201.451 136.585,201.784 138.5,201.5C 138.5,202.833 138.5,204.167 138.5,205.5C 140.167,205.5 141.833,205.5 143.5,205.5C 143.881,207.942 143.214,208.609 141.5,207.5C 139.866,207.968 138.7,208.968 138,210.5C 137.517,209.552 137.351,208.552 137.5,207.5C 132.167,207.5 126.833,207.5 121.5,207.5C 121.5,208.833 121.5,210.167 121.5,211.5C 119.418,211.528 117.584,210.861 116,209.5C 114.644,210.38 113.144,210.714 111.5,210.5C 111.5,213.833 111.5,217.167 111.5,220.5C 107.5,220.5 105.5,218.5 105.5,214.5C 100.795,213.832 97.2953,215.499 95,219.5C 92.5017,220.121 90.1684,219.455 88,217.5C 85.2809,218.444 82.4475,218.777 79.5,218.5C 79.6495,219.552 79.4828,220.552 79,221.5C 77.9887,220.663 76.8221,220.33 75.5,220.5C 75.3249,217.671 76.6582,216.004 79.5,215.5C 74.5179,214.69 69.6845,215.357 65,217.5C 63.6485,215.406 63.1485,213.073 63.5,210.5C 64.5938,209.418 65.9271,208.752 67.5,208.5C 69.721,208.439 70.0544,209.105 68.5,210.5C 67.596,211.209 67.2627,212.209 67.5,213.5C 78.6794,213.828 89.6794,213.495 100.5,212.5C 100.5,212.167 100.5,211.833 100.5,211.5C 100.5,211.167 100.5,210.833 100.5,210.5C 102.97,207.177 105.304,203.677 107.5,200C 116.121,200.376 124.788,200.542 133.5,200.5 Z"/></g>
<g><path style="opacity:1" fill="#7592bd" d="M 68.5,210.5 C 78.7809,212.476 89.4476,213.143 100.5,212.5C 89.6794,213.495 78.6794,213.828 67.5,213.5C 67.2627,212.209 67.596,211.209 68.5,210.5 Z"/></g>
<g><path style="opacity:1" fill="#3267a9" d="M 231.5,201.5 C 229.354,203.741 227.854,206.408 227,209.5C 225.989,210.337 224.822,210.67 223.5,210.5C 223.799,212.604 223.466,214.604 222.5,216.5C 219.705,218.185 216.705,219.351 213.5,220C 214.833,220.667 214.833,221.333 213.5,222C 210.553,221.848 207.553,221.681 204.5,221.5C 204.5,220.833 204.833,220.5 205.5,220.5C 210.09,217.914 214.09,214.58 217.5,210.5C 217.842,209.662 218.508,209.328 219.5,209.5C 222.109,208.557 224.109,206.89 225.5,204.5C 227.033,202.755 229.033,201.755 231.5,201.5 Z"/></g>
<g><path style="opacity:1" fill="#2b68b6" d="M 17.5,210.5 C 21.4826,212.937 20.816,214.104 15.5,214C 12.9211,215.729 12.9211,217.562 15.5,219.5C 17.316,220.942 19.316,221.442 21.5,221C 18.7832,218.315 19.4498,216.482 23.5,215.5C 26.8229,216.549 29.9896,217.883 33,219.5C 38.7939,218.399 44.6272,218.232 50.5,219C 51.8333,219.667 53.1667,220.333 54.5,221C 57.4816,221.498 60.4816,221.665 63.5,221.5C 63.2167,217.708 61.2167,215.208 57.5,214C 59.3187,213.26 60.6521,212.093 61.5,210.5C 62.1667,210.5 62.8333,210.5 63.5,210.5C 63.1485,213.073 63.6485,215.406 65,217.5C 69.6845,215.357 74.5179,214.69 79.5,215.5C 76.6582,216.004 75.3249,217.671 75.5,220.5C 76.8221,220.33 77.9887,220.663 79,221.5C 79.4828,220.552 79.6495,219.552 79.5,218.5C 82.4475,218.777 85.2809,218.444 88,217.5C 90.1684,219.455 92.5017,220.121 95,219.5C 97.2953,215.499 100.795,213.832 105.5,214.5C 105.5,218.5 107.5,220.5 111.5,220.5C 111.5,221.5 111.5,222.5 111.5,223.5C 118.049,223.978 124.382,223.311 130.5,221.5C 134.746,222.75 139.079,223.583 143.5,224C 95.5012,224.5 47.5012,224.667 -0.5,224.5C -0.5,221.167 -0.5,217.833 -0.5,214.5C 0.833333,214.5 2.16667,214.5 3.5,214.5C 3.5,213.5 3.5,212.5 3.5,211.5C 8.23027,211.717 12.8969,211.383 17.5,210.5 Z"/></g>
<g><path style="opacity:1" fill="#2f6aaf" d="M 17.5,210.5 C 20.2062,210.575 22.8728,210.908 25.5,211.5C 34.8394,214.128 44.1728,214.128 53.5,211.5C 54.1667,211.5 54.8333,211.5 55.5,211.5C 57.4352,210.85 59.4352,210.517 61.5,210.5C 60.6521,212.093 59.3187,213.26 57.5,214C 61.2167,215.208 63.2167,217.708 63.5,221.5C 60.4816,221.665 57.4816,221.498 54.5,221C 53.1667,220.333 51.8333,219.667 50.5,219C 44.6272,218.232 38.7939,218.399 33,219.5C 29.9896,217.883 26.8229,216.549 23.5,215.5C 19.4498,216.482 18.7832,218.315 21.5,221C 19.316,221.442 17.316,220.942 15.5,219.5C 12.9211,217.562 12.9211,215.729 15.5,214C 20.816,214.104 21.4826,212.937 17.5,210.5 Z"/></g>
<g><path style="opacity:1" fill="#85a1c4" d="M 25.5,211.5 C 34.8333,211.5 44.1667,211.5 53.5,211.5C 44.1728,214.128 34.8394,214.128 25.5,211.5 Z"/></g>
<g><path style="opacity:1" fill="#6f8fb7" d="M 217.5,210.5 C 214.09,214.58 210.09,217.914 205.5,220.5C 208.91,216.42 212.91,213.086 217.5,210.5 Z"/></g>
<g><path style="opacity:1" fill="#abc6dd" d="M 196.5,218.5 C 195.055,220.063 193.389,221.396 191.5,222.5C 192.129,220.003 193.796,218.67 196.5,218.5 Z"/></g>
<g><path style="opacity:1" fill="#2c67b1" d="M 143.5,205.5 C 144.314,207.631 144.814,209.964 145,212.5C 145.75,213.126 146.584,213.626 147.5,214C 164.167,214.333 180.833,214.667 197.5,215C 193.619,216.19 189.619,216.857 185.5,217C 186.022,217.561 186.355,218.228 186.5,219C 184.498,221.671 181.831,223.338 178.5,224C 179.328,224.915 180.328,225.581 181.5,226C 180.874,226.75 180.374,227.584 180,228.5C 177.584,224.455 176.084,224.788 175.5,229.5C 172.031,228.887 170.031,230.221 169.5,233.5C 112.833,233.5 56.1667,233.5 -0.5,233.5C -0.5,230.5 -0.5,227.5 -0.5,224.5C 47.5012,224.667 95.5012,224.5 143.5,224C 139.079,223.583 134.746,222.75 130.5,221.5C 124.382,223.311 118.049,223.978 111.5,223.5C 111.5,222.5 111.5,221.5 111.5,220.5C 111.5,217.167 111.5,213.833 111.5,210.5C 113.144,210.714 114.644,210.38 116,209.5C 117.584,210.861 119.418,211.528 121.5,211.5C 121.5,210.167 121.5,208.833 121.5,207.5C 126.833,207.5 132.167,207.5 137.5,207.5C 137.351,208.552 137.517,209.552 138,210.5C 138.7,208.968 139.866,207.968 141.5,207.5C 143.214,208.609 143.881,207.942 143.5,205.5 Z"/></g>
<g><path style="opacity:1" fill="#2a65b6" d="M 456.5,225.5 C 456.785,227.288 456.452,228.955 455.5,230.5C 377.833,229.833 300.167,229.167 222.5,228.5C 221.264,229.246 219.93,229.579 218.5,229.5C 218.389,228.883 218.056,228.383 217.5,228C 219.5,227.667 221.5,227.333 223.5,227C 298.403,226.832 373.237,226.332 448,225.5C 448.333,225.833 448.667,226.167 449,226.5C 450.114,222.544 450.947,222.544 451.5,226.5C 453.216,226.371 454.883,226.038 456.5,225.5 Z"/></g>
<g><path style="opacity:1" fill="#31599d" d="M 175.5,229.5 C 172.741,229.933 171.408,231.6 171.5,234.5C 114.167,234.5 56.8333,234.5 -0.5,234.5C -0.5,234.167 -0.5,233.833 -0.5,233.5C 56.1667,233.5 112.833,233.5 169.5,233.5C 170.031,230.221 172.031,228.887 175.5,229.5 Z"/></g>
<g><path style="opacity:1" fill="#42638e" d="M 458.5,111.5 C 458.5,152.833 458.5,194.167 458.5,235.5C 367.833,235.667 277.166,235.5 186.5,235C 187.056,234.617 187.389,234.117 187.5,233.5C 187.369,232.624 187.702,231.957 188.5,231.5C 190.955,229.703 193.622,228.37 196.5,227.5C 195.167,228.933 193.667,230.267 192,231.5C 191.517,232.448 191.351,233.448 191.5,234.5C 280.167,234.5 368.833,234.5 457.5,234.5C 457.168,193.33 457.501,152.33 458.5,111.5 Z"/></g>
<g><path style="opacity:1" fill="#fefefe" d="M 458.5,107.5 C 458.833,107.5 459.167,107.5 459.5,107.5C 459.5,186.833 459.5,266.167 459.5,345.5C 306.167,345.5 152.833,345.5 -0.5,345.5C -0.5,309.5 -0.5,273.5 -0.5,237.5C 51.8832,237.541 104.217,237.541 156.5,237.5C 163.378,238.539 170.045,239.039 176.5,239C 175.061,236.695 175.561,234.862 178,233.5C 180.237,235.204 182.737,236.204 185.5,236.5C 276.668,236.833 367.668,236.499 458.5,235.5C 458.5,194.167 458.5,152.833 458.5,111.5C 458.5,110.5 458.5,109.5 458.5,108.5C 458.5,108.167 458.5,107.833 458.5,107.5 Z"/></g>
<g><path style="opacity:1" fill="#abc4d4" d="M 187.5,233.5 C 187.389,234.117 187.056,234.617 186.5,235C 277.166,235.5 367.833,235.667 458.5,235.5C 367.668,236.499 276.668,236.833 185.5,236.5C 185.285,234.821 185.952,233.821 187.5,233.5 Z"/></g>
</svg>
