<?xml version="1.0" encoding="UTF-8"?>
<!DOCTYPE svg PUBLIC "-//W3C//DTD SVG 1.1//EN" "http://www.w3.org/Graphics/SVG/1.1/DTD/svg11.dtd">
<svg xmlns="http://www.w3.org/2000/svg" version="1.1" width="387px" height="143px" style="shape-rendering:geometricPrecision; text-rendering:geometricPrecision; image-rendering:optimizeQuality; fill-rule:evenodd; clip-rule:evenodd" xmlns:xlink="http://www.w3.org/1999/xlink">
<g><path style="opacity:1" fill="#23abe2" d="M -0.5,-0.5 C 95.5,-0.5 191.5,-0.5 287.5,-0.5C 284.5,3.16667 281.167,6.5 277.5,9.5C 184.833,9.5 92.1667,9.5 -0.5,9.5C -0.5,6.16667 -0.5,2.83333 -0.5,-0.5 Z"/></g>
<g><path style="opacity:1" fill="#2b66b1" d="M 296.5,-0.5 C 326.5,-0.5 356.5,-0.5 386.5,-0.5C 386.5,47.1667 386.5,94.8333 386.5,142.5C 309.5,142.5 232.5,142.5 155.5,142.5C 202.138,94.528 249.138,46.8614 296.5,-0.5 Z"/></g>
<g><path style="opacity:1" fill="#23a4dd" d="M -0.5,9.5 C 92.1667,9.5 184.833,9.5 277.5,9.5C 272.805,14.5261 268.139,19.5261 263.5,24.5C 175.5,24.5 87.5,24.5 -0.5,24.5C -0.5,19.5 -0.5,14.5 -0.5,9.5 Z"/></g>
<g><path style="opacity:1" fill="#219cd7" d="M -0.5,24.5 C 87.5,24.5 175.5,24.5 263.5,24.5C 257.5,31.1667 251.167,37.5 244.5,43.5C 232.833,43.5 221.167,43.5 209.5,43.5C 203.351,32.0826 193.685,26.2493 180.5,26C 167.504,25.5001 154.504,25.3334 141.5,25.5C 141.5,31.5 141.5,37.5 141.5,43.5C 135.833,43.5 130.167,43.5 124.5,43.5C 122.298,37.5621 120.298,31.5621 118.5,25.5C 109.827,25.3336 101.16,25.5002 92.5,26C 90.0656,31.8054 87.7322,37.6388 85.5,43.5C 78.8333,43.5 72.1667,43.5 65.5,43.5C 66.4617,40.2432 67.9617,37.2432 70,34.5C 70.7494,33.365 70.5827,32.365 69.5,31.5C 53.8048,24.6153 37.8048,23.7819 21.5,29C 14.6038,32.2534 9.27048,37.0868 5.5,43.5C 3.5,43.5 1.5,43.5 -0.5,43.5C -0.5,37.1667 -0.5,30.8333 -0.5,24.5 Z"/></g>
<g><path style="opacity:1" fill="#fefefe" d="M 65.5,43.5 C 64.0242,45.7686 62.5242,48.1019 61,50.5C 52.1908,46.8324 43.0242,45.6658 33.5,47C 29.726,47.5474 28.3926,49.3807 29.5,52.5C 30.8936,54.7082 32.8936,56.2082 35.5,57C 44.6752,59.8765 53.6752,63.2098 62.5,67C 66.4217,70.2508 69.5883,74.0841 72,78.5C 75.4725,69.913 78.6392,61.2463 81.5,52.5C 83.2049,49.7391 84.5383,46.7391 85.5,43.5C 87.7322,37.6388 90.0656,31.8054 92.5,26C 101.16,25.5002 109.827,25.3336 118.5,25.5C 120.298,31.5621 122.298,37.5621 124.5,43.5C 130.09,57.7655 135.59,72.0989 141,86.5C 141.5,72.1705 141.667,57.8372 141.5,43.5C 141.5,37.5 141.5,31.5 141.5,25.5C 154.504,25.3334 167.504,25.5001 180.5,26C 193.685,26.2493 203.351,32.0826 209.5,43.5C 211.077,49.1635 211.41,54.8302 210.5,60.5C 209.241,67.6878 205.908,73.6878 200.5,78.5C 197.064,80.481 193.397,81.981 189.5,83C 181.841,83.4997 174.174,83.6664 166.5,83.5C 166.5,89.1667 166.5,94.8333 166.5,100.5C 166.5,105.833 166.5,111.167 166.5,116.5C 152.484,116.833 138.484,116.499 124.5,115.5C 122.966,110.066 121.133,104.732 119,99.5C 114.502,101.004 109.835,101.671 105,101.5C 100.165,101.671 95.4981,101.004 91,99.5C 88.5749,104.69 86.4082,110.023 84.5,115.5C 75.1845,116.665 65.8511,116.832 56.5,116C 58.0139,114.561 58.3473,113.061 57.5,111.5C 39.168,118.717 21.168,117.884 3.5,109C 3.04265,108.586 2.70931,108.086 2.5,107.5C 3.7019,105.22 4.7019,102.886 5.5,100.5C 7.65339,96.1932 9.82006,91.8599 12,87.5C 21.1211,93.4583 30.9544,95.2916 41.5,93C 46.5569,90.645 47.2235,87.645 43.5,84C 37.6778,81.5451 31.6778,79.7117 25.5,78.5C 17.9816,75.8152 11.4816,71.4818 6,65.5C 2.92725,58.1812 2.76059,50.8479 5.5,43.5C 9.27048,37.0868 14.6038,32.2534 21.5,29C 37.8048,23.7819 53.8048,24.6153 69.5,31.5C 70.5827,32.365 70.7494,33.365 70,34.5C 67.9617,37.2432 66.4617,40.2432 65.5,43.5 Z"/></g>
<g><path style="opacity:1" fill="#fefffe" d="M 314.5,26.5 C 348.634,27.7979 364.8,45.4646 363,79.5C 357.261,101.968 342.761,113.968 319.5,115.5C 292.207,113.041 277.54,98.2073 275.5,71C 277.001,46.0038 290.001,31.1704 314.5,26.5 Z"/></g>
<g><path style="opacity:1" fill="#2b66b1" d="M 312.5,33.5 C 338.867,32.3675 353.867,44.8675 357.5,71C 356.802,81.2264 352.968,90.0598 346,97.5C 343.659,89.1595 338.493,83.3262 330.5,80C 337.907,71.9757 338.407,63.4757 332,54.5C 319.677,46.1677 310.01,48.501 303,61.5C 301.215,68.8058 303.048,74.9724 308.5,80C 300.507,83.3262 295.341,89.1595 293,97.5C 276.868,77.6687 278.034,58.8354 296.5,41C 301.542,37.6426 306.876,35.1426 312.5,33.5 Z"/></g>
<g><path style="opacity:1" fill="#2590cf" d="M 209.5,43.5 C 221.167,43.5 232.833,43.5 244.5,43.5C 239.167,49.5 233.5,55.1667 227.5,60.5C 221.833,60.5 216.167,60.5 210.5,60.5C 211.41,54.8302 211.077,49.1635 209.5,43.5 Z"/></g>
<g><path style="opacity:1" fill="#2491cf" d="M 65.5,43.5 C 72.1667,43.5 78.8333,43.5 85.5,43.5C 84.5383,46.7391 83.2049,49.7391 81.5,52.5C 64.1667,52.5 46.8333,52.5 29.5,52.5C 28.3926,49.3807 29.726,47.5474 33.5,47C 43.0242,45.6658 52.1908,46.8324 61,50.5C 62.5242,48.1019 64.0242,45.7686 65.5,43.5 Z"/></g>
<g><path style="opacity:1" fill="#278aca" d="M 29.5,52.5 C 46.8333,52.5 64.1667,52.5 81.5,52.5C 78.6392,61.2463 75.4725,69.913 72,78.5C 69.5883,74.0841 66.4217,70.2508 62.5,67C 53.6752,63.2098 44.6752,59.8765 35.5,57C 32.8936,56.2082 30.8936,54.7082 29.5,52.5 Z"/></g>
<g><path style="opacity:1" fill="#258bcb" d="M 124.5,43.5 C 130.167,43.5 135.833,43.5 141.5,43.5C 141.667,57.8372 141.5,72.1705 141,86.5C 135.59,72.0989 130.09,57.7655 124.5,43.5 Z"/></g>
<g><path style="opacity:1" fill="#278ccc" d="M 166.5,44.5 C 173.151,43.7776 179.318,45.1109 185,48.5C 187.548,53.9664 186.714,58.7998 182.5,63C 177.286,64.5913 171.952,65.4246 166.5,65.5C 166.5,58.5 166.5,51.5 166.5,44.5 Z"/></g>
<g><path style="opacity:1" fill="#2b66b1" d="M 315.5,56.5 C 323.964,55.1385 328.964,58.6385 330.5,67C 325.759,78.6992 318.926,80.1992 310,71.5C 307.962,65.1166 309.795,60.1166 315.5,56.5 Z"/></g>
<g><path style="opacity:1" fill="#2684c6" d="M 210.5,60.5 C 216.167,60.5 221.833,60.5 227.5,60.5C 221.833,66.8333 215.833,72.8333 209.5,78.5C 206.5,78.5 203.5,78.5 200.5,78.5C 205.908,73.6878 209.241,67.6878 210.5,60.5 Z"/></g>
<g><path style="opacity:1" fill="#2382c5" d="M -0.5,43.5 C 1.5,43.5 3.5,43.5 5.5,43.5C 2.76059,50.8479 2.92725,58.1812 6,65.5C 11.4816,71.4818 17.9816,75.8152 25.5,78.5C 16.8333,78.5 8.16667,78.5 -0.5,78.5C -0.5,66.8333 -0.5,55.1667 -0.5,43.5 Z"/></g>
<g><path style="opacity:1" fill="#2381c3" d="M 104.5,55.5 C 108.141,63.7645 110.808,72.4311 112.5,81.5C 107.768,82.9155 103.102,82.7488 98.5,81C 98.0426,80.586 97.7093,80.086 97.5,79.5C 100.243,71.6051 102.577,63.6051 104.5,55.5 Z"/></g>
<g><path style="opacity:1" fill="#1e78bd" d="M -0.5,78.5 C 8.16667,78.5 16.8333,78.5 25.5,78.5C 31.6778,79.7117 37.6778,81.5451 43.5,84C 47.2235,87.645 46.5569,90.645 41.5,93C 30.9544,95.2916 21.1211,93.4583 12,87.5C 9.82006,91.8599 7.65339,96.1932 5.5,100.5C 3.5,100.5 1.5,100.5 -0.5,100.5C -0.5,93.1667 -0.5,85.8333 -0.5,78.5 Z"/></g>
<g><path style="opacity:1" fill="#2b66b1" d="M 310.5,86.5 C 316.509,86.3338 322.509,86.5005 328.5,87C 336.342,89.965 339.675,95.465 338.5,103.5C 325.833,110.167 313.167,110.167 300.5,103.5C 299.376,100 299.876,96.6669 302,93.5C 304.441,90.5464 307.275,88.2131 310.5,86.5 Z"/></g>
<g><path style="opacity:1" fill="#1f75bb" d="M 200.5,78.5 C 203.5,78.5 206.5,78.5 209.5,78.5C 202.5,86.1667 195.167,93.5 187.5,100.5C 180.5,100.5 173.5,100.5 166.5,100.5C 166.5,94.8333 166.5,89.1667 166.5,83.5C 174.174,83.6664 181.841,83.4997 189.5,83C 193.397,81.981 197.064,80.481 200.5,78.5 Z"/></g>
<g><path style="opacity:1" fill="#286bb4" d="M 166.5,100.5 C 173.5,100.5 180.5,100.5 187.5,100.5C 180.833,107.833 173.833,114.833 166.5,121.5C 110.833,121.5 55.1667,121.5 -0.5,121.5C -0.5,114.5 -0.5,107.5 -0.5,100.5C 1.5,100.5 3.5,100.5 5.5,100.5C 4.7019,102.886 3.7019,105.22 2.5,107.5C 2.70931,108.086 3.04265,108.586 3.5,109C 21.168,117.884 39.168,118.717 57.5,111.5C 58.3473,113.061 58.0139,114.561 56.5,116C 65.8511,116.832 75.1845,116.665 84.5,115.5C 86.4082,110.023 88.5749,104.69 91,99.5C 95.4981,101.004 100.165,101.671 105,101.5C 109.835,101.671 114.502,101.004 119,99.5C 121.133,104.732 122.966,110.066 124.5,115.5C 138.484,116.499 152.484,116.833 166.5,116.5C 166.5,111.167 166.5,105.833 166.5,100.5 Z"/></g>
<g><path style="opacity:1" fill="#2b67b2" d="M -0.5,121.5 C 55.1667,121.5 110.833,121.5 166.5,121.5C 159.833,128.5 153.167,135.5 146.5,142.5C 97.5,142.5 48.5,142.5 -0.5,142.5C -0.5,135.5 -0.5,128.5 -0.5,121.5 Z"/></g>
</svg>
