<?xml version="1.0" encoding="UTF-8"?>
<!DOCTYPE svg PUBLIC "-//W3C//DTD SVG 1.1//EN" "http://www.w3.org/Graphics/SVG/1.1/DTD/svg11.dtd">
<svg xmlns="http://www.w3.org/2000/svg" version="1.1" width="620px" height="350px" style="shape-rendering:geometricPrecision; text-rendering:geometricPrecision; image-rendering:optimizeQuality; fill-rule:evenodd; clip-rule:evenodd" xmlns:xlink="http://www.w3.org/1999/xlink">
<g><path style="opacity:0.999" fill="#23abe2" d="M -0.5,-0.5 C 152.5,-0.5 305.5,-0.5 458.5,-0.5C 456.346,4.47787 454.179,9.47787 452,14.5C 451.667,14.1667 451.333,13.8333 451,13.5C 448.053,17.9695 445.553,21.9695 443.5,25.5C 442.048,24.6981 440.382,24.1981 438.5,24C 292.167,23.5 145.834,23.3333 -0.5,23.5C -0.5,15.5 -0.5,7.5 -0.5,-0.5 Z"/></g>
<g><path style="opacity:0.004" fill="#000000" d="M 468.5,-0.5 C 468.833,-0.5 469.167,-0.5 469.5,-0.5C 469.315,0.170143 468.981,0.170143 468.5,-0.5 Z"/></g>
<g><path style="opacity:0.999" fill="#2b66b1" d="M 470.5,-0.5 C 518.833,-0.5 567.167,-0.5 615.5,-0.5C 615.5,113.833 615.5,228.167 615.5,342.5C 492.5,342.5 369.5,342.5 246.5,342.5C 246.5,341.167 246.5,339.833 246.5,338.5C 247.376,338.631 248.043,338.298 248.5,337.5C 246.989,335.162 247.323,334.496 249.5,335.5C 250.705,334.423 251.372,333.09 251.5,331.5C 253.25,330.341 254.25,328.674 254.5,326.5C 255.833,326.5 256.5,325.833 256.5,324.5C 257.338,324.158 257.672,323.492 257.5,322.5C 258.906,322.027 259.573,321.027 259.5,319.5C 261.25,318.341 262.25,316.674 262.5,314.5C 264.446,313.965 265.446,312.632 265.5,310.5C 266.906,310.027 267.573,309.027 267.5,307.5C 269.25,306.341 270.25,304.674 270.5,302.5C 272.446,301.965 273.446,300.632 273.5,298.5C 276.055,295.75 278.388,292.75 280.5,289.5C 281.246,288.264 281.579,286.93 281.5,285.5C 284.269,283.353 286.603,280.686 288.5,277.5C 289.246,276.264 289.579,274.93 289.5,273.5C 290.833,273.5 291.5,272.833 291.5,271.5C 294.018,268.462 296.018,265.129 297.5,261.5C 301.148,258.217 303.815,254.217 305.5,249.5C 309.579,246.676 311.579,242.676 311.5,237.5C 314.692,236.301 316.359,233.968 316.5,230.5C 317.833,230.5 318.5,229.833 318.5,228.5C 321.018,225.462 323.018,222.129 324.5,218.5C 328.148,215.217 330.815,211.217 332.5,206.5C 336.148,203.217 338.815,199.217 340.5,194.5C 344.148,191.217 346.815,187.217 348.5,182.5C 352.14,179.241 354.806,175.241 356.5,170.5C 360.14,167.241 362.806,163.241 364.5,158.5C 365.376,158.631 366.043,158.298 366.5,157.5C 373.585,146.328 380.919,135.328 388.5,124.5C 389.246,123.264 389.579,121.93 389.5,120.5C 392.269,118.353 394.603,115.686 396.5,112.5C 397.246,111.264 397.579,109.93 397.5,108.5C 400.269,106.353 402.603,103.686 404.5,100.5C 405.246,99.2638 405.579,97.9305 405.5,96.5C 407.877,94.772 409.544,92.4386 410.5,89.5C 412.727,88.5994 413.727,86.9328 413.5,84.5C 415.877,82.772 417.544,80.4386 418.5,77.5C 420.727,76.5994 421.727,74.9328 421.5,72.5C 423.877,70.772 425.544,68.4386 426.5,65.5C 428.727,64.5994 429.727,62.9328 429.5,60.5C 433.148,57.2171 435.815,53.2171 437.5,48.5C 440.868,44.8209 444.035,40.8209 447,36.5C 453.522,26.1105 460.022,15.7771 466.5,5.5C 468.61,4.04992 469.943,2.04992 470.5,-0.5 Z"/></g>
<g><path style="opacity:0.004" fill="#00fffe" d="M 467.5,1.5 C 468.833,2.16667 468.833,2.16667 467.5,1.5 Z"/></g>
<g><path style="opacity:0.004" fill="#000000" d="M 466.5,5.5 C 465.833,4.16667 465.833,4.16667 466.5,5.5 Z"/></g>
<g><path style="opacity:0.004" fill="#00fffe" d="M 456.5,6.5 C 457.833,7.16667 457.833,7.16667 456.5,6.5 Z"/></g>
<g><path style="opacity:0.004" fill="#000000" d="M 460.5,11.5 C 461.833,12.1667 461.833,12.1667 460.5,11.5 Z"/></g>
<g><path style="opacity:0.004" fill="#000000" d="M 456.5,16.5 C 457.833,17.1667 457.833,17.1667 456.5,16.5 Z"/></g>
<g><path style="opacity:0.004" fill="#0000ff" d="M 448.5,18.5 C 449.833,19.1667 449.833,19.1667 448.5,18.5 Z"/></g>
<g><path style="opacity:0.004" fill="#000000" d="M 453.5,21.5 C 454.833,22.1667 454.833,22.1667 453.5,21.5 Z"/></g>
<g><path style="opacity:1" fill="#23a5de" d="M -0.5,23.5 C 145.834,23.3333 292.167,23.5 438.5,24C 440.382,24.1981 442.048,24.6981 443.5,25.5C 442.263,26.9649 441.263,28.6316 440.5,30.5C 437.853,35.0905 435.186,39.0905 432.5,42.5C 429.987,44.5326 428.487,47.1993 428,50.5C 427.667,50.1667 427.333,49.8333 427,49.5C 426.722,50.4158 426.222,51.0825 425.5,51.5C 283.71,49.5041 141.71,48.8375 -0.5,49.5C -0.5,40.8333 -0.5,32.1667 -0.5,23.5 Z"/></g>
<g><path style="opacity:0.004" fill="#000000" d="M 448.5,28.5 C 449.833,29.1667 449.833,29.1667 448.5,28.5 Z"/></g>
<g><path style="opacity:0.004" fill="#0000ff" d="M 440.5,30.5 C 441.833,31.1667 441.833,31.1667 440.5,30.5 Z"/></g>
<g><path style="opacity:0.004" fill="#000000" d="M 444.5,35.5 C 445.833,36.1667 445.833,36.1667 444.5,35.5 Z"/></g>
<g><path style="opacity:0.004" fill="#0000ff" d="M 432.5,42.5 C 433.833,43.1667 433.833,43.1667 432.5,42.5 Z"/></g>
<g><path style="opacity:0.004" fill="#000000" d="M 439.5,42.5 C 440.833,43.1667 440.833,43.1667 439.5,42.5 Z"/></g>
<g><path style="opacity:0.004" fill="#000000" d="M 437.5,48.5 C 436.833,47.1667 436.833,47.1667 437.5,48.5 Z"/></g>
<g><path style="opacity:1" fill="#259ed8" d="M -0.5,49.5 C 141.71,48.8375 283.71,49.5041 425.5,51.5C 425.443,52.609 425.11,53.609 424.5,54.5C 423.662,54.8417 423.328,55.5084 423.5,56.5C 422.691,58.2922 422.191,60.2922 422,62.5C 421.667,62.1667 421.333,61.8333 421,61.5C 418.8,66.3455 416.3,70.3455 413.5,73.5C 412.662,73.8417 412.328,74.5084 412.5,75.5C 410.474,79.5826 408.14,82.9159 405.5,85.5C 402.853,90.0905 400.186,94.0905 397.5,97.5C 394.833,101.5 392.167,105.5 389.5,109.5C 388.662,109.842 388.328,110.508 388.5,111.5C 385.457,115.217 382.791,119.217 380.5,123.5C 379.5,124.5 378.5,125.5 377.5,126.5C 375.669,127.052 374.003,127.052 372.5,126.5C 374.698,124.092 376.364,121.425 377.5,118.5C 364.254,118.177 351.087,118.511 338,119.5C 337.667,116.167 337.333,112.833 337,109.5C 336.778,117.023 336.611,124.356 336.5,131.5C 334.962,123.095 333.962,114.595 333.5,106C 332.158,100.552 330.325,95.3852 328,90.5C 324.468,84.7471 320.468,79.4137 316,74.5C 314.254,72.5433 312.088,71.5433 309.5,71.5C 309.5,70.5 309.5,69.5 309.5,68.5C 302.431,65.9016 295.098,64.5683 287.5,64.5C 287.5,63.5 287.5,62.5 287.5,61.5C 266.833,61.5 246.167,61.5 225.5,61.5C 225.833,110.171 225.5,158.838 224.5,207.5C 221.943,204.311 220.943,200.645 221.5,196.5C 222.124,198.834 222.957,201.167 224,203.5C 224.667,170.833 224.667,138.167 224,105.5C 223.81,111.416 223.31,117.249 222.5,123C 216.917,123.191 211.417,123.691 206,124.5C 205.667,122.833 205.333,121.167 205,119.5C 206.553,128.051 207.719,136.718 208.5,145.5C 204.081,126.081 199.248,106.748 194,87.5C 192.484,78.7844 190.984,70.1177 189.5,61.5C 175.484,61.1674 161.484,61.5008 147.5,62.5C 142.11,82.1341 137.11,101.801 132.5,121.5C 132.663,119.143 132.497,116.81 132,114.5C 130.812,115.563 130.312,116.897 130.5,118.5C 120.917,118.182 111.417,118.515 102,119.5C 101.667,118.167 101.333,116.833 101,115.5C 101.013,119.485 99.346,122.485 96,124.5C 94.3117,123.675 94.1451,122.675 95.5,121.5C 94.0508,120.828 92.7175,120.161 91.5,119.5C 94.0115,119.838 96.3448,119.838 98.5,119.5C 102.535,107.337 106.869,95.3374 111.5,83.5C 112.474,81.2573 112.808,78.924 112.5,76.5C 110.133,75.8363 108.133,74.503 106.5,72.5C 103.122,71.4095 99.7889,70.4095 96.5,69.5C 96.5,68.5 96.5,67.5 96.5,66.5C 94.5,66.5 92.5,66.5 90.5,66.5C 90.5,65.5 90.5,64.5 90.5,63.5C 77.3449,61.6971 64.0116,61.0305 50.5,61.5C 50.5,62.5 50.5,63.5 50.5,64.5C 45.1032,65.5925 39.7699,66.9258 34.5,68.5C 34.5,69.5 34.5,70.5 34.5,71.5C 32.4205,72.0444 30.4205,72.8777 28.5,74C 25.2412,77.4076 22.2412,81.0742 19.5,85C 18.552,85.4828 17.552,85.6495 16.5,85.5C 16.459,90.3458 14.6257,94.3458 11,97.5C 9.39051,102.252 7.89051,106.919 6.5,111.5C 7.83333,105.5 5.5,103.167 -0.5,104.5C -0.5,86.1667 -0.5,67.8333 -0.5,49.5 Z"/></g>
<g><path style="opacity:0.004" fill="#000000" d="M 424.5,54.5 C 425.833,55.1667 425.833,55.1667 424.5,54.5 Z"/></g>
<g><path style="opacity:0.004" fill="#000000" d="M 431.5,54.5 C 432.833,55.1667 432.833,55.1667 431.5,54.5 Z"/></g>
<g><path style="opacity:0.004" fill="#000000" d="M 423.5,56.5 C 424.833,57.1667 424.833,57.1667 423.5,56.5 Z"/></g>
<g><path style="opacity:0.004" fill="#0000ff" d="M 429.5,60.5 C 428.833,59.1667 428.833,59.1667 429.5,60.5 Z"/></g>
<g><path style="opacity:1" fill="#fcfdfe" d="M 91.5,119.5 C 91.5,118.5 91.5,117.5 91.5,116.5C 86.6455,116.272 82.3122,114.772 78.5,112C 70.1733,111.5 61.84,111.334 53.5,111.5C 53.5,112.5 53.5,113.5 53.5,114.5C 48.319,114.85 45.6524,117.683 45.5,123C 46.7599,126.352 48.4265,129.519 50.5,132.5C 51.325,133.386 52.325,133.719 53.5,133.5C 53.5,134.5 53.5,135.5 53.5,136.5C 57.1667,137.833 60.8333,139.167 64.5,140.5C 64.5,141.5 64.5,142.5 64.5,143.5C 72.6291,146.717 80.9624,149.884 89.5,153C 92.0717,156.355 95.405,158.522 99.5,159.5C 99.3505,160.552 99.5172,161.552 100,162.5C 105.919,169.672 110.252,177.672 113,186.5C 113.667,187.167 114.333,187.833 115,188.5C 120.705,166.009 126.538,143.676 132.5,121.5C 137.11,101.801 142.11,82.1341 147.5,62.5C 161.484,61.5008 175.484,61.1674 189.5,61.5C 190.984,70.1177 192.484,78.7844 194,87.5C 199.248,106.748 204.081,126.081 208.5,145.5C 213.106,162.358 217.44,179.358 221.5,196.5C 220.943,200.645 221.943,204.311 224.5,207.5C 225.5,158.838 225.833,110.171 225.5,61.5C 246.167,61.5 266.833,61.5 287.5,61.5C 287.5,62.5 287.5,63.5 287.5,64.5C 295.098,64.5683 302.431,65.9016 309.5,68.5C 309.5,69.5 309.5,70.5 309.5,71.5C 312.088,71.5433 314.254,72.5433 316,74.5C 320.468,79.4137 324.468,84.7471 328,90.5C 330.325,95.3852 332.158,100.552 333.5,106C 333.962,114.595 334.962,123.095 336.5,131.5C 335.671,138.321 335.171,145.321 335,152.5C 332.278,159.644 329.778,166.977 327.5,174.5C 323.369,179.772 320.035,185.439 317.5,191.5C 313.66,192.922 309.993,194.589 306.5,196.5C 304.993,197.975 303.327,199.309 301.5,200.5C 289.167,200.5 276.833,200.5 264.5,200.5C 264.5,226.833 264.5,253.167 264.5,279.5C 242.5,279.5 220.5,279.5 198.5,279.5C 195.685,266.133 192.685,252.8 189.5,239.5C 187.365,240.881 185.032,241.881 182.5,242.5C 172.517,243.666 162.517,243.832 152.5,243C 149.762,242.017 147.095,240.851 144.5,239.5C 140.458,252.618 137.125,265.951 134.5,279.5C 119.462,280.15 104.795,279.483 90.5,277.5C 91.9994,274.658 92.3328,271.658 91.5,268.5C 89.0803,271.2 86.0803,272.534 82.5,272.5C 82.5,273.5 82.5,274.5 82.5,275.5C 68.4139,279.302 54.0806,280.302 39.5,278.5C 34.8746,277.176 30.208,276.176 25.5,275.5C 25.5,274.5 25.5,273.5 25.5,272.5C 22.0173,272.309 18.6839,271.643 15.5,270.5C 15.5,269.5 15.5,268.5 15.5,267.5C 12.1015,266.366 8.76813,265.033 5.5,263.5C 5.2767,261.658 4.94337,259.825 4.5,258C 6.54342,251.867 8.21009,245.7 9.5,239.5C 13.5915,230.154 16.9249,220.487 19.5,210.5C 20.5237,211.853 21.857,212.52 23.5,212.5C 23.5,213.5 23.5,214.5 23.5,215.5C 27.0453,217.237 30.7119,218.57 34.5,219.5C 34.5,220.5 34.5,221.5 34.5,222.5C 38.3053,223.835 42.3053,224.668 46.5,225C 46.9574,225.414 47.2907,225.914 47.5,226.5C 52.1196,227.493 56.7863,227.827 61.5,227.5C 61.5,226.5 61.5,225.5 61.5,224.5C 64.3085,224.307 66.9752,223.64 69.5,222.5C 71.4385,219.338 72.7718,215.838 73.5,212C 72.9694,207.771 71.6361,203.938 69.5,200.5C 66.9752,199.36 64.3085,198.693 61.5,198.5C 61.5,197.5 61.5,196.5 61.5,195.5C 58.0504,194.09 54.3837,193.424 50.5,193.5C 49.0821,191.692 47.0821,191.025 44.5,191.5C 44.5,190.5 44.5,189.5 44.5,188.5C 39.3709,186.715 34.3709,184.715 29.5,182.5C 29.5,181.5 29.5,180.5 29.5,179.5C 28.5,179.5 27.5,179.5 26.5,179.5C 26.5,178.5 26.5,177.5 26.5,176.5C 24.289,176.033 22.289,175.033 20.5,173.5C 6.373,155.14 1.70633,134.474 6.5,111.5C 7.89051,106.919 9.39051,102.252 11,97.5C 14.6257,94.3458 16.459,90.3458 16.5,85.5C 17.552,85.6495 18.552,85.4828 19.5,85C 22.2412,81.0742 25.2412,77.4076 28.5,74C 30.4205,72.8777 32.4205,72.0444 34.5,71.5C 34.5,70.5 34.5,69.5 34.5,68.5C 39.7699,66.9258 45.1032,65.5925 50.5,64.5C 50.5,63.5 50.5,62.5 50.5,61.5C 64.0116,61.0305 77.3449,61.6971 90.5,63.5C 90.5,64.5 90.5,65.5 90.5,66.5C 92.5,66.5 94.5,66.5 96.5,66.5C 96.5,67.5 96.5,68.5 96.5,69.5C 99.7889,70.4095 103.122,71.4095 106.5,72.5C 108.133,74.503 110.133,75.8363 112.5,76.5C 112.808,78.924 112.474,81.2573 111.5,83.5C 106.869,95.3374 102.535,107.337 98.5,119.5C 96.3448,119.838 94.0115,119.838 91.5,119.5 Z"/></g>
<g><path style="opacity:0.004" fill="#000000" d="M 426.5,65.5 C 425.833,64.1667 425.833,64.1667 426.5,65.5 Z"/></g>
<g><path style="opacity:1" fill="#f5f7fb" d="M 500.5,64.5 C 508.921,64.4276 517.255,65.261 525.5,67C 529.489,69.6614 533.823,71.828 538.5,73.5C 538.5,74.5 538.5,75.5 538.5,76.5C 540.58,77.0444 542.58,77.8777 544.5,79C 546.037,80.1096 546.703,81.6096 546.5,83.5C 549.5,83.8333 551.167,85.5 551.5,88.5C 553.606,88.679 555.272,89.679 556.5,91.5C 568.295,109.254 575.461,128.921 578,150.5C 582.658,187.64 574.825,221.64 554.5,252.5C 551.505,254.994 548.672,257.661 546,260.5C 545.517,261.448 545.351,262.448 545.5,263.5C 542.232,265.033 538.899,266.366 535.5,267.5C 535.5,268.5 535.5,269.5 535.5,270.5C 532.5,271.167 529.5,271.833 526.5,272.5C 526.5,273.5 526.5,274.5 526.5,275.5C 520.484,275.902 514.484,276.569 508.5,277.5C 502.834,276.684 497.168,276.017 491.5,275.5C 491.5,274.5 491.5,273.5 491.5,272.5C 488.017,272.309 484.684,271.643 481.5,270.5C 481.5,269.5 481.5,268.5 481.5,267.5C 478.5,266.167 475.5,264.833 472.5,263.5C 472.5,262.5 472.5,261.5 472.5,260.5C 469.263,259.767 467.096,257.767 466,254.5C 464.795,253.929 463.628,253.262 462.5,252.5C 459.333,248.167 456.167,243.833 453,239.5C 450.937,232.569 448.27,225.903 445,219.5C 436.53,187.819 436.363,155.985 444.5,124C 447.626,116.935 450.46,109.768 453,102.5C 456.059,98.772 458.726,94.772 461,90.5C 462.11,88.9632 463.61,88.2965 465.5,88.5C 466.937,86.0402 467.937,83.3735 468.5,80.5C 469.552,80.6495 470.552,80.4828 471.5,80C 475.423,75.2383 480.423,72.405 486.5,71.5C 486.5,70.5 486.5,69.5 486.5,68.5C 491.52,67.6466 496.186,66.3133 500.5,64.5 Z"/></g>
<g><path style="opacity:0.004" fill="#000000" d="M 423.5,66.5 C 424.833,67.1667 424.833,67.1667 423.5,66.5 Z"/></g>
<g><path style="opacity:0.004" fill="#0000ff" d="M 421.5,72.5 C 420.833,71.1667 420.833,71.1667 421.5,72.5 Z"/></g>
<g><path style="opacity:0.004" fill="#0000ff" d="M 413.5,73.5 C 414.833,74.1667 414.833,74.1667 413.5,73.5 Z"/></g>
<g><path style="opacity:0.004" fill="#000000" d="M 412.5,75.5 C 413.833,76.1667 413.833,76.1667 412.5,75.5 Z"/></g>
<g><path style="opacity:0.004" fill="#000000" d="M 418.5,77.5 C 417.833,76.1667 417.833,76.1667 418.5,77.5 Z"/></g>
<g><path style="opacity:0.004" fill="#000000" d="M 415.5,78.5 C 416.833,79.1667 416.833,79.1667 415.5,78.5 Z"/></g>
<g><path style="opacity:1" fill="#a2bbdc" d="M 525.5,83.5 C 519.897,82.5353 514.23,81.8687 508.5,81.5C 502.77,81.8687 497.103,82.5353 491.5,83.5C 493.042,82.8365 494.709,82.1698 496.5,81.5C 504.5,80.1667 512.5,80.1667 520.5,81.5C 522.291,82.1698 523.958,82.8365 525.5,83.5 Z"/></g>
<g><path style="opacity:0.004" fill="#0000ff" d="M 413.5,84.5 C 412.833,83.1667 412.833,83.1667 413.5,84.5 Z"/></g>
<g><path style="opacity:1" fill="#2f67b2" d="M 525.5,83.5 C 527.114,85.0746 529.114,85.7413 531.5,85.5C 531.5,86.5 531.5,87.5 531.5,88.5C 534.373,90.1031 537.373,91.4364 540.5,92.5C 540.626,95.4678 542.126,97.4678 545,98.5C 550.521,105.773 555.187,113.44 559,121.5C 560.969,129.225 563.469,136.725 566.5,144C 570.276,168.298 568.443,192.132 561,215.5C 558.233,222.203 554.733,228.537 550.5,234.5C 549.013,227.96 547.346,221.46 545.5,215C 543.628,210.754 541.128,206.921 538,203.5C 537.517,202.552 537.351,201.552 537.5,200.5C 534.24,198.947 530.907,197.447 527.5,196C 526.919,195.107 526.585,194.107 526.5,193C 528.481,189.353 529.981,185.52 531,181.5C 531.689,180.643 532.522,179.977 533.5,179.5C 537.548,162.095 535.714,145.428 528,129.5C 525.177,128.671 523.343,126.838 522.5,124C 514.592,119.181 506.259,118.348 497.5,121.5C 497.5,122.5 497.5,123.5 497.5,124.5C 496.448,124.351 495.448,124.517 494.5,125C 492.395,127.235 490.229,129.402 488,131.5C 481.243,146.868 479.576,162.868 483,179.5C 485.486,183.801 487.986,188.135 490.5,192.5C 489.923,194.55 488.59,195.55 486.5,195.5C 486.5,196.5 486.5,197.5 486.5,198.5C 484.42,199.044 482.42,199.878 480.5,201C 472.698,210.756 468.031,221.923 466.5,234.5C 466.167,234.333 465.833,234.167 465.5,234C 444.579,194.976 443.079,155.142 461,114.5C 464.581,109.672 467.915,104.672 471,99.5C 476.399,93.4381 482.899,88.9381 490.5,86C 491.252,85.3292 491.586,84.4959 491.5,83.5C 497.103,82.5353 502.77,81.8687 508.5,81.5C 514.23,81.8687 519.897,82.5353 525.5,83.5 Z"/></g>
<g><path style="opacity:0.004" fill="#0000ff" d="M 405.5,85.5 C 406.833,86.1667 406.833,86.1667 405.5,85.5 Z"/></g>
<g><path style="opacity:0.004" fill="#000000" d="M 410.5,89.5 C 409.833,88.1667 409.833,88.1667 410.5,89.5 Z"/></g>
<g><path style="opacity:0.004" fill="#000000" d="M 407.5,90.5 C 408.833,91.1667 408.833,91.1667 407.5,90.5 Z"/></g>
<g><path style="opacity:0.004" fill="#000000" d="M 406.5,92.5 C 407.833,93.1667 407.833,93.1667 406.5,92.5 Z"/></g>
<g><path style="opacity:0.004" fill="#0000ff" d="M 405.5,96.5 C 404.833,95.1667 404.833,95.1667 405.5,96.5 Z"/></g>
<g><path style="opacity:0.004" fill="#0000ff" d="M 397.5,97.5 C 398.833,98.1667 398.833,98.1667 397.5,97.5 Z"/></g>
<g><path style="opacity:0.004" fill="#000000" d="M 399.5,102.5 C 400.833,103.167 400.833,103.167 399.5,102.5 Z"/></g>
<g><path style="opacity:0.004" fill="#0000ff" d="M 397.5,108.5 C 396.833,107.167 396.833,107.167 397.5,108.5 Z"/></g>
<g><path style="opacity:0.004" fill="#000000" d="M 389.5,109.5 C 390.833,110.167 390.833,110.167 389.5,109.5 Z"/></g>
<g><path style="opacity:0.004" fill="#000000" d="M 388.5,111.5 C 389.833,112.167 389.833,112.167 388.5,111.5 Z"/></g>
<g><path style="opacity:0.004" fill="#000000" d="M 391.5,114.5 C 392.833,115.167 392.833,115.167 391.5,114.5 Z"/></g>
<g><path style="opacity:0.004" fill="#0000ff" d="M 389.5,120.5 C 388.833,119.167 388.833,119.167 389.5,120.5 Z"/></g>
<g><path style="opacity:0.004" fill="#0000ff" d="M 380.5,123.5 C 381.833,124.167 381.833,124.167 380.5,123.5 Z"/></g>
<g><path style="opacity:1" fill="#2b8dcc" d="M 91.5,119.5 C 92.7175,120.161 94.0508,120.828 95.5,121.5C 94.1451,122.675 94.3117,123.675 96,124.5C 99.346,122.485 101.013,119.485 101,115.5C 101.333,116.833 101.667,118.167 102,119.5C 111.417,118.515 120.917,118.182 130.5,118.5C 130.312,116.897 130.812,115.563 132,114.5C 132.497,116.81 132.663,119.143 132.5,121.5C 126.538,143.676 120.705,166.009 115,188.5C 114.333,187.833 113.667,187.167 113,186.5C 110.252,177.672 105.919,169.672 100,162.5C 99.5172,161.552 99.3505,160.552 99.5,159.5C 95.405,158.522 92.0717,156.355 89.5,153C 80.9624,149.884 72.6291,146.717 64.5,143.5C 64.5,142.5 64.5,141.5 64.5,140.5C 60.8333,139.167 57.1667,137.833 53.5,136.5C 53.5,135.5 53.5,134.5 53.5,133.5C 52.325,133.719 51.325,133.386 50.5,132.5C 48.4265,129.519 46.7599,126.352 45.5,123C 45.6524,117.683 48.319,114.85 53.5,114.5C 53.5,113.5 53.5,112.5 53.5,111.5C 61.84,111.334 70.1733,111.5 78.5,112C 82.3122,114.772 86.6455,116.272 91.5,116.5C 91.5,117.5 91.5,118.5 91.5,119.5 Z"/></g>
<g><path style="opacity:1" fill="#2b8ecd" d="M 265.5,107.5 C 272.93,107.346 280.263,108.013 287.5,109.5C 287.5,110.5 287.5,111.5 287.5,112.5C 292.462,113.482 295.462,116.482 296.5,121.5C 297.9,129.947 297.4,138.28 295,146.5C 292.454,149.954 289.287,152.621 285.5,154.5C 279.04,156.591 272.373,157.591 265.5,157.5C 265.5,140.833 265.5,124.167 265.5,107.5 Z"/></g>
<g><path style="opacity:0.004" fill="#000000" d="M 383.5,126.5 C 384.833,127.167 384.833,127.167 383.5,126.5 Z"/></g>
<g><path style="opacity:0.004" fill="#000000" d="M 375.5,130.5 C 376.833,131.167 376.833,131.167 375.5,130.5 Z"/></g>
<g><path style="opacity:0.004" fill="#000000" d="M 380.5,131.5 C 381.833,132.167 381.833,132.167 380.5,131.5 Z"/></g>
<g><path style="opacity:0.004" fill="#000000" d="M 379.5,133.5 C 380.833,134.167 380.833,134.167 379.5,133.5 Z"/></g>
<g><path style="opacity:0.004" fill="#0000ff" d="M 372.5,135.5 C 373.833,136.167 373.833,136.167 372.5,135.5 Z"/></g>
<g><path style="opacity:1" fill="#3168b2" d="M 502.5,135.5 C 516.031,134.511 523.364,141.011 524.5,155C 525.547,161.679 524.713,168.179 522,174.5C 519.92,176.993 518.086,179.659 516.5,182.5C 514.955,183.452 513.288,183.785 511.5,183.5C 511.5,184.5 511.5,185.5 511.5,186.5C 509.5,186.5 507.5,186.5 505.5,186.5C 505.5,185.5 505.5,184.5 505.5,183.5C 504.127,183.657 502.793,183.49 501.5,183C 489.668,169.414 488.668,154.914 498.5,139.5C 499.689,138.571 501.022,138.238 502.5,138.5C 502.5,137.5 502.5,136.5 502.5,135.5 Z"/></g>
<g><path style="opacity:0.004" fill="#000000" d="M 375.5,138.5 C 376.833,139.167 376.833,139.167 375.5,138.5 Z"/></g>
<g><path style="opacity:0.004" fill="#000000" d="M 372.5,143.5 C 373.833,144.167 373.833,144.167 372.5,143.5 Z"/></g>
<g><path style="opacity:0.004" fill="#0000ff" d="M 364.5,147.5 C 365.833,148.167 365.833,148.167 364.5,147.5 Z"/></g>
<g><path style="opacity:0.004" fill="#000000" d="M 367.5,150.5 C 368.833,151.167 368.833,151.167 367.5,150.5 Z"/></g>
<g><path style="opacity:0.004" fill="#000000" d="M 358.5,156.5 C 359.833,157.167 359.833,157.167 358.5,156.5 Z"/></g>
<g><path style="opacity:0.004" fill="#000000" d="M 364.5,158.5 C 363.833,157.167 363.833,157.167 364.5,158.5 Z"/></g>
<g><path style="opacity:1" fill="#2b83c5" d="M 166.5,133.5 C 167.649,133.791 168.316,134.624 168.5,136C 172.873,156.139 176.54,176.306 179.5,196.5C 173.564,197.639 167.564,198.306 161.5,198.5C 161.5,197.5 161.5,196.5 161.5,195.5C 158.136,196.127 156.136,194.794 155.5,191.5C 159.652,172.314 163.318,152.981 166.5,133.5 Z"/></g>
<g><path style="opacity:0.004" fill="#0000ff" d="M 356.5,159.5 C 357.833,160.167 357.833,160.167 356.5,159.5 Z"/></g>
<g><path style="opacity:1" fill="#2c88c8" d="M 221.5,196.5 C 217.44,179.358 213.106,162.358 208.5,145.5C 207.719,136.718 206.553,128.051 205,119.5C 205.333,121.167 205.667,122.833 206,124.5C 211.417,123.691 216.917,123.191 222.5,123C 223.31,117.249 223.81,111.416 224,105.5C 224.667,138.167 224.667,170.833 224,203.5C 222.957,201.167 222.124,198.834 221.5,196.5 Z"/></g>
<g><path style="opacity:0.004" fill="#000000" d="M 359.5,162.5 C 360.833,163.167 360.833,163.167 359.5,162.5 Z"/></g>
<g><path style="opacity:0.004" fill="#000000" d="M 358.5,164.5 C 359.833,165.167 359.833,165.167 358.5,164.5 Z"/></g>
<g><path style="opacity:1" fill="#2985c6" d="M -0.5,104.5 C 5.5,103.167 7.83333,105.5 6.5,111.5C 1.70633,134.474 6.373,155.14 20.5,173.5C 22.289,175.033 24.289,176.033 26.5,176.5C 26.5,177.5 26.5,178.5 26.5,179.5C 27.5,179.5 28.5,179.5 29.5,179.5C 29.5,180.5 29.5,181.5 29.5,182.5C 34.3709,184.715 39.3709,186.715 44.5,188.5C 44.5,189.5 44.5,190.5 44.5,191.5C 47.0821,191.025 49.0821,191.692 50.5,193.5C 48.283,192.631 45.9496,192.298 43.5,192.5C 43.5,191.5 43.5,190.5 43.5,189.5C 41.857,189.52 40.5237,188.853 39.5,187.5C 26.2162,188.482 12.8828,188.815 -0.5,188.5C -0.5,160.5 -0.5,132.5 -0.5,104.5 Z"/></g>
<g><path style="opacity:0.99" fill="#2b88c9" d="M 377.5,126.5 C 376.833,127.833 376.167,129.167 375.5,130.5C 374.11,131.899 373.11,133.566 372.5,135.5C 369.854,140.125 367.187,144.125 364.5,147.5C 361.804,150.717 359.804,153.717 358.5,156.5C 357.094,156.973 356.427,157.973 356.5,159.5C 353.853,164.091 351.186,168.091 348.5,171.5C 345.853,176.091 343.186,180.091 340.5,183.5C 337.853,188.091 335.186,192.091 332.5,195.5C 331.527,197.139 330.194,198.473 328.5,199.5C 328.387,196.951 329.054,194.618 330.5,192.5C 329.998,191.284 329.665,190.117 329.5,189C 326.574,188.782 323.74,188.282 321,187.5C 318.961,188.978 318.128,190.978 318.5,193.5C 321.518,193.335 324.518,193.502 327.5,194C 326.663,195.011 326.33,196.178 326.5,197.5C 322.123,197.946 317.956,197.279 314,195.5C 311.566,196.322 309.066,196.656 306.5,196.5C 309.993,194.589 313.66,192.922 317.5,191.5C 320.035,185.439 323.369,179.772 327.5,174.5C 329.778,166.977 332.278,159.644 335,152.5C 335.171,145.321 335.671,138.321 336.5,131.5C 336.611,124.356 336.778,117.023 337,109.5C 337.333,112.833 337.667,116.167 338,119.5C 351.087,118.511 364.254,118.177 377.5,118.5C 376.364,121.425 374.698,124.092 372.5,126.5C 374.003,127.052 375.669,127.052 377.5,126.5 Z"/></g>
<g><path style="opacity:0.004" fill="#000000" d="M 356.5,170.5 C 355.833,169.167 355.833,169.167 356.5,170.5 Z"/></g>
<g><path style="opacity:0.004" fill="#0000ff" d="M 348.5,171.5 C 349.833,172.167 349.833,172.167 348.5,171.5 Z"/></g>
<g><path style="opacity:0.004" fill="#000000" d="M 350.5,176.5 C 351.833,177.167 351.833,177.167 350.5,176.5 Z"/></g>
<g><path style="opacity:0.004" fill="#0000ff" d="M 348.5,182.5 C 347.833,181.167 347.833,181.167 348.5,182.5 Z"/></g>
<g><path style="opacity:0.004" fill="#0000ff" d="M 340.5,183.5 C 341.833,184.167 341.833,184.167 340.5,183.5 Z"/></g>
<g><path style="opacity:0.004" fill="#000000" d="M 342.5,188.5 C 343.833,189.167 343.833,189.167 342.5,188.5 Z"/></g>
<g><path style="opacity:0.004" fill="#0000ff" d="M 340.5,194.5 C 339.833,193.167 339.833,193.167 340.5,194.5 Z"/></g>
<g><path style="opacity:1" fill="#237abe" d="M 50.5,193.5 C 54.3837,193.424 58.0504,194.09 61.5,195.5C 61.5,196.5 61.5,197.5 61.5,198.5C 64.3085,198.693 66.9752,199.36 69.5,200.5C 71.6361,203.938 72.9694,207.771 73.5,212C 72.7718,215.838 71.4385,219.338 69.5,222.5C 66.9752,223.64 64.3085,224.307 61.5,224.5C 61.5,225.5 61.5,226.5 61.5,227.5C 56.7863,227.827 52.1196,227.493 47.5,226.5C 47.2907,225.914 46.9574,225.414 46.5,225C 42.3053,224.668 38.3053,223.835 34.5,222.5C 34.5,221.5 34.5,220.5 34.5,219.5C 30.7119,218.57 27.0453,217.237 23.5,215.5C 23.5,214.5 23.5,213.5 23.5,212.5C 21.857,212.52 20.5237,211.853 19.5,210.5C 16.9249,220.487 13.5915,230.154 9.5,239.5C 9.66212,237.473 9.49546,235.473 9,233.5C 5.94325,234.451 2.77659,234.784 -0.5,234.5C -0.5,219.167 -0.5,203.833 -0.5,188.5C 12.8828,188.815 26.2162,188.482 39.5,187.5C 40.5237,188.853 41.857,189.52 43.5,189.5C 43.5,190.5 43.5,191.5 43.5,192.5C 45.9496,192.298 48.283,192.631 50.5,193.5 Z"/></g>
<g><path style="opacity:0.004" fill="#0000ff" d="M 332.5,195.5 C 333.833,196.167 333.833,196.167 332.5,195.5 Z"/></g>
<g><path style="opacity:0.004" fill="#000000" d="M 334.5,200.5 C 335.833,201.167 335.833,201.167 334.5,200.5 Z"/></g>
<g><path style="opacity:0.004" fill="#0000ff" d="M 332.5,206.5 C 331.833,205.167 331.833,205.167 332.5,206.5 Z"/></g>
<g><path style="opacity:0.004" fill="#000000" d="M 324.5,207.5 C 325.833,208.167 325.833,208.167 324.5,207.5 Z"/></g>
<g><path style="opacity:1" fill="#3068b2" d="M 494.5,207.5 C 503.839,207.334 513.173,207.5 522.5,208C 528.944,213.12 533.944,219.453 537.5,227C 539.506,234.37 540.506,241.87 540.5,249.5C 536.153,249.507 532.82,251.34 530.5,255C 529.207,255.49 527.873,255.657 526.5,255.5C 526.5,256.5 526.5,257.5 526.5,258.5C 520.694,259.953 514.694,260.619 508.5,260.5C 504.833,260.167 501.167,259.833 497.5,259.5C 493.515,258.458 489.849,256.958 486.5,255C 484.561,254.092 483.561,252.592 483.5,250.5C 481.139,250.326 478.806,249.993 476.5,249.5C 476.272,241.259 477.438,233.259 480,225.5C 483.723,219.264 488.557,214.264 494.5,210.5C 494.5,209.5 494.5,208.5 494.5,207.5 Z"/></g>
<g><path style="opacity:0.004" fill="#0000ff" d="M 326.5,212.5 C 327.833,213.167 327.833,213.167 326.5,212.5 Z"/></g>
<g><path style="opacity:0.004" fill="#0000ff" d="M 324.5,218.5 C 323.833,217.167 323.833,217.167 324.5,218.5 Z"/></g>
<g><path style="opacity:1" fill="#2075bb" d="M 328.5,199.5 C 328.657,200.873 328.49,202.207 328,203.5C 327.667,203.167 327.333,202.833 327,202.5C 326.153,204.193 325.32,205.86 324.5,207.5C 321.853,212.091 319.186,216.091 316.5,219.5C 313.854,224.138 311.188,228.138 308.5,231.5C 307.662,231.842 307.328,232.508 307.5,233.5C 304.457,237.217 301.791,241.217 299.5,245.5C 297.11,247.267 295.443,249.6 294.5,252.5C 293.11,253.899 292.11,255.566 291.5,257.5C 290.833,257.5 290.5,257.833 290.5,258.5C 289.778,258.082 289.278,257.416 289,256.5C 288.167,257.5 287.333,258.5 286.5,259.5C 285.289,258.726 285.289,257.893 286.5,257C 280.251,256.191 274.084,256.358 268,257.5C 267.667,253.833 267.333,250.167 267,246.5C 266.83,257.674 266.33,268.674 265.5,279.5C 265.5,253.5 265.5,227.5 265.5,201.5C 277.678,201.828 289.678,201.495 301.5,200.5C 303.327,199.309 304.993,197.975 306.5,196.5C 309.066,196.656 311.566,196.322 314,195.5C 317.956,197.279 322.123,197.946 326.5,197.5C 326.33,196.178 326.663,195.011 327.5,194C 324.518,193.502 321.518,193.335 318.5,193.5C 318.128,190.978 318.961,188.978 321,187.5C 323.74,188.282 326.574,188.782 329.5,189C 329.665,190.117 329.998,191.284 330.5,192.5C 329.054,194.618 328.387,196.951 328.5,199.5 Z"/></g>
<g><path style="opacity:0.004" fill="#000000" d="M 316.5,219.5 C 317.833,220.167 317.833,220.167 316.5,219.5 Z"/></g>
<g><path style="opacity:0.004" fill="#0000ff" d="M 318.5,224.5 C 319.833,225.167 319.833,225.167 318.5,224.5 Z"/></g>
<g><path style="opacity:0.004" fill="#000000" d="M 318.5,228.5 C 317.833,227.167 317.833,227.167 318.5,228.5 Z"/></g>
<g><path style="opacity:0.004" fill="#0000ff" d="M 316.5,230.5 C 315.833,229.167 315.833,229.167 316.5,230.5 Z"/></g>
<g><path style="opacity:0.004" fill="#000000" d="M 308.5,231.5 C 309.833,232.167 309.833,232.833 308.5,233.5C 308.5,232.833 308.5,232.167 308.5,231.5 Z"/></g>
<g><path style="opacity:0.004" fill="#000000" d="M 307.5,233.5 C 307.833,233.5 308.167,233.5 308.5,233.5C 308.315,234.17 307.981,234.17 307.5,233.5 Z"/></g>
<g><path style="opacity:0.004" fill="#0000ff" d="M 311.5,237.5 C 310.833,236.167 310.833,236.167 311.5,237.5 Z"/></g>
<g><path style="opacity:0.004" fill="#000000" d="M 307.5,243.5 C 308.833,244.167 308.833,244.167 307.5,243.5 Z"/></g>
<g><path style="opacity:0.004" fill="#000000" d="M 299.5,245.5 C 300.833,246.167 300.833,246.167 299.5,245.5 Z"/></g>
<g><path style="opacity:0.004" fill="#0000ff" d="M 305.5,249.5 C 304.833,248.167 304.833,248.167 305.5,249.5 Z"/></g>
<g><path style="opacity:0.004" fill="#000000" d="M 296.5,250.5 C 297.833,251.167 297.833,251.167 296.5,250.5 Z"/></g>
<g><path style="opacity:0.004" fill="#000000" d="M 294.5,252.5 C 295.833,253.167 295.833,253.167 294.5,252.5 Z"/></g>
<g><path style="opacity:0.004" fill="#000000" d="M 299.5,255.5 C 300.833,256.167 300.833,256.167 299.5,255.5 Z"/></g>
<g><path style="opacity:0.004" fill="#000000" d="M 291.5,257.5 C 292.833,258.167 292.833,258.167 291.5,257.5 Z"/></g>
<g><path style="opacity:0.004" fill="#0000ff" d="M 297.5,261.5 C 296.833,260.167 296.833,260.167 297.5,261.5 Z"/></g>
<g><path style="opacity:0.004" fill="#000000" d="M 286.5,264.5 C 287.833,265.167 287.833,265.167 286.5,264.5 Z"/></g>
<g><path style="opacity:0.004" fill="#000000" d="M 291.5,267.5 C 292.833,268.167 292.833,268.167 291.5,267.5 Z"/></g>
<g><path style="opacity:0.004" fill="#0000ff" d="M 283.5,269.5 C 284.833,270.167 284.833,270.167 283.5,269.5 Z"/></g>
<g><path style="opacity:0.004" fill="#000000" d="M 291.5,271.5 C 290.833,270.167 290.833,270.167 291.5,271.5 Z"/></g>
<g><path style="opacity:0.004" fill="#0000ff" d="M 289.5,273.5 C 288.833,272.167 288.833,272.167 289.5,273.5 Z"/></g>
<g><path style="opacity:1" fill="#97b9dc" d="M 301.5,200.5 C 289.678,201.495 277.678,201.828 265.5,201.5C 265.5,227.5 265.5,253.5 265.5,279.5C 243.167,280.833 220.833,280.833 198.5,279.5C 220.5,279.5 242.5,279.5 264.5,279.5C 264.5,253.167 264.5,226.833 264.5,200.5C 276.833,200.5 289.167,200.5 301.5,200.5 Z"/></g>
<g><path style="opacity:0.004" fill="#000000" d="M 283.5,279.5 C 284.833,280.167 284.833,280.167 283.5,279.5 Z"/></g>
<g><path style="opacity:0.004" fill="#0000ff" d="M 275.5,281.5 C 276.833,282.167 276.833,282.167 275.5,281.5 Z"/></g>
<g><path style="opacity:0.004" fill="#0000ff" d="M 281.5,285.5 C 280.833,284.167 280.833,284.167 281.5,285.5 Z"/></g>
<g><path style="opacity:0.004" fill="#000000" d="M 269.5,291.5 C 270.833,292.167 270.833,292.167 269.5,291.5 Z"/></g>
<g><path style="opacity:0.004" fill="#000000" d="M 275.5,291.5 C 276.833,292.167 276.833,292.167 275.5,291.5 Z"/></g>
<g><path style="opacity:0.004" fill="#0000ff" d="M 267.5,293.5 C 268.525,293.897 268.692,294.563 268,295.5C 267.536,294.906 267.369,294.239 267.5,293.5 Z"/></g>
<g><path style="opacity:0.004" fill="#0000ff" d="M 265.5,296.5 C 266.833,297.167 266.833,297.167 265.5,296.5 Z"/></g>
<g><path style="opacity:0.004" fill="#0000ff" d="M 273.5,298.5 C 272.475,298.103 272.308,297.437 273,296.5C 273.464,297.094 273.631,297.761 273.5,298.5 Z"/></g>
<g><path style="opacity:0.004" fill="#0000ff" d="M 264.5,298.5 C 265.833,299.167 265.833,299.167 264.5,298.5 Z"/></g>
<g><path style="opacity:0.004" fill="#000000" d="M 270.5,299.5 C 271.833,300.167 271.833,300.167 270.5,299.5 Z"/></g>
<g><path style="opacity:0.004" fill="#00fffe" d="M 270.5,302.5 C 269.833,301.167 269.833,301.167 270.5,302.5 Z"/></g>
<g><path style="opacity:0.004" fill="#000000" d="M 261.5,303.5 C 262.833,304.167 262.833,304.167 261.5,303.5 Z"/></g>
<g><path style="opacity:0.999" fill="#2b68b3" d="M 9.5,239.5 C 8.21009,245.7 6.54342,251.867 4.5,258C 4.94337,259.825 5.2767,261.658 5.5,263.5C 8.76813,265.033 12.1015,266.366 15.5,267.5C 15.5,268.5 15.5,269.5 15.5,270.5C 18.6839,271.643 22.0173,272.309 25.5,272.5C 25.5,273.5 25.5,274.5 25.5,275.5C 30.208,276.176 34.8746,277.176 39.5,278.5C 54.0806,280.302 68.4139,279.302 82.5,275.5C 82.5,274.5 82.5,273.5 82.5,272.5C 86.0803,272.534 89.0803,271.2 91.5,268.5C 92.3328,271.658 91.9994,274.658 90.5,277.5C 89.596,278.209 89.2627,279.209 89.5,280.5C 104.676,280.829 119.676,280.496 134.5,279.5C 137.125,265.951 140.458,252.618 144.5,239.5C 147.095,240.851 149.762,242.017 152.5,243C 162.517,243.832 172.517,243.666 182.5,242.5C 185.032,241.881 187.365,240.881 189.5,239.5C 192.685,252.8 195.685,266.133 198.5,279.5C 220.833,280.833 243.167,280.833 265.5,279.5C 266.33,268.674 266.83,257.674 267,246.5C 267.333,250.167 267.667,253.833 268,257.5C 274.084,256.358 280.251,256.191 286.5,257C 285.289,257.893 285.289,258.726 286.5,259.5C 287.333,258.5 288.167,257.5 289,256.5C 289.278,257.416 289.778,258.082 290.5,258.5C 288.684,260.118 287.351,262.118 286.5,264.5C 285.11,265.899 284.11,267.566 283.5,269.5C 280.854,274.125 278.187,278.125 275.5,281.5C 272.854,286.125 270.187,290.125 267.5,293.5C 264.438,295.623 262.938,298.623 263,302.5C 262.667,301.833 262.333,301.167 262,300.5C 261.153,302.193 260.32,303.86 259.5,305.5C 258.599,306.29 257.932,307.29 257.5,308.5C 255.87,310.026 255.037,312.026 255,314.5C 254.667,313.833 254.333,313.167 254,312.5C 253.153,314.193 252.32,315.86 251.5,317.5C 250.599,318.29 249.932,319.29 249.5,320.5C 247.87,322.026 247.037,324.026 247,326.5C 246.667,325.833 246.333,325.167 246,324.5C 245.153,326.193 244.32,327.86 243.5,329.5C 242.599,330.29 241.932,331.29 241.5,332.5C 239.87,334.026 239.037,336.026 239,338.5C 238.667,337.833 238.333,337.167 238,336.5C 237.153,338.193 236.32,339.86 235.5,341.5C 156.904,342.497 78.2375,342.83 -0.5,342.5C -0.5,306.5 -0.5,270.5 -0.5,234.5C 2.77659,234.784 5.94325,234.451 9,233.5C 9.49546,235.473 9.66212,237.473 9.5,239.5 Z"/></g>
<g><path style="opacity:1" fill="#93b4d9" d="M 90.5,277.5 C 104.795,279.483 119.462,280.15 134.5,279.5C 119.676,280.496 104.676,280.829 89.5,280.5C 89.2627,279.209 89.596,278.209 90.5,277.5 Z"/></g>
<g><path style="opacity:0.004" fill="#240fa2" d="M 267.5,303.5 C 268.525,303.897 268.692,304.563 268,305.5C 267.536,304.906 267.369,304.239 267.5,303.5 Z"/></g>
<g><path style="opacity:0.004" fill="#1f4e4e" d="M 259.5,305.5 C 260.525,305.897 260.692,306.563 260,307.5C 259.536,306.906 259.369,306.239 259.5,305.5 Z"/></g>
<g><path style="opacity:0.004" fill="#0000ff" d="M 267.5,307.5 C 266.833,306.167 266.833,306.167 267.5,307.5 Z"/></g>
<g><path style="opacity:0.004" fill="#0000ff" d="M 257.5,308.5 C 258.833,309.167 258.833,309.167 257.5,308.5 Z"/></g>
<g><path style="opacity:0.004" fill="#1f0f4f" d="M 265.5,310.5 C 264.475,310.103 264.308,309.437 265,308.5C 265.464,309.094 265.631,309.761 265.5,310.5 Z"/></g>
<g><path style="opacity:0.004" fill="#0000ff" d="M 256.5,310.5 C 257.833,311.167 257.833,311.167 256.5,310.5 Z"/></g>
<g><path style="opacity:0.004" fill="#000000" d="M 262.5,311.5 C 263.833,312.167 263.833,312.167 262.5,311.5 Z"/></g>
<g><path style="opacity:0.004" fill="#00fffe" d="M 262.5,314.5 C 261.833,313.167 261.833,313.167 262.5,314.5 Z"/></g>
<g><path style="opacity:0.004" fill="#0000ff" d="M 253.5,315.5 C 254.833,316.167 254.833,316.167 253.5,315.5 Z"/></g>
<g><path style="opacity:0.004" fill="#240fa2" d="M 259.5,315.5 C 260.525,315.897 260.692,316.563 260,317.5C 259.536,316.906 259.369,316.239 259.5,315.5 Z"/></g>
<g><path style="opacity:0.004" fill="#1f4e4e" d="M 251.5,317.5 C 252.525,317.897 252.692,318.563 252,319.5C 251.536,318.906 251.369,318.239 251.5,317.5 Z"/></g>
<g><path style="opacity:0.004" fill="#0000ff" d="M 259.5,319.5 C 258.833,318.167 258.833,318.167 259.5,319.5 Z"/></g>
<g><path style="opacity:0.004" fill="#0000ff" d="M 249.5,320.5 C 250.833,321.167 250.833,321.167 249.5,320.5 Z"/></g>
<g><path style="opacity:0.004" fill="#1f0f4f" d="M 257.5,322.5 C 256.475,322.103 256.308,321.437 257,320.5C 257.464,321.094 257.631,321.761 257.5,322.5 Z"/></g>
<g><path style="opacity:0.004" fill="#0000ff" d="M 248.5,322.5 C 249.833,323.167 249.833,323.167 248.5,322.5 Z"/></g>
<g><path style="opacity:0.004" fill="#000000" d="M 256.5,324.5 C 255.833,323.167 255.833,323.167 256.5,324.5 Z"/></g>
<g><path style="opacity:0.004" fill="#00fffe" d="M 254.5,326.5 C 253.833,325.167 253.833,325.167 254.5,326.5 Z"/></g>
<g><path style="opacity:0.004" fill="#0000ff" d="M 245.5,327.5 C 246.833,328.167 246.833,328.167 245.5,327.5 Z"/></g>
<g><path style="opacity:0.004" fill="#000000" d="M 251.5,327.5 C 252.525,327.897 252.692,328.563 252,329.5C 251.536,328.906 251.369,328.239 251.5,327.5 Z"/></g>
<g><path style="opacity:0.004" fill="#1f4e4e" d="M 243.5,329.5 C 244.525,329.897 244.692,330.563 244,331.5C 243.536,330.906 243.369,330.239 243.5,329.5 Z"/></g>
<g><path style="opacity:0.004" fill="#00fffe" d="M 251.5,331.5 C 250.833,330.167 250.833,330.167 251.5,331.5 Z"/></g>
<g><path style="opacity:0.004" fill="#000000" d="M 241.5,332.5 C 242.833,333.167 242.833,333.167 241.5,332.5 Z"/></g>
<g><path style="opacity:0.004" fill="#0000ff" d="M 248.5,332.5 C 249.833,333.167 249.833,333.167 248.5,332.5 Z"/></g>
<g><path style="opacity:0.004" fill="#0000ff" d="M 240.5,334.5 C 241.833,335.167 241.833,335.167 240.5,334.5 Z"/></g>
<g><path style="opacity:0.004" fill="#00fffe" d="M 246.5,338.5 C 245.833,337.167 245.833,337.167 246.5,338.5 Z"/></g>
<g><path style="opacity:0.004" fill="#0000ff" d="M 237.5,339.5 C 238.833,340.167 238.833,340.167 237.5,339.5 Z"/></g>
<g><path style="opacity:0.004" fill="#00fffe" d="M 235.5,341.5 C 236.833,342.167 236.833,342.167 235.5,341.5 Z"/></g>
</svg>
