<?xml version="1.0" encoding="UTF-8"?>
<!DOCTYPE svg PUBLIC "-//W3C//DTD SVG 1.1//EN" "http://www.w3.org/Graphics/SVG/1.1/DTD/svg11.dtd">
<svg xmlns="http://www.w3.org/2000/svg" version="1.1" width="378px" height="378px" style="shape-rendering:geometricPrecision; text-rendering:geometricPrecision; image-rendering:optimizeQuality; fill-rule:evenodd; clip-rule:evenodd" xmlns:xlink="http://www.w3.org/1999/xlink">
<g><path style="opacity:1" fill="#f7f7f7" d="M -0.5,-0.5 C 125.5,-0.5 251.5,-0.5 377.5,-0.5C 377.5,38.5 377.5,77.5 377.5,116.5C 377.167,116.5 376.833,116.5 376.5,116.5C 346.833,116.5 317.167,116.5 287.5,116.5C 287.5,117.5 287.5,118.5 287.5,119.5C 287.5,120.167 287.167,120.5 286.5,120.5C 284.16,118.824 281.827,117.158 279.5,115.5C 186.189,116.495 92.8553,116.828 -0.5,116.5C -0.5,77.5 -0.5,38.5 -0.5,-0.5 Z"/></g>
<g><path style="opacity:1" fill="#d8ecfc" d="M 376.5,116.5 C 376.5,116.833 376.5,117.167 376.5,117.5C 347.498,117.333 318.498,117.5 289.5,118C 288.956,118.717 288.289,119.217 287.5,119.5C 287.5,118.5 287.5,117.5 287.5,116.5C 317.167,116.5 346.833,116.5 376.5,116.5 Z"/></g>
<g><path style="opacity:1" fill="#49a7ca" d="M -0.5,118.5 C -0.5,118.167 -0.5,117.833 -0.5,117.5C 93.169,117.167 186.836,117.5 280.5,118.5C 277.812,121.854 274.812,124.854 271.5,127.5C 271.5,127.167 271.5,126.833 271.5,126.5C 272.815,124.865 272.815,123.199 271.5,121.5C 273.5,120.833 275.5,120.167 277.5,119.5C 184.836,118.5 92.1691,118.167 -0.5,118.5 Z"/></g>
<g><path style="opacity:1" fill="#24aae1" d="M -0.5,118.5 C 92.1691,118.167 184.836,118.5 277.5,119.5C 275.5,120.167 273.5,120.833 271.5,121.5C 272.815,123.199 272.815,124.865 271.5,126.5C 234.17,127.142 196.837,127.642 159.5,128C 186.167,128.333 212.833,128.667 239.5,129C 207.262,129.171 175.095,129.671 143,130.5C 95.1487,129.937 47.3154,129.604 -0.5,129.5C -0.5,125.833 -0.5,122.167 -0.5,118.5 Z"/></g>
<g><path style="opacity:1" fill="#2b66af" d="M 374.5,256.5 C 372.167,256.5 369.833,256.5 367.5,256.5C 303.059,256.157 238.559,255.157 174,253.5C 171.154,254.683 168.154,255.349 165,255.5C 161.627,255.05 158.46,255.05 155.5,255.5C 156.833,253.167 158.167,250.833 159.5,248.5C 164.833,242.5 170.5,236.833 176.5,231.5C 183.234,226.148 189.9,220.815 196.5,215.5C 199.273,219.052 202.94,220.719 207.5,220.5C 207.5,219.5 207.5,218.5 207.5,217.5C 203.655,217.174 200.655,215.341 198.5,212C 198.645,211.228 198.978,210.561 199.5,210C 200.938,209.781 202.271,209.281 203.5,208.5C 202.637,207.274 202.637,205.94 203.5,204.5C 208.527,198.806 213.86,193.473 219.5,188.5C 221.595,187.588 223.595,186.421 225.5,185C 229.333,179.833 233.833,175.333 239,171.5C 239.483,170.552 239.649,169.552 239.5,168.5C 244.5,162.833 249.833,157.5 255.5,152.5C 267.815,141.741 279.815,130.574 291.5,119C 319.498,118.5 347.498,118.333 375.5,118.5C 375.828,164.572 375.495,210.572 374.5,256.5 Z"/></g>
<g><path style="opacity:1" fill="#23a5dd" d="M 271.5,126.5 C 271.5,126.833 271.5,127.167 271.5,127.5C 266.521,133.146 261.188,138.479 255.5,143.5C 255.665,140.482 255.498,137.482 255,134.5C 254.309,137.266 252.809,137.933 250.5,136.5C 249.205,137.098 247.872,137.598 246.5,138C 225.492,138.736 204.492,138.57 183.5,137.5C 169.155,138.063 154.822,138.729 140.5,139.5C 135.586,138.875 130.752,137.875 126,136.5C 122.12,141.797 118.12,141.797 114,136.5C 113.086,137.654 112.253,137.487 111.5,136C 105.211,134.87 99.2114,135.537 93.5,138C 100.714,137.911 107.714,138.911 114.5,141C 110.167,141.167 105.833,141.333 101.5,141.5C 80.7214,139.566 60.0547,137.566 39.5,135.5C 36.8333,135.667 34.1667,135.833 31.5,136C 30.1667,136.667 30.1667,137.333 31.5,138C 29.892,138.658 28.7253,138.158 28,136.5C 26.8869,137.711 25.7202,137.711 24.5,136.5C 23.4937,136.938 23.4937,137.604 24.5,138.5C 23.5,138.833 22.5,139.167 21.5,139.5C 14.1962,138.607 6.86284,138.274 -0.5,138.5C -0.5,135.5 -0.5,132.5 -0.5,129.5C 47.3154,129.604 95.1487,129.937 143,130.5C 175.095,129.671 207.262,129.171 239.5,129C 212.833,128.667 186.167,128.333 159.5,128C 196.837,127.642 234.17,127.142 271.5,126.5 Z"/></g>
<g><path style="opacity:1" fill="#406698" d="M 376.5,117.5 C 376.5,164.167 376.5,210.833 376.5,257.5C 375.833,257.5 375.167,257.5 374.5,257.5C 374.5,257.167 374.5,256.833 374.5,256.5C 375.495,210.572 375.828,164.572 375.5,118.5C 347.498,118.333 319.498,118.5 291.5,119C 279.815,130.574 267.815,141.741 255.5,152.5C 265.833,141.833 276.167,131.167 286.5,120.5C 287.167,120.5 287.5,120.167 287.5,119.5C 288.289,119.217 288.956,118.717 289.5,118C 318.498,117.5 347.498,117.333 376.5,117.5 Z"/></g>
<g><path style="opacity:1" fill="#30a1d8" d="M 255.5,143.5 C 250.5,149.167 245.167,154.5 239.5,159.5C 240.92,155.711 243.253,152.377 246.5,149.5C 247.386,148.675 247.719,147.675 247.5,146.5C 244.412,146.361 241.745,145.361 239.5,143.5C 239.5,144.5 239.5,145.5 239.5,146.5C 242.797,146.329 243.131,146.995 240.5,148.5C 236.329,147.784 231.996,147.784 227.5,148.5C 226.529,149.962 226.862,151.295 228.5,152.5C 226.955,153.452 225.288,153.785 223.5,153.5C 223.5,152.5 223.5,151.5 223.5,150.5C 218.167,150.5 212.833,150.5 207.5,150.5C 207.762,151.978 207.429,153.311 206.5,154.5C 205.511,150.893 205.177,147.226 205.5,143.5C 203.396,143.201 201.396,143.534 199.5,144.5C 200.833,146.833 200.833,149.167 199.5,151.5C 200.63,152.622 201.297,153.956 201.5,155.5C 196.741,150.457 191.074,146.957 184.5,145C 169.2,143.663 153.867,143.163 138.5,143.5C 138.83,163.674 138.497,183.674 137.5,203.5C 137.5,201.167 137.5,198.833 137.5,196.5C 137.83,178.659 137.497,160.992 136.5,143.5C 134.836,144.949 134.002,146.949 134,149.5C 133.167,147.5 132.333,145.5 131.5,143.5C 130.43,146.876 129.264,150.21 128,153.5C 126.945,150.457 126.778,147.457 127.5,144.5C 125.955,143.548 124.288,143.215 122.5,143.5C 122.671,145.993 121.671,147.826 119.5,149C 120.337,150.011 120.67,151.178 120.5,152.5C 119.883,152.389 119.383,152.056 119,151.5C 118.627,149.302 118.127,147.135 117.5,145C 117.164,143.97 116.497,143.47 115.5,143.5C 106.833,143.5 98.1667,143.5 89.5,143.5C 89.6567,144.873 89.49,146.207 89,147.5C 87.5382,149.437 86.3715,151.437 85.5,153.5C 85.3389,150.472 86.0056,147.639 87.5,145C 87.1667,144.5 86.8333,144 86.5,143.5C 85.2728,146.731 83.6061,149.731 81.5,152.5C 80.2622,149.832 80.2622,147.166 81.5,144.5C 81.1667,144.167 80.8333,143.833 80.5,143.5C 79.5481,145.045 79.2148,146.712 79.5,148.5C 78.0413,148.433 76.7079,148.766 75.5,149.5C 74.4324,148.566 73.099,148.232 71.5,148.5C 71.5,147.5 71.5,146.5 71.5,145.5C 68.8559,145.84 66.5225,145.173 64.5,143.5C 59.9123,143.888 55.2457,143.888 50.5,143.5C 36.8648,141.634 24.1981,144.134 12.5,151C 9.56546,153.762 6.89879,156.595 4.5,159.5C 3.84233,160.398 3.17566,161.398 2.5,162.5C 1.67053,167.802 1.17053,173.136 1,178.5C 0.823821,174.312 0.323821,170.312 -0.5,166.5C -0.5,157.167 -0.5,147.833 -0.5,138.5C 6.86284,138.274 14.1962,138.607 21.5,139.5C 22.5,139.167 23.5,138.833 24.5,138.5C 23.4937,137.604 23.4937,136.938 24.5,136.5C 25.7202,137.711 26.8869,137.711 28,136.5C 28.7253,138.158 29.892,138.658 31.5,138C 30.1667,137.333 30.1667,136.667 31.5,136C 34.1667,135.833 36.8333,135.667 39.5,135.5C 60.0547,137.566 80.7214,139.566 101.5,141.5C 105.833,141.333 110.167,141.167 114.5,141C 107.714,138.911 100.714,137.911 93.5,138C 99.2114,135.537 105.211,134.87 111.5,136C 112.253,137.487 113.086,137.654 114,136.5C 118.12,141.797 122.12,141.797 126,136.5C 130.752,137.875 135.586,138.875 140.5,139.5C 154.822,138.729 169.155,138.063 183.5,137.5C 204.492,138.57 225.492,138.736 246.5,138C 247.872,137.598 249.205,137.098 250.5,136.5C 252.809,137.933 254.309,137.266 255,134.5C 255.498,137.482 255.665,140.482 255.5,143.5 Z"/></g>
<g><path style="opacity:1" fill="#fafdfc" d="M 50.5,143.5 C 52.1667,144.167 53.8333,144.833 55.5,145.5C 59.2486,146.418 62.9153,147.751 66.5,149.5C 64.6137,152.455 63.6137,155.789 63.5,159.5C 63.3964,161.703 62.7298,163.703 61.5,165.5C 59.8311,167.662 57.8311,167.995 55.5,166.5C 52.4928,164.825 49.1595,164.159 45.5,164.5C 40.6098,163.223 35.6098,163.39 30.5,165C 28.6707,166.113 27.8374,167.613 28,169.5C 30.754,172.128 33.9206,174.128 37.5,175.5C 44.2382,178.269 51.2382,180.269 58.5,181.5C 63.1809,184.858 66.8476,189.191 69.5,194.5C 72.1437,188.565 74.477,182.565 76.5,176.5C 77.6772,174.321 78.6772,171.987 79.5,169.5C 81.4916,164.229 83.4916,158.896 85.5,153.5C 86.3715,151.437 87.5382,149.437 89,147.5C 89.49,146.207 89.6567,144.873 89.5,143.5C 98.1667,143.5 106.833,143.5 115.5,143.5C 118.409,151.005 121.076,158.672 123.5,166.5C 123.747,167.713 124.414,168.38 125.5,168.5C 126.184,172.724 127.184,176.89 128.5,181C 130.468,186.12 132.801,190.953 135.5,195.5C 135.5,195.833 135.5,196.167 135.5,196.5C 135.721,199.067 136.388,201.401 137.5,203.5C 138.497,183.674 138.83,163.674 138.5,143.5C 153.867,143.163 169.2,143.663 184.5,145C 191.074,146.957 196.741,150.457 201.5,155.5C 201.5,156.167 201.833,156.5 202.5,156.5C 207.876,170.31 205.876,182.81 196.5,194C 191.885,197.314 186.885,199.48 181.5,200.5C 175.167,200.5 168.833,200.5 162.5,200.5C 162.5,210.833 162.5,221.167 162.5,231.5C 155.842,232.166 149.008,232.5 142,232.5C 134.598,232.464 127.431,231.797 120.5,230.5C 119.691,228.972 119.024,227.306 118.5,225.5C 118.386,222.006 117.22,219.006 115,216.5C 106.667,217.833 98.3333,217.833 90,216.5C 86.5861,218.377 85.0861,221.377 85.5,225.5C 84.8333,226.833 84.1667,228.167 83.5,229.5C 82.596,230.209 82.2627,231.209 82.5,232.5C 73.1667,232.5 63.8333,232.5 54.5,232.5C 55.1098,231.609 55.4431,230.609 55.5,229.5C 57.332,228.86 57.6653,227.86 56.5,226.5C 54.556,227.801 52.556,228.801 50.5,229.5C 45.1515,231.507 39.4848,232.507 33.5,232.5C 28.5009,232.083 23.5009,231.75 18.5,231.5C 14.175,228.939 9.50838,226.939 4.5,225.5C 3.68895,224.784 3.02229,223.95 2.5,223C 3.14758,221.56 3.48091,220.06 3.5,218.5C 4.33825,218.158 4.67158,217.492 4.5,216.5C 6.95879,212.997 8.95879,209.164 10.5,205C 13.9387,204.915 16.9387,206.082 19.5,208.5C 23.5739,209.954 27.9073,210.621 32.5,210.5C 35.3555,210.497 38.0221,210.164 40.5,209.5C 40.5,209.167 40.5,208.833 40.5,208.5C 41.5832,208.461 42.5832,208.127 43.5,207.5C 44.7691,205.305 44.7691,203.139 43.5,201C 31.5064,197.734 20.173,193.234 9.5,187.5C 8.04989,184.575 6.21656,181.908 4,179.5C 3.33538,172.805 3.50205,166.138 4.5,159.5C 6.89879,156.595 9.56546,153.762 12.5,151C 24.1981,144.134 36.8648,141.634 50.5,143.5 Z"/></g>
<g><path style="opacity:1" fill="#2298d5" d="M 136.5,143.5 C 136.666,151.507 136.5,159.507 136,167.5C 134.667,168.167 133.667,169.167 133,170.5C 132.667,169.833 132.333,169.167 132,168.5C 131.583,169.756 130.75,170.423 129.5,170.5C 127.801,170.473 126.467,169.806 125.5,168.5C 124.414,162.993 122.748,157.659 120.5,152.5C 120.67,151.178 120.337,150.011 119.5,149C 121.671,147.826 122.671,145.993 122.5,143.5C 124.288,143.215 125.955,143.548 127.5,144.5C 126.778,147.457 126.945,150.457 128,153.5C 129.264,150.21 130.43,146.876 131.5,143.5C 132.333,145.5 133.167,147.5 134,149.5C 134.002,146.949 134.836,144.949 136.5,143.5 Z"/></g>
<g><path style="opacity:1" fill="#d3f2f9" d="M 55.5,145.5 C 60.2269,145.131 64.3936,146.465 68,149.5C 67.9504,153.481 66.4504,156.814 63.5,159.5C 63.6137,155.789 64.6137,152.455 66.5,149.5C 62.9153,147.751 59.2486,146.418 55.5,145.5 Z"/></g>
<g><path style="opacity:1" fill="#349ac7" d="M 50.5,143.5 C 55.2457,143.888 59.9123,143.888 64.5,143.5C 66.5225,145.173 68.8559,145.84 71.5,145.5C 71.5,146.5 71.5,147.5 71.5,148.5C 73.099,148.232 74.4324,148.566 75.5,149.5C 75.5,150.833 75.5,152.167 75.5,153.5C 73.8561,153.714 72.3561,153.38 71,152.5C 68.8333,156.167 66.6667,159.833 64.5,163.5C 63.7348,164.612 62.7348,165.279 61.5,165.5C 62.7298,163.703 63.3964,161.703 63.5,159.5C 66.4504,156.814 67.9504,153.481 68,149.5C 64.3936,146.465 60.2269,145.131 55.5,145.5C 53.8333,144.833 52.1667,144.167 50.5,143.5 Z"/></g>
<g><path style="opacity:1" fill="#2796d2" d="M 85.5,153.5 C 83.4916,158.896 81.4916,164.229 79.5,169.5C 77.9021,166.564 75.9021,163.897 73.5,161.5C 72.7952,163.672 71.7952,165.672 70.5,167.5C 68.9974,168.052 67.3307,168.052 65.5,167.5C 65.7692,169.429 65.2692,171.095 64,172.5C 63.6667,171.5 63.3333,170.5 63,169.5C 60.7655,170.98 58.9321,170.647 57.5,168.5C 58.8221,168.33 59.9887,168.663 61,169.5C 61.49,168.207 61.6567,166.873 61.5,165.5C 62.7348,165.279 63.7348,164.612 64.5,163.5C 66.6667,159.833 68.8333,156.167 71,152.5C 72.3561,153.38 73.8561,153.714 75.5,153.5C 75.5,152.167 75.5,150.833 75.5,149.5C 76.7079,148.766 78.0413,148.433 79.5,148.5C 79.2148,146.712 79.5481,145.045 80.5,143.5C 80.8333,143.833 81.1667,144.167 81.5,144.5C 80.2622,147.166 80.2622,149.832 81.5,152.5C 83.6061,149.731 85.2728,146.731 86.5,143.5C 86.8333,144 87.1667,144.5 87.5,145C 86.0056,147.639 85.3389,150.472 85.5,153.5 Z"/></g>
<g><path style="opacity:1" fill="#2397d5" d="M 239.5,159.5 C 237.5,160.167 235.5,160.833 233.5,161.5C 233.5,162.833 233.5,164.167 233.5,165.5C 230.412,165.197 228.746,166.53 228.5,169.5C 226.549,169.227 225.049,169.893 224,171.5C 223.5,170.333 222.667,169.5 221.5,169C 216.762,167.982 212.095,167.815 207.5,168.5C 206.396,164.89 205.396,161.224 204.5,157.5C 203.817,157.137 203.15,156.804 202.5,156.5C 201.833,156.5 201.5,156.167 201.5,155.5C 201.297,153.956 200.63,152.622 199.5,151.5C 200.833,149.167 200.833,146.833 199.5,144.5C 201.396,143.534 203.396,143.201 205.5,143.5C 205.177,147.226 205.511,150.893 206.5,154.5C 207.429,153.311 207.762,151.978 207.5,150.5C 212.833,150.5 218.167,150.5 223.5,150.5C 223.5,151.5 223.5,152.5 223.5,153.5C 225.288,153.785 226.955,153.452 228.5,152.5C 226.862,151.295 226.529,149.962 227.5,148.5C 231.996,147.784 236.329,147.784 240.5,148.5C 243.131,146.995 242.797,146.329 239.5,146.5C 239.5,145.5 239.5,144.5 239.5,143.5C 241.745,145.361 244.412,146.361 247.5,146.5C 247.719,147.675 247.386,148.675 246.5,149.5C 243.253,152.377 240.92,155.711 239.5,159.5 Z"/></g>
<g><path style="opacity:1" fill="#f7fcfb" d="M 266.5,157.5 C 296.167,157.5 325.833,157.5 355.5,157.5C 355.5,177.833 355.5,198.167 355.5,218.5C 325.833,218.5 296.167,218.5 266.5,218.5C 266.5,212.5 266.5,206.5 266.5,200.5C 269.278,200.978 271.278,199.978 272.5,197.5C 270.78,196.08 268.946,194.747 267,193.5C 266.333,189.833 266.333,186.167 267,182.5C 269.346,181.382 271.179,179.715 272.5,177.5C 271.009,175.988 269.176,174.988 267,174.5C 266.501,168.843 266.334,163.176 266.5,157.5 Z"/></g>
<g><path style="opacity:1" fill="#42659a" d="M 356.5,219.5 C 356.831,198.66 356.497,177.993 355.5,157.5C 325.833,157.5 296.167,157.5 266.5,157.5C 281.151,156.167 296.151,155.501 311.5,155.5C 326.5,155.667 341.5,155.833 356.5,156C 357.831,177.264 357.831,198.431 356.5,219.5 Z"/></g>
<g><path style="opacity:1" fill="#4593b9" d="M 115.5,143.5 C 116.497,143.47 117.164,143.97 117.5,145C 118.127,147.135 118.627,149.302 119,151.5C 119.383,152.056 119.883,152.389 120.5,152.5C 122.748,157.659 124.414,162.993 125.5,168.5C 124.414,168.38 123.747,167.713 123.5,166.5C 121.076,158.672 118.409,151.005 115.5,143.5 Z"/></g>
<g><path style="opacity:1" fill="#547fb4" d="M 347.5,163.5 C 347.5,163.833 347.5,164.167 347.5,164.5C 322.833,164.5 298.167,164.5 273.5,164.5C 272.909,167.675 273.909,170.009 276.5,171.5C 275.178,171.67 274.011,171.337 273,170.5C 272.503,168.19 272.337,165.857 272.5,163.5C 297.5,163.5 322.5,163.5 347.5,163.5 Z"/></g>
<g><path style="opacity:1" fill="#298ccb" d="M 173.5,163.5 C 174.791,163.263 175.791,163.596 176.5,164.5C 181.057,170.607 180.057,175.607 173.5,179.5C 170.217,180.327 166.884,180.66 163.5,180.5C 163.5,174.833 163.5,169.167 163.5,163.5C 166.833,163.5 170.167,163.5 173.5,163.5 Z"/></g>
<g><path style="opacity:1" fill="#2c64a9" d="M 347.5,164.5 C 347.5,169.5 347.5,174.5 347.5,179.5C 342.067,180.187 341.401,179.021 345.5,176C 343.954,174.56 343.121,172.727 343,170.5C 341.301,169.594 339.467,169.261 337.5,169.5C 336.833,165.5 336.167,165.5 335.5,169.5C 324.321,169.172 313.321,169.505 302.5,170.5C 302.216,172.415 302.549,174.081 303.5,175.5C 303.5,176.167 303.5,176.833 303.5,177.5C 303.5,178.167 303.5,178.833 303.5,179.5C 301.571,179.231 299.905,179.731 298.5,181C 300.315,181.757 301.981,182.59 303.5,183.5C 298.156,183.334 292.823,183.501 287.5,184C 286.944,184.383 286.611,184.883 286.5,185.5C 286.5,187.5 286.5,189.5 286.5,191.5C 304.993,192.497 323.659,192.83 342.5,192.5C 324.447,195.761 306.114,196.928 287.5,196C 285.954,194.56 285.121,192.727 285,190.5C 283.602,189.949 282.268,189.616 281,189.5C 280.803,184.914 281.303,180.414 282.5,176C 282.167,175.833 281.833,175.667 281.5,175.5C 280.828,176.949 280.161,178.282 279.5,179.5C 279.856,176.224 278.856,173.557 276.5,171.5C 273.909,170.009 272.909,167.675 273.5,164.5C 298.167,164.5 322.833,164.5 347.5,164.5 Z"/></g>
<g><path style="opacity:1" fill="#2d8ac8" d="M 239.5,159.5 C 233.527,166.14 227.194,172.473 220.5,178.5C 219.292,177.766 217.959,177.433 216.5,177.5C 216.5,178.833 216.5,180.167 216.5,181.5C 213.459,181.406 211.793,182.906 211.5,186C 210.207,186.49 208.873,186.657 207.5,186.5C 206.816,180.544 206.816,174.544 207.5,168.5C 212.095,167.815 216.762,167.982 221.5,169C 222.667,169.5 223.5,170.333 224,171.5C 225.049,169.893 226.549,169.227 228.5,169.5C 228.746,166.53 230.412,165.197 233.5,165.5C 233.5,164.167 233.5,162.833 233.5,161.5C 235.5,160.833 237.5,160.167 239.5,159.5 Z"/></g>
<g><path style="opacity:1" fill="#3a8dc1" d="M 45.5,164.5 C 48.6267,165.581 51.9601,166.247 55.5,166.5C 57.8311,167.995 59.8311,167.662 61.5,165.5C 61.6567,166.873 61.49,168.207 61,169.5C 59.9887,168.663 58.8221,168.33 57.5,168.5C 55.4086,168.318 53.4086,168.652 51.5,169.5C 49.4466,166.477 46.78,165.811 43.5,167.5C 41.4311,167.176 41.0977,166.342 42.5,165C 40.8659,164.506 39.1992,164.34 37.5,164.5C 37.8333,167.5 36.5,168.833 33.5,168.5C 33.5,169.833 33.5,171.167 33.5,172.5C 34.8333,172.5 36.1667,172.5 37.5,172.5C 37.5,171.5 37.5,170.5 37.5,169.5C 39.1667,169.5 40.8333,169.5 42.5,169.5C 42.3838,172.91 44.0504,174.244 47.5,173.5C 47.5,174.5 47.5,175.5 47.5,176.5C 49.5914,176.682 51.5914,176.348 53.5,175.5C 54.4287,176.689 54.762,178.022 54.5,179.5C 56.3797,179.229 57.713,179.896 58.5,181.5C 51.2382,180.269 44.2382,178.269 37.5,175.5C 33.9206,174.128 30.754,172.128 28,169.5C 27.8374,167.613 28.6707,166.113 30.5,165C 35.6098,163.39 40.6098,163.223 45.5,164.5 Z"/></g>
<g><path style="opacity:1" fill="#607ea6" d="M 302.5,170.5 C 315.677,170.171 328.677,170.505 341.5,171.5C 328.833,171.5 316.167,171.5 303.5,171.5C 303.5,172.833 303.5,174.167 303.5,175.5C 302.549,174.081 302.216,172.415 302.5,170.5 Z"/></g>
<g><path style="opacity:1" fill="#f9fefc" d="M 341.5,171.5 C 341.5,173.5 341.5,175.5 341.5,177.5C 328.833,177.5 316.167,177.5 303.5,177.5C 303.5,176.833 303.5,176.167 303.5,175.5C 303.5,174.167 303.5,172.833 303.5,171.5C 316.167,171.5 328.833,171.5 341.5,171.5 Z"/></g>
<g><path style="opacity:1" fill="#288bcd" d="M 79.5,169.5 C 78.6772,171.987 77.6772,174.321 76.5,176.5C 75.2058,177.29 74.0391,178.29 73,179.5C 72.9464,182.861 71.9464,185.861 70,188.5C 66.5375,185.603 62.7042,183.269 58.5,181.5C 57.713,179.896 56.3797,179.229 54.5,179.5C 54.762,178.022 54.4287,176.689 53.5,175.5C 51.5914,176.348 49.5914,176.682 47.5,176.5C 47.5,175.5 47.5,174.5 47.5,173.5C 44.0504,174.244 42.3838,172.91 42.5,169.5C 40.8333,169.5 39.1667,169.5 37.5,169.5C 37.5,170.5 37.5,171.5 37.5,172.5C 36.1667,172.5 34.8333,172.5 33.5,172.5C 33.5,171.167 33.5,169.833 33.5,168.5C 36.5,168.833 37.8333,167.5 37.5,164.5C 39.1992,164.34 40.8659,164.506 42.5,165C 41.0977,166.342 41.4311,167.176 43.5,167.5C 46.78,165.811 49.4466,166.477 51.5,169.5C 53.4086,168.652 55.4086,168.318 57.5,168.5C 58.9321,170.647 60.7655,170.98 63,169.5C 63.3333,170.5 63.6667,171.5 64,172.5C 65.2692,171.095 65.7692,169.429 65.5,167.5C 67.3307,168.052 68.9974,168.052 70.5,167.5C 71.7952,165.672 72.7952,163.672 73.5,161.5C 75.9021,163.897 77.9021,166.564 79.5,169.5 Z"/></g>
<g><path style="opacity:1" fill="#8dbed4" d="M 45.5,164.5 C 49.1595,164.159 52.4928,164.825 55.5,166.5C 51.9601,166.247 48.6267,165.581 45.5,164.5 Z"/></g>
<g><path style="opacity:1" fill="#2a86c5" d="M 136.5,143.5 C 137.497,160.992 137.83,178.659 137.5,196.5C 136.833,196.5 136.167,196.5 135.5,196.5C 135.5,196.167 135.5,195.833 135.5,195.5C 132.703,187.424 130.703,179.09 129.5,170.5C 130.75,170.423 131.583,169.756 132,168.5C 132.333,169.167 132.667,169.833 133,170.5C 133.667,169.167 134.667,168.167 136,167.5C 136.5,159.507 136.666,151.507 136.5,143.5 Z"/></g>
<g><path style="opacity:1" fill="#4989ad" d="M 173.5,163.5 C 170.167,163.5 166.833,163.5 163.5,163.5C 163.5,169.167 163.5,174.833 163.5,180.5C 166.884,180.66 170.217,180.327 173.5,179.5C 180.057,175.607 181.057,170.607 176.5,164.5C 178.752,164.916 180.252,166.249 181,168.5C 182.691,175.295 180.191,179.462 173.5,181C 169.848,181.499 166.182,181.665 162.5,181.5C 162.5,175.167 162.5,168.833 162.5,162.5C 166.371,162.185 170.038,162.518 173.5,163.5 Z"/></g>
<g><path style="opacity:1" fill="#4e75a6" d="M 266.5,157.5 C 266.334,163.176 266.501,168.843 267,174.5C 269.176,174.988 271.009,175.988 272.5,177.5C 271.179,179.715 269.346,181.382 267,182.5C 266.333,186.167 266.333,189.833 267,193.5C 268.946,194.747 270.78,196.08 272.5,197.5C 271.278,199.978 269.278,200.978 266.5,200.5C 266.5,206.5 266.5,212.5 266.5,218.5C 266.167,218.5 265.833,218.5 265.5,218.5C 265.5,211.833 265.5,205.167 265.5,198.5C 266.978,198.762 268.311,198.429 269.5,197.5C 268.349,196.269 267.183,196.269 266,197.5C 266.302,184.011 266.469,170.678 266.5,157.5 Z"/></g>
<g><path style="opacity:1" fill="#a8c5e4" d="M 287.5,167.5 C 287.5,171.167 287.5,174.833 287.5,178.5C 290.833,178.5 294.167,178.5 297.5,178.5C 297.5,174.833 297.5,171.167 297.5,167.5C 298.483,171.298 298.817,175.298 298.5,179.5C 294.5,179.5 290.5,179.5 286.5,179.5C 286.183,175.298 286.517,171.298 287.5,167.5 Z"/></g>
<g><path style="opacity:1" fill="#f9fdfb" d="M 287.5,167.5 C 290.833,167.5 294.167,167.5 297.5,167.5C 297.5,171.167 297.5,174.833 297.5,178.5C 294.167,178.5 290.833,178.5 287.5,178.5C 287.5,174.833 287.5,171.167 287.5,167.5 Z"/></g>
<g><path style="opacity:1" fill="#2a66b2" d="M 303.5,179.5 C 314.372,180.821 325.372,180.821 336.5,179.5C 337.429,180.689 337.762,182.022 337.5,183.5C 326.167,183.5 314.833,183.5 303.5,183.5C 301.981,182.59 300.315,181.757 298.5,181C 299.905,179.731 301.571,179.231 303.5,179.5 Z"/></g>
<g><path style="opacity:1" fill="#4184b2" d="M 125.5,168.5 C 126.467,169.806 127.801,170.473 129.5,170.5C 130.703,179.09 132.703,187.424 135.5,195.5C 132.801,190.953 130.468,186.12 128.5,181C 127.184,176.89 126.184,172.724 125.5,168.5 Z"/></g>
<g><path style="opacity:1" fill="#3b669a" d="M 239.5,168.5 C 239.649,169.552 239.483,170.552 239,171.5C 233.833,175.333 229.333,179.833 225.5,185C 223.595,186.421 221.595,187.588 219.5,188.5C 225.833,181.5 232.5,174.833 239.5,168.5 Z"/></g>
<g><path style="opacity:1" fill="#f8fdfe" d="M 286.5,185.5 C 304.833,185.5 323.167,185.5 341.5,185.5C 341.5,187.5 341.5,189.5 341.5,191.5C 323.167,191.5 304.833,191.5 286.5,191.5C 286.5,189.5 286.5,187.5 286.5,185.5 Z"/></g>
<g><path style="opacity:1" fill="#3d7fb1" d="M 107.5,190.5 C 108.961,192.676 109.294,195.009 108.5,197.5C 104.878,198.659 101.211,198.825 97.5,198C 95.3652,196.444 95.0319,194.611 96.5,192.5C 97.7682,190.095 98.4349,187.428 98.5,184.5C 99.393,180.992 100.893,177.659 103,174.5C 104.198,179.966 105.698,185.299 107.5,190.5 Z"/></g>
<g><path style="opacity:1" fill="#3b669a" d="M 278.5,181.5 C 277.093,184.951 276.426,188.284 276.5,191.5C 275.292,190.766 273.959,190.433 272.5,190.5C 272.5,188.833 272.5,187.167 272.5,185.5C 273.552,185.649 274.552,185.483 275.5,185C 276.163,183.482 277.163,182.315 278.5,181.5 Z"/></g>
<g><path style="opacity:1" fill="#9abfd7" d="M 98.5,184.5 C 98.4349,187.428 97.7682,190.095 96.5,192.5C 96.2938,189.505 96.9605,186.838 98.5,184.5 Z"/></g>
<g><path style="opacity:1" fill="#2e82c0" d="M 4.5,159.5 C 3.50205,166.138 3.33538,172.805 4,179.5C 6.21656,181.908 8.04989,184.575 9.5,187.5C 11.7103,190.609 14.377,193.275 17.5,195.5C 15.1667,194.833 12.8333,194.167 10.5,193.5C 10.5123,197.446 8.51231,199.113 4.5,198.5C 3.87776,195.412 3.37776,192.412 3,189.5C 2.76378,191.764 2.26378,193.931 1.5,196C 2.15127,197.308 1.4846,198.141 -0.5,198.5C -0.5,187.833 -0.5,177.167 -0.5,166.5C 0.323821,170.312 0.823821,174.312 1,178.5C 1.17053,173.136 1.67053,167.802 2.5,162.5C 3.17566,161.398 3.84233,160.398 4.5,159.5 Z"/></g>
<g><path style="opacity:1" fill="#4580ae" d="M 76.5,176.5 C 74.477,182.565 72.1437,188.565 69.5,194.5C 66.8476,189.191 63.1809,184.858 58.5,181.5C 62.7042,183.269 66.5375,185.603 70,188.5C 71.9464,185.861 72.9464,182.861 73,179.5C 74.0391,178.29 75.2058,177.29 76.5,176.5 Z"/></g>
<g><path style="opacity:1" fill="#7599c3" d="M 341.5,185.5 C 342.468,187.607 342.802,189.941 342.5,192.5C 323.659,192.83 304.993,192.497 286.5,191.5C 304.833,191.5 323.167,191.5 341.5,191.5C 341.5,189.5 341.5,187.5 341.5,185.5 Z"/></g>
<g><path style="opacity:1" fill="#227fc1" d="M 107.5,190.5 C 107.5,192.5 107.5,194.5 107.5,196.5C 104.5,196.5 101.5,196.5 98.5,196.5C 98.3367,194.143 98.5034,191.81 99,189.5C 99.7096,190.973 100.876,191.64 102.5,191.5C 102.285,189.226 101.618,187.059 100.5,185C 100.509,183.596 101.009,182.43 102,181.5C 103.566,184.752 105.399,187.752 107.5,190.5 Z"/></g>
<g><path style="opacity:1" fill="#337db6" d="M 202.5,156.5 C 203.15,156.804 203.817,157.137 204.5,157.5C 205.396,161.224 206.396,164.89 207.5,168.5C 206.816,174.544 206.816,180.544 207.5,186.5C 208.873,186.657 210.207,186.49 211.5,186C 211.793,182.906 213.459,181.406 216.5,181.5C 216.5,180.167 216.5,178.833 216.5,177.5C 217.959,177.433 219.292,177.766 220.5,178.5C 211.167,188.5 201.5,198.167 191.5,207.5C 191.5,206.167 191.5,204.833 191.5,203.5C 188.214,202.793 184.881,202.46 181.5,202.5C 181.5,201.833 181.5,201.167 181.5,200.5C 186.885,199.48 191.885,197.314 196.5,194C 205.876,182.81 207.876,170.31 202.5,156.5 Z"/></g>
<g><path style="opacity:1" fill="#e2f4f8" d="M 286.5,120.5 C 276.167,131.167 265.833,141.833 255.5,152.5C 249.833,157.5 244.5,162.833 239.5,168.5C 232.5,174.833 225.833,181.5 219.5,188.5C 213.86,193.473 208.527,198.806 203.5,204.5C 194.167,213.167 185.167,222.167 176.5,231.5C 170.5,236.833 164.833,242.5 159.5,248.5C 156.833,250.833 154.167,253.167 151.5,255.5C 151.5,254.5 151.5,253.5 151.5,252.5C 150.167,252.5 148.833,252.5 147.5,252.5C 155.167,244.5 162.833,236.5 170.5,228.5C 172.5,227.167 174.167,225.5 175.5,223.5C 181.167,218.5 186.5,213.167 191.5,207.5C 201.5,198.167 211.167,188.5 220.5,178.5C 227.194,172.473 233.527,166.14 239.5,159.5C 245.167,154.5 250.5,149.167 255.5,143.5C 261.188,138.479 266.521,133.146 271.5,127.5C 274.812,124.854 277.812,121.854 280.5,118.5C 186.836,117.5 93.169,117.167 -0.5,117.5C -0.5,117.167 -0.5,116.833 -0.5,116.5C 92.8553,116.828 186.189,116.495 279.5,115.5C 281.827,117.158 284.16,118.824 286.5,120.5 Z"/></g>
<g><path style="opacity:1" fill="#1f78bf" d="M 17.5,195.5 C 19.8568,195.337 22.1902,195.503 24.5,196C 29.9247,197.752 35.258,199.752 40.5,202C 41.3331,204.081 41.3331,206.248 40.5,208.5C 36.1539,208.666 31.8206,208.499 27.5,208C 20.9593,205.864 14.2926,204.03 7.5,202.5C 6.42522,203.699 5.42522,204.866 4.5,206C 5.80449,206.804 6.47116,207.971 6.5,209.5C 5.06289,211.577 4.39622,213.91 4.5,216.5C 4.67158,217.492 4.33825,218.158 3.5,218.5C 3.5,216.5 3.5,214.5 3.5,212.5C 2.16667,212.5 0.833333,212.5 -0.5,212.5C -0.5,207.833 -0.5,203.167 -0.5,198.5C 1.4846,198.141 2.15127,197.308 1.5,196C 2.26378,193.931 2.76378,191.764 3,189.5C 3.37776,192.412 3.87776,195.412 4.5,198.5C 8.51231,199.113 10.5123,197.446 10.5,193.5C 12.8333,194.167 15.1667,194.833 17.5,195.5 Z"/></g>
<g><path style="opacity:1" fill="#2e65ad" d="M 342.5,192.5 C 344.117,191.962 345.784,191.629 347.5,191.5C 347.666,196.511 347.499,201.511 347,206.5C 345.847,208.497 344.347,208.83 342.5,207.5C 343.376,206.749 344.376,206.249 345.5,206C 344.577,203.959 344.244,201.792 344.5,199.5C 343.5,199.5 342.5,199.5 341.5,199.5C 323.167,199.5 304.833,199.5 286.5,199.5C 286.5,201.833 286.5,204.167 286.5,206.5C 287.11,207.391 287.443,208.391 287.5,209.5C 283.486,209.666 279.486,209.499 275.5,209C 274.549,208.282 274.383,207.449 275,206.5C 276.859,205.421 278.359,204.088 279.5,202.5C 279.813,199.753 279.48,197.086 278.5,194.5C 277.081,193.995 276.415,192.995 276.5,191.5C 276.426,188.284 277.093,184.951 278.5,181.5C 279.338,181.158 279.672,180.492 279.5,179.5C 280.161,178.282 280.828,176.949 281.5,175.5C 281.833,175.667 282.167,175.833 282.5,176C 281.303,180.414 280.803,184.914 281,189.5C 282.268,189.616 283.602,189.949 285,190.5C 285.121,192.727 285.954,194.56 287.5,196C 306.114,196.928 324.447,195.761 342.5,192.5 Z"/></g>
<g><path style="opacity:1" fill="#bfd6e7" d="M 341.5,199.5 C 341.5,199.833 341.5,200.167 341.5,200.5C 323.5,200.5 305.5,200.5 287.5,200.5C 287.5,202.167 287.5,203.833 287.5,205.5C 305.5,205.5 323.5,205.5 341.5,205.5C 323.341,206.497 305.008,206.83 286.5,206.5C 286.5,204.167 286.5,201.833 286.5,199.5C 304.833,199.5 323.167,199.5 341.5,199.5 Z"/></g>
<g><path style="opacity:1" fill="#3e7aa5" d="M 9.5,187.5 C 20.173,193.234 31.5064,197.734 43.5,201C 44.7691,203.139 44.7691,205.305 43.5,207.5C 42.5832,208.127 41.5832,208.461 40.5,208.5C 41.3331,206.248 41.3331,204.081 40.5,202C 35.258,199.752 29.9247,197.752 24.5,196C 22.1902,195.503 19.8568,195.337 17.5,195.5C 14.377,193.275 11.7103,190.609 9.5,187.5 Z"/></g>
<g><path style="opacity:1" fill="#587a8d" d="M 135.5,196.5 C 136.167,196.5 136.833,196.5 137.5,196.5C 137.5,198.833 137.5,201.167 137.5,203.5C 136.388,201.401 135.721,199.067 135.5,196.5 Z"/></g>
<g><path style="opacity:1" fill="#fbfefd" d="M 341.5,200.5 C 341.5,202.167 341.5,203.833 341.5,205.5C 323.5,205.5 305.5,205.5 287.5,205.5C 287.5,203.833 287.5,202.167 287.5,200.5C 305.5,200.5 323.5,200.5 341.5,200.5 Z"/></g>
<g><path style="opacity:1" fill="#3274a9" d="M 40.5,208.5 C 40.5,208.833 40.5,209.167 40.5,209.5C 33.4756,209.565 26.4756,209.232 19.5,208.5C 16.9387,206.082 13.9387,204.915 10.5,205C 8.95879,209.164 6.95879,212.997 4.5,216.5C 4.39622,213.91 5.06289,211.577 6.5,209.5C 6.47116,207.971 5.80449,206.804 4.5,206C 5.42522,204.866 6.42522,203.699 7.5,202.5C 14.2926,204.03 20.9593,205.864 27.5,208C 31.8206,208.499 36.1539,208.666 40.5,208.5 Z"/></g>
<g><path style="opacity:1" fill="#2673b4" d="M 181.5,202.5 C 184.881,202.46 188.214,202.793 191.5,203.5C 191.5,204.833 191.5,206.167 191.5,207.5C 186.5,213.167 181.167,218.5 175.5,223.5C 175.5,219.167 175.5,214.833 175.5,210.5C 176.5,210.5 177.5,210.5 178.5,210.5C 178.5,209.5 178.5,208.5 178.5,207.5C 177.5,207.5 176.5,207.5 175.5,207.5C 175.762,206.022 175.429,204.689 174.5,203.5C 173.226,206.367 172.393,209.367 172,212.5C 171.056,211.737 170.556,210.737 170.5,209.5C 171.156,207.547 171.489,205.547 171.5,203.5C 168.941,203.198 166.607,203.532 164.5,204.5C 164.167,204.5 163.833,204.5 163.5,204.5C 169.074,202.547 175.074,201.88 181.5,202.5 Z"/></g>
<g><path style="opacity:1" fill="#3a659f" d="M 347.5,164.5 C 348.496,179.324 348.829,194.324 348.5,209.5C 328.167,209.5 307.833,209.5 287.5,209.5C 287.443,208.391 287.11,207.391 286.5,206.5C 305.008,206.83 323.341,206.497 341.5,205.5C 341.5,203.833 341.5,202.167 341.5,200.5C 341.5,200.167 341.5,199.833 341.5,199.5C 342.5,199.5 343.5,199.5 344.5,199.5C 344.244,201.792 344.577,203.959 345.5,206C 344.376,206.249 343.376,206.749 342.5,207.5C 344.347,208.83 345.847,208.497 347,206.5C 347.499,201.511 347.666,196.511 347.5,191.5C 345.784,191.629 344.117,191.962 342.5,192.5C 342.802,189.941 342.468,187.607 341.5,185.5C 323.167,185.5 304.833,185.5 286.5,185.5C 286.611,184.883 286.944,184.383 287.5,184C 292.823,183.501 298.156,183.334 303.5,183.5C 314.833,183.5 326.167,183.5 337.5,183.5C 337.762,182.022 337.429,180.689 336.5,179.5C 325.372,180.821 314.372,180.821 303.5,179.5C 303.5,178.833 303.5,178.167 303.5,177.5C 316.167,177.5 328.833,177.5 341.5,177.5C 341.5,175.5 341.5,173.5 341.5,171.5C 328.677,170.505 315.677,170.171 302.5,170.5C 313.321,169.505 324.321,169.172 335.5,169.5C 336.167,165.5 336.833,165.5 337.5,169.5C 339.467,169.261 341.301,169.594 343,170.5C 343.121,172.727 343.954,174.56 345.5,176C 341.401,179.021 342.067,180.187 347.5,179.5C 347.5,174.5 347.5,169.5 347.5,164.5 Z"/></g>
<g><path style="opacity:1" fill="#b5d3e6" d="M 19.5,208.5 C 26.4756,209.232 33.4756,209.565 40.5,209.5C 38.0221,210.164 35.3555,210.497 32.5,210.5C 27.9073,210.621 23.5739,209.954 19.5,208.5 Z"/></g>
<g><path style="opacity:1" fill="#4d7098" d="M 347.5,164.5 C 347.5,164.167 347.5,163.833 347.5,163.5C 349.485,179.132 350.151,195.132 349.5,211.5C 323.833,211.5 298.167,211.5 272.5,211.5C 272.185,206.478 274.519,203.478 279.5,202.5C 278.359,204.088 276.859,205.421 275,206.5C 274.383,207.449 274.549,208.282 275.5,209C 279.486,209.499 283.486,209.666 287.5,209.5C 307.833,209.5 328.167,209.5 348.5,209.5C 348.829,194.324 348.496,179.324 347.5,164.5 Z"/></g>
<g><path style="opacity:1" fill="#3465a3" d="M 203.5,204.5 C 202.637,205.94 202.637,207.274 203.5,208.5C 202.271,209.281 200.938,209.781 199.5,210C 198.978,210.561 198.645,211.228 198.5,212C 200.655,215.341 203.655,217.174 207.5,217.5C 207.5,218.5 207.5,219.5 207.5,220.5C 202.94,220.719 199.273,219.052 196.5,215.5C 189.9,220.815 183.234,226.148 176.5,231.5C 185.167,222.167 194.167,213.167 203.5,204.5 Z"/></g>
<g><path style="opacity:1" fill="#3e6f9e" d="M 118.5,225.5 C 117.504,225.586 116.671,225.252 116,224.5C 115.505,222.527 115.338,220.527 115.5,218.5C 107.25,218.658 99.0833,218.658 91,218.5C 89.1859,220.766 87.3526,223.099 85.5,225.5C 85.0861,221.377 86.5861,218.377 90,216.5C 98.3333,217.833 106.667,217.833 115,216.5C 117.22,219.006 118.386,222.006 118.5,225.5 Z"/></g>
<g><path style="opacity:1" fill="#2470b8" d="M 175.5,223.5 C 174.167,225.5 172.5,227.167 170.5,228.5C 168.516,228.617 166.85,227.95 165.5,226.5C 164.503,219.197 164.169,211.863 164.5,204.5C 166.607,203.532 168.941,203.198 171.5,203.5C 171.489,205.547 171.156,207.547 170.5,209.5C 170.556,210.737 171.056,211.737 172,212.5C 172.393,209.367 173.226,206.367 174.5,203.5C 175.429,204.689 175.762,206.022 175.5,207.5C 176.5,207.5 177.5,207.5 178.5,207.5C 178.5,208.5 178.5,209.5 178.5,210.5C 177.5,210.5 176.5,210.5 175.5,210.5C 175.5,214.833 175.5,219.167 175.5,223.5 Z"/></g>
<g><path style="opacity:1" fill="#7b97b3" d="M 355.5,157.5 C 356.497,177.993 356.831,198.66 356.5,219.5C 326.329,219.831 296.329,219.498 266.5,218.5C 296.167,218.5 325.833,218.5 355.5,218.5C 355.5,198.167 355.5,177.833 355.5,157.5 Z"/></g>
<g><path style="opacity:1" fill="#2f5a8b" d="M 265.5,218.5 C 265.833,218.5 266.167,218.5 266.5,218.5C 296.329,219.498 326.329,219.831 356.5,219.5C 341.504,220.167 326.337,220.5 311,220.5C 295.485,220.499 280.318,219.833 265.5,218.5 Z"/></g>
<g><path style="opacity:1" fill="#47759a" d="M 181.5,200.5 C 181.5,201.167 181.5,201.833 181.5,202.5C 175.074,201.88 169.074,202.547 163.5,204.5C 163.827,213.682 163.493,222.682 162.5,231.5C 162.5,221.167 162.5,210.833 162.5,200.5C 168.833,200.5 175.167,200.5 181.5,200.5 Z"/></g>
<g><path style="opacity:1" fill="#2c67b2" d="M -0.5,212.5 C 0.833333,212.5 2.16667,212.5 3.5,212.5C 3.5,214.5 3.5,216.5 3.5,218.5C 0.498323,220.468 -0.168343,223.135 1.5,226.5C 5.14118,227.306 8.47451,228.806 11.5,231C 13.8098,231.497 16.1432,231.663 18.5,231.5C 20.4758,233.011 22.8091,233.844 25.5,234C 30.8333,234.333 36.1667,234.667 41.5,235C 42.3366,236.011 42.67,237.178 42.5,238.5C 41.448,238.351 40.448,238.517 39.5,239C 42.146,239.497 44.8127,239.664 47.5,239.5C 46.5385,237.198 45.3718,235.198 44,233.5C 46.405,233.036 48.905,232.869 51.5,233C 49.0989,232.195 49.2656,231.362 52,230.5C 52.49,231.793 52.6567,233.127 52.5,234.5C 63.3464,234.828 74.0131,234.494 84.5,233.5C 83.7659,232.292 83.4326,230.959 83.5,229.5C 84.1667,228.167 84.8333,226.833 85.5,225.5C 87.3526,223.099 89.1859,220.766 91,218.5C 99.0833,218.658 107.25,218.658 115.5,218.5C 115.338,220.527 115.505,222.527 116,224.5C 116.671,225.252 117.504,225.586 118.5,225.5C 119.024,227.306 119.691,228.972 120.5,230.5C 120.5,231.833 120.5,233.167 120.5,234.5C 132.518,234.168 144.518,234.501 156.5,235.5C 152.167,236.167 147.833,236.833 143.5,237.5C 147.377,238.197 151.21,238.864 155,239.5C 155.342,243.32 153.509,244.986 149.5,244.5C 149.48,242.857 150.147,241.524 151.5,240.5C 149.604,239.534 147.604,239.201 145.5,239.5C 145.5,241.167 145.5,242.833 145.5,244.5C 146.5,244.5 147.5,244.5 148.5,244.5C 149.152,248.56 147.485,250.56 143.5,250.5C 143.5,252.167 143.5,253.833 143.5,255.5C 143.5,255.833 143.5,256.167 143.5,256.5C 142.711,256.783 142.044,257.283 141.5,258C 94.1678,258.5 46.8345,258.667 -0.5,258.5C -0.5,243.167 -0.5,227.833 -0.5,212.5 Z"/></g>
<g><path style="opacity:1" fill="#3b6aa5" d="M 50.5,229.5 C 52.1667,229.5 53.8333,229.5 55.5,229.5C 55.4431,230.609 55.1098,231.609 54.5,232.5C 64.3194,233.494 74.3194,233.827 84.5,233.5C 74.0131,234.494 63.3464,234.828 52.5,234.5C 52.6567,233.127 52.49,231.793 52,230.5C 49.2656,231.362 49.0989,232.195 51.5,233C 48.905,232.869 46.405,233.036 44,233.5C 45.3718,235.198 46.5385,237.198 47.5,239.5C 44.8127,239.664 42.146,239.497 39.5,239C 40.448,238.517 41.448,238.351 42.5,238.5C 42.67,237.178 42.3366,236.011 41.5,235C 36.1667,234.667 30.8333,234.333 25.5,234C 22.8091,233.844 20.4758,233.011 18.5,231.5C 23.5009,231.75 28.5009,232.083 33.5,232.5C 39.4848,232.507 45.1515,231.507 50.5,229.5 Z"/></g>
<g><path style="opacity:1" fill="#7b9bbb" d="M 83.5,229.5 C 83.4326,230.959 83.7659,232.292 84.5,233.5C 74.3194,233.827 64.3194,233.494 54.5,232.5C 63.8333,232.5 73.1667,232.5 82.5,232.5C 82.2627,231.209 82.596,230.209 83.5,229.5 Z"/></g>
<g><path style="opacity:1" fill="#8ca0b2" d="M 55.5,229.5 C 53.8333,229.5 52.1667,229.5 50.5,229.5C 52.556,228.801 54.556,227.801 56.5,226.5C 57.6653,227.86 57.332,228.86 55.5,229.5 Z"/></g>
<g><path style="opacity:1" fill="#4c77a4" d="M 3.5,218.5 C 3.48091,220.06 3.14758,221.56 2.5,223C 3.02229,223.95 3.68895,224.784 4.5,225.5C 9.50838,226.939 14.175,228.939 18.5,231.5C 16.1432,231.663 13.8098,231.497 11.5,231C 8.47451,228.806 5.14118,227.306 1.5,226.5C -0.168343,223.135 0.498323,220.468 3.5,218.5 Z"/></g>
<g><path style="opacity:1" fill="#3e6eaa" d="M 163.5,204.5 C 163.833,204.5 164.167,204.5 164.5,204.5C 164.169,211.863 164.503,219.197 165.5,226.5C 166.85,227.95 168.516,228.617 170.5,228.5C 162.833,236.5 155.167,244.5 147.5,252.5C 146.167,253.5 144.833,254.5 143.5,255.5C 143.5,253.833 143.5,252.167 143.5,250.5C 147.485,250.56 149.152,248.56 148.5,244.5C 147.5,244.5 146.5,244.5 145.5,244.5C 145.5,242.833 145.5,241.167 145.5,239.5C 147.604,239.201 149.604,239.534 151.5,240.5C 150.147,241.524 149.48,242.857 149.5,244.5C 153.509,244.986 155.342,243.32 155,239.5C 151.21,238.864 147.377,238.197 143.5,237.5C 147.833,236.833 152.167,236.167 156.5,235.5C 144.518,234.501 132.518,234.168 120.5,234.5C 120.5,233.167 120.5,231.833 120.5,230.5C 127.431,231.797 134.598,232.464 142,232.5C 149.008,232.5 155.842,232.166 162.5,231.5C 163.493,222.682 163.827,213.682 163.5,204.5 Z"/></g>
<g><path style="opacity:1" fill="#2b5fa0" d="M 159.5,248.5 C 158.167,250.833 156.833,253.167 155.5,255.5C 224.792,256.5 295.459,256.833 367.5,256.5C 369.833,256.5 372.167,256.5 374.5,256.5C 374.5,256.833 374.5,257.167 374.5,257.5C 299.998,257.833 225.665,257.499 151.5,256.5C 151.5,256.167 151.5,255.833 151.5,255.5C 154.167,253.167 156.833,250.833 159.5,248.5 Z"/></g>
<g><path style="opacity:1" fill="#d7eefe" d="M 143.5,256.5 C 143.5,257.5 143.5,258.5 143.5,259.5C 95.5,259.5 47.5,259.5 -0.5,259.5C -0.5,259.167 -0.5,258.833 -0.5,258.5C 46.8345,258.667 94.1678,258.5 141.5,258C 142.044,257.283 142.711,256.783 143.5,256.5 Z"/></g>
<g><path style="opacity:1" fill="#f6f7f7" d="M 376.5,116.5 C 376.833,116.5 377.167,116.5 377.5,116.5C 377.5,203.5 377.5,290.5 377.5,377.5C 251.5,377.5 125.5,377.5 -0.5,377.5C -0.5,338.167 -0.5,298.833 -0.5,259.5C 47.5,259.5 95.5,259.5 143.5,259.5C 143.5,258.5 143.5,257.5 143.5,256.5C 143.5,256.167 143.5,255.833 143.5,255.5C 144.833,254.5 146.167,253.5 147.5,252.5C 148.833,252.5 150.167,252.5 151.5,252.5C 151.5,253.5 151.5,254.5 151.5,255.5C 151.5,255.833 151.5,256.167 151.5,256.5C 150.957,256.56 150.624,256.893 150.5,257.5C 225.999,258.832 301.332,258.832 376.5,257.5C 376.5,210.833 376.5,164.167 376.5,117.5C 376.5,117.167 376.5,116.833 376.5,116.5 Z"/></g>
<g><path style="opacity:1" fill="#456c93" d="M 151.5,256.5 C 225.665,257.499 299.998,257.833 374.5,257.5C 375.167,257.5 375.833,257.5 376.5,257.5C 301.332,258.832 225.999,258.832 150.5,257.5C 150.624,256.893 150.957,256.56 151.5,256.5 Z"/></g>
<g><path style="opacity:1" fill="#2a67bc" d="M 367.5,256.5 C 295.459,256.833 224.792,256.5 155.5,255.5C 158.46,255.05 161.627,255.05 165,255.5C 168.154,255.349 171.154,254.683 174,253.5C 238.559,255.157 303.059,256.157 367.5,256.5 Z"/></g>
</svg>
