<?xml version="1.0" encoding="UTF-8"?>
<!DOCTYPE svg PUBLIC "-//W3C//DTD SVG 1.1//EN" "http://www.w3.org/Graphics/SVG/1.1/DTD/svg11.dtd">
<svg xmlns="http://www.w3.org/2000/svg" version="1.1" width="294px" height="294px" style="shape-rendering:geometricPrecision; text-rendering:geometricPrecision; image-rendering:optimizeQuality; fill-rule:evenodd; clip-rule:evenodd" xmlns:xlink="http://www.w3.org/1999/xlink">
<g><path style="opacity:1" fill="#f6f7f6" d="M -0.5,-0.5 C 97.5,-0.5 195.5,-0.5 293.5,-0.5C 293.5,28.8333 293.5,58.1667 293.5,87.5C 274.999,88.1357 256.666,87.469 238.5,85.5C 233.312,85.7827 227.979,86.4493 222.5,87.5C 217.855,87.0803 213.355,86.0803 209,84.5C 139.196,85.4951 69.3624,85.8284 -0.5,85.5C -0.5,56.8333 -0.5,28.1667 -0.5,-0.5 Z"/></g>
<g><path style="opacity:1" fill="#fef3f0" d="M -0.5,88.5 C 294.167,89.1667 294.167,89.8333 -0.5,90.5C -0.5,89.8333 -0.5,89.1667 -0.5,88.5 Z"/></g>
<g><path style="opacity:1" fill="#39a6cc" d="M -0.5,92.5 C -0.5,92.1667 -0.5,91.8333 -0.5,91.5C 72.503,91.1667 145.503,91.5 218.5,92.5C 217.479,94.188 216.145,95.5213 214.5,96.5C 213.081,95.5489 211.415,95.2155 209.5,95.5C 211.369,94.8354 213.369,94.1687 215.5,93.5C 143.503,92.5 71.5031,92.1667 -0.5,92.5 Z"/></g>
<g><path style="opacity:1" fill="#17b2ee" d="M -0.5,92.5 C 71.5031,92.1667 143.503,92.5 215.5,93.5C 213.369,94.1687 211.369,94.8354 209.5,95.5C 139.541,94.5066 69.5413,94.1733 -0.5,94.5C -0.5,93.8333 -0.5,93.1667 -0.5,92.5 Z"/></g>
<g><path style="opacity:1" fill="#2567bb" d="M 293.5,92.5 C 293.5,93.1667 293.5,93.8333 293.5,94.5C 271.497,94.6666 249.497,94.5 227.5,94C 249.349,92.5116 271.349,92.0116 293.5,92.5 Z"/></g>
<g><path style="opacity:1" fill="#26a9df" d="M -0.5,94.5 C 69.5413,94.1733 139.541,94.5066 209.5,95.5C 211.415,95.2155 213.081,95.5489 214.5,96.5C 211.167,100.5 207.5,104.167 203.5,107.5C 203.5,106.167 203.5,104.833 203.5,103.5C 201.119,102.58 198.786,102.58 196.5,103.5C 195.614,102.675 195.281,101.675 195.5,100.5C 130.196,99.5105 64.8625,99.1772 -0.5,99.5C -0.5,97.8333 -0.5,96.1667 -0.5,94.5 Z"/></g>
<g><path style="opacity:1" fill="#2b66af" d="M 293.5,91.5 C 293.5,91.8333 293.5,92.1667 293.5,92.5C 271.349,92.0116 249.349,92.5116 227.5,94C 249.497,94.5 271.497,94.6666 293.5,94.5C 293.5,129.167 293.5,163.833 293.5,198.5C 235.35,198.534 177.35,198.534 119.5,198.5C 154.632,162.868 189.965,127.368 225.5,92C 248.164,91.5 270.831,91.3334 293.5,91.5 Z"/></g>
<g><path style="opacity:1" fill="#23a4dd" d="M -0.5,99.5 C 64.8625,99.1772 130.196,99.5105 195.5,100.5C 195.281,101.675 195.614,102.675 196.5,103.5C 198.786,102.58 201.119,102.58 203.5,103.5C 203.5,104.833 203.5,106.167 203.5,107.5C 201.833,109.833 199.833,111.833 197.5,113.5C 197.157,111.775 196.157,111.275 194.5,112C 193,113.5 191.5,115 190,116.5C 189.833,116 189.667,115.5 189.5,115C 191.033,113.302 192.366,111.469 193.5,109.5C 193.229,107.052 192.562,107.052 191.5,109.5C 127.503,110.5 63.5035,110.833 -0.5,110.5C -0.5,106.833 -0.5,103.167 -0.5,99.5 Z"/></g>
<g><path style="opacity:1" fill="#279ad3" d="M 197.5,113.5 C 189.833,121.833 181.833,129.833 173.5,137.5C 174.275,135.308 175.109,133.308 176,131.5C 173.959,132.423 171.792,132.756 169.5,132.5C 169.5,131.5 169.5,130.5 169.5,129.5C 168.07,129.421 166.736,129.754 165.5,130.5C 164.833,129.833 164.167,129.167 163.5,128.5C 162.482,129.193 161.482,129.859 160.5,130.5C 157.231,118.35 149.231,112.183 136.5,112C 126.839,111.5 117.172,111.334 107.5,111.5C 107.5,118.5 107.5,125.5 107.5,132.5C 106.065,131.21 105.065,129.544 104.5,127.5C 101.645,130.891 100.312,134.891 100.5,139.5C 96.5621,130.536 92.8954,121.369 89.5,112C 82.8417,111.5 76.175,111.334 69.5,111.5C 67.2078,118.72 64.5411,125.72 61.5,132.5C 60.8617,130.54 60.8617,128.707 61.5,127C 59.2199,126.767 57.2199,125.934 55.5,124.5C 53.4705,125.172 51.4705,125.838 49.5,126.5C 50.5467,123.404 51.88,120.404 53.5,117.5C 52.91,116.201 51.91,115.368 50.5,115C 36.2596,109.493 22.5929,110.493 9.5,118C 2.68059,124.504 0.680587,132.337 3.5,141.5C 0.795154,141.38 0.128487,142.38 1.5,144.5C 1.04311,145.298 0.376442,145.631 -0.5,145.5C -0.5,133.833 -0.5,122.167 -0.5,110.5C 63.5035,110.833 127.503,110.5 191.5,109.5C 192.562,107.052 193.229,107.052 193.5,109.5C 192.366,111.469 191.033,113.302 189.5,115C 189.667,115.5 189.833,116 190,116.5C 191.5,115 193,113.5 194.5,112C 196.157,111.275 197.157,111.775 197.5,113.5 Z"/></g>
<g><path style="opacity:1" fill="#fbfefc" d="M 49.5,126.5 C 48.6214,128.23 47.288,129.563 45.5,130.5C 38.2884,127.53 30.9551,127.03 23.5,129C 22.6433,129.689 21.9767,130.522 21.5,131.5C 22.9242,133.718 24.9242,135.218 27.5,136C 33.5115,138.002 39.5115,140.002 45.5,142C 49.3881,144.222 52.2214,147.388 54,151.5C 57.0552,145.389 59.5552,139.056 61.5,132.5C 64.5411,125.72 67.2078,118.72 69.5,111.5C 76.175,111.334 82.8417,111.5 89.5,112C 92.8954,121.369 96.5621,130.536 100.5,139.5C 102.359,145.91 104.526,152.243 107,158.5C 107.5,149.84 107.666,141.173 107.5,132.5C 107.5,125.5 107.5,118.5 107.5,111.5C 117.172,111.334 126.839,111.5 136.5,112C 149.231,112.183 157.231,118.35 160.5,130.5C 160.478,135.272 159.811,139.939 158.5,144.5C 154.655,150.817 148.988,154.65 141.5,156C 136.511,156.499 131.511,156.666 126.5,156.5C 126.5,164.833 126.5,173.167 126.5,181.5C 115.813,181.832 105.146,181.499 94.5,180.5C 93.3355,176.987 92.0022,173.654 90.5,170.5C 90.6309,169.624 90.2975,168.957 89.5,168.5C 82.4973,169.586 75.4973,169.753 68.5,169C 66.6654,173.004 65.3321,177.17 64.5,181.5C 57.1591,181.666 49.8258,181.5 42.5,181C 43.7649,179.663 44.2649,178.163 44,176.5C 34.7116,181.559 24.8783,182.725 14.5,180C 10.3837,178.795 6.38371,177.295 2.5,175.5C 1.56614,173.905 1.56614,172.239 2.5,170.5C 4.59934,167.144 6.59934,163.644 8.5,160C 13.897,161.928 19.5637,163.095 25.5,163.5C 27.5,163.333 29.5,163.167 31.5,163C 34.473,161.776 35.1397,159.776 33.5,157C 25.6866,154.395 18.02,151.395 10.5,148C 7.64238,146.306 5.30904,144.139 3.5,141.5C 0.680587,132.337 2.68059,124.504 9.5,118C 22.5929,110.493 36.2596,109.493 50.5,115C 51.91,115.368 52.91,116.201 53.5,117.5C 51.88,120.404 50.5467,123.404 49.5,126.5 Z"/></g>
<g><path style="opacity:1" fill="#2a8cca" d="M 61.5,132.5 C 59.5552,139.056 57.0552,145.389 54,151.5C 52.2214,147.388 49.3881,144.222 45.5,142C 39.5115,140.002 33.5115,138.002 27.5,136C 24.9242,135.218 22.9242,133.718 21.5,131.5C 21.9767,130.522 22.6433,129.689 23.5,129C 30.9551,127.03 38.2884,127.53 45.5,130.5C 47.288,129.563 48.6214,128.23 49.5,126.5C 51.4705,125.838 53.4705,125.172 55.5,124.5C 57.2199,125.934 59.2199,126.767 61.5,127C 60.8617,128.707 60.8617,130.54 61.5,132.5 Z"/></g>
<g><path style="opacity:1" fill="#328bc3" d="M 126.5,126.5 C 131.408,125.874 135.908,126.874 140,129.5C 142.223,133.388 141.723,136.888 138.5,140C 134.605,141.266 130.605,141.766 126.5,141.5C 126.5,136.5 126.5,131.5 126.5,126.5 Z"/></g>
<g><path style="opacity:1" fill="#2b87c8" d="M 107.5,132.5 C 107.666,141.173 107.5,149.84 107,158.5C 104.526,152.243 102.359,145.91 100.5,139.5C 100.312,134.891 101.645,130.891 104.5,127.5C 105.065,129.544 106.065,131.21 107.5,132.5 Z"/></g>
<g><path style="opacity:1" fill="#2a88c9" d="M 173.5,137.5 C 169.833,141.833 165.833,145.833 161.5,149.5C 161.414,148.504 161.748,147.671 162.5,147C 160.867,146.52 159.534,145.687 158.5,144.5C 159.811,139.939 160.478,135.272 160.5,130.5C 161.482,129.859 162.482,129.193 163.5,128.5C 164.167,129.167 164.833,129.833 165.5,130.5C 166.736,129.754 168.07,129.421 169.5,129.5C 169.5,130.5 169.5,131.5 169.5,132.5C 171.792,132.756 173.959,132.423 176,131.5C 175.109,133.308 174.275,135.308 173.5,137.5 Z"/></g>
<g><path style="opacity:1" fill="#2d80bf" d="M 79.5,135.5 C 81.4658,141.058 83.4658,146.724 85.5,152.5C 85.2907,153.086 84.9574,153.586 84.5,154C 81.5,154.667 78.5,154.667 75.5,154C 74.9781,153.439 74.6448,152.772 74.5,152C 76.072,146.452 77.7387,140.952 79.5,135.5 Z"/></g>
<g><path style="opacity:1" fill="#237abe" d="M 3.5,141.5 C 5.30904,144.139 7.64238,146.306 10.5,148C 18.02,151.395 25.6866,154.395 33.5,157C 35.1397,159.776 34.473,161.776 31.5,163C 29.5,163.167 27.5,163.333 25.5,163.5C 19.5637,163.095 13.897,161.928 8.5,160C 6.59934,163.644 4.59934,167.144 2.5,170.5C 2.5,169.5 2.5,168.5 2.5,167.5C 1.5,167.5 0.5,167.5 -0.5,167.5C -0.5,160.167 -0.5,152.833 -0.5,145.5C 0.376442,145.631 1.04311,145.298 1.5,144.5C 0.128487,142.38 0.795154,141.38 3.5,141.5 Z"/></g>
<g><path style="opacity:1" fill="#2673b7" d="M 158.5,144.5 C 159.534,145.687 160.867,146.52 162.5,147C 161.748,147.671 161.414,148.504 161.5,149.5C 150.5,161.167 139.167,172.5 127.5,183.5C 116.765,182.171 105.931,182.171 95,183.5C 91.6951,179.836 90.1951,175.503 90.5,170.5C 92.0022,173.654 93.3355,176.987 94.5,180.5C 105.146,181.499 115.813,181.832 126.5,181.5C 126.5,173.167 126.5,164.833 126.5,156.5C 131.511,156.666 136.511,156.499 141.5,156C 148.988,154.65 154.655,150.817 158.5,144.5 Z"/></g>
<g><path style="opacity:1" fill="#f8fefc" d="M 207.5,122.5 C 230.833,122.5 254.167,122.5 277.5,122.5C 277.5,138.5 277.5,154.5 277.5,170.5C 254.167,170.5 230.833,170.5 207.5,170.5C 207.5,165.833 207.5,161.167 207.5,156.5C 209.681,156.716 211.347,155.883 212.5,154C 207.776,151.565 206.276,147.731 208,142.5C 209.635,141.274 211.135,139.941 212.5,138.5C 211.345,137.05 209.845,136.05 208,135.5C 207.501,131.179 207.334,126.846 207.5,122.5 Z"/></g>
<g><path style="opacity:1" fill="#3d6390" d="M 271.5,127.5 C 272.495,139.655 272.829,151.989 272.5,164.5C 252.5,164.5 232.5,164.5 212.5,164.5C 212.232,162.901 212.566,161.568 213.5,160.5C 213.5,161.5 213.5,162.5 213.5,163.5C 215.167,163.5 216.833,163.5 218.5,163.5C 236.167,163.5 253.833,163.5 271.5,163.5C 271.5,151.5 271.5,139.5 271.5,127.5 Z"/></g>
<g><path style="opacity:1" fill="#f4fefb" d="M 223.5,155.5 C 237.833,155.5 252.167,155.5 266.5,155.5C 266.5,157.167 266.5,158.833 266.5,160.5C 252.167,160.5 237.833,160.5 223.5,160.5C 223.5,158.833 223.5,157.167 223.5,155.5 Z"/></g>
<g><path style="opacity:1" fill="#2e65a9" d="M 256.5,127.5 C 261.5,127.5 266.5,127.5 271.5,127.5C 271.5,139.5 271.5,151.5 271.5,163.5C 253.833,163.5 236.167,163.5 218.5,163.5C 220.531,163.028 222.198,162.028 223.5,160.5C 237.833,160.5 252.167,160.5 266.5,160.5C 266.5,158.833 266.5,157.167 266.5,155.5C 252.167,155.5 237.833,155.5 223.5,155.5C 236.323,154.505 249.323,154.171 262.5,154.5C 262.36,152.876 263.027,151.71 264.5,151C 257.667,150.833 250.833,150.667 244,150.5C 236.762,150.52 229.762,151.186 223,152.5C 223.15,148.13 221.316,146.797 217.5,148.5C 218.09,149.799 219.09,150.632 220.5,151C 219.335,153.732 218.002,156.232 216.5,158.5C 217.537,156.262 217.703,153.929 217,151.5C 211.444,148.495 211.277,145.495 216.5,142.5C 216.586,143.496 216.252,144.329 215.5,145C 216.416,145.374 217.25,145.874 218,146.5C 219.71,144.103 221.544,144.103 223.5,146.5C 223.5,147.5 223.5,148.5 223.5,149.5C 237.833,149.5 252.167,149.5 266.5,149.5C 266.5,147.833 266.5,146.167 266.5,144.5C 257.348,143.506 248.015,143.173 238.5,143.5C 238.33,142.178 238.663,141.011 239.5,140C 248.01,139.829 256.343,139.329 264.5,138.5C 266.256,137.448 266.923,135.781 266.5,133.5C 256.5,133.5 246.5,133.5 236.5,133.5C 244.99,132.67 253.657,132.17 262.5,132C 263.167,131.667 263.833,131.333 264.5,131C 256.147,130.832 247.813,130.332 239.5,129.5C 245.319,128.833 250.986,128.167 256.5,127.5 Z"/></g>
<g><path style="opacity:1" fill="#2966b2" d="M 223.5,155.5 C 223.5,157.167 223.5,158.833 223.5,160.5C 222.198,162.028 220.531,163.028 218.5,163.5C 216.833,163.5 215.167,163.5 213.5,163.5C 213.5,162.5 213.5,161.5 213.5,160.5C 213.973,159.094 214.973,158.427 216.5,158.5C 218.002,156.232 219.335,153.732 220.5,151C 219.09,150.632 218.09,149.799 217.5,148.5C 221.316,146.797 223.15,148.13 223,152.5C 229.762,151.186 236.762,150.52 244,150.5C 250.833,150.667 257.667,150.833 264.5,151C 263.027,151.71 262.36,152.876 262.5,154.5C 249.323,154.171 236.323,154.505 223.5,155.5 Z"/></g>
<g><path style="opacity:1" fill="#f4fefb" d="M 223.5,144.5 C 237.833,144.5 252.167,144.5 266.5,144.5C 266.5,146.167 266.5,147.833 266.5,149.5C 252.167,149.5 237.833,149.5 223.5,149.5C 223.5,148.5 223.5,147.5 223.5,146.5C 223.5,145.833 223.5,145.167 223.5,144.5 Z"/></g>
<g><path style="opacity:1" fill="#2b66b2" d="M 256.5,127.5 C 250.986,128.167 245.319,128.833 239.5,129.5C 247.813,130.332 256.147,130.832 264.5,131C 263.833,131.333 263.167,131.667 262.5,132C 253.657,132.17 244.99,132.67 236.5,133.5C 235.5,133.5 234.5,133.5 233.5,133.5C 233.5,132.167 233.5,130.833 233.5,129.5C 229.958,129.187 226.625,129.521 223.5,130.5C 223.5,133.5 223.5,136.5 223.5,139.5C 226.5,139.5 229.5,139.5 232.5,139.5C 233.5,139.5 234.5,139.5 235.5,139.5C 235.5,140.833 235.5,142.167 235.5,143.5C 231.298,143.183 227.298,143.517 223.5,144.5C 223.5,145.167 223.5,145.833 223.5,146.5C 221.544,144.103 219.71,144.103 218,146.5C 217.25,145.874 216.416,145.374 215.5,145C 216.252,144.329 216.586,143.496 216.5,142.5C 218.586,137.988 217.419,134.654 213,132.5C 212.506,130.866 212.34,129.199 212.5,127.5C 227.167,127.5 241.833,127.5 256.5,127.5 Z"/></g>
<g><path style="opacity:1" fill="#3b6396" d="M 223.5,130.5 C 226.625,129.521 229.958,129.187 233.5,129.5C 233.5,130.833 233.5,132.167 233.5,133.5C 234.5,133.5 235.5,133.5 236.5,133.5C 236.5,135.167 236.5,136.833 236.5,138.5C 245.833,138.5 255.167,138.5 264.5,138.5C 256.343,139.329 248.01,139.829 239.5,140C 238.663,141.011 238.33,142.178 238.5,143.5C 248.015,143.173 257.348,143.506 266.5,144.5C 252.167,144.5 237.833,144.5 223.5,144.5C 227.298,143.517 231.298,143.183 235.5,143.5C 235.5,142.167 235.5,140.833 235.5,139.5C 234.5,139.5 233.5,139.5 232.5,139.5C 229.5,139.5 226.5,139.5 223.5,139.5C 223.5,136.5 223.5,133.5 223.5,130.5 Z"/></g>
<g><path style="opacity:1" fill="#f6fefc" d="M 236.5,133.5 C 246.5,133.5 256.5,133.5 266.5,133.5C 266.923,135.781 266.256,137.448 264.5,138.5C 255.167,138.5 245.833,138.5 236.5,138.5C 236.5,136.833 236.5,135.167 236.5,133.5 Z"/></g>
<g><path style="opacity:1" fill="#f9fefd" d="M 223.5,130.5 C 226.5,130.5 229.5,130.5 232.5,130.5C 232.5,133.5 232.5,136.5 232.5,139.5C 232.5,136.5 232.5,133.5 232.5,130.5C 229.5,130.5 226.5,130.5 223.5,130.5 Z"/></g>
<g><path style="opacity:1" fill="#f0f9f9" d="M 293.5,87.5 C 293.5,88.8333 293.5,90.1667 293.5,91.5C 270.831,91.3334 248.164,91.5 225.5,92C 189.965,127.368 154.632,162.868 119.5,198.5C 118.522,198.811 117.855,199.478 117.5,200.5C 176.163,201.5 234.83,201.833 293.5,201.5C 293.5,201.833 293.5,202.167 293.5,202.5C 233.832,202.333 174.166,202.5 114.5,203C 113.756,204.039 112.756,204.539 111.5,204.5C 74.5149,202.506 37.1816,201.84 -0.5,202.5C -0.5,202.167 -0.5,201.833 -0.5,201.5C 36.5015,201.667 73.5015,201.5 110.5,201C 111.056,200.617 111.389,200.117 111.5,199.5C 117.167,194.5 122.5,189.167 127.5,183.5C 139.167,172.5 150.5,161.167 161.5,149.5C 165.833,145.833 169.833,141.833 173.5,137.5C 181.833,129.833 189.833,121.833 197.5,113.5C 199.833,111.833 201.833,109.833 203.5,107.5C 207.5,104.167 211.167,100.5 214.5,96.5C 216.145,95.5213 217.479,94.188 218.5,92.5C 145.503,91.5 72.503,91.1667 -0.5,91.5C -0.5,91.1667 -0.5,90.8333 -0.5,90.5C 294.167,89.8333 294.167,89.1667 -0.5,88.5C -0.5,87.5 -0.5,86.5 -0.5,85.5C 69.3624,85.8284 139.196,85.4951 209,84.5C 213.355,86.0803 217.855,87.0803 222.5,87.5C 227.979,86.4493 233.312,85.7827 238.5,85.5C 256.666,87.469 274.999,88.1357 293.5,87.5 Z"/></g>
<g><path style="opacity:1" fill="#2b68b2" d="M -0.5,167.5 C 0.5,167.5 1.5,167.5 2.5,167.5C 2.5,168.5 2.5,169.5 2.5,170.5C 1.56614,172.239 1.56614,173.905 2.5,175.5C 6.38371,177.295 10.3837,178.795 14.5,180C 24.8783,182.725 34.7116,181.559 44,176.5C 44.2649,178.163 43.7649,179.663 42.5,181C 49.8258,181.5 57.1591,181.666 64.5,181.5C 65.3321,177.17 66.6654,173.004 68.5,169C 75.4973,169.753 82.4973,169.586 89.5,168.5C 90.2975,168.957 90.6309,169.624 90.5,170.5C 90.1951,175.503 91.6951,179.836 95,183.5C 105.931,182.171 116.765,182.171 127.5,183.5C 122.5,189.167 117.167,194.5 111.5,199.5C 74.3371,198.502 37.0037,198.168 -0.5,198.5C -0.5,188.167 -0.5,177.833 -0.5,167.5 Z"/></g>
<g><path style="opacity:1" fill="#2c65b2" d="M -0.5,198.5 C 37.0037,198.168 74.3371,198.502 111.5,199.5C 111.389,200.117 111.056,200.617 110.5,201C 73.5015,201.5 36.5015,201.667 -0.5,201.5C -0.5,200.5 -0.5,199.5 -0.5,198.5 Z"/></g>
<g><path style="opacity:1" fill="#2767ba" d="M 119.5,198.5 C 177.35,198.534 235.35,198.534 293.5,198.5C 293.5,199.167 293.5,199.833 293.5,200.5C 235.157,201.163 177.157,200.496 119.5,198.5 Z"/></g>
<g><path style="opacity:1" fill="#31649d" d="M 119.5,198.5 C 177.157,200.496 235.157,201.163 293.5,200.5C 293.5,200.833 293.5,201.167 293.5,201.5C 234.83,201.833 176.163,201.5 117.5,200.5C 117.855,199.478 118.522,198.811 119.5,198.5 Z"/></g>
<g><path style="opacity:1" fill="#fbf6ee" d="M -0.5,202.5 C 37.1816,201.84 74.5149,202.506 111.5,204.5C 74.1667,204.5 36.8333,204.5 -0.5,204.5C -0.5,203.833 -0.5,203.167 -0.5,202.5 Z"/></g>
<g><path style="opacity:1" fill="#fcf6ef" d="M 293.5,202.5 C 293.5,203.167 293.5,203.833 293.5,204.5C 234.166,204.333 174.832,204.5 115.5,205C 114.692,205.308 114.025,205.808 113.5,206.5C 75.5058,207.5 37.5058,207.833 -0.5,207.5C -0.5,207.167 -0.5,206.833 -0.5,206.5C 37.1816,207.16 74.5149,206.494 111.5,204.5C 112.756,204.539 113.756,204.039 114.5,203C 174.166,202.5 233.832,202.333 293.5,202.5 Z"/></g>
<g><path style="opacity:1" fill="#f5f6fe" d="M -0.5,204.5 C 36.8333,204.5 74.1667,204.5 111.5,204.5C 74.5149,206.494 37.1816,207.16 -0.5,206.5C -0.5,205.833 -0.5,205.167 -0.5,204.5 Z"/></g>
<g><path style="opacity:1" fill="#f6f6f7" d="M 293.5,204.5 C 293.5,234.167 293.5,263.833 293.5,293.5C 195.5,293.5 97.5,293.5 -0.5,293.5C -0.5,264.833 -0.5,236.167 -0.5,207.5C 37.5058,207.833 75.5058,207.5 113.5,206.5C 114.025,205.808 114.692,205.308 115.5,205C 174.832,204.5 234.166,204.333 293.5,204.5 Z"/></g>
</svg>
