<?xml version="1.0" encoding="UTF-8"?>
<!DOCTYPE svg PUBLIC "-//W3C//DTD SVG 1.1//EN" "http://www.w3.org/Graphics/SVG/1.1/DTD/svg11.dtd">
<svg xmlns="http://www.w3.org/2000/svg" version="1.1" width="200px" height="200px" style="shape-rendering:geometricPrecision; text-rendering:geometricPrecision; image-rendering:optimizeQuality; fill-rule:evenodd; clip-rule:evenodd" xmlns:xlink="http://www.w3.org/1999/xlink">
<g><path style="opacity:1" fill="#fefefe" d="M -0.5,-0.5 C 66.1667,-0.5 132.833,-0.5 199.5,-0.5C 199.5,20.5 199.5,41.5 199.5,62.5C 184.167,62.5 168.833,62.5 153.5,62.5C 152.504,62.5858 151.671,62.2524 151,61.5C 150.568,64.0724 149.068,65.4057 146.5,65.5C 146.5,65.1667 146.5,64.8333 146.5,64.5C 147.289,64.2172 147.956,63.7172 148.5,63C 98.8345,62.5 49.1678,62.3333 -0.5,62.5C -0.5,41.5 -0.5,20.5 -0.5,-0.5 Z"/></g>
<g><path style="opacity:1" fill="#509fc0" d="M -0.5,63.5 C -0.5,63.1667 -0.5,62.8333 -0.5,62.5C 49.1678,62.3333 98.8345,62.5 148.5,63C 147.956,63.7172 147.289,64.2172 146.5,64.5C 116.338,63.5019 86.0046,63.1685 55.5,63.5C 36.8333,63.5 18.1667,63.5 -0.5,63.5 Z"/></g>
<g><path style="opacity:1" fill="#2b66b1" d="M 153.5,62.5 C 168.833,62.5 184.167,62.5 199.5,62.5C 199.5,86.8333 199.5,111.167 199.5,135.5C 160.33,135.832 121.33,135.499 82.5,134.5C 106.167,110.5 129.833,86.5 153.5,62.5 Z"/></g>
<g><path style="opacity:1" fill="#26aadf" d="M 55.5,63.5 C 86.0046,63.1685 116.338,63.5019 146.5,64.5C 146.5,64.8333 146.5,65.1667 146.5,65.5C 142.833,68.8333 139.167,72.1667 135.5,75.5C 134.198,73.3101 132.531,71.3101 130.5,69.5C 133.362,68.6941 133.862,67.3607 132,65.5C 130.933,66.1905 129.766,66.6905 128.5,67C 122.843,67.4994 117.176,67.6661 111.5,67.5C 111.649,68.552 111.483,69.552 111,70.5C 109.796,69.5294 109.296,68.5294 109.5,67.5C 97.4579,68.5638 85.2912,68.5638 73,67.5C 69.7079,67.8241 66.5412,68.4908 63.5,69.5C 63.5,70.5 63.5,71.5 63.5,72.5C 62.5,72.5 61.5,72.5 60.5,72.5C 60.7563,70.0628 61.4229,67.7294 62.5,65.5C 62.1667,65.1667 61.8333,64.8333 61.5,64.5C 59.8273,66.0863 57.8273,66.7529 55.5,66.5C 55.5,65.5 55.5,64.5 55.5,63.5 Z"/></g>
<g><path style="opacity:1" fill="#2ba4dc" d="M -0.5,63.5 C 18.1667,63.5 36.8333,63.5 55.5,63.5C 55.5,64.5 55.5,65.5 55.5,66.5C 57.8273,66.7529 59.8273,66.0863 61.5,64.5C 61.8333,64.8333 62.1667,65.1667 62.5,65.5C 61.4229,67.7294 60.7563,70.0628 60.5,72.5C 61.5,72.5 62.5,72.5 63.5,72.5C 63.5,71.5 63.5,70.5 63.5,69.5C 66.5412,68.4908 69.7079,67.8241 73,67.5C 85.2912,68.5638 97.4579,68.5638 109.5,67.5C 109.296,68.5294 109.796,69.5294 111,70.5C 111.483,69.552 111.649,68.552 111.5,67.5C 117.176,67.6661 122.843,67.4994 128.5,67C 129.766,66.6905 130.933,66.1905 132,65.5C 133.862,67.3607 133.362,68.6941 130.5,69.5C 132.531,71.3101 134.198,73.3101 135.5,75.5C 130.167,81.5 124.5,87.1667 118.5,92.5C 116.577,92.397 114.577,92.397 112.5,92.5C 113.263,91.2807 114.263,90.2807 115.5,89.5C 114.282,89.891 113.448,89.2244 113,87.5C 112.027,89.3921 111.36,91.3921 111,93.5C 111.053,90.3248 110.22,87.6581 108.5,85.5C 106.277,82.1141 103.277,79.6141 99.5,78C 90.9021,76.6241 82.2354,76.1241 73.5,76.5C 72.5269,78.9479 72.1936,81.6146 72.5,84.5C 71.8525,86.4982 71.0192,88.4982 70,90.5C 67.9795,86.9477 68.1461,83.4477 70.5,80C 67.9369,79.0819 65.7702,79.5819 64,81.5C 63.7216,80.5842 63.2216,79.9175 62.5,79.5C 61.596,78.791 61.2627,77.791 61.5,76.5C 56.8333,76.5 52.1667,76.5 47.5,76.5C 49.2939,75.0748 50.9605,73.4081 52.5,71.5C 50.9547,70.5481 49.288,70.2148 47.5,70.5C 47.5,71.5 47.5,72.5 47.5,73.5C 44.6994,74.7659 41.6994,75.5992 38.5,76C 37.7402,77.4411 37.0736,78.9411 36.5,80.5C 37.6808,82.198 37.6808,83.8647 36.5,85.5C 35.8182,84.7573 35.1515,84.0906 34.5,83.5C 35.4132,81.9139 35.4132,80.4139 34.5,79C 26.6044,76.1403 18.6044,75.8069 10.5,78C 8.00432,79.6665 5.67098,81.4998 3.5,83.5C 3.2648,82.9033 2.7648,82.5699 2,82.5C 0.988944,83.0556 0.155611,83.7222 -0.5,84.5C -0.5,77.5 -0.5,70.5 -0.5,63.5 Z"/></g>
<g><path style="opacity:1" fill="#f9fcfb" d="M 34.5,83.5 C 33.4155,85.3186 32.0822,86.9853 30.5,88.5C 25.6378,86.6804 20.6378,86.1804 15.5,87C 14.1398,88.9376 14.4732,90.6043 16.5,92C 21.9469,93.6951 27.2802,95.6951 32.5,98C 34.3589,99.5578 35.8589,101.391 37,103.5C 40.4006,94.4656 43.9006,85.4656 47.5,76.5C 52.1667,76.5 56.8333,76.5 61.5,76.5C 61.2627,77.791 61.596,78.791 62.5,79.5C 65.1016,88.3048 68.1016,96.9715 71.5,105.5C 71.4614,106.756 71.9614,107.756 73,108.5C 73.4998,97.8385 73.6665,87.1719 73.5,76.5C 82.2354,76.1241 90.9021,76.6241 99.5,78C 103.277,79.6141 106.277,82.1141 108.5,85.5C 109.593,92.2061 107.926,98.0395 103.5,103C 101.913,103.862 100.246,104.529 98.5,105C 93.9805,105.175 89.6472,105.675 85.5,106.5C 85.5,111.833 85.5,117.167 85.5,122.5C 78.5,122.5 71.5,122.5 64.5,122.5C 63.469,120.039 62.8023,117.373 62.5,114.5C 56.8416,115.768 51.1749,115.768 45.5,114.5C 45.0372,117.221 44.3705,119.888 43.5,122.5C 39.1161,122.826 34.7828,122.492 30.5,121.5C 31.6295,119.568 31.2962,119.234 29.5,120.5C 20.0736,123.304 10.7403,122.97 1.5,119.5C 2.34343,115.478 4.01009,111.812 6.5,108.5C 11.1475,111.3 16.1475,112.133 21.5,111C 23.6576,109.688 23.9909,108.022 22.5,106C 15.4969,104.892 9.33024,102.059 4,97.5C 0.924235,92.8554 0.757568,88.1887 3.5,83.5C 5.67098,81.4998 8.00432,79.6665 10.5,78C 18.6044,75.8069 26.6044,76.1403 34.5,79C 35.4132,80.4139 35.4132,81.9139 34.5,83.5 Z"/></g>
<g><path style="opacity:1" fill="#8fc0e9" d="M 73.5,76.5 C 73.6665,87.1719 73.4998,97.8385 73,108.5C 71.9614,107.756 71.4614,106.756 71.5,105.5C 72.4912,98.6866 72.8245,91.6866 72.5,84.5C 72.1936,81.6146 72.5269,78.9479 73.5,76.5 Z"/></g>
<g><path style="opacity:1" fill="#3190ce" d="M 47.5,76.5 C 43.9006,85.4656 40.4006,94.4656 37,103.5C 35.8589,101.391 34.3589,99.5578 32.5,98C 27.2802,95.6951 21.9469,93.6951 16.5,92C 14.4732,90.6043 14.1398,88.9376 15.5,87C 20.6378,86.1804 25.6378,86.6804 30.5,88.5C 32.0822,86.9853 33.4155,85.3186 34.5,83.5C 35.1515,84.0906 35.8182,84.7573 36.5,85.5C 37.6808,83.8647 37.6808,82.198 36.5,80.5C 37.0736,78.9411 37.7402,77.4411 38.5,76C 41.6994,75.5992 44.6994,74.7659 47.5,73.5C 47.5,72.5 47.5,71.5 47.5,70.5C 49.288,70.2148 50.9547,70.5481 52.5,71.5C 50.9605,73.4081 49.2939,75.0748 47.5,76.5 Z"/></g>
<g><path style="opacity:1" fill="#348ec9" d="M 62.5,79.5 C 63.2216,79.9175 63.7216,80.5842 64,81.5C 65.7702,79.5819 67.9369,79.0819 70.5,80C 68.1461,83.4477 67.9795,86.9477 70,90.5C 71.0192,88.4982 71.8525,86.4982 72.5,84.5C 72.8245,91.6866 72.4912,98.6866 71.5,105.5C 68.1016,96.9715 65.1016,88.3048 62.5,79.5 Z"/></g>
<g><path style="opacity:1" fill="#3e90ca" d="M 85.5,85.5 C 88.6074,85.3512 91.6074,85.8512 94.5,87C 97.2293,90.0151 97.0626,92.8485 94,95.5C 91.2305,96.3479 88.3971,96.6813 85.5,96.5C 85.5,92.8333 85.5,89.1667 85.5,85.5 Z"/></g>
<g><path style="opacity:1" fill="#3d8bc3" d="M 108.5,85.5 C 110.22,87.6581 111.053,90.3248 111,93.5C 111.36,91.3921 112.027,89.3921 113,87.5C 113.448,89.2244 114.282,89.891 115.5,89.5C 114.263,90.2807 113.263,91.2807 112.5,92.5C 114.577,92.397 116.577,92.397 118.5,92.5C 113.167,98.5 107.5,104.167 101.5,109.5C 101.5,108.5 101.5,107.5 101.5,106.5C 96.1667,106.5 90.8333,106.5 85.5,106.5C 89.6472,105.675 93.9805,105.175 98.5,105C 100.246,104.529 101.913,103.862 103.5,103C 107.926,98.0395 109.593,92.2061 108.5,85.5 Z"/></g>
<g><path style="opacity:1" fill="#eef8fb" d="M 153.5,62.5 C 129.833,86.5 106.167,110.5 82.5,134.5C 81.7109,134.783 81.0442,135.283 80.5,136C 120.165,136.5 159.832,136.667 199.5,136.5C 199.5,136.833 199.5,137.167 199.5,137.5C 132.435,137.98 65.7681,137.98 -0.5,137.5C -0.5,137.167 -0.5,136.833 -0.5,136.5C 24.8355,136.667 50.1689,136.5 75.5,136C 76.056,135.617 76.3893,135.117 76.5,134.5C 79.5,132.167 82.1667,129.5 84.5,126.5C 90.5,121.167 96.1667,115.5 101.5,109.5C 107.5,104.167 113.167,98.5 118.5,92.5C 124.5,87.1667 130.167,81.5 135.5,75.5C 139.167,72.1667 142.833,68.8333 146.5,65.5C 149.068,65.4057 150.568,64.0724 151,61.5C 151.671,62.2524 152.504,62.5858 153.5,62.5 Z"/></g>
<g><path style="opacity:1" fill="#4186c1" d="M 53.5,91.5 C 54.1174,91.6107 54.6174,91.944 55,92.5C 56.3269,96.8088 57.4935,101.142 58.5,105.5C 55.8333,105.5 53.1667,105.5 50.5,105.5C 51.4842,100.853 52.4842,96.1859 53.5,91.5 Z"/></g>
<g><path style="opacity:1" fill="#2b7cbf" d="M 3.5,83.5 C 0.757568,88.1887 0.924235,92.8554 4,97.5C 9.33024,102.059 15.4969,104.892 22.5,106C 23.9909,108.022 23.6576,109.688 21.5,111C 16.1475,112.133 11.1475,111.3 6.5,108.5C 4.01009,111.812 2.34343,115.478 1.5,119.5C 0.833333,117.833 0.166667,116.167 -0.5,114.5C -0.5,104.5 -0.5,94.5 -0.5,84.5C 0.155611,83.7222 0.988944,83.0556 2,82.5C 2.7648,82.5699 3.2648,82.9033 3.5,83.5 Z"/></g>
<g><path style="opacity:1" fill="#f4fdfd" d="M 141.5,83.5 C 157.167,83.5 172.833,83.5 188.5,83.5C 188.5,94.1667 188.5,104.833 188.5,115.5C 172.833,115.5 157.167,115.5 141.5,115.5C 140.914,111.281 141.914,107.614 144.5,104.5C 140.333,100.645 140.666,97.1446 145.5,94C 144.421,93.044 143.255,92.2106 142,91.5C 141.503,88.854 141.336,86.1873 141.5,83.5 Z"/></g>
<g><path style="opacity:1" fill="#486ea7" d="M 145.5,108.5 C 145.5,109.5 145.5,110.5 145.5,111.5C 157.171,111.667 168.838,111.5 180.5,111C 170.944,110.94 161.61,110.107 152.5,108.5C 161.833,108.5 171.167,108.5 180.5,108.5C 181.404,107.791 181.737,106.791 181.5,105.5C 174.167,105.5 166.833,105.5 159.5,105.5C 166.982,104.508 174.648,104.175 182.5,104.5C 182.192,106.924 182.526,109.257 183.5,111.5C 184.498,103.528 184.831,95.5277 184.5,87.5C 178.158,87.3338 171.825,87.5005 165.5,88C 164.167,88.6667 164.167,89.3333 165.5,90C 170.684,90.1739 175.684,90.6739 180.5,91.5C 173.745,90.8771 167.412,91.5437 161.5,93.5C 161.5,93.8333 161.5,94.1667 161.5,94.5C 157.901,95.3439 154.234,95.6773 150.5,95.5C 150.5,93.1667 150.5,90.8333 150.5,88.5C 148.801,88.3398 147.134,88.5065 145.5,89C 146.448,89.4828 147.448,89.6495 148.5,89.5C 148.795,91.7354 148.461,93.7354 147.5,95.5C 146.03,92.6819 145.03,89.6819 144.5,86.5C 158.167,86.5 171.833,86.5 185.5,86.5C 185.5,95.1667 185.5,103.833 185.5,112.5C 171.833,112.5 158.167,112.5 144.5,112.5C 144.232,110.901 144.566,109.568 145.5,108.5 Z"/></g>
<g><path style="opacity:1" fill="#2c66b4" d="M 159.5,105.5 C 156.833,105.5 154.167,105.5 151.5,105.5C 151.263,106.791 151.596,107.791 152.5,108.5C 161.61,110.107 170.944,110.94 180.5,111C 168.838,111.5 157.171,111.667 145.5,111.5C 145.5,110.5 145.5,109.5 145.5,108.5C 148.264,105.204 147.93,102.204 144.5,99.5C 145.286,97.9589 146.286,96.6256 147.5,95.5C 148.461,93.7354 148.795,91.7354 148.5,89.5C 147.448,89.6495 146.448,89.4828 145.5,89C 147.134,88.5065 148.801,88.3398 150.5,88.5C 150.5,90.8333 150.5,93.1667 150.5,95.5C 154.234,95.6773 157.901,95.3439 161.5,94.5C 168.5,94.5 175.5,94.5 182.5,94.5C 182.715,92.8212 182.048,91.8212 180.5,91.5C 175.684,90.6739 170.684,90.1739 165.5,90C 164.167,89.3333 164.167,88.6667 165.5,88C 171.825,87.5005 178.158,87.3338 184.5,87.5C 184.831,95.5277 184.498,103.528 183.5,111.5C 182.526,109.257 182.192,106.924 182.5,104.5C 174.648,104.175 166.982,104.508 159.5,105.5 Z"/></g>
<g><path style="opacity:1" fill="#b9c7e2" d="M 159.5,105.5 C 166.833,105.5 174.167,105.5 181.5,105.5C 181.737,106.791 181.404,107.791 180.5,108.5C 176.217,107.173 171.551,106.507 166.5,106.5C 161.449,106.507 156.783,107.173 152.5,108.5C 151.596,107.791 151.263,106.791 151.5,105.5C 154.167,105.5 156.833,105.5 159.5,105.5 Z"/></g>
<g><path style="opacity:1" fill="#fcfdfe" d="M 180.5,108.5 C 171.167,108.5 161.833,108.5 152.5,108.5C 156.783,107.173 161.449,106.507 166.5,106.5C 171.551,106.507 176.217,107.173 180.5,108.5 Z"/></g>
<g><path style="opacity:1" fill="#3b669a" d="M 152.5,98.5 C 161.991,97.342 171.658,97.1754 181.5,98C 182.38,99.3561 182.714,100.856 182.5,102.5C 173.318,102.827 164.318,102.493 155.5,101.5C 163.833,101.5 172.167,101.5 180.5,101.5C 180.5,100.5 180.5,99.5 180.5,98.5C 171.167,98.5 161.833,98.5 152.5,98.5 Z"/></g>
<g><path style="opacity:1" fill="#f7fefe" d="M 152.5,98.5 C 161.833,98.5 171.167,98.5 180.5,98.5C 180.5,99.5 180.5,100.5 180.5,101.5C 172.167,101.5 163.833,101.5 155.5,101.5C 154.5,101.5 153.5,101.5 152.5,101.5C 152.5,100.5 152.5,99.5 152.5,98.5 Z"/></g>
<g><path style="opacity:1" fill="#839cc5" d="M 180.5,91.5 C 182.048,91.8212 182.715,92.8212 182.5,94.5C 175.5,94.5 168.5,94.5 161.5,94.5C 161.5,94.1667 161.5,93.8333 161.5,93.5C 168.255,94.1229 174.588,93.4563 180.5,91.5 Z"/></g>
<g><path style="opacity:1" fill="#a0bfe8" d="M 152.5,89.5 C 154.265,88.5386 156.265,88.2053 158.5,88.5C 158.795,90.7354 158.461,92.7354 157.5,94.5C 157.5,92.8333 157.5,91.1667 157.5,89.5C 155.833,89.5 154.167,89.5 152.5,89.5 Z"/></g>
<g><path style="opacity:1" fill="#f8fefe" d="M 180.5,91.5 C 174.588,93.4563 168.255,94.1229 161.5,93.5C 167.412,91.5437 173.745,90.8771 180.5,91.5 Z"/></g>
<g><path style="opacity:1" fill="#f6fdfc" d="M 152.5,89.5 C 154.167,89.5 155.833,89.5 157.5,89.5C 157.5,91.1667 157.5,92.8333 157.5,94.5C 155.833,94.5 154.167,94.5 152.5,94.5C 152.5,92.8333 152.5,91.1667 152.5,89.5 Z"/></g>
<g><path style="opacity:1" fill="#3b79b8" d="M 85.5,106.5 C 90.8333,106.5 96.1667,106.5 101.5,106.5C 101.5,107.5 101.5,108.5 101.5,109.5C 96.1667,115.5 90.5,121.167 84.5,126.5C 84.5,125.5 84.5,124.5 84.5,123.5C 77.6457,123.824 70.979,123.491 64.5,122.5C 71.5,122.5 78.5,122.5 85.5,122.5C 85.5,117.167 85.5,111.833 85.5,106.5 Z"/></g>
<g><path style="opacity:1" fill="#39649d" d="M 141.5,83.5 C 157.325,82.5036 173.325,82.1703 189.5,82.5C 189.649,94.3228 189.649,105.99 189.5,117.5C 181.366,116.88 173.199,116.547 165,116.5C 157.334,116.534 149.834,117.201 142.5,118.5C 141.614,117.675 141.281,116.675 141.5,115.5C 157.167,115.5 172.833,115.5 188.5,115.5C 188.5,104.833 188.5,94.1667 188.5,83.5C 172.833,83.5 157.167,83.5 141.5,83.5 Z"/></g>
<g><path style="opacity:1" fill="#2e69b1" d="M -0.5,114.5 C 0.166667,116.167 0.833333,117.833 1.5,119.5C 10.7403,122.97 20.0736,123.304 29.5,120.5C 29.5,121.5 29.5,122.5 29.5,123.5C 34.3633,123.819 39.03,123.486 43.5,122.5C 44.3705,119.888 45.0372,117.221 45.5,114.5C 51.1749,115.768 56.8416,115.768 62.5,114.5C 62.8023,117.373 63.469,120.039 64.5,122.5C 70.979,123.491 77.6457,123.824 84.5,123.5C 84.5,124.5 84.5,125.5 84.5,126.5C 82.1667,129.5 79.5,132.167 76.5,134.5C 50.8779,135.482 25.2113,135.815 -0.5,135.5C -0.5,128.5 -0.5,121.5 -0.5,114.5 Z"/></g>
<g><path style="opacity:1" fill="#95a5ce" d="M 43.5,122.5 C 39.03,123.486 34.3633,123.819 29.5,123.5C 29.5,122.5 29.5,121.5 29.5,120.5C 31.2962,119.234 31.6295,119.568 30.5,121.5C 34.7828,122.492 39.1161,122.826 43.5,122.5 Z"/></g>
<g><path style="opacity:1" fill="#3b6298" d="M 76.5,134.5 C 76.3893,135.117 76.056,135.617 75.5,136C 50.1689,136.5 24.8355,136.667 -0.5,136.5C -0.5,136.167 -0.5,135.833 -0.5,135.5C 25.2113,135.815 50.8779,135.482 76.5,134.5 Z"/></g>
<g><path style="opacity:1" fill="#3b6394" d="M 82.5,134.5 C 121.33,135.499 160.33,135.832 199.5,135.5C 199.5,135.833 199.5,136.167 199.5,136.5C 159.832,136.667 120.165,136.5 80.5,136C 81.0442,135.283 81.7109,134.783 82.5,134.5 Z"/></g>
<g><path style="opacity:1" fill="#fefefe" d="M 199.5,137.5 C 199.5,158.167 199.5,178.833 199.5,199.5C 132.833,199.5 66.1667,199.5 -0.5,199.5C -0.5,178.833 -0.5,158.167 -0.5,137.5C 65.7681,137.98 132.435,137.98 199.5,137.5 Z"/></g>
</svg>
